<svg xmlns="http://www.w3.org/2000/svg" xmlns:xlink="http://www.w3.org/1999/xlink" width="1024" zoomAndPan="magnify" viewBox="0 0 768 767.999994" height="1024" preserveAspectRatio="xMidYMid meet" version="1.0"><defs><clipPath id="677d32d38f"><path d="M 14.828125 0 L 753.171875 0 L 753.171875 767.1875 L 14.828125 767.1875 Z M 14.828125 0 " clip-rule="nonzero"/></clipPath><clipPath id="6426a184d1"><path d="M 617.417969 768 L 150.582031 768 C 75.777344 768 14.828125 707.046875 14.828125 632.242188 L 14.828125 135.757812 C 14.828125 60.953125 75.777344 0 150.582031 0 L 617.417969 0 C 692.222656 0 753.171875 60.953125 753.171875 135.757812 L 753.171875 632.242188 C 753.171875 707.046875 692.222656 768 617.417969 768 Z M 617.417969 768 " clip-rule="nonzero"/></clipPath><linearGradient x1="-0.000000110185" gradientTransform="matrix(2.884164, 0, 0, 2.884164, 14.826985, -0.00108)" y1="133.141006" x2="255.999981" gradientUnits="userSpaceOnUse" y2="133.141006" id="474de2f12e"><stop stop-opacity="1" stop-color="rgb(0%, 0%, 0%)" offset="0"/><stop stop-opacity="1" stop-color="rgb(0.305176%, 0.221252%, 0.0335693%)" offset="0.00390625"/><stop stop-opacity="1" stop-color="rgb(0.611877%, 0.444031%, 0.0671387%)" offset="0.0078125"/><stop stop-opacity="1" stop-color="rgb(0.917053%, 0.665283%, 0.100708%)" offset="0.0117187"/><stop stop-opacity="1" stop-color="rgb(1.223755%, 0.888062%, 0.134277%)" offset="0.015625"/><stop stop-opacity="1" stop-color="rgb(1.530457%, 1.109314%, 0.167847%)" offset="0.0195312"/><stop stop-opacity="1" stop-color="rgb(1.837158%, 1.332092%, 0.201416%)" offset="0.0234375"/><stop stop-opacity="1" stop-color="rgb(2.142334%, 1.554871%, 0.234985%)" offset="0.0273437"/><stop stop-opacity="1" stop-color="rgb(2.449036%, 1.777649%, 0.268555%)" offset="0.03125"/><stop stop-opacity="1" stop-color="rgb(2.755737%, 1.998901%, 0.302124%)" offset="0.0351562"/><stop stop-opacity="1" stop-color="rgb(3.062439%, 2.22168%, 0.335693%)" offset="0.0390625"/><stop stop-opacity="1" stop-color="rgb(3.367615%, 2.442932%, 0.369263%)" offset="0.0429687"/><stop stop-opacity="1" stop-color="rgb(3.674316%, 2.66571%, 0.402832%)" offset="0.046875"/><stop stop-opacity="1" stop-color="rgb(3.979492%, 2.888489%, 0.436401%)" offset="0.0507812"/><stop stop-opacity="1" stop-color="rgb(4.286194%, 3.111267%, 0.469971%)" offset="0.0546875"/><stop stop-opacity="1" stop-color="rgb(4.592896%, 3.33252%, 0.50354%)" offset="0.0585938"/><stop stop-opacity="1" stop-color="rgb(4.899597%, 3.555298%, 0.537109%)" offset="0.0625"/><stop stop-opacity="1" stop-color="rgb(5.204773%, 3.77655%, 0.570679%)" offset="0.0664062"/><stop stop-opacity="1" stop-color="rgb(5.511475%, 3.999329%, 0.604248%)" offset="0.0703125"/><stop stop-opacity="1" stop-color="rgb(5.818176%, 4.222107%, 0.637817%)" offset="0.0742187"/><stop stop-opacity="1" stop-color="rgb(6.124878%, 4.444885%, 0.671387%)" offset="0.078125"/><stop stop-opacity="1" stop-color="rgb(6.430054%, 4.666138%, 0.704956%)" offset="0.0820312"/><stop stop-opacity="1" stop-color="rgb(6.736755%, 4.888916%, 0.738525%)" offset="0.0859375"/><stop stop-opacity="1" stop-color="rgb(7.041931%, 5.110168%, 0.772095%)" offset="0.0898437"/><stop stop-opacity="1" stop-color="rgb(7.348633%, 5.332947%, 0.805664%)" offset="0.09375"/><stop stop-opacity="1" stop-color="rgb(7.655334%, 5.555725%, 0.839233%)" offset="0.0976562"/><stop stop-opacity="1" stop-color="rgb(7.962036%, 5.778503%, 0.872803%)" offset="0.101562"/><stop stop-opacity="1" stop-color="rgb(8.267212%, 5.999756%, 0.906372%)" offset="0.105469"/><stop stop-opacity="1" stop-color="rgb(8.573914%, 6.222534%, 0.939941%)" offset="0.109375"/><stop stop-opacity="1" stop-color="rgb(8.880615%, 6.443787%, 0.973511%)" offset="0.113281"/><stop stop-opacity="1" stop-color="rgb(9.187317%, 6.666565%, 1.00708%)" offset="0.117188"/><stop stop-opacity="1" stop-color="rgb(9.492493%, 6.889343%, 1.040649%)" offset="0.121094"/><stop stop-opacity="1" stop-color="rgb(9.799194%, 7.112122%, 1.074219%)" offset="0.125"/><stop stop-opacity="1" stop-color="rgb(10.10437%, 7.333374%, 1.107788%)" offset="0.128906"/><stop stop-opacity="1" stop-color="rgb(10.411072%, 7.556152%, 1.141357%)" offset="0.132812"/><stop stop-opacity="1" stop-color="rgb(10.717773%, 7.777405%, 1.174927%)" offset="0.136719"/><stop stop-opacity="1" stop-color="rgb(11.024475%, 8.000183%, 1.208496%)" offset="0.140625"/><stop stop-opacity="1" stop-color="rgb(11.329651%, 8.222961%, 1.242065%)" offset="0.144531"/><stop stop-opacity="1" stop-color="rgb(11.636353%, 8.44574%, 1.275635%)" offset="0.148437"/><stop stop-opacity="1" stop-color="rgb(11.943054%, 8.666992%, 1.309204%)" offset="0.152344"/><stop stop-opacity="1" stop-color="rgb(12.249756%, 8.889771%, 1.342773%)" offset="0.15625"/><stop stop-opacity="1" stop-color="rgb(12.554932%, 9.111023%, 1.376343%)" offset="0.160156"/><stop stop-opacity="1" stop-color="rgb(12.861633%, 9.333801%, 1.409912%)" offset="0.164062"/><stop stop-opacity="1" stop-color="rgb(13.166809%, 9.55658%, 1.443481%)" offset="0.167969"/><stop stop-opacity="1" stop-color="rgb(13.473511%, 9.779358%, 1.477051%)" offset="0.171875"/><stop stop-opacity="1" stop-color="rgb(13.780212%, 10.00061%, 1.51062%)" offset="0.175781"/><stop stop-opacity="1" stop-color="rgb(14.086914%, 10.223389%, 1.544189%)" offset="0.179687"/><stop stop-opacity="1" stop-color="rgb(14.39209%, 10.444641%, 1.577759%)" offset="0.183594"/><stop stop-opacity="1" stop-color="rgb(14.698792%, 10.667419%, 1.611328%)" offset="0.1875"/><stop stop-opacity="1" stop-color="rgb(15.005493%, 10.890198%, 1.644897%)" offset="0.191406"/><stop stop-opacity="1" stop-color="rgb(15.312195%, 11.112976%, 1.678467%)" offset="0.195312"/><stop stop-opacity="1" stop-color="rgb(15.617371%, 11.334229%, 1.712036%)" offset="0.199219"/><stop stop-opacity="1" stop-color="rgb(15.924072%, 11.557007%, 1.745605%)" offset="0.203125"/><stop stop-opacity="1" stop-color="rgb(16.230774%, 11.778259%, 1.779175%)" offset="0.207031"/><stop stop-opacity="1" stop-color="rgb(16.537476%, 12.001038%, 1.812744%)" offset="0.210937"/><stop stop-opacity="1" stop-color="rgb(16.842651%, 12.223816%, 1.846313%)" offset="0.214844"/><stop stop-opacity="1" stop-color="rgb(17.149353%, 12.446594%, 1.879883%)" offset="0.21875"/><stop stop-opacity="1" stop-color="rgb(17.454529%, 12.667847%, 1.913452%)" offset="0.222656"/><stop stop-opacity="1" stop-color="rgb(17.76123%, 12.890625%, 1.947021%)" offset="0.226562"/><stop stop-opacity="1" stop-color="rgb(18.067932%, 13.111877%, 1.980591%)" offset="0.230469"/><stop stop-opacity="1" stop-color="rgb(18.374634%, 13.334656%, 2.01416%)" offset="0.234375"/><stop stop-opacity="1" stop-color="rgb(18.67981%, 13.557434%, 2.047729%)" offset="0.238281"/><stop stop-opacity="1" stop-color="rgb(18.986511%, 13.780212%, 2.081299%)" offset="0.242187"/><stop stop-opacity="1" stop-color="rgb(19.293213%, 14.001465%, 2.114868%)" offset="0.246094"/><stop stop-opacity="1" stop-color="rgb(19.599915%, 14.224243%, 2.149963%)" offset="0.25"/><stop stop-opacity="1" stop-color="rgb(19.90509%, 14.445496%, 2.183533%)" offset="0.253906"/><stop stop-opacity="1" stop-color="rgb(20.211792%, 14.668274%, 2.217102%)" offset="0.257813"/><stop stop-opacity="1" stop-color="rgb(20.516968%, 14.891052%, 2.250671%)" offset="0.261719"/><stop stop-opacity="1" stop-color="rgb(20.823669%, 15.113831%, 2.284241%)" offset="0.265625"/><stop stop-opacity="1" stop-color="rgb(21.130371%, 15.335083%, 2.31781%)" offset="0.269531"/><stop stop-opacity="1" stop-color="rgb(21.437073%, 15.557861%, 2.351379%)" offset="0.273438"/><stop stop-opacity="1" stop-color="rgb(21.742249%, 15.779114%, 2.384949%)" offset="0.277344"/><stop stop-opacity="1" stop-color="rgb(22.04895%, 16.001892%, 2.418518%)" offset="0.28125"/><stop stop-opacity="1" stop-color="rgb(22.355652%, 16.22467%, 2.452087%)" offset="0.285156"/><stop stop-opacity="1" stop-color="rgb(22.662354%, 16.447449%, 2.485657%)" offset="0.289063"/><stop stop-opacity="1" stop-color="rgb(22.967529%, 16.668701%, 2.519226%)" offset="0.292969"/><stop stop-opacity="1" stop-color="rgb(23.274231%, 16.891479%, 2.552795%)" offset="0.296875"/><stop stop-opacity="1" stop-color="rgb(23.579407%, 17.112732%, 2.586365%)" offset="0.300781"/><stop stop-opacity="1" stop-color="rgb(23.886108%, 17.33551%, 2.619934%)" offset="0.304688"/><stop stop-opacity="1" stop-color="rgb(24.19281%, 17.558289%, 2.653503%)" offset="0.308594"/><stop stop-opacity="1" stop-color="rgb(24.499512%, 17.781067%, 2.687073%)" offset="0.3125"/><stop stop-opacity="1" stop-color="rgb(24.804688%, 18.002319%, 2.720642%)" offset="0.316406"/><stop stop-opacity="1" stop-color="rgb(25.111389%, 18.225098%, 2.754211%)" offset="0.320313"/><stop stop-opacity="1" stop-color="rgb(25.418091%, 18.44635%, 2.787781%)" offset="0.324219"/><stop stop-opacity="1" stop-color="rgb(25.724792%, 18.669128%, 2.82135%)" offset="0.328125"/><stop stop-opacity="1" stop-color="rgb(26.029968%, 18.891907%, 2.854919%)" offset="0.332031"/><stop stop-opacity="1" stop-color="rgb(26.33667%, 19.114685%, 2.888489%)" offset="0.335938"/><stop stop-opacity="1" stop-color="rgb(26.641846%, 19.335938%, 2.922058%)" offset="0.339844"/><stop stop-opacity="1" stop-color="rgb(26.948547%, 19.558716%, 2.955627%)" offset="0.34375"/><stop stop-opacity="1" stop-color="rgb(27.255249%, 19.779968%, 2.989197%)" offset="0.347656"/><stop stop-opacity="1" stop-color="rgb(27.561951%, 20.002747%, 3.022766%)" offset="0.351562"/><stop stop-opacity="1" stop-color="rgb(27.867126%, 20.225525%, 3.056335%)" offset="0.355469"/><stop stop-opacity="1" stop-color="rgb(28.173828%, 20.448303%, 3.089905%)" offset="0.359375"/><stop stop-opacity="1" stop-color="rgb(28.48053%, 20.669556%, 3.123474%)" offset="0.363281"/><stop stop-opacity="1" stop-color="rgb(28.787231%, 20.892334%, 3.157043%)" offset="0.367188"/><stop stop-opacity="1" stop-color="rgb(29.092407%, 21.113586%, 3.190613%)" offset="0.371094"/><stop stop-opacity="1" stop-color="rgb(29.399109%, 21.336365%, 3.224182%)" offset="0.375"/><stop stop-opacity="1" stop-color="rgb(29.704285%, 21.559143%, 3.257751%)" offset="0.378906"/><stop stop-opacity="1" stop-color="rgb(30.010986%, 21.781921%, 3.291321%)" offset="0.382812"/><stop stop-opacity="1" stop-color="rgb(30.317688%, 22.003174%, 3.32489%)" offset="0.386719"/><stop stop-opacity="1" stop-color="rgb(30.62439%, 22.225952%, 3.358459%)" offset="0.390625"/><stop stop-opacity="1" stop-color="rgb(30.929565%, 22.447205%, 3.392029%)" offset="0.394531"/><stop stop-opacity="1" stop-color="rgb(31.236267%, 22.669983%, 3.425598%)" offset="0.398437"/><stop stop-opacity="1" stop-color="rgb(31.542969%, 22.892761%, 3.459167%)" offset="0.402344"/><stop stop-opacity="1" stop-color="rgb(31.84967%, 23.11554%, 3.492737%)" offset="0.40625"/><stop stop-opacity="1" stop-color="rgb(32.154846%, 23.336792%, 3.526306%)" offset="0.410156"/><stop stop-opacity="1" stop-color="rgb(32.461548%, 23.55957%, 3.559875%)" offset="0.414062"/><stop stop-opacity="1" stop-color="rgb(32.76825%, 23.780823%, 3.593445%)" offset="0.417969"/><stop stop-opacity="1" stop-color="rgb(33.074951%, 24.003601%, 3.627014%)" offset="0.421875"/><stop stop-opacity="1" stop-color="rgb(33.380127%, 24.226379%, 3.660583%)" offset="0.425781"/><stop stop-opacity="1" stop-color="rgb(33.686829%, 24.449158%, 3.694153%)" offset="0.429687"/><stop stop-opacity="1" stop-color="rgb(33.992004%, 24.67041%, 3.727722%)" offset="0.433594"/><stop stop-opacity="1" stop-color="rgb(34.298706%, 24.893188%, 3.761292%)" offset="0.4375"/><stop stop-opacity="1" stop-color="rgb(34.605408%, 25.114441%, 3.794861%)" offset="0.441406"/><stop stop-opacity="1" stop-color="rgb(34.912109%, 25.337219%, 3.82843%)" offset="0.445312"/><stop stop-opacity="1" stop-color="rgb(35.217285%, 25.559998%, 3.862%)" offset="0.449219"/><stop stop-opacity="1" stop-color="rgb(35.523987%, 25.782776%, 3.895569%)" offset="0.453125"/><stop stop-opacity="1" stop-color="rgb(35.830688%, 26.004028%, 3.929138%)" offset="0.457031"/><stop stop-opacity="1" stop-color="rgb(36.13739%, 26.226807%, 3.962708%)" offset="0.460937"/><stop stop-opacity="1" stop-color="rgb(36.442566%, 26.448059%, 3.996277%)" offset="0.464844"/><stop stop-opacity="1" stop-color="rgb(36.749268%, 26.670837%, 4.029846%)" offset="0.46875"/><stop stop-opacity="1" stop-color="rgb(37.054443%, 26.893616%, 4.063416%)" offset="0.472656"/><stop stop-opacity="1" stop-color="rgb(37.361145%, 27.116394%, 4.096985%)" offset="0.476562"/><stop stop-opacity="1" stop-color="rgb(37.667847%, 27.337646%, 4.130554%)" offset="0.480469"/><stop stop-opacity="1" stop-color="rgb(37.974548%, 27.560425%, 4.164124%)" offset="0.484375"/><stop stop-opacity="1" stop-color="rgb(38.279724%, 27.781677%, 4.197693%)" offset="0.488281"/><stop stop-opacity="1" stop-color="rgb(38.586426%, 28.004456%, 4.232788%)" offset="0.492187"/><stop stop-opacity="1" stop-color="rgb(38.893127%, 28.225708%, 4.266357%)" offset="0.496094"/><stop stop-opacity="1" stop-color="rgb(39.199829%, 28.448486%, 4.299927%)" offset="0.5"/><stop stop-opacity="1" stop-color="rgb(39.505005%, 28.671265%, 4.333496%)" offset="0.503906"/><stop stop-opacity="1" stop-color="rgb(39.811707%, 28.894043%, 4.367065%)" offset="0.507812"/><stop stop-opacity="1" stop-color="rgb(40.116882%, 29.115295%, 4.400635%)" offset="0.511719"/><stop stop-opacity="1" stop-color="rgb(40.423584%, 29.338074%, 4.434204%)" offset="0.515625"/><stop stop-opacity="1" stop-color="rgb(40.730286%, 29.559326%, 4.467773%)" offset="0.519531"/><stop stop-opacity="1" stop-color="rgb(41.036987%, 29.782104%, 4.501343%)" offset="0.523438"/><stop stop-opacity="1" stop-color="rgb(41.342163%, 30.004883%, 4.534912%)" offset="0.527344"/><stop stop-opacity="1" stop-color="rgb(41.648865%, 30.227661%, 4.568481%)" offset="0.53125"/><stop stop-opacity="1" stop-color="rgb(41.955566%, 30.448914%, 4.602051%)" offset="0.535156"/><stop stop-opacity="1" stop-color="rgb(42.262268%, 30.671692%, 4.63562%)" offset="0.539062"/><stop stop-opacity="1" stop-color="rgb(42.567444%, 30.892944%, 4.669189%)" offset="0.542969"/><stop stop-opacity="1" stop-color="rgb(42.874146%, 31.115723%, 4.702759%)" offset="0.546875"/><stop stop-opacity="1" stop-color="rgb(43.179321%, 31.338501%, 4.736328%)" offset="0.550781"/><stop stop-opacity="1" stop-color="rgb(43.486023%, 31.561279%, 4.769897%)" offset="0.554688"/><stop stop-opacity="1" stop-color="rgb(43.792725%, 31.782532%, 4.803467%)" offset="0.558594"/><stop stop-opacity="1" stop-color="rgb(44.099426%, 32.00531%, 4.837036%)" offset="0.5625"/><stop stop-opacity="1" stop-color="rgb(44.404602%, 32.226562%, 4.870605%)" offset="0.566406"/><stop stop-opacity="1" stop-color="rgb(44.711304%, 32.449341%, 4.904175%)" offset="0.570313"/><stop stop-opacity="1" stop-color="rgb(45.018005%, 32.672119%, 4.937744%)" offset="0.574219"/><stop stop-opacity="1" stop-color="rgb(45.324707%, 32.894897%, 4.971313%)" offset="0.578125"/><stop stop-opacity="1" stop-color="rgb(45.629883%, 33.11615%, 5.004883%)" offset="0.582031"/><stop stop-opacity="1" stop-color="rgb(45.936584%, 33.338928%, 5.038452%)" offset="0.585938"/><stop stop-opacity="1" stop-color="rgb(46.243286%, 33.560181%, 5.072021%)" offset="0.589844"/><stop stop-opacity="1" stop-color="rgb(46.549988%, 33.782959%, 5.105591%)" offset="0.59375"/><stop stop-opacity="1" stop-color="rgb(46.855164%, 34.005737%, 5.13916%)" offset="0.597656"/><stop stop-opacity="1" stop-color="rgb(47.161865%, 34.228516%, 5.172729%)" offset="0.601563"/><stop stop-opacity="1" stop-color="rgb(47.467041%, 34.449768%, 5.206299%)" offset="0.605469"/><stop stop-opacity="1" stop-color="rgb(47.773743%, 34.672546%, 5.239868%)" offset="0.609375"/><stop stop-opacity="1" stop-color="rgb(48.080444%, 34.893799%, 5.273438%)" offset="0.613281"/><stop stop-opacity="1" stop-color="rgb(48.387146%, 35.116577%, 5.307007%)" offset="0.617188"/><stop stop-opacity="1" stop-color="rgb(48.692322%, 35.339355%, 5.340576%)" offset="0.621094"/><stop stop-opacity="1" stop-color="rgb(48.999023%, 35.562134%, 5.374146%)" offset="0.625"/><stop stop-opacity="1" stop-color="rgb(49.305725%, 35.783386%, 5.407715%)" offset="0.628906"/><stop stop-opacity="1" stop-color="rgb(49.612427%, 36.006165%, 5.441284%)" offset="0.632813"/><stop stop-opacity="1" stop-color="rgb(49.917603%, 36.227417%, 5.474854%)" offset="0.636719"/><stop stop-opacity="1" stop-color="rgb(50.224304%, 36.450195%, 5.508423%)" offset="0.640625"/><stop stop-opacity="1" stop-color="rgb(50.52948%, 36.672974%, 5.541992%)" offset="0.644531"/><stop stop-opacity="1" stop-color="rgb(50.836182%, 36.895752%, 5.575562%)" offset="0.648438"/><stop stop-opacity="1" stop-color="rgb(51.142883%, 37.117004%, 5.609131%)" offset="0.652344"/><stop stop-opacity="1" stop-color="rgb(51.449585%, 37.339783%, 5.6427%)" offset="0.65625"/><stop stop-opacity="1" stop-color="rgb(51.754761%, 37.561035%, 5.67627%)" offset="0.660156"/><stop stop-opacity="1" stop-color="rgb(52.061462%, 37.783813%, 5.709839%)" offset="0.664063"/><stop stop-opacity="1" stop-color="rgb(52.368164%, 38.006592%, 5.743408%)" offset="0.667969"/><stop stop-opacity="1" stop-color="rgb(52.674866%, 38.22937%, 5.776978%)" offset="0.671875"/><stop stop-opacity="1" stop-color="rgb(52.980042%, 38.450623%, 5.810547%)" offset="0.675781"/><stop stop-opacity="1" stop-color="rgb(53.286743%, 38.673401%, 5.844116%)" offset="0.679688"/><stop stop-opacity="1" stop-color="rgb(53.591919%, 38.894653%, 5.877686%)" offset="0.683594"/><stop stop-opacity="1" stop-color="rgb(53.898621%, 39.117432%, 5.911255%)" offset="0.6875"/><stop stop-opacity="1" stop-color="rgb(54.205322%, 39.34021%, 5.944824%)" offset="0.691406"/><stop stop-opacity="1" stop-color="rgb(54.512024%, 39.562988%, 5.978394%)" offset="0.695312"/><stop stop-opacity="1" stop-color="rgb(54.8172%, 39.784241%, 6.011963%)" offset="0.699219"/><stop stop-opacity="1" stop-color="rgb(55.123901%, 40.007019%, 6.045532%)" offset="0.703125"/><stop stop-opacity="1" stop-color="rgb(55.430603%, 40.228271%, 6.079102%)" offset="0.707031"/><stop stop-opacity="1" stop-color="rgb(55.737305%, 40.45105%, 6.112671%)" offset="0.710938"/><stop stop-opacity="1" stop-color="rgb(56.04248%, 40.673828%, 6.14624%)" offset="0.714844"/><stop stop-opacity="1" stop-color="rgb(56.349182%, 40.896606%, 6.17981%)" offset="0.71875"/><stop stop-opacity="1" stop-color="rgb(56.654358%, 41.117859%, 6.213379%)" offset="0.722656"/><stop stop-opacity="1" stop-color="rgb(56.96106%, 41.340637%, 6.246948%)" offset="0.726562"/><stop stop-opacity="1" stop-color="rgb(57.267761%, 41.56189%, 6.280518%)" offset="0.730469"/><stop stop-opacity="1" stop-color="rgb(57.574463%, 41.784668%, 6.315613%)" offset="0.734375"/><stop stop-opacity="1" stop-color="rgb(57.879639%, 42.007446%, 6.349182%)" offset="0.738281"/><stop stop-opacity="1" stop-color="rgb(58.18634%, 42.230225%, 6.382751%)" offset="0.742188"/><stop stop-opacity="1" stop-color="rgb(58.493042%, 42.451477%, 6.416321%)" offset="0.746094"/><stop stop-opacity="1" stop-color="rgb(58.799744%, 42.674255%, 6.44989%)" offset="0.75"/><stop stop-opacity="1" stop-color="rgb(59.104919%, 42.895508%, 6.483459%)" offset="0.753906"/><stop stop-opacity="1" stop-color="rgb(59.411621%, 43.118286%, 6.517029%)" offset="0.757812"/><stop stop-opacity="1" stop-color="rgb(59.716797%, 43.341064%, 6.550598%)" offset="0.761719"/><stop stop-opacity="1" stop-color="rgb(60.023499%, 43.563843%, 6.584167%)" offset="0.765625"/><stop stop-opacity="1" stop-color="rgb(60.3302%, 43.785095%, 6.617737%)" offset="0.769531"/><stop stop-opacity="1" stop-color="rgb(60.636902%, 44.007874%, 6.651306%)" offset="0.773438"/><stop stop-opacity="1" stop-color="rgb(60.942078%, 44.229126%, 6.684875%)" offset="0.777344"/><stop stop-opacity="1" stop-color="rgb(61.248779%, 44.451904%, 6.718445%)" offset="0.78125"/><stop stop-opacity="1" stop-color="rgb(61.555481%, 44.674683%, 6.752014%)" offset="0.785156"/><stop stop-opacity="1" stop-color="rgb(61.862183%, 44.897461%, 6.785583%)" offset="0.789062"/><stop stop-opacity="1" stop-color="rgb(62.167358%, 45.118713%, 6.819153%)" offset="0.792969"/><stop stop-opacity="1" stop-color="rgb(62.47406%, 45.341492%, 6.852722%)" offset="0.796875"/><stop stop-opacity="1" stop-color="rgb(62.780762%, 45.562744%, 6.886292%)" offset="0.800781"/><stop stop-opacity="1" stop-color="rgb(63.087463%, 45.785522%, 6.919861%)" offset="0.804688"/><stop stop-opacity="1" stop-color="rgb(63.392639%, 46.008301%, 6.95343%)" offset="0.808594"/><stop stop-opacity="1" stop-color="rgb(63.699341%, 46.231079%, 6.987%)" offset="0.8125"/><stop stop-opacity="1" stop-color="rgb(64.004517%, 46.452332%, 7.020569%)" offset="0.816406"/><stop stop-opacity="1" stop-color="rgb(64.311218%, 46.67511%, 7.054138%)" offset="0.820312"/><stop stop-opacity="1" stop-color="rgb(64.61792%, 46.896362%, 7.087708%)" offset="0.824219"/><stop stop-opacity="1" stop-color="rgb(64.924622%, 47.119141%, 7.121277%)" offset="0.828125"/><stop stop-opacity="1" stop-color="rgb(65.229797%, 47.341919%, 7.154846%)" offset="0.832031"/><stop stop-opacity="1" stop-color="rgb(65.536499%, 47.564697%, 7.188416%)" offset="0.835937"/><stop stop-opacity="1" stop-color="rgb(65.843201%, 47.78595%, 7.221985%)" offset="0.839844"/><stop stop-opacity="1" stop-color="rgb(66.149902%, 48.008728%, 7.255554%)" offset="0.84375"/><stop stop-opacity="1" stop-color="rgb(66.455078%, 48.22998%, 7.289124%)" offset="0.847656"/><stop stop-opacity="1" stop-color="rgb(66.76178%, 48.452759%, 7.322693%)" offset="0.851562"/><stop stop-opacity="1" stop-color="rgb(67.066956%, 48.675537%, 7.356262%)" offset="0.855469"/><stop stop-opacity="1" stop-color="rgb(67.373657%, 48.898315%, 7.389832%)" offset="0.859375"/><stop stop-opacity="1" stop-color="rgb(67.680359%, 49.119568%, 7.423401%)" offset="0.863281"/><stop stop-opacity="1" stop-color="rgb(67.987061%, 49.342346%, 7.45697%)" offset="0.867187"/><stop stop-opacity="1" stop-color="rgb(68.292236%, 49.563599%, 7.49054%)" offset="0.871094"/><stop stop-opacity="1" stop-color="rgb(68.598938%, 49.786377%, 7.524109%)" offset="0.875"/><stop stop-opacity="1" stop-color="rgb(68.90564%, 50.009155%, 7.557678%)" offset="0.878906"/><stop stop-opacity="1" stop-color="rgb(69.212341%, 50.231934%, 7.591248%)" offset="0.882812"/><stop stop-opacity="1" stop-color="rgb(69.517517%, 50.453186%, 7.624817%)" offset="0.886719"/><stop stop-opacity="1" stop-color="rgb(69.824219%, 50.675964%, 7.658386%)" offset="0.890625"/><stop stop-opacity="1" stop-color="rgb(70.129395%, 50.897217%, 7.691956%)" offset="0.894531"/><stop stop-opacity="1" stop-color="rgb(70.436096%, 51.119995%, 7.725525%)" offset="0.898437"/><stop stop-opacity="1" stop-color="rgb(70.742798%, 51.342773%, 7.759094%)" offset="0.902344"/><stop stop-opacity="1" stop-color="rgb(71.0495%, 51.565552%, 7.792664%)" offset="0.90625"/><stop stop-opacity="1" stop-color="rgb(71.354675%, 51.786804%, 7.826233%)" offset="0.910156"/><stop stop-opacity="1" stop-color="rgb(71.661377%, 52.009583%, 7.859802%)" offset="0.914062"/><stop stop-opacity="1" stop-color="rgb(71.968079%, 52.230835%, 7.893372%)" offset="0.917969"/><stop stop-opacity="1" stop-color="rgb(72.27478%, 52.453613%, 7.926941%)" offset="0.921875"/><stop stop-opacity="1" stop-color="rgb(72.579956%, 52.676392%, 7.96051%)" offset="0.925781"/><stop stop-opacity="1" stop-color="rgb(72.886658%, 52.89917%, 7.99408%)" offset="0.929687"/><stop stop-opacity="1" stop-color="rgb(73.191833%, 53.120422%, 8.027649%)" offset="0.933594"/><stop stop-opacity="1" stop-color="rgb(73.498535%, 53.343201%, 8.061218%)" offset="0.9375"/><stop stop-opacity="1" stop-color="rgb(73.805237%, 53.564453%, 8.094788%)" offset="0.941406"/><stop stop-opacity="1" stop-color="rgb(74.111938%, 53.787231%, 8.128357%)" offset="0.945312"/><stop stop-opacity="1" stop-color="rgb(74.417114%, 54.01001%, 8.161926%)" offset="0.949219"/><stop stop-opacity="1" stop-color="rgb(74.723816%, 54.232788%, 8.195496%)" offset="0.953125"/><stop stop-opacity="1" stop-color="rgb(75.030518%, 54.454041%, 8.229065%)" offset="0.957031"/><stop stop-opacity="1" stop-color="rgb(75.337219%, 54.676819%, 8.262634%)" offset="0.960938"/><stop stop-opacity="1" stop-color="rgb(75.642395%, 54.898071%, 8.296204%)" offset="0.964844"/><stop stop-opacity="1" stop-color="rgb(75.949097%, 55.12085%, 8.329773%)" offset="0.96875"/><stop stop-opacity="1" stop-color="rgb(76.254272%, 55.342102%, 8.363342%)" offset="0.972656"/><stop stop-opacity="1" stop-color="rgb(76.560974%, 55.56488%, 8.396912%)" offset="0.976562"/><stop stop-opacity="1" stop-color="rgb(76.867676%, 55.787659%, 8.430481%)" offset="0.980469"/><stop stop-opacity="1" stop-color="rgb(77.174377%, 56.010437%, 8.465576%)" offset="0.984375"/><stop stop-opacity="1" stop-color="rgb(77.479553%, 56.231689%, 8.499146%)" offset="0.988281"/><stop stop-opacity="1" stop-color="rgb(77.786255%, 56.454468%, 8.532715%)" offset="0.992188"/><stop stop-opacity="1" stop-color="rgb(78.092957%, 56.67572%, 8.566284%)" offset="0.996094"/><stop stop-opacity="1" stop-color="rgb(78.399658%, 56.898499%, 8.599854%)" offset="1"/></linearGradient><clipPath id="a3e10231d3"><path d="M 277.824219 325 L 490.074219 325 L 490.074219 537.898438 L 277.824219 537.898438 Z M 277.824219 325 " clip-rule="nonzero"/></clipPath><clipPath id="87a15a06eb"><path d="M 555.511719 76.800781 L 691.261719 76.800781 L 691.261719 212.550781 L 555.511719 212.550781 Z M 555.511719 76.800781 " clip-rule="nonzero"/></clipPath></defs><g clip-path="url(#677d32d38f)"><g clip-path="url(#6426a184d1)"><path fill="url(#474de2f12e)" d="M 14.828125 0 L 14.828125 767.1875 L 753.171875 767.1875 L 753.171875 0 Z M 14.828125 0 " fill-rule="nonzero"/></g></g><path fill="#ffffff" d="M 335.417969 270.386719 C 333.820312 270.386719 332.222656 269.777344 331 268.558594 C 328.5625 266.121094 328.5625 262.164062 331 259.726562 C 360.222656 230.503906 407.769531 230.503906 436.988281 259.726562 C 439.429688 262.164062 439.429688 266.117188 436.988281 268.558594 C 434.550781 270.996094 430.597656 270.996094 428.15625 268.558594 C 403.808594 244.207031 364.183594 244.207031 339.832031 268.558594 C 338.613281 269.777344 337.015625 270.386719 335.417969 270.386719 Z M 335.417969 270.386719 " fill-opacity="1" fill-rule="nonzero"/><path fill="#ffffff" d="M 410.984375 291.976562 C 409.382812 291.976562 407.785156 291.367188 406.566406 290.148438 C 394.121094 277.703125 373.871094 277.703125 361.425781 290.148438 C 358.984375 292.585938 355.03125 292.585938 352.59375 290.148438 C 350.152344 287.710938 350.152344 283.753906 352.59375 281.316406 C 360.980469 272.929688 372.132812 268.308594 383.996094 268.308594 C 395.859375 268.308594 407.011719 272.929688 415.398438 281.316406 C 417.839844 283.753906 417.839844 287.710938 415.398438 290.148438 C 414.179688 291.367188 412.582031 291.976562 410.984375 291.976562 Z M 410.984375 291.976562 " fill-opacity="1" fill-rule="nonzero"/><path fill="#ffffff" d="M 392.828125 310.132812 C 391.230469 310.132812 389.632812 309.523438 388.410156 308.304688 C 385.976562 305.867188 382.015625 305.867188 379.578125 308.304688 C 377.140625 310.742188 373.1875 310.742188 370.746094 308.300781 C 368.308594 305.863281 368.308594 301.910156 370.746094 299.46875 C 378.050781 292.167969 389.9375 292.167969 397.242188 299.46875 C 399.683594 301.910156 399.683594 305.863281 397.246094 308.300781 C 396.023438 309.523438 394.425781 310.132812 392.828125 310.132812 Z M 392.828125 310.132812 " fill-opacity="1" fill-rule="nonzero"/><g clip-path="url(#a3e10231d3)"><path fill="#ffffff" d="M 383.996094 537.554688 C 325.453125 537.554688 277.824219 489.925781 277.824219 431.382812 C 277.824219 372.839844 325.453125 325.210938 383.996094 325.210938 C 442.539062 325.210938 490.167969 372.839844 490.167969 431.382812 C 490.167969 489.925781 442.539062 537.554688 383.996094 537.554688 Z M 383.996094 337.703125 C 332.339844 337.703125 290.316406 379.726562 290.316406 431.382812 C 290.316406 483.039062 332.339844 525.0625 383.996094 525.0625 C 435.652344 525.0625 477.675781 483.039062 477.675781 431.382812 C 477.675781 379.726562 435.652344 337.703125 383.996094 337.703125 Z M 383.996094 337.703125 " fill-opacity="1" fill-rule="nonzero"/></g><path fill="#ffffff" d="M 442.5 484.46875 C 440.671875 484.46875 438.855469 483.667969 437.625 482.128906 C 424.496094 465.753906 404.949219 456.363281 383.996094 456.363281 C 363.042969 456.363281 343.496094 465.753906 330.367188 482.128906 C 328.210938 484.820312 324.28125 485.253906 321.589844 483.097656 C 318.898438 480.9375 318.464844 477.007812 320.621094 474.316406 C 336.132812 454.96875 359.230469 443.875 383.996094 443.875 C 408.757812 443.875 431.859375 454.96875 447.367188 474.316406 C 449.527344 477.007812 449.09375 480.9375 446.402344 483.097656 C 445.25 484.019531 443.871094 484.46875 442.5 484.46875 Z M 442.5 484.46875 " fill-opacity="1" fill-rule="nonzero"/><path fill="#ffffff" d="M 383.996094 456.363281 C 366.777344 456.363281 352.769531 442.355469 352.769531 425.136719 C 352.769531 407.917969 366.777344 393.910156 383.996094 393.910156 C 401.214844 393.910156 415.222656 407.917969 415.222656 425.136719 C 415.222656 442.355469 401.214844 456.363281 383.996094 456.363281 Z M 383.996094 406.402344 C 373.664062 406.402344 365.257812 414.804688 365.257812 425.136719 C 365.257812 435.46875 373.664062 443.875 383.996094 443.875 C 394.328125 443.875 402.730469 435.46875 402.730469 425.136719 C 402.730469 414.804688 394.328125 406.402344 383.996094 406.402344 Z M 383.996094 406.402344 " fill-opacity="1" fill-rule="nonzero"/><path fill="#ffffff" d="M 383.996094 512.574219 C 339.226562 512.574219 302.804688 476.152344 302.804688 431.382812 C 302.804688 386.613281 339.226562 350.191406 383.996094 350.191406 C 428.765625 350.191406 465.1875 386.613281 465.1875 431.382812 C 465.1875 476.152344 428.765625 512.574219 383.996094 512.574219 Z M 383.996094 362.683594 C 346.113281 362.683594 315.296875 393.5 315.296875 431.382812 C 315.296875 469.261719 346.113281 500.082031 383.996094 500.082031 C 421.875 500.082031 452.695312 469.261719 452.695312 431.382812 C 452.695312 393.5 421.875 362.683594 383.996094 362.683594 Z M 383.996094 362.683594 " fill-opacity="1" fill-rule="nonzero"/><g clip-path="url(#87a15a06eb)"><path fill="#28d581" d="M 691.191406 144.640625 C 691.191406 145.75 691.167969 146.859375 691.113281 147.96875 C 691.058594 149.078125 690.976562 150.183594 690.867188 151.289062 C 690.757812 152.394531 690.621094 153.496094 690.460938 154.59375 C 690.296875 155.691406 690.105469 156.785156 689.890625 157.875 C 689.671875 158.964844 689.429688 160.046875 689.160156 161.125 C 688.890625 162.199219 688.59375 163.269531 688.273438 164.332031 C 687.949219 165.394531 687.601562 166.449219 687.226562 167.496094 C 686.855469 168.539062 686.453125 169.574219 686.027344 170.601562 C 685.605469 171.625 685.15625 172.640625 684.679688 173.644531 C 684.207031 174.648438 683.707031 175.640625 683.183594 176.621094 C 682.660156 177.597656 682.113281 178.5625 681.542969 179.515625 C 680.972656 180.46875 680.378906 181.40625 679.761719 182.328125 C 679.144531 183.253906 678.503906 184.160156 677.84375 185.050781 C 677.179688 185.945312 676.5 186.820312 675.792969 187.675781 C 675.089844 188.535156 674.363281 189.375 673.621094 190.199219 C 672.875 191.019531 672.109375 191.824219 671.324219 192.609375 C 670.539062 193.394531 669.734375 194.160156 668.910156 194.90625 C 668.089844 195.652344 667.25 196.375 666.390625 197.082031 C 665.53125 197.785156 664.65625 198.46875 663.765625 199.128906 C 662.875 199.789062 661.964844 200.429688 661.042969 201.046875 C 660.121094 201.664062 659.183594 202.257812 658.230469 202.828125 C 657.277344 203.398438 656.3125 203.945312 655.332031 204.46875 C 654.355469 204.992188 653.363281 205.492188 652.359375 205.964844 C 651.355469 206.441406 650.339844 206.890625 649.316406 207.316406 C 648.289062 207.742188 647.253906 208.140625 646.207031 208.515625 C 645.164062 208.886719 644.109375 209.234375 643.046875 209.558594 C 641.984375 209.878906 640.914062 210.175781 639.835938 210.445312 C 638.761719 210.714844 637.675781 210.960938 636.589844 211.175781 C 635.5 211.394531 634.40625 211.582031 633.308594 211.746094 C 632.210938 211.910156 631.109375 212.042969 630.003906 212.152344 C 628.898438 212.261719 627.792969 212.34375 626.683594 212.398438 C 625.574219 212.453125 624.464844 212.480469 623.351562 212.480469 C 622.242188 212.480469 621.132812 212.453125 620.023438 212.398438 C 618.914062 212.34375 617.808594 212.261719 616.703125 212.152344 C 615.597656 212.042969 614.496094 211.910156 613.398438 211.746094 C 612.300781 211.582031 611.207031 211.394531 610.117188 211.175781 C 609.03125 210.960938 607.945312 210.714844 606.871094 210.445312 C 605.792969 210.175781 604.722656 209.878906 603.660156 209.558594 C 602.597656 209.234375 601.542969 208.886719 600.5 208.515625 C 599.453125 208.140625 598.417969 207.742188 597.390625 207.316406 C 596.367188 206.890625 595.351562 206.441406 594.347656 205.964844 C 593.34375 205.492188 592.351562 204.992188 591.375 204.46875 C 590.394531 203.945312 589.429688 203.398438 588.476562 202.828125 C 587.523438 202.257812 586.585938 201.664062 585.664062 201.046875 C 584.742188 200.429688 583.832031 199.789062 582.941406 199.128906 C 582.050781 198.46875 581.175781 197.785156 580.316406 197.082031 C 579.457031 196.375 578.617188 195.652344 577.796875 194.90625 C 576.972656 194.160156 576.167969 193.394531 575.382812 192.609375 C 574.597656 191.824219 573.832031 191.019531 573.085938 190.199219 C 572.34375 189.375 571.617188 188.535156 570.914062 187.675781 C 570.207031 186.820312 569.523438 185.945312 568.863281 185.050781 C 568.203125 184.160156 567.5625 183.253906 566.945312 182.328125 C 566.328125 181.40625 565.734375 180.46875 565.164062 179.515625 C 564.59375 178.5625 564.046875 177.597656 563.523438 176.621094 C 563 175.640625 562.5 174.648438 562.027344 173.644531 C 561.550781 172.640625 561.101562 171.625 560.675781 170.601562 C 560.253906 169.574219 559.851562 168.539062 559.480469 167.496094 C 559.105469 166.449219 558.757812 165.394531 558.433594 164.332031 C 558.113281 163.269531 557.816406 162.199219 557.546875 161.125 C 557.277344 160.046875 557.035156 158.964844 556.816406 157.875 C 556.601562 156.785156 556.410156 155.691406 556.246094 154.59375 C 556.085938 153.496094 555.949219 152.394531 555.839844 151.289062 C 555.730469 150.183594 555.648438 149.078125 555.59375 147.96875 C 555.539062 146.859375 555.511719 145.75 555.511719 144.640625 C 555.511719 143.53125 555.539062 142.421875 555.59375 141.3125 C 555.648438 140.203125 555.730469 139.09375 555.839844 137.992188 C 555.949219 136.886719 556.085938 135.785156 556.246094 134.6875 C 556.410156 133.585938 556.601562 132.492188 556.816406 131.40625 C 557.035156 130.316406 557.277344 129.234375 557.546875 128.15625 C 557.816406 127.078125 558.113281 126.007812 558.433594 124.945312 C 558.757812 123.882812 559.105469 122.832031 559.480469 121.785156 C 559.851562 120.738281 560.253906 119.703125 560.675781 118.679688 C 561.101562 117.652344 561.550781 116.636719 562.027344 115.632812 C 562.5 114.632812 563 113.640625 563.523438 112.660156 C 564.046875 111.679688 564.59375 110.714844 565.164062 109.761719 C 565.734375 108.8125 566.328125 107.875 566.945312 106.949219 C 567.5625 106.027344 568.203125 105.121094 568.863281 104.226562 C 569.523438 103.335938 570.207031 102.460938 570.914062 101.601562 C 571.617188 100.746094 572.34375 99.902344 573.085938 99.082031 C 573.832031 98.257812 574.597656 97.453125 575.382812 96.667969 C 576.167969 95.886719 576.972656 95.121094 577.796875 94.375 C 578.617188 93.628906 579.457031 92.902344 580.316406 92.199219 C 581.175781 91.496094 582.050781 90.8125 582.941406 90.148438 C 583.832031 89.488281 584.742188 88.851562 585.664062 88.234375 C 586.585938 87.617188 587.523438 87.023438 588.476562 86.453125 C 589.429688 85.882812 590.394531 85.332031 591.375 84.808594 C 592.351562 84.285156 593.34375 83.789062 594.347656 83.3125 C 595.351562 82.839844 596.367188 82.390625 597.390625 81.964844 C 598.417969 81.539062 599.453125 81.140625 600.5 80.765625 C 601.542969 80.390625 602.597656 80.042969 603.660156 79.722656 C 604.722656 79.398438 605.792969 79.101562 606.871094 78.832031 C 607.945312 78.5625 609.03125 78.320312 610.117188 78.105469 C 611.207031 77.886719 612.300781 77.695312 613.398438 77.535156 C 614.496094 77.371094 615.597656 77.234375 616.703125 77.125 C 617.808594 77.019531 618.914062 76.9375 620.023438 76.882812 C 621.132812 76.828125 622.242188 76.800781 623.351562 76.800781 C 624.464844 76.800781 625.574219 76.828125 626.683594 76.882812 C 627.792969 76.9375 628.898438 77.019531 630.003906 77.125 C 631.109375 77.234375 632.210938 77.371094 633.308594 77.535156 C 634.40625 77.695312 635.5 77.886719 636.589844 78.105469 C 637.675781 78.320312 638.761719 78.5625 639.835938 78.832031 C 640.914062 79.101562 641.984375 79.398438 643.046875 79.722656 C 644.109375 80.042969 645.164062 80.390625 646.207031 80.765625 C 647.253906 81.140625 648.289062 81.539062 649.316406 81.964844 C 650.339844 82.390625 651.355469 82.839844 652.359375 83.3125 C 653.363281 83.789062 654.355469 84.285156 655.332031 84.808594 C 656.3125 85.332031 657.277344 85.882812 658.230469 86.453125 C 659.183594 87.023438 660.121094 87.617188 661.042969 88.234375 C 661.964844 88.851562 662.875 89.488281 663.765625 90.148438 C 664.65625 90.8125 665.53125 91.496094 666.390625 92.199219 C 667.25 92.902344 668.089844 93.628906 668.910156 94.375 C 669.734375 95.121094 670.539062 95.886719 671.324219 96.667969 C 672.109375 97.453125 672.875 98.257812 673.621094 99.082031 C 674.363281 99.902344 675.089844 100.746094 675.792969 101.601562 C 676.5 102.460938 677.179688 103.335938 677.84375 104.226562 C 678.503906 105.121094 679.144531 106.027344 679.761719 106.949219 C 680.378906 107.875 680.972656 108.8125 681.542969 109.761719 C 682.113281 110.714844 682.660156 111.679688 683.183594 112.660156 C 683.707031 113.640625 684.207031 114.632812 684.679688 115.632812 C 685.15625 116.636719 685.605469 117.652344 686.027344 118.679688 C 686.453125 119.703125 686.855469 120.738281 687.226562 121.785156 C 687.601562 122.832031 687.949219 123.882812 688.273438 124.945312 C 688.59375 126.007812 688.890625 127.078125 689.160156 128.15625 C 689.429688 129.234375 689.671875 130.316406 689.890625 131.40625 C 690.105469 132.492188 690.296875 133.585938 690.460938 134.6875 C 690.621094 135.785156 690.757812 136.886719 690.867188 137.992188 C 690.976562 139.09375 691.058594 140.203125 691.113281 141.3125 C 691.167969 142.421875 691.191406 143.53125 691.191406 144.640625 Z M 691.191406 144.640625 " fill-opacity="1" fill-rule="nonzero"/></g></svg>