<svg xmlns="http://www.w3.org/2000/svg" xmlns:xlink="http://www.w3.org/1999/xlink" width="1024" zoomAndPan="magnify" viewBox="0 0 768 767.999994" height="1024" preserveAspectRatio="xMidYMid meet" version="1.0"><defs><clipPath id="97f0afb3c9"><path d="M 14.828125 0 L 753.171875 0 L 753.171875 767.1875 L 14.828125 767.1875 Z M 14.828125 0 " clip-rule="nonzero"/></clipPath><clipPath id="cb1af0d195"><path d="M 617.417969 768 L 150.582031 768 C 75.777344 768 14.828125 707.046875 14.828125 632.242188 L 14.828125 135.757812 C 14.828125 60.953125 75.777344 0 150.582031 0 L 617.417969 0 C 692.222656 0 753.171875 60.953125 753.171875 135.757812 L 753.171875 632.242188 C 753.171875 707.046875 692.222656 768 617.417969 768 Z M 617.417969 768 " clip-rule="nonzero"/></clipPath><linearGradient x1="-0.000000110185" gradientTransform="matrix(2.884164, 0, 0, 2.884164, 14.826985, -0.00108)" y1="133.141006" x2="255.999981" gradientUnits="userSpaceOnUse" y2="133.141006" id="cb722b8c19"><stop stop-opacity="1" stop-color="rgb(0%, 0%, 0%)" offset="0"/><stop stop-opacity="1" stop-color="rgb(0.305176%, 0.221252%, 0.0335693%)" offset="0.00390625"/><stop stop-opacity="1" stop-color="rgb(0.611877%, 0.444031%, 0.0671387%)" offset="0.0078125"/><stop stop-opacity="1" stop-color="rgb(0.917053%, 0.665283%, 0.100708%)" offset="0.0117187"/><stop stop-opacity="1" stop-color="rgb(1.223755%, 0.888062%, 0.134277%)" offset="0.015625"/><stop stop-opacity="1" stop-color="rgb(1.530457%, 1.109314%, 0.167847%)" offset="0.0195312"/><stop stop-opacity="1" stop-color="rgb(1.837158%, 1.332092%, 0.201416%)" offset="0.0234375"/><stop stop-opacity="1" stop-color="rgb(2.142334%, 1.554871%, 0.234985%)" offset="0.0273437"/><stop stop-opacity="1" stop-color="rgb(2.449036%, 1.777649%, 0.268555%)" offset="0.03125"/><stop stop-opacity="1" stop-color="rgb(2.755737%, 1.998901%, 0.302124%)" offset="0.0351562"/><stop stop-opacity="1" stop-color="rgb(3.062439%, 2.22168%, 0.335693%)" offset="0.0390625"/><stop stop-opacity="1" stop-color="rgb(3.367615%, 2.442932%, 0.369263%)" offset="0.0429687"/><stop stop-opacity="1" stop-color="rgb(3.674316%, 2.66571%, 0.402832%)" offset="0.046875"/><stop stop-opacity="1" stop-color="rgb(3.979492%, 2.888489%, 0.436401%)" offset="0.0507812"/><stop stop-opacity="1" stop-color="rgb(4.286194%, 3.111267%, 0.469971%)" offset="0.0546875"/><stop stop-opacity="1" stop-color="rgb(4.592896%, 3.33252%, 0.50354%)" offset="0.0585938"/><stop stop-opacity="1" stop-color="rgb(4.899597%, 3.555298%, 0.537109%)" offset="0.0625"/><stop stop-opacity="1" stop-color="rgb(5.204773%, 3.77655%, 0.570679%)" offset="0.0664062"/><stop stop-opacity="1" stop-color="rgb(5.511475%, 3.999329%, 0.604248%)" offset="0.0703125"/><stop stop-opacity="1" stop-color="rgb(5.818176%, 4.222107%, 0.637817%)" offset="0.0742187"/><stop stop-opacity="1" stop-color="rgb(6.124878%, 4.444885%, 0.671387%)" offset="0.078125"/><stop stop-opacity="1" stop-color="rgb(6.430054%, 4.666138%, 0.704956%)" offset="0.0820312"/><stop stop-opacity="1" stop-color="rgb(6.736755%, 4.888916%, 0.738525%)" offset="0.0859375"/><stop stop-opacity="1" stop-color="rgb(7.041931%, 5.110168%, 0.772095%)" offset="0.0898437"/><stop stop-opacity="1" stop-color="rgb(7.348633%, 5.332947%, 0.805664%)" offset="0.09375"/><stop stop-opacity="1" stop-color="rgb(7.655334%, 5.555725%, 0.839233%)" offset="0.0976562"/><stop stop-opacity="1" stop-color="rgb(7.962036%, 5.778503%, 0.872803%)" offset="0.101562"/><stop stop-opacity="1" stop-color="rgb(8.267212%, 5.999756%, 0.906372%)" offset="0.105469"/><stop stop-opacity="1" stop-color="rgb(8.573914%, 6.222534%, 0.939941%)" offset="0.109375"/><stop stop-opacity="1" stop-color="rgb(8.880615%, 6.443787%, 0.973511%)" offset="0.113281"/><stop stop-opacity="1" stop-color="rgb(9.187317%, 6.666565%, 1.00708%)" offset="0.117188"/><stop stop-opacity="1" stop-color="rgb(9.492493%, 6.889343%, 1.040649%)" offset="0.121094"/><stop stop-opacity="1" stop-color="rgb(9.799194%, 7.112122%, 1.074219%)" offset="0.125"/><stop stop-opacity="1" stop-color="rgb(10.10437%, 7.333374%, 1.107788%)" offset="0.128906"/><stop stop-opacity="1" stop-color="rgb(10.411072%, 7.556152%, 1.141357%)" offset="0.132812"/><stop stop-opacity="1" stop-color="rgb(10.717773%, 7.777405%, 1.174927%)" offset="0.136719"/><stop stop-opacity="1" stop-color="rgb(11.024475%, 8.000183%, 1.208496%)" offset="0.140625"/><stop stop-opacity="1" stop-color="rgb(11.329651%, 8.222961%, 1.242065%)" offset="0.144531"/><stop stop-opacity="1" stop-color="rgb(11.636353%, 8.44574%, 1.275635%)" offset="0.148437"/><stop stop-opacity="1" stop-color="rgb(11.943054%, 8.666992%, 1.309204%)" offset="0.152344"/><stop stop-opacity="1" stop-color="rgb(12.249756%, 8.889771%, 1.342773%)" offset="0.15625"/><stop stop-opacity="1" stop-color="rgb(12.554932%, 9.111023%, 1.376343%)" offset="0.160156"/><stop stop-opacity="1" stop-color="rgb(12.861633%, 9.333801%, 1.409912%)" offset="0.164062"/><stop stop-opacity="1" stop-color="rgb(13.166809%, 9.55658%, 1.443481%)" offset="0.167969"/><stop stop-opacity="1" stop-color="rgb(13.473511%, 9.779358%, 1.477051%)" offset="0.171875"/><stop stop-opacity="1" stop-color="rgb(13.780212%, 10.00061%, 1.51062%)" offset="0.175781"/><stop stop-opacity="1" stop-color="rgb(14.086914%, 10.223389%, 1.544189%)" offset="0.179687"/><stop stop-opacity="1" stop-color="rgb(14.39209%, 10.444641%, 1.577759%)" offset="0.183594"/><stop stop-opacity="1" stop-color="rgb(14.698792%, 10.667419%, 1.611328%)" offset="0.1875"/><stop stop-opacity="1" stop-color="rgb(15.005493%, 10.890198%, 1.644897%)" offset="0.191406"/><stop stop-opacity="1" stop-color="rgb(15.312195%, 11.112976%, 1.678467%)" offset="0.195312"/><stop stop-opacity="1" stop-color="rgb(15.617371%, 11.334229%, 1.712036%)" offset="0.199219"/><stop stop-opacity="1" stop-color="rgb(15.924072%, 11.557007%, 1.745605%)" offset="0.203125"/><stop stop-opacity="1" stop-color="rgb(16.230774%, 11.778259%, 1.779175%)" offset="0.207031"/><stop stop-opacity="1" stop-color="rgb(16.537476%, 12.001038%, 1.812744%)" offset="0.210937"/><stop stop-opacity="1" stop-color="rgb(16.842651%, 12.223816%, 1.846313%)" offset="0.214844"/><stop stop-opacity="1" stop-color="rgb(17.149353%, 12.446594%, 1.879883%)" offset="0.21875"/><stop stop-opacity="1" stop-color="rgb(17.454529%, 12.667847%, 1.913452%)" offset="0.222656"/><stop stop-opacity="1" stop-color="rgb(17.76123%, 12.890625%, 1.947021%)" offset="0.226562"/><stop stop-opacity="1" stop-color="rgb(18.067932%, 13.111877%, 1.980591%)" offset="0.230469"/><stop stop-opacity="1" stop-color="rgb(18.374634%, 13.334656%, 2.01416%)" offset="0.234375"/><stop stop-opacity="1" stop-color="rgb(18.67981%, 13.557434%, 2.047729%)" offset="0.238281"/><stop stop-opacity="1" stop-color="rgb(18.986511%, 13.780212%, 2.081299%)" offset="0.242187"/><stop stop-opacity="1" stop-color="rgb(19.293213%, 14.001465%, 2.114868%)" offset="0.246094"/><stop stop-opacity="1" stop-color="rgb(19.599915%, 14.224243%, 2.149963%)" offset="0.25"/><stop stop-opacity="1" stop-color="rgb(19.90509%, 14.445496%, 2.183533%)" offset="0.253906"/><stop stop-opacity="1" stop-color="rgb(20.211792%, 14.668274%, 2.217102%)" offset="0.257813"/><stop stop-opacity="1" stop-color="rgb(20.516968%, 14.891052%, 2.250671%)" offset="0.261719"/><stop stop-opacity="1" stop-color="rgb(20.823669%, 15.113831%, 2.284241%)" offset="0.265625"/><stop stop-opacity="1" stop-color="rgb(21.130371%, 15.335083%, 2.31781%)" offset="0.269531"/><stop stop-opacity="1" stop-color="rgb(21.437073%, 15.557861%, 2.351379%)" offset="0.273438"/><stop stop-opacity="1" stop-color="rgb(21.742249%, 15.779114%, 2.384949%)" offset="0.277344"/><stop stop-opacity="1" stop-color="rgb(22.04895%, 16.001892%, 2.418518%)" offset="0.28125"/><stop stop-opacity="1" stop-color="rgb(22.355652%, 16.22467%, 2.452087%)" offset="0.285156"/><stop stop-opacity="1" stop-color="rgb(22.662354%, 16.447449%, 2.485657%)" offset="0.289063"/><stop stop-opacity="1" stop-color="rgb(22.967529%, 16.668701%, 2.519226%)" offset="0.292969"/><stop stop-opacity="1" stop-color="rgb(23.274231%, 16.891479%, 2.552795%)" offset="0.296875"/><stop stop-opacity="1" stop-color="rgb(23.579407%, 17.112732%, 2.586365%)" offset="0.300781"/><stop stop-opacity="1" stop-color="rgb(23.886108%, 17.33551%, 2.619934%)" offset="0.304688"/><stop stop-opacity="1" stop-color="rgb(24.19281%, 17.558289%, 2.653503%)" offset="0.308594"/><stop stop-opacity="1" stop-color="rgb(24.499512%, 17.781067%, 2.687073%)" offset="0.3125"/><stop stop-opacity="1" stop-color="rgb(24.804688%, 18.002319%, 2.720642%)" offset="0.316406"/><stop stop-opacity="1" stop-color="rgb(25.111389%, 18.225098%, 2.754211%)" offset="0.320313"/><stop stop-opacity="1" stop-color="rgb(25.418091%, 18.44635%, 2.787781%)" offset="0.324219"/><stop stop-opacity="1" stop-color="rgb(25.724792%, 18.669128%, 2.82135%)" offset="0.328125"/><stop stop-opacity="1" stop-color="rgb(26.029968%, 18.891907%, 2.854919%)" offset="0.332031"/><stop stop-opacity="1" stop-color="rgb(26.33667%, 19.114685%, 2.888489%)" offset="0.335938"/><stop stop-opacity="1" stop-color="rgb(26.641846%, 19.335938%, 2.922058%)" offset="0.339844"/><stop stop-opacity="1" stop-color="rgb(26.948547%, 19.558716%, 2.955627%)" offset="0.34375"/><stop stop-opacity="1" stop-color="rgb(27.255249%, 19.779968%, 2.989197%)" offset="0.347656"/><stop stop-opacity="1" stop-color="rgb(27.561951%, 20.002747%, 3.022766%)" offset="0.351562"/><stop stop-opacity="1" stop-color="rgb(27.867126%, 20.225525%, 3.056335%)" offset="0.355469"/><stop stop-opacity="1" stop-color="rgb(28.173828%, 20.448303%, 3.089905%)" offset="0.359375"/><stop stop-opacity="1" stop-color="rgb(28.48053%, 20.669556%, 3.123474%)" offset="0.363281"/><stop stop-opacity="1" stop-color="rgb(28.787231%, 20.892334%, 3.157043%)" offset="0.367188"/><stop stop-opacity="1" stop-color="rgb(29.092407%, 21.113586%, 3.190613%)" offset="0.371094"/><stop stop-opacity="1" stop-color="rgb(29.399109%, 21.336365%, 3.224182%)" offset="0.375"/><stop stop-opacity="1" stop-color="rgb(29.704285%, 21.559143%, 3.257751%)" offset="0.378906"/><stop stop-opacity="1" stop-color="rgb(30.010986%, 21.781921%, 3.291321%)" offset="0.382812"/><stop stop-opacity="1" stop-color="rgb(30.317688%, 22.003174%, 3.32489%)" offset="0.386719"/><stop stop-opacity="1" stop-color="rgb(30.62439%, 22.225952%, 3.358459%)" offset="0.390625"/><stop stop-opacity="1" stop-color="rgb(30.929565%, 22.447205%, 3.392029%)" offset="0.394531"/><stop stop-opacity="1" stop-color="rgb(31.236267%, 22.669983%, 3.425598%)" offset="0.398437"/><stop stop-opacity="1" stop-color="rgb(31.542969%, 22.892761%, 3.459167%)" offset="0.402344"/><stop stop-opacity="1" stop-color="rgb(31.84967%, 23.11554%, 3.492737%)" offset="0.40625"/><stop stop-opacity="1" stop-color="rgb(32.154846%, 23.336792%, 3.526306%)" offset="0.410156"/><stop stop-opacity="1" stop-color="rgb(32.461548%, 23.55957%, 3.559875%)" offset="0.414062"/><stop stop-opacity="1" stop-color="rgb(32.76825%, 23.780823%, 3.593445%)" offset="0.417969"/><stop stop-opacity="1" stop-color="rgb(33.074951%, 24.003601%, 3.627014%)" offset="0.421875"/><stop stop-opacity="1" stop-color="rgb(33.380127%, 24.226379%, 3.660583%)" offset="0.425781"/><stop stop-opacity="1" stop-color="rgb(33.686829%, 24.449158%, 3.694153%)" offset="0.429687"/><stop stop-opacity="1" stop-color="rgb(33.992004%, 24.67041%, 3.727722%)" offset="0.433594"/><stop stop-opacity="1" stop-color="rgb(34.298706%, 24.893188%, 3.761292%)" offset="0.4375"/><stop stop-opacity="1" stop-color="rgb(34.605408%, 25.114441%, 3.794861%)" offset="0.441406"/><stop stop-opacity="1" stop-color="rgb(34.912109%, 25.337219%, 3.82843%)" offset="0.445312"/><stop stop-opacity="1" stop-color="rgb(35.217285%, 25.559998%, 3.862%)" offset="0.449219"/><stop stop-opacity="1" stop-color="rgb(35.523987%, 25.782776%, 3.895569%)" offset="0.453125"/><stop stop-opacity="1" stop-color="rgb(35.830688%, 26.004028%, 3.929138%)" offset="0.457031"/><stop stop-opacity="1" stop-color="rgb(36.13739%, 26.226807%, 3.962708%)" offset="0.460937"/><stop stop-opacity="1" stop-color="rgb(36.442566%, 26.448059%, 3.996277%)" offset="0.464844"/><stop stop-opacity="1" stop-color="rgb(36.749268%, 26.670837%, 4.029846%)" offset="0.46875"/><stop stop-opacity="1" stop-color="rgb(37.054443%, 26.893616%, 4.063416%)" offset="0.472656"/><stop stop-opacity="1" stop-color="rgb(37.361145%, 27.116394%, 4.096985%)" offset="0.476562"/><stop stop-opacity="1" stop-color="rgb(37.667847%, 27.337646%, 4.130554%)" offset="0.480469"/><stop stop-opacity="1" stop-color="rgb(37.974548%, 27.560425%, 4.164124%)" offset="0.484375"/><stop stop-opacity="1" stop-color="rgb(38.279724%, 27.781677%, 4.197693%)" offset="0.488281"/><stop stop-opacity="1" stop-color="rgb(38.586426%, 28.004456%, 4.232788%)" offset="0.492187"/><stop stop-opacity="1" stop-color="rgb(38.893127%, 28.225708%, 4.266357%)" offset="0.496094"/><stop stop-opacity="1" stop-color="rgb(39.199829%, 28.448486%, 4.299927%)" offset="0.5"/><stop stop-opacity="1" stop-color="rgb(39.505005%, 28.671265%, 4.333496%)" offset="0.503906"/><stop stop-opacity="1" stop-color="rgb(39.811707%, 28.894043%, 4.367065%)" offset="0.507812"/><stop stop-opacity="1" stop-color="rgb(40.116882%, 29.115295%, 4.400635%)" offset="0.511719"/><stop stop-opacity="1" stop-color="rgb(40.423584%, 29.338074%, 4.434204%)" offset="0.515625"/><stop stop-opacity="1" stop-color="rgb(40.730286%, 29.559326%, 4.467773%)" offset="0.519531"/><stop stop-opacity="1" stop-color="rgb(41.036987%, 29.782104%, 4.501343%)" offset="0.523438"/><stop stop-opacity="1" stop-color="rgb(41.342163%, 30.004883%, 4.534912%)" offset="0.527344"/><stop stop-opacity="1" stop-color="rgb(41.648865%, 30.227661%, 4.568481%)" offset="0.53125"/><stop stop-opacity="1" stop-color="rgb(41.955566%, 30.448914%, 4.602051%)" offset="0.535156"/><stop stop-opacity="1" stop-color="rgb(42.262268%, 30.671692%, 4.63562%)" offset="0.539062"/><stop stop-opacity="1" stop-color="rgb(42.567444%, 30.892944%, 4.669189%)" offset="0.542969"/><stop stop-opacity="1" stop-color="rgb(42.874146%, 31.115723%, 4.702759%)" offset="0.546875"/><stop stop-opacity="1" stop-color="rgb(43.179321%, 31.338501%, 4.736328%)" offset="0.550781"/><stop stop-opacity="1" stop-color="rgb(43.486023%, 31.561279%, 4.769897%)" offset="0.554688"/><stop stop-opacity="1" stop-color="rgb(43.792725%, 31.782532%, 4.803467%)" offset="0.558594"/><stop stop-opacity="1" stop-color="rgb(44.099426%, 32.00531%, 4.837036%)" offset="0.5625"/><stop stop-opacity="1" stop-color="rgb(44.404602%, 32.226562%, 4.870605%)" offset="0.566406"/><stop stop-opacity="1" stop-color="rgb(44.711304%, 32.449341%, 4.904175%)" offset="0.570313"/><stop stop-opacity="1" stop-color="rgb(45.018005%, 32.672119%, 4.937744%)" offset="0.574219"/><stop stop-opacity="1" stop-color="rgb(45.324707%, 32.894897%, 4.971313%)" offset="0.578125"/><stop stop-opacity="1" stop-color="rgb(45.629883%, 33.11615%, 5.004883%)" offset="0.582031"/><stop stop-opacity="1" stop-color="rgb(45.936584%, 33.338928%, 5.038452%)" offset="0.585938"/><stop stop-opacity="1" stop-color="rgb(46.243286%, 33.560181%, 5.072021%)" offset="0.589844"/><stop stop-opacity="1" stop-color="rgb(46.549988%, 33.782959%, 5.105591%)" offset="0.59375"/><stop stop-opacity="1" stop-color="rgb(46.855164%, 34.005737%, 5.13916%)" offset="0.597656"/><stop stop-opacity="1" stop-color="rgb(47.161865%, 34.228516%, 5.172729%)" offset="0.601563"/><stop stop-opacity="1" stop-color="rgb(47.467041%, 34.449768%, 5.206299%)" offset="0.605469"/><stop stop-opacity="1" stop-color="rgb(47.773743%, 34.672546%, 5.239868%)" offset="0.609375"/><stop stop-opacity="1" stop-color="rgb(48.080444%, 34.893799%, 5.273438%)" offset="0.613281"/><stop stop-opacity="1" stop-color="rgb(48.387146%, 35.116577%, 5.307007%)" offset="0.617188"/><stop stop-opacity="1" stop-color="rgb(48.692322%, 35.339355%, 5.340576%)" offset="0.621094"/><stop stop-opacity="1" stop-color="rgb(48.999023%, 35.562134%, 5.374146%)" offset="0.625"/><stop stop-opacity="1" stop-color="rgb(49.305725%, 35.783386%, 5.407715%)" offset="0.628906"/><stop stop-opacity="1" stop-color="rgb(49.612427%, 36.006165%, 5.441284%)" offset="0.632813"/><stop stop-opacity="1" stop-color="rgb(49.917603%, 36.227417%, 5.474854%)" offset="0.636719"/><stop stop-opacity="1" stop-color="rgb(50.224304%, 36.450195%, 5.508423%)" offset="0.640625"/><stop stop-opacity="1" stop-color="rgb(50.52948%, 36.672974%, 5.541992%)" offset="0.644531"/><stop stop-opacity="1" stop-color="rgb(50.836182%, 36.895752%, 5.575562%)" offset="0.648438"/><stop stop-opacity="1" stop-color="rgb(51.142883%, 37.117004%, 5.609131%)" offset="0.652344"/><stop stop-opacity="1" stop-color="rgb(51.449585%, 37.339783%, 5.6427%)" offset="0.65625"/><stop stop-opacity="1" stop-color="rgb(51.754761%, 37.561035%, 5.67627%)" offset="0.660156"/><stop stop-opacity="1" stop-color="rgb(52.061462%, 37.783813%, 5.709839%)" offset="0.664063"/><stop stop-opacity="1" stop-color="rgb(52.368164%, 38.006592%, 5.743408%)" offset="0.667969"/><stop stop-opacity="1" stop-color="rgb(52.674866%, 38.22937%, 5.776978%)" offset="0.671875"/><stop stop-opacity="1" stop-color="rgb(52.980042%, 38.450623%, 5.810547%)" offset="0.675781"/><stop stop-opacity="1" stop-color="rgb(53.286743%, 38.673401%, 5.844116%)" offset="0.679688"/><stop stop-opacity="1" stop-color="rgb(53.591919%, 38.894653%, 5.877686%)" offset="0.683594"/><stop stop-opacity="1" stop-color="rgb(53.898621%, 39.117432%, 5.911255%)" offset="0.6875"/><stop stop-opacity="1" stop-color="rgb(54.205322%, 39.34021%, 5.944824%)" offset="0.691406"/><stop stop-opacity="1" stop-color="rgb(54.512024%, 39.562988%, 5.978394%)" offset="0.695312"/><stop stop-opacity="1" stop-color="rgb(54.8172%, 39.784241%, 6.011963%)" offset="0.699219"/><stop stop-opacity="1" stop-color="rgb(55.123901%, 40.007019%, 6.045532%)" offset="0.703125"/><stop stop-opacity="1" stop-color="rgb(55.430603%, 40.228271%, 6.079102%)" offset="0.707031"/><stop stop-opacity="1" stop-color="rgb(55.737305%, 40.45105%, 6.112671%)" offset="0.710938"/><stop stop-opacity="1" stop-color="rgb(56.04248%, 40.673828%, 6.14624%)" offset="0.714844"/><stop stop-opacity="1" stop-color="rgb(56.349182%, 40.896606%, 6.17981%)" offset="0.71875"/><stop stop-opacity="1" stop-color="rgb(56.654358%, 41.117859%, 6.213379%)" offset="0.722656"/><stop stop-opacity="1" stop-color="rgb(56.96106%, 41.340637%, 6.246948%)" offset="0.726562"/><stop stop-opacity="1" stop-color="rgb(57.267761%, 41.56189%, 6.280518%)" offset="0.730469"/><stop stop-opacity="1" stop-color="rgb(57.574463%, 41.784668%, 6.315613%)" offset="0.734375"/><stop stop-opacity="1" stop-color="rgb(57.879639%, 42.007446%, 6.349182%)" offset="0.738281"/><stop stop-opacity="1" stop-color="rgb(58.18634%, 42.230225%, 6.382751%)" offset="0.742188"/><stop stop-opacity="1" stop-color="rgb(58.493042%, 42.451477%, 6.416321%)" offset="0.746094"/><stop stop-opacity="1" stop-color="rgb(58.799744%, 42.674255%, 6.44989%)" offset="0.75"/><stop stop-opacity="1" stop-color="rgb(59.104919%, 42.895508%, 6.483459%)" offset="0.753906"/><stop stop-opacity="1" stop-color="rgb(59.411621%, 43.118286%, 6.517029%)" offset="0.757812"/><stop stop-opacity="1" stop-color="rgb(59.716797%, 43.341064%, 6.550598%)" offset="0.761719"/><stop stop-opacity="1" stop-color="rgb(60.023499%, 43.563843%, 6.584167%)" offset="0.765625"/><stop stop-opacity="1" stop-color="rgb(60.3302%, 43.785095%, 6.617737%)" offset="0.769531"/><stop stop-opacity="1" stop-color="rgb(60.636902%, 44.007874%, 6.651306%)" offset="0.773438"/><stop stop-opacity="1" stop-color="rgb(60.942078%, 44.229126%, 6.684875%)" offset="0.777344"/><stop stop-opacity="1" stop-color="rgb(61.248779%, 44.451904%, 6.718445%)" offset="0.78125"/><stop stop-opacity="1" stop-color="rgb(61.555481%, 44.674683%, 6.752014%)" offset="0.785156"/><stop stop-opacity="1" stop-color="rgb(61.862183%, 44.897461%, 6.785583%)" offset="0.789062"/><stop stop-opacity="1" stop-color="rgb(62.167358%, 45.118713%, 6.819153%)" offset="0.792969"/><stop stop-opacity="1" stop-color="rgb(62.47406%, 45.341492%, 6.852722%)" offset="0.796875"/><stop stop-opacity="1" stop-color="rgb(62.780762%, 45.562744%, 6.886292%)" offset="0.800781"/><stop stop-opacity="1" stop-color="rgb(63.087463%, 45.785522%, 6.919861%)" offset="0.804688"/><stop stop-opacity="1" stop-color="rgb(63.392639%, 46.008301%, 6.95343%)" offset="0.808594"/><stop stop-opacity="1" stop-color="rgb(63.699341%, 46.231079%, 6.987%)" offset="0.8125"/><stop stop-opacity="1" stop-color="rgb(64.004517%, 46.452332%, 7.020569%)" offset="0.816406"/><stop stop-opacity="1" stop-color="rgb(64.311218%, 46.67511%, 7.054138%)" offset="0.820312"/><stop stop-opacity="1" stop-color="rgb(64.61792%, 46.896362%, 7.087708%)" offset="0.824219"/><stop stop-opacity="1" stop-color="rgb(64.924622%, 47.119141%, 7.121277%)" offset="0.828125"/><stop stop-opacity="1" stop-color="rgb(65.229797%, 47.341919%, 7.154846%)" offset="0.832031"/><stop stop-opacity="1" stop-color="rgb(65.536499%, 47.564697%, 7.188416%)" offset="0.835937"/><stop stop-opacity="1" stop-color="rgb(65.843201%, 47.78595%, 7.221985%)" offset="0.839844"/><stop stop-opacity="1" stop-color="rgb(66.149902%, 48.008728%, 7.255554%)" offset="0.84375"/><stop stop-opacity="1" stop-color="rgb(66.455078%, 48.22998%, 7.289124%)" offset="0.847656"/><stop stop-opacity="1" stop-color="rgb(66.76178%, 48.452759%, 7.322693%)" offset="0.851562"/><stop stop-opacity="1" stop-color="rgb(67.066956%, 48.675537%, 7.356262%)" offset="0.855469"/><stop stop-opacity="1" stop-color="rgb(67.373657%, 48.898315%, 7.389832%)" offset="0.859375"/><stop stop-opacity="1" stop-color="rgb(67.680359%, 49.119568%, 7.423401%)" offset="0.863281"/><stop stop-opacity="1" stop-color="rgb(67.987061%, 49.342346%, 7.45697%)" offset="0.867187"/><stop stop-opacity="1" stop-color="rgb(68.292236%, 49.563599%, 7.49054%)" offset="0.871094"/><stop stop-opacity="1" stop-color="rgb(68.598938%, 49.786377%, 7.524109%)" offset="0.875"/><stop stop-opacity="1" stop-color="rgb(68.90564%, 50.009155%, 7.557678%)" offset="0.878906"/><stop stop-opacity="1" stop-color="rgb(69.212341%, 50.231934%, 7.591248%)" offset="0.882812"/><stop stop-opacity="1" stop-color="rgb(69.517517%, 50.453186%, 7.624817%)" offset="0.886719"/><stop stop-opacity="1" stop-color="rgb(69.824219%, 50.675964%, 7.658386%)" offset="0.890625"/><stop stop-opacity="1" stop-color="rgb(70.129395%, 50.897217%, 7.691956%)" offset="0.894531"/><stop stop-opacity="1" stop-color="rgb(70.436096%, 51.119995%, 7.725525%)" offset="0.898437"/><stop stop-opacity="1" stop-color="rgb(70.742798%, 51.342773%, 7.759094%)" offset="0.902344"/><stop stop-opacity="1" stop-color="rgb(71.0495%, 51.565552%, 7.792664%)" offset="0.90625"/><stop stop-opacity="1" stop-color="rgb(71.354675%, 51.786804%, 7.826233%)" offset="0.910156"/><stop stop-opacity="1" stop-color="rgb(71.661377%, 52.009583%, 7.859802%)" offset="0.914062"/><stop stop-opacity="1" stop-color="rgb(71.968079%, 52.230835%, 7.893372%)" offset="0.917969"/><stop stop-opacity="1" stop-color="rgb(72.27478%, 52.453613%, 7.926941%)" offset="0.921875"/><stop stop-opacity="1" stop-color="rgb(72.579956%, 52.676392%, 7.96051%)" offset="0.925781"/><stop stop-opacity="1" stop-color="rgb(72.886658%, 52.89917%, 7.99408%)" offset="0.929687"/><stop stop-opacity="1" stop-color="rgb(73.191833%, 53.120422%, 8.027649%)" offset="0.933594"/><stop stop-opacity="1" stop-color="rgb(73.498535%, 53.343201%, 8.061218%)" offset="0.9375"/><stop stop-opacity="1" stop-color="rgb(73.805237%, 53.564453%, 8.094788%)" offset="0.941406"/><stop stop-opacity="1" stop-color="rgb(74.111938%, 53.787231%, 8.128357%)" offset="0.945312"/><stop stop-opacity="1" stop-color="rgb(74.417114%, 54.01001%, 8.161926%)" offset="0.949219"/><stop stop-opacity="1" stop-color="rgb(74.723816%, 54.232788%, 8.195496%)" offset="0.953125"/><stop stop-opacity="1" stop-color="rgb(75.030518%, 54.454041%, 8.229065%)" offset="0.957031"/><stop stop-opacity="1" stop-color="rgb(75.337219%, 54.676819%, 8.262634%)" offset="0.960938"/><stop stop-opacity="1" stop-color="rgb(75.642395%, 54.898071%, 8.296204%)" offset="0.964844"/><stop stop-opacity="1" stop-color="rgb(75.949097%, 55.12085%, 8.329773%)" offset="0.96875"/><stop stop-opacity="1" stop-color="rgb(76.254272%, 55.342102%, 8.363342%)" offset="0.972656"/><stop stop-opacity="1" stop-color="rgb(76.560974%, 55.56488%, 8.396912%)" offset="0.976562"/><stop stop-opacity="1" stop-color="rgb(76.867676%, 55.787659%, 8.430481%)" offset="0.980469"/><stop stop-opacity="1" stop-color="rgb(77.174377%, 56.010437%, 8.465576%)" offset="0.984375"/><stop stop-opacity="1" stop-color="rgb(77.479553%, 56.231689%, 8.499146%)" offset="0.988281"/><stop stop-opacity="1" stop-color="rgb(77.786255%, 56.454468%, 8.532715%)" offset="0.992188"/><stop stop-opacity="1" stop-color="rgb(78.092957%, 56.67572%, 8.566284%)" offset="0.996094"/><stop stop-opacity="1" stop-color="rgb(78.399658%, 56.898499%, 8.599854%)" offset="1"/></linearGradient><clipPath id="b026957969"><path d="M 406 438 L 506 438 L 506 537.898438 L 406 537.898438 Z M 406 438 " clip-rule="nonzero"/></clipPath><clipPath id="5b2bdcfb63"><path d="M 323 230.398438 L 444 230.398438 L 444 350 L 323 350 Z M 323 230.398438 " clip-rule="nonzero"/></clipPath><clipPath id="a1bafa676a"><path d="M 230.398438 375 L 304 375 L 304 433 L 230.398438 433 Z M 230.398438 375 " clip-rule="nonzero"/></clipPath><clipPath id="8be01c02d5"><path d="M 463 375 L 537.898438 375 L 537.898438 433 L 463 433 Z M 463 375 " clip-rule="nonzero"/></clipPath></defs><g clip-path="url(#97f0afb3c9)"><g clip-path="url(#cb1af0d195)"><path fill="url(#cb722b8c19)" d="M 14.828125 0 L 14.828125 767.1875 L 753.171875 767.1875 L 753.171875 0 Z M 14.828125 0 " fill-rule="nonzero"/></g></g><g clip-path="url(#b026957969)"><path fill="#ffffff" d="M 456.371094 438.148438 C 454.75 438.148438 453.132812 438.226562 451.523438 438.386719 C 449.910156 438.542969 448.308594 438.78125 446.722656 439.097656 C 445.132812 439.414062 443.5625 439.808594 442.011719 440.277344 C 440.460938 440.746094 438.9375 441.292969 437.441406 441.914062 C 435.945312 442.53125 434.484375 443.222656 433.054688 443.988281 C 431.625 444.75 430.238281 445.582031 428.890625 446.484375 C 427.542969 447.382812 426.242188 448.347656 424.992188 449.375 C 423.738281 450.402344 422.539062 451.488281 421.394531 452.636719 C 420.25 453.78125 419.164062 454.980469 418.136719 456.230469 C 417.105469 457.484375 416.144531 458.785156 415.242188 460.128906 C 414.34375 461.476562 413.511719 462.867188 412.746094 464.292969 C 411.984375 465.722656 411.292969 467.183594 410.671875 468.683594 C 410.050781 470.179688 409.507812 471.703125 409.035156 473.253906 C 408.566406 474.800781 408.171875 476.371094 407.859375 477.960938 C 407.542969 479.550781 407.304688 481.152344 407.144531 482.761719 C 406.988281 484.375 406.90625 485.992188 406.90625 487.609375 C 406.90625 489.230469 406.988281 490.847656 407.144531 492.460938 C 407.304688 494.070312 407.542969 495.671875 407.859375 497.261719 C 408.171875 498.851562 408.566406 500.417969 409.035156 501.96875 C 409.507812 503.519531 410.050781 505.042969 410.671875 506.539062 C 411.292969 508.035156 411.984375 509.5 412.746094 510.929688 C 413.511719 512.355469 414.34375 513.746094 415.242188 515.089844 C 416.144531 516.4375 417.105469 517.738281 418.136719 518.992188 C 419.164062 520.242188 420.25 521.441406 421.394531 522.585938 C 422.539062 523.734375 423.738281 524.820312 424.992188 525.847656 C 426.242188 526.875 427.542969 527.839844 428.890625 528.738281 C 430.238281 529.636719 431.625 530.46875 433.054688 531.234375 C 434.484375 531.996094 435.945312 532.691406 437.441406 533.308594 C 438.9375 533.929688 440.460938 534.472656 442.011719 534.945312 C 443.5625 535.414062 445.132812 535.808594 446.722656 536.125 C 448.308594 536.441406 449.910156 536.675781 451.523438 536.835938 C 453.132812 536.996094 454.75 537.074219 456.371094 537.074219 C 457.992188 537.074219 459.605469 536.996094 461.21875 536.835938 C 462.832031 536.675781 464.433594 536.441406 466.019531 536.125 C 467.609375 535.808594 469.179688 535.414062 470.730469 534.945312 C 472.28125 534.472656 473.804688 533.929688 475.300781 533.308594 C 476.796875 532.691406 478.257812 531.996094 479.6875 531.234375 C 481.117188 530.46875 482.503906 529.636719 483.851562 528.738281 C 485.199219 527.839844 486.496094 526.875 487.75 525.847656 C 489.003906 524.820312 490.203125 523.734375 491.347656 522.585938 C 492.492188 521.441406 493.578125 520.242188 494.605469 518.992188 C 495.632812 517.738281 496.597656 516.4375 497.5 515.089844 C 498.398438 513.746094 499.230469 512.355469 499.992188 510.929688 C 500.757812 509.5 501.449219 508.035156 502.070312 506.539062 C 502.6875 505.042969 503.234375 503.519531 503.703125 501.96875 C 504.175781 500.417969 504.566406 498.851562 504.882812 497.261719 C 505.199219 495.671875 505.4375 494.070312 505.597656 492.460938 C 505.753906 490.847656 505.835938 489.230469 505.835938 487.609375 C 505.832031 485.992188 505.75 484.375 505.589844 482.765625 C 505.429688 481.152344 505.191406 479.554688 504.875 477.964844 C 504.558594 476.378906 504.164062 474.808594 503.691406 473.257812 C 503.21875 471.710938 502.675781 470.1875 502.054688 468.691406 C 501.433594 467.195312 500.742188 465.734375 499.976562 464.304688 C 499.214844 462.878906 498.378906 461.492188 497.480469 460.144531 C 496.582031 458.796875 495.617188 457.5 494.589844 456.246094 C 493.5625 454.996094 492.476562 453.796875 491.332031 452.652344 C 490.183594 451.507812 488.988281 450.421875 487.734375 449.390625 C 486.484375 448.363281 485.183594 447.402344 483.835938 446.5 C 482.492188 445.601562 481.105469 444.769531 479.675781 444.003906 C 478.25 443.242188 476.785156 442.546875 475.289062 441.929688 C 473.796875 441.308594 472.273438 440.761719 470.722656 440.289062 C 469.171875 439.820312 467.605469 439.425781 466.015625 439.105469 C 464.429688 438.789062 462.828125 438.550781 461.21875 438.390625 C 459.605469 438.230469 457.992188 438.148438 456.371094 438.148438 Z M 477.199219 495.421875 L 464.179688 495.421875 L 464.179688 508.4375 C 464.179688 508.949219 464.128906 509.457031 464.03125 509.960938 C 463.929688 510.464844 463.78125 510.953125 463.585938 511.425781 C 463.390625 511.898438 463.148438 512.351562 462.863281 512.777344 C 462.578125 513.203125 462.257812 513.597656 461.894531 513.960938 C 461.53125 514.324219 461.136719 514.648438 460.710938 514.929688 C 460.285156 515.214844 459.832031 515.457031 459.359375 515.652344 C 458.886719 515.851562 458.398438 515.996094 457.894531 516.097656 C 457.390625 516.199219 456.882812 516.246094 456.371094 516.246094 C 455.859375 516.246094 455.351562 516.199219 454.847656 516.097656 C 454.34375 515.996094 453.855469 515.851562 453.382812 515.652344 C 452.90625 515.457031 452.457031 515.214844 452.03125 514.929688 C 451.605469 514.648438 451.210938 514.324219 450.847656 513.960938 C 450.484375 513.597656 450.160156 513.203125 449.875 512.777344 C 449.59375 512.351562 449.351562 511.898438 449.15625 511.425781 C 448.957031 510.953125 448.8125 510.464844 448.710938 509.960938 C 448.609375 509.457031 448.5625 508.949219 448.5625 508.4375 L 448.5625 495.421875 L 435.542969 495.421875 C 435.03125 495.421875 434.523438 495.371094 434.019531 495.269531 C 433.515625 495.171875 433.027344 495.023438 432.554688 494.828125 C 432.082031 494.628906 431.632812 494.390625 431.203125 494.105469 C 430.777344 493.820312 430.382812 493.496094 430.019531 493.132812 C 429.660156 492.769531 429.335938 492.375 429.050781 491.949219 C 428.765625 491.523438 428.523438 491.074219 428.328125 490.601562 C 428.132812 490.125 427.984375 489.636719 427.882812 489.132812 C 427.785156 488.632812 427.734375 488.125 427.734375 487.609375 C 427.734375 487.097656 427.785156 486.589844 427.882812 486.085938 C 427.984375 485.585938 428.132812 485.097656 428.328125 484.621094 C 428.523438 484.148438 428.765625 483.699219 429.050781 483.273438 C 429.335938 482.84375 429.660156 482.449219 430.019531 482.089844 C 430.382812 481.726562 430.777344 481.402344 431.203125 481.117188 C 431.632812 480.832031 432.082031 480.589844 432.554688 480.394531 C 433.027344 480.199219 433.515625 480.050781 434.019531 479.949219 C 434.523438 479.851562 435.03125 479.800781 435.542969 479.800781 L 448.5625 479.800781 L 448.5625 466.785156 C 448.5625 466.269531 448.609375 465.761719 448.710938 465.261719 C 448.8125 464.757812 448.957031 464.269531 449.15625 463.796875 C 449.351562 463.320312 449.59375 462.871094 449.875 462.445312 C 450.160156 462.019531 450.484375 461.625 450.847656 461.261719 C 451.210938 460.898438 451.605469 460.574219 452.03125 460.289062 C 452.457031 460.003906 452.90625 459.765625 453.382812 459.570312 C 453.855469 459.371094 454.34375 459.222656 454.847656 459.125 C 455.351562 459.023438 455.859375 458.972656 456.371094 458.972656 C 456.882812 458.972656 457.390625 459.023438 457.894531 459.125 C 458.398438 459.222656 458.886719 459.371094 459.359375 459.570312 C 459.832031 459.765625 460.285156 460.003906 460.710938 460.289062 C 461.136719 460.574219 461.53125 460.898438 461.894531 461.261719 C 462.257812 461.625 462.578125 462.019531 462.863281 462.445312 C 463.148438 462.871094 463.390625 463.320312 463.585938 463.796875 C 463.78125 464.269531 463.929688 464.757812 464.03125 465.261719 C 464.128906 465.761719 464.179688 466.269531 464.179688 466.785156 L 464.179688 479.800781 L 477.199219 479.800781 C 477.710938 479.800781 478.21875 479.851562 478.722656 479.949219 C 479.222656 480.050781 479.710938 480.199219 480.1875 480.394531 C 480.660156 480.589844 481.109375 480.832031 481.535156 481.117188 C 481.964844 481.402344 482.359375 481.726562 482.71875 482.089844 C 483.082031 482.449219 483.40625 482.84375 483.691406 483.273438 C 483.976562 483.699219 484.21875 484.148438 484.414062 484.621094 C 484.609375 485.097656 484.757812 485.585938 484.859375 486.085938 C 484.957031 486.589844 485.007812 487.097656 485.007812 487.609375 C 485.007812 488.125 484.957031 488.632812 484.859375 489.132812 C 484.757812 489.636719 484.609375 490.125 484.414062 490.601562 C 484.21875 491.074219 483.976562 491.523438 483.691406 491.949219 C 483.40625 492.375 483.082031 492.769531 482.71875 493.132812 C 482.359375 493.496094 481.964844 493.820312 481.535156 494.105469 C 481.109375 494.390625 480.660156 494.628906 480.1875 494.828125 C 479.710938 495.023438 479.222656 495.171875 478.722656 495.269531 C 478.21875 495.371094 477.710938 495.421875 477.199219 495.421875 Z M 477.199219 495.421875 " fill-opacity="1" fill-rule="nonzero"/></g><g clip-path="url(#5b2bdcfb63)"><path fill="#ffffff" d="M 443.355469 289.757812 C 443.355469 291.71875 443.257812 293.671875 443.066406 295.625 C 442.875 297.578125 442.585938 299.515625 442.203125 301.4375 C 441.820312 303.359375 441.34375 305.261719 440.777344 307.136719 C 440.207031 309.015625 439.546875 310.859375 438.796875 312.671875 C 438.046875 314.480469 437.207031 316.253906 436.285156 317.980469 C 435.359375 319.710938 434.351562 321.390625 433.261719 323.023438 C 432.171875 324.652344 431.007812 326.226562 429.761719 327.742188 C 428.519531 329.257812 427.203125 330.710938 425.816406 332.097656 C 424.429688 333.484375 422.976562 334.796875 421.460938 336.042969 C 419.945312 337.285156 418.375 338.453125 416.742188 339.542969 C 415.113281 340.632812 413.433594 341.640625 411.703125 342.5625 C 409.972656 343.488281 408.203125 344.324219 406.390625 345.074219 C 404.578125 345.824219 402.734375 346.484375 400.859375 347.054688 C 398.980469 347.625 397.082031 348.101562 395.160156 348.484375 C 393.234375 348.867188 391.296875 349.152344 389.347656 349.34375 C 387.394531 349.539062 385.4375 349.632812 383.476562 349.632812 C 381.515625 349.632812 379.558594 349.539062 377.609375 349.34375 C 375.65625 349.152344 373.71875 348.867188 371.796875 348.484375 C 369.871094 348.101562 367.972656 347.625 366.09375 347.054688 C 364.21875 346.484375 362.375 345.824219 360.5625 345.074219 C 358.75 344.324219 356.980469 343.488281 355.25 342.5625 C 353.523438 341.640625 351.839844 340.632812 350.210938 339.542969 C 348.582031 338.453125 347.007812 337.285156 345.492188 336.042969 C 343.976562 334.796875 342.523438 333.484375 341.136719 332.097656 C 339.75 330.710938 338.433594 329.257812 337.191406 327.742188 C 335.949219 326.226562 334.78125 324.652344 333.691406 323.023438 C 332.601562 321.390625 331.59375 319.710938 330.671875 317.980469 C 329.746094 316.253906 328.90625 314.480469 328.15625 312.671875 C 327.40625 310.859375 326.746094 309.015625 326.179688 307.136719 C 325.609375 305.261719 325.132812 303.359375 324.75 301.4375 C 324.367188 299.515625 324.082031 297.578125 323.886719 295.625 C 323.695312 293.671875 323.601562 291.71875 323.601562 289.757812 C 323.601562 287.796875 323.695312 285.839844 323.886719 283.886719 C 324.082031 281.9375 324.367188 280 324.75 278.074219 C 325.132812 276.152344 325.609375 274.25 326.179688 272.375 C 326.746094 270.5 327.40625 268.652344 328.15625 266.84375 C 328.90625 265.03125 329.746094 263.261719 330.671875 261.53125 C 331.59375 259.800781 332.601562 258.121094 333.691406 256.492188 C 334.78125 254.859375 335.949219 253.285156 337.191406 251.769531 C 338.433594 250.253906 339.75 248.804688 341.136719 247.417969 C 342.523438 246.03125 343.976562 244.714844 345.492188 243.472656 C 347.007812 242.226562 348.582031 241.058594 350.210938 239.96875 C 351.839844 238.882812 353.523438 237.875 355.25 236.949219 C 356.980469 236.023438 358.75 235.1875 360.5625 234.4375 C 362.375 233.6875 364.21875 233.027344 366.09375 232.457031 C 367.972656 231.886719 369.871094 231.414062 371.796875 231.03125 C 373.71875 230.648438 375.65625 230.359375 377.609375 230.167969 C 379.558594 229.976562 381.515625 229.878906 383.476562 229.878906 C 385.4375 229.878906 387.394531 229.976562 389.347656 230.167969 C 391.296875 230.359375 393.234375 230.648438 395.160156 231.03125 C 397.082031 231.414062 398.980469 231.886719 400.859375 232.457031 C 402.734375 233.027344 404.578125 233.6875 406.390625 234.4375 C 408.203125 235.1875 409.972656 236.023438 411.703125 236.949219 C 413.433594 237.875 415.113281 238.882812 416.742188 239.96875 C 418.375 241.058594 419.945312 242.226562 421.460938 243.472656 C 422.976562 244.714844 424.429688 246.03125 425.816406 247.417969 C 427.203125 248.804688 428.519531 250.253906 429.761719 251.769531 C 431.007812 253.285156 432.171875 254.859375 433.261719 256.492188 C 434.351562 258.121094 435.359375 259.800781 436.285156 261.53125 C 437.207031 263.261719 438.046875 265.03125 438.796875 266.84375 C 439.546875 268.652344 440.207031 270.5 440.777344 272.375 C 441.34375 274.25 441.820312 276.152344 442.203125 278.074219 C 442.585938 280 442.875 281.9375 443.066406 283.886719 C 443.257812 285.839844 443.355469 287.796875 443.355469 289.757812 Z M 443.355469 289.757812 " fill-opacity="1" fill-rule="nonzero"/></g><path fill="#ffffff" d="M 318.394531 320.996094 C 318.394531 322.277344 318.332031 323.550781 318.207031 324.824219 C 318.078125 326.097656 317.890625 327.359375 317.644531 328.613281 C 317.394531 329.871094 317.082031 331.109375 316.710938 332.332031 C 316.339844 333.554688 315.910156 334.757812 315.421875 335.941406 C 314.929688 337.121094 314.386719 338.277344 313.78125 339.40625 C 313.179688 340.53125 312.523438 341.628906 311.8125 342.691406 C 311.101562 343.753906 310.339844 344.78125 309.527344 345.769531 C 308.71875 346.757812 307.859375 347.703125 306.957031 348.609375 C 306.050781 349.511719 305.105469 350.371094 304.117188 351.183594 C 303.128906 351.996094 302.101562 352.753906 301.039062 353.464844 C 299.976562 354.175781 298.878906 354.832031 297.75 355.4375 C 296.625 356.039062 295.46875 356.585938 294.285156 357.074219 C 293.105469 357.5625 291.902344 357.992188 290.679688 358.367188 C 289.453125 358.738281 288.214844 359.046875 286.960938 359.296875 C 285.707031 359.546875 284.441406 359.734375 283.171875 359.859375 C 281.898438 359.984375 280.621094 360.046875 279.34375 360.046875 C 278.0625 360.046875 276.789062 359.984375 275.515625 359.859375 C 274.242188 359.734375 272.980469 359.546875 271.726562 359.296875 C 270.46875 359.046875 269.230469 358.738281 268.007812 358.367188 C 266.785156 357.992188 265.582031 357.5625 264.398438 357.074219 C 263.21875 356.585938 262.0625 356.039062 260.933594 355.4375 C 259.808594 354.832031 258.710938 354.175781 257.648438 353.464844 C 256.585938 352.753906 255.558594 351.996094 254.570312 351.183594 C 253.582031 350.371094 252.632812 349.511719 251.730469 348.609375 C 250.824219 347.703125 249.96875 346.757812 249.15625 345.769531 C 248.34375 344.78125 247.585938 343.753906 246.875 342.691406 C 246.164062 341.628906 245.507812 340.53125 244.902344 339.40625 C 244.300781 338.277344 243.753906 337.121094 243.265625 335.941406 C 242.777344 334.757812 242.34375 333.554688 241.972656 332.332031 C 241.601562 331.109375 241.292969 329.871094 241.042969 328.613281 C 240.792969 327.359375 240.605469 326.097656 240.480469 324.824219 C 240.355469 323.550781 240.292969 322.277344 240.292969 320.996094 C 240.292969 319.71875 240.355469 318.441406 240.480469 317.167969 C 240.605469 315.894531 240.792969 314.632812 241.042969 313.378906 C 241.292969 312.125 241.601562 310.886719 241.972656 309.660156 C 242.34375 308.4375 242.777344 307.234375 243.265625 306.050781 C 243.753906 304.871094 244.300781 303.714844 244.902344 302.589844 C 245.507812 301.460938 246.164062 300.363281 246.875 299.300781 C 247.585938 298.238281 248.34375 297.210938 249.15625 296.222656 C 249.96875 295.234375 250.824219 294.289062 251.730469 293.382812 C 252.632812 292.480469 253.582031 291.621094 254.570312 290.808594 C 255.558594 290 256.585938 289.238281 257.648438 288.527344 C 258.710938 287.816406 259.808594 287.160156 260.933594 286.558594 C 262.0625 285.953125 263.21875 285.410156 264.398438 284.917969 C 265.582031 284.429688 266.785156 284 268.007812 283.628906 C 269.230469 283.257812 270.46875 282.945312 271.726562 282.695312 C 272.980469 282.445312 274.242188 282.257812 275.515625 282.132812 C 276.789062 282.007812 278.0625 281.945312 279.34375 281.945312 C 280.621094 281.945312 281.898438 282.007812 283.171875 282.132812 C 284.441406 282.257812 285.707031 282.445312 286.960938 282.695312 C 288.214844 282.945312 289.453125 283.257812 290.679688 283.628906 C 291.902344 284 293.105469 284.429688 294.285156 284.917969 C 295.46875 285.410156 296.625 285.953125 297.75 286.558594 C 298.878906 287.160156 299.976562 287.816406 301.039062 288.527344 C 302.101562 289.238281 303.128906 290 304.117188 290.808594 C 305.105469 291.621094 306.050781 292.480469 306.957031 293.382812 C 307.859375 294.289062 308.71875 295.234375 309.527344 296.222656 C 310.339844 297.210938 311.101562 298.238281 311.8125 299.300781 C 312.523438 300.363281 313.179688 301.460938 313.78125 302.589844 C 314.386719 303.714844 314.929688 304.871094 315.421875 306.050781 C 315.910156 307.234375 316.339844 308.4375 316.710938 309.660156 C 317.082031 310.886719 317.394531 312.125 317.644531 313.378906 C 317.890625 314.632812 318.078125 315.894531 318.207031 317.167969 C 318.332031 318.441406 318.394531 319.71875 318.394531 320.996094 Z M 318.394531 320.996094 " fill-opacity="1" fill-rule="nonzero"/><path fill="#ffffff" d="M 526.660156 320.996094 C 526.660156 322.277344 526.597656 323.550781 526.472656 324.824219 C 526.347656 326.097656 526.160156 327.359375 525.910156 328.613281 C 525.660156 329.871094 525.351562 331.109375 524.980469 332.332031 C 524.609375 333.554688 524.179688 334.757812 523.6875 335.941406 C 523.199219 337.121094 522.652344 338.277344 522.050781 339.40625 C 521.449219 340.53125 520.789062 341.628906 520.078125 342.691406 C 519.371094 343.753906 518.609375 344.78125 517.796875 345.769531 C 516.984375 346.757812 516.128906 347.703125 515.222656 348.609375 C 514.320312 349.511719 513.371094 350.371094 512.382812 351.183594 C 511.394531 351.996094 510.371094 352.753906 509.304688 353.464844 C 508.242188 354.175781 507.148438 354.832031 506.019531 355.4375 C 504.890625 356.039062 503.738281 356.585938 502.554688 357.074219 C 501.375 357.5625 500.171875 357.992188 498.945312 358.367188 C 497.722656 358.738281 496.484375 359.046875 495.230469 359.296875 C 493.976562 359.546875 492.710938 359.734375 491.4375 359.859375 C 490.164062 359.984375 488.890625 360.046875 487.609375 360.046875 C 486.332031 360.046875 485.054688 359.984375 483.785156 359.859375 C 482.511719 359.734375 481.246094 359.546875 479.992188 359.296875 C 478.738281 359.046875 477.5 358.738281 476.273438 358.367188 C 475.050781 357.992188 473.847656 357.5625 472.667969 357.074219 C 471.484375 356.585938 470.332031 356.039062 469.203125 355.4375 C 468.074219 354.832031 466.980469 354.175781 465.914062 353.464844 C 464.851562 352.753906 463.828125 351.996094 462.835938 351.183594 C 461.847656 350.371094 460.902344 349.511719 460 348.609375 C 459.09375 347.703125 458.234375 346.757812 457.425781 345.769531 C 456.613281 344.78125 455.851562 343.753906 455.140625 342.691406 C 454.429688 341.628906 453.773438 340.53125 453.171875 339.40625 C 452.570312 338.277344 452.023438 337.121094 451.535156 335.941406 C 451.042969 334.757812 450.613281 333.554688 450.242188 332.332031 C 449.871094 331.109375 449.5625 329.871094 449.3125 328.613281 C 449.0625 327.359375 448.875 326.097656 448.75 324.824219 C 448.625 323.550781 448.5625 322.277344 448.5625 320.996094 C 448.5625 319.71875 448.625 318.441406 448.75 317.167969 C 448.875 315.894531 449.0625 314.632812 449.3125 313.378906 C 449.5625 312.125 449.871094 310.886719 450.242188 309.660156 C 450.613281 308.4375 451.042969 307.234375 451.535156 306.050781 C 452.023438 304.871094 452.570312 303.714844 453.171875 302.589844 C 453.773438 301.460938 454.429688 300.363281 455.140625 299.300781 C 455.851562 298.238281 456.613281 297.210938 457.425781 296.222656 C 458.234375 295.234375 459.09375 294.289062 460 293.382812 C 460.902344 292.480469 461.847656 291.621094 462.835938 290.808594 C 463.828125 290 464.851562 289.238281 465.914062 288.527344 C 466.980469 287.816406 468.074219 287.160156 469.203125 286.558594 C 470.332031 285.953125 471.484375 285.410156 472.667969 284.917969 C 473.847656 284.429688 475.050781 284 476.273438 283.628906 C 477.5 283.257812 478.738281 282.945312 479.992188 282.695312 C 481.246094 282.445312 482.511719 282.257812 483.785156 282.132812 C 485.054688 282.007812 486.332031 281.945312 487.609375 281.945312 C 488.890625 281.945312 490.164062 282.007812 491.4375 282.132812 C 492.710938 282.257812 493.976562 282.445312 495.230469 282.695312 C 496.484375 282.945312 497.722656 283.257812 498.945312 283.628906 C 500.171875 284 501.375 284.429688 502.554688 284.917969 C 503.738281 285.410156 504.890625 285.953125 506.019531 286.558594 C 507.148438 287.160156 508.242188 287.816406 509.304688 288.527344 C 510.371094 289.238281 511.394531 290 512.382812 290.808594 C 513.371094 291.621094 514.320312 292.480469 515.222656 293.382812 C 516.128906 294.289062 516.984375 295.234375 517.796875 296.222656 C 518.609375 297.210938 519.371094 298.238281 520.078125 299.300781 C 520.789062 300.363281 521.449219 301.460938 522.050781 302.589844 C 522.652344 303.714844 523.199219 304.871094 523.6875 306.050781 C 524.179688 307.234375 524.609375 308.4375 524.980469 309.660156 C 525.351562 310.886719 525.660156 312.125 525.910156 313.378906 C 526.160156 314.632812 526.347656 315.894531 526.472656 317.167969 C 526.597656 318.441406 526.660156 319.71875 526.660156 320.996094 Z M 526.660156 320.996094 " fill-opacity="1" fill-rule="nonzero"/><path fill="#ffffff" d="M 476.15625 425.546875 C 475.070312 425.207031 473.980469 424.890625 472.878906 424.605469 C 471.777344 424.320312 470.667969 424.066406 469.554688 423.839844 C 468.441406 423.613281 467.320312 423.414062 466.195312 423.246094 C 465.074219 423.078125 463.945312 422.9375 462.8125 422.828125 C 461.679688 422.71875 460.546875 422.640625 459.410156 422.589844 C 458.273438 422.539062 457.136719 422.519531 456 422.527344 C 454.863281 422.539062 453.726562 422.578125 452.59375 422.644531 C 451.457031 422.714844 450.324219 422.8125 449.195312 422.941406 C 448.066406 423.070312 446.9375 423.226562 445.816406 423.414062 C 444.695312 423.601562 443.578125 423.816406 442.46875 424.0625 C 441.359375 424.308594 440.253906 424.582031 439.160156 424.882812 C 438.0625 425.1875 436.976562 425.519531 435.898438 425.878906 C 434.816406 426.238281 433.75 426.625 432.691406 427.039062 C 431.632812 427.457031 430.585938 427.898438 429.550781 428.371094 C 428.515625 428.839844 427.492188 429.335938 426.484375 429.859375 C 425.472656 430.386719 424.480469 430.933594 423.5 431.511719 C 422.519531 432.085938 421.554688 432.6875 420.605469 433.3125 C 419.65625 433.941406 418.722656 434.589844 417.808594 435.265625 C 416.890625 435.941406 415.996094 436.640625 415.117188 437.363281 C 414.238281 438.082031 413.378906 438.828125 412.539062 439.59375 C 411.699219 440.363281 410.882812 441.148438 410.082031 441.960938 C 409.285156 442.769531 408.507812 443.601562 407.753906 444.449219 C 406.996094 445.300781 406.265625 446.167969 405.554688 447.058594 C 404.847656 447.945312 404.160156 448.855469 403.496094 449.777344 C 402.835938 450.703125 402.199219 451.644531 401.585938 452.601562 C 400.972656 453.558594 400.386719 454.53125 399.824219 455.519531 C 399.261719 456.511719 398.726562 457.511719 398.214844 458.527344 C 397.707031 459.546875 397.222656 460.574219 396.765625 461.617188 C 396.3125 462.660156 395.882812 463.710938 395.484375 464.777344 C 395.082031 465.839844 394.710938 466.914062 394.363281 467.996094 C 394.019531 469.082031 393.703125 470.171875 393.417969 471.273438 C 393.128906 472.375 392.871094 473.480469 392.640625 474.59375 L 307.042969 474.59375 C 306.179688 474.585938 305.320312 474.527344 304.460938 474.425781 C 303.605469 474.320312 302.753906 474.171875 301.914062 473.972656 C 301.074219 473.777344 300.246094 473.535156 299.433594 473.25 C 298.617188 472.960938 297.820312 472.632812 297.042969 472.257812 C 296.265625 471.882812 295.507812 471.46875 294.777344 471.011719 C 294.042969 470.554688 293.335938 470.058594 292.660156 469.527344 C 291.980469 468.992188 291.332031 468.421875 290.714844 467.820312 C 290.097656 467.214844 289.515625 466.578125 288.96875 465.910156 C 288.421875 465.242188 287.914062 464.546875 287.445312 463.820312 C 286.972656 463.097656 286.542969 462.351562 286.152344 461.578125 C 285.765625 460.808594 285.417969 460.019531 285.117188 459.210938 C 284.8125 458.402344 284.554688 457.578125 284.34375 456.742188 C 284.128906 455.90625 283.964844 455.058594 283.84375 454.203125 C 283.722656 453.347656 283.648438 452.492188 283.625 451.628906 C 283.597656 450.765625 283.617188 449.902344 283.683594 449.042969 C 283.753906 448.179688 283.867188 447.328125 284.027344 446.476562 C 284.5625 443.863281 285.195312 441.273438 285.929688 438.710938 C 286.667969 436.144531 287.503906 433.613281 288.4375 431.117188 C 289.375 428.617188 290.40625 426.160156 291.535156 423.746094 C 292.664062 421.328125 293.886719 418.960938 295.203125 416.640625 C 296.519531 414.320312 297.925781 412.054688 299.421875 409.84375 C 300.917969 407.636719 302.496094 405.488281 304.160156 403.402344 C 305.824219 401.316406 307.570312 399.300781 309.390625 397.355469 C 311.214844 395.40625 313.113281 393.535156 315.085938 391.738281 C 317.054688 389.941406 319.09375 388.222656 321.199219 386.585938 C 323.308594 384.949219 325.476562 383.398438 327.703125 381.933594 C 329.933594 380.46875 332.21875 379.09375 334.554688 377.808594 C 336.890625 376.523438 339.277344 375.332031 341.707031 374.234375 C 344.140625 373.136719 346.609375 372.136719 349.121094 371.234375 C 351.632812 370.332031 354.171875 369.527344 356.746094 368.828125 C 359.320312 368.125 361.917969 367.527344 364.539062 367.027344 C 367.160156 366.53125 369.796875 366.140625 372.449219 365.851562 C 375.101562 365.5625 377.761719 365.378906 380.425781 365.296875 C 383.09375 365.21875 385.757812 365.246094 388.421875 365.375 C 391.085938 365.507812 393.742188 365.742188 396.386719 366.082031 C 399.035156 366.425781 401.664062 366.867188 404.273438 367.417969 C 406.882812 367.964844 409.46875 368.613281 412.027344 369.367188 C 414.589844 370.117188 417.113281 370.96875 419.605469 371.921875 C 422.097656 372.871094 424.550781 373.921875 426.960938 375.066406 C 429.371094 376.210938 431.730469 377.449219 434.042969 378.777344 C 436.355469 380.109375 438.609375 381.527344 440.808594 383.039062 C 443.011719 384.546875 445.148438 386.140625 447.222656 387.816406 C 449.296875 389.496094 451.300781 391.25 453.238281 393.085938 C 455.171875 394.921875 457.03125 396.832031 458.816406 398.8125 C 460.601562 400.796875 462.308594 402.847656 463.929688 404.964844 C 465.554688 407.078125 467.089844 409.257812 468.542969 411.496094 C 469.996094 413.734375 471.355469 416.027344 472.625 418.371094 C 473.898438 420.71875 475.074219 423.109375 476.15625 425.546875 Z M 476.15625 425.546875 " fill-opacity="1" fill-rule="nonzero"/><g clip-path="url(#a1bafa676a)"><path fill="#ffffff" d="M 303.085938 381.707031 C 299.382812 385.199219 295.925781 388.914062 292.707031 392.851562 C 289.488281 396.792969 286.539062 400.925781 283.859375 405.25 C 281.179688 409.574219 278.789062 414.054688 276.691406 418.6875 C 274.59375 423.324219 272.804688 428.074219 271.324219 432.941406 L 237.6875 432.941406 C 237.175781 432.9375 236.671875 432.882812 236.167969 432.78125 C 235.667969 432.679688 235.179688 432.527344 234.710938 432.332031 C 234.238281 432.132812 233.789062 431.890625 233.363281 431.605469 C 232.9375 431.320312 232.546875 431 232.183594 430.636719 C 231.820312 430.273438 231.5 429.882812 231.214844 429.457031 C 230.929688 429.03125 230.6875 428.582031 230.488281 428.109375 C 230.292969 427.636719 230.140625 427.152344 230.039062 426.648438 C 229.9375 426.148438 229.882812 425.640625 229.878906 425.128906 C 229.878906 424.0625 229.914062 422.996094 229.984375 421.933594 C 230.054688 420.867188 230.160156 419.804688 230.296875 418.746094 C 230.4375 417.6875 230.609375 416.636719 230.816406 415.589844 C 231.023438 414.542969 231.261719 413.5 231.539062 412.46875 C 231.8125 411.4375 232.117188 410.417969 232.457031 409.40625 C 232.796875 408.394531 233.171875 407.394531 233.574219 406.40625 C 233.980469 405.417969 234.414062 404.445312 234.882812 403.484375 C 235.351562 402.523438 235.847656 401.582031 236.378906 400.65625 C 236.90625 399.726562 237.464844 398.816406 238.050781 397.925781 C 238.640625 397.035156 239.253906 396.164062 239.898438 395.3125 C 240.542969 394.460938 241.214844 393.632812 241.910156 392.824219 C 242.609375 392.015625 243.332031 391.230469 244.078125 390.46875 C 244.828125 389.707031 245.601562 388.972656 246.394531 388.261719 C 247.191406 387.550781 248.007812 386.863281 248.851562 386.207031 C 249.691406 385.546875 250.550781 384.917969 251.429688 384.316406 C 252.3125 383.710938 253.210938 383.140625 254.128906 382.59375 C 255.046875 382.050781 255.984375 381.535156 256.933594 381.050781 C 257.886719 380.566406 258.851562 380.113281 259.832031 379.691406 C 260.8125 379.269531 261.804688 378.882812 262.8125 378.523438 C 263.816406 378.167969 264.832031 377.84375 265.859375 377.550781 C 266.886719 377.257812 267.921875 377 268.964844 376.777344 C 270.007812 376.550781 271.058594 376.359375 272.113281 376.203125 C 273.171875 376.046875 274.230469 375.925781 275.292969 375.835938 C 276.359375 375.746094 277.421875 375.695312 278.492188 375.675781 C 279.558594 375.65625 280.625 375.671875 281.691406 375.71875 C 282.757812 375.769531 283.820312 375.855469 284.882812 375.972656 C 285.941406 376.089844 286.996094 376.242188 288.046875 376.429688 C 289.101562 376.617188 290.144531 376.835938 291.179688 377.089844 C 292.214844 377.347656 293.246094 377.632812 294.261719 377.953125 C 295.28125 378.273438 296.285156 378.628906 297.28125 379.015625 C 298.277344 379.398438 299.257812 379.816406 300.226562 380.265625 C 301.195312 380.714844 302.148438 381.195312 303.085938 381.707031 Z M 303.085938 381.707031 " fill-opacity="1" fill-rule="nonzero"/></g><g clip-path="url(#8be01c02d5)"><path fill="#ffffff" d="M 537.074219 425.128906 C 537.070312 425.640625 537.019531 426.148438 536.914062 426.648438 C 536.8125 427.152344 536.664062 427.636719 536.464844 428.109375 C 536.265625 428.582031 536.027344 429.03125 535.742188 429.457031 C 535.457031 429.882812 535.132812 430.273438 534.769531 430.636719 C 534.410156 431 534.015625 431.320312 533.589844 431.605469 C 533.164062 431.890625 532.714844 432.132812 532.246094 432.332031 C 531.773438 432.527344 531.285156 432.679688 530.785156 432.78125 C 530.28125 432.882812 529.777344 432.9375 529.265625 432.941406 L 496.566406 432.941406 L 490.421875 419.195312 C 487.289062 412.125 483.484375 405.4375 479.015625 399.125 C 474.546875 392.816406 469.496094 387.007812 463.867188 381.707031 C 464.804688 381.195312 465.757812 380.714844 466.726562 380.265625 C 467.695312 379.816406 468.675781 379.398438 469.671875 379.015625 C 470.667969 378.628906 471.671875 378.273438 472.691406 377.953125 C 473.710938 377.632812 474.738281 377.347656 475.773438 377.089844 C 476.808594 376.835938 477.855469 376.617188 478.90625 376.429688 C 479.957031 376.242188 481.011719 376.089844 482.074219 375.972656 C 483.132812 375.855469 484.195312 375.769531 485.261719 375.71875 C 486.328125 375.671875 487.394531 375.65625 488.464844 375.675781 C 489.53125 375.695312 490.597656 375.746094 491.660156 375.835938 C 492.722656 375.925781 493.785156 376.046875 494.839844 376.203125 C 495.894531 376.359375 496.945312 376.550781 497.988281 376.777344 C 499.03125 377 500.066406 377.257812 501.09375 377.550781 C 502.121094 377.84375 503.136719 378.167969 504.140625 378.523438 C 505.148438 378.882812 506.140625 379.269531 507.121094 379.691406 C 508.101562 380.113281 509.070312 380.566406 510.019531 381.050781 C 510.972656 381.535156 511.90625 382.050781 512.824219 382.59375 C 513.742188 383.140625 514.640625 383.710938 515.523438 384.316406 C 516.402344 384.917969 517.265625 385.546875 518.105469 386.207031 C 518.945312 386.867188 519.761719 387.550781 520.558594 388.261719 C 521.355469 388.972656 522.125 389.710938 522.875 390.46875 C 523.621094 391.230469 524.34375 392.015625 525.042969 392.824219 C 525.738281 393.632812 526.410156 394.460938 527.054688 395.3125 C 527.699219 396.164062 528.3125 397.035156 528.902344 397.925781 C 529.488281 398.816406 530.046875 399.726562 530.574219 400.65625 C 531.105469 401.582031 531.601562 402.523438 532.070312 403.484375 C 532.539062 404.445312 532.972656 405.417969 533.378906 406.40625 C 533.785156 407.394531 534.15625 408.394531 534.496094 409.40625 C 534.835938 410.417969 535.144531 411.4375 535.417969 412.46875 C 535.691406 413.5 535.929688 414.542969 536.136719 415.589844 C 536.34375 416.636719 536.515625 417.6875 536.65625 418.746094 C 536.792969 419.804688 536.898438 420.867188 536.96875 421.933594 C 537.039062 422.996094 537.074219 424.0625 537.074219 425.128906 Z M 537.074219 425.128906 " fill-opacity="1" fill-rule="nonzero"/></g></svg>