<svg xmlns="http://www.w3.org/2000/svg" xmlns:xlink="http://www.w3.org/1999/xlink" width="1024" zoomAndPan="magnify" viewBox="0 0 768 767.999994" height="1024" preserveAspectRatio="xMidYMid meet" version="1.0"><defs><clipPath id="24e02532ed"><path d="M 14.828125 0 L 753.171875 0 L 753.171875 767.1875 L 14.828125 767.1875 Z M 14.828125 0 " clip-rule="nonzero"/></clipPath><clipPath id="cccede4ed7"><path d="M 617.417969 768 L 150.582031 768 C 75.777344 768 14.828125 707.046875 14.828125 632.242188 L 14.828125 135.757812 C 14.828125 60.953125 75.777344 0 150.582031 0 L 617.417969 0 C 692.222656 0 753.171875 60.953125 753.171875 135.757812 L 753.171875 632.242188 C 753.171875 707.046875 692.222656 768 617.417969 768 Z M 617.417969 768 " clip-rule="nonzero"/></clipPath><linearGradient x1="-0.000000110185" gradientTransform="matrix(2.884164, 0, 0, 2.884164, 14.826985, -0.00108)" y1="133.141006" x2="255.999981" gradientUnits="userSpaceOnUse" y2="133.141006" id="3ccd78ff7f"><stop stop-opacity="1" stop-color="rgb(0%, 0%, 0%)" offset="0"/><stop stop-opacity="1" stop-color="rgb(0.305176%, 0.221252%, 0.0335693%)" offset="0.00390625"/><stop stop-opacity="1" stop-color="rgb(0.611877%, 0.444031%, 0.0671387%)" offset="0.0078125"/><stop stop-opacity="1" stop-color="rgb(0.917053%, 0.665283%, 0.100708%)" offset="0.0117187"/><stop stop-opacity="1" stop-color="rgb(1.223755%, 0.888062%, 0.134277%)" offset="0.015625"/><stop stop-opacity="1" stop-color="rgb(1.530457%, 1.109314%, 0.167847%)" offset="0.0195312"/><stop stop-opacity="1" stop-color="rgb(1.837158%, 1.332092%, 0.201416%)" offset="0.0234375"/><stop stop-opacity="1" stop-color="rgb(2.142334%, 1.554871%, 0.234985%)" offset="0.0273437"/><stop stop-opacity="1" stop-color="rgb(2.449036%, 1.777649%, 0.268555%)" offset="0.03125"/><stop stop-opacity="1" stop-color="rgb(2.755737%, 1.998901%, 0.302124%)" offset="0.0351562"/><stop stop-opacity="1" stop-color="rgb(3.062439%, 2.22168%, 0.335693%)" offset="0.0390625"/><stop stop-opacity="1" stop-color="rgb(3.367615%, 2.442932%, 0.369263%)" offset="0.0429687"/><stop stop-opacity="1" stop-color="rgb(3.674316%, 2.66571%, 0.402832%)" offset="0.046875"/><stop stop-opacity="1" stop-color="rgb(3.979492%, 2.888489%, 0.436401%)" offset="0.0507812"/><stop stop-opacity="1" stop-color="rgb(4.286194%, 3.111267%, 0.469971%)" offset="0.0546875"/><stop stop-opacity="1" stop-color="rgb(4.592896%, 3.33252%, 0.50354%)" offset="0.0585938"/><stop stop-opacity="1" stop-color="rgb(4.899597%, 3.555298%, 0.537109%)" offset="0.0625"/><stop stop-opacity="1" stop-color="rgb(5.204773%, 3.77655%, 0.570679%)" offset="0.0664062"/><stop stop-opacity="1" stop-color="rgb(5.511475%, 3.999329%, 0.604248%)" offset="0.0703125"/><stop stop-opacity="1" stop-color="rgb(5.818176%, 4.222107%, 0.637817%)" offset="0.0742187"/><stop stop-opacity="1" stop-color="rgb(6.124878%, 4.444885%, 0.671387%)" offset="0.078125"/><stop stop-opacity="1" stop-color="rgb(6.430054%, 4.666138%, 0.704956%)" offset="0.0820312"/><stop stop-opacity="1" stop-color="rgb(6.736755%, 4.888916%, 0.738525%)" offset="0.0859375"/><stop stop-opacity="1" stop-color="rgb(7.041931%, 5.110168%, 0.772095%)" offset="0.0898437"/><stop stop-opacity="1" stop-color="rgb(7.348633%, 5.332947%, 0.805664%)" offset="0.09375"/><stop stop-opacity="1" stop-color="rgb(7.655334%, 5.555725%, 0.839233%)" offset="0.0976562"/><stop stop-opacity="1" stop-color="rgb(7.962036%, 5.778503%, 0.872803%)" offset="0.101562"/><stop stop-opacity="1" stop-color="rgb(8.267212%, 5.999756%, 0.906372%)" offset="0.105469"/><stop stop-opacity="1" stop-color="rgb(8.573914%, 6.222534%, 0.939941%)" offset="0.109375"/><stop stop-opacity="1" stop-color="rgb(8.880615%, 6.443787%, 0.973511%)" offset="0.113281"/><stop stop-opacity="1" stop-color="rgb(9.187317%, 6.666565%, 1.00708%)" offset="0.117188"/><stop stop-opacity="1" stop-color="rgb(9.492493%, 6.889343%, 1.040649%)" offset="0.121094"/><stop stop-opacity="1" stop-color="rgb(9.799194%, 7.112122%, 1.074219%)" offset="0.125"/><stop stop-opacity="1" stop-color="rgb(10.10437%, 7.333374%, 1.107788%)" offset="0.128906"/><stop stop-opacity="1" stop-color="rgb(10.411072%, 7.556152%, 1.141357%)" offset="0.132812"/><stop stop-opacity="1" stop-color="rgb(10.717773%, 7.777405%, 1.174927%)" offset="0.136719"/><stop stop-opacity="1" stop-color="rgb(11.024475%, 8.000183%, 1.208496%)" offset="0.140625"/><stop stop-opacity="1" stop-color="rgb(11.329651%, 8.222961%, 1.242065%)" offset="0.144531"/><stop stop-opacity="1" stop-color="rgb(11.636353%, 8.44574%, 1.275635%)" offset="0.148437"/><stop stop-opacity="1" stop-color="rgb(11.943054%, 8.666992%, 1.309204%)" offset="0.152344"/><stop stop-opacity="1" stop-color="rgb(12.249756%, 8.889771%, 1.342773%)" offset="0.15625"/><stop stop-opacity="1" stop-color="rgb(12.554932%, 9.111023%, 1.376343%)" offset="0.160156"/><stop stop-opacity="1" stop-color="rgb(12.861633%, 9.333801%, 1.409912%)" offset="0.164062"/><stop stop-opacity="1" stop-color="rgb(13.166809%, 9.55658%, 1.443481%)" offset="0.167969"/><stop stop-opacity="1" stop-color="rgb(13.473511%, 9.779358%, 1.477051%)" offset="0.171875"/><stop stop-opacity="1" stop-color="rgb(13.780212%, 10.00061%, 1.51062%)" offset="0.175781"/><stop stop-opacity="1" stop-color="rgb(14.086914%, 10.223389%, 1.544189%)" offset="0.179687"/><stop stop-opacity="1" stop-color="rgb(14.39209%, 10.444641%, 1.577759%)" offset="0.183594"/><stop stop-opacity="1" stop-color="rgb(14.698792%, 10.667419%, 1.611328%)" offset="0.1875"/><stop stop-opacity="1" stop-color="rgb(15.005493%, 10.890198%, 1.644897%)" offset="0.191406"/><stop stop-opacity="1" stop-color="rgb(15.312195%, 11.112976%, 1.678467%)" offset="0.195312"/><stop stop-opacity="1" stop-color="rgb(15.617371%, 11.334229%, 1.712036%)" offset="0.199219"/><stop stop-opacity="1" stop-color="rgb(15.924072%, 11.557007%, 1.745605%)" offset="0.203125"/><stop stop-opacity="1" stop-color="rgb(16.230774%, 11.778259%, 1.779175%)" offset="0.207031"/><stop stop-opacity="1" stop-color="rgb(16.537476%, 12.001038%, 1.812744%)" offset="0.210937"/><stop stop-opacity="1" stop-color="rgb(16.842651%, 12.223816%, 1.846313%)" offset="0.214844"/><stop stop-opacity="1" stop-color="rgb(17.149353%, 12.446594%, 1.879883%)" offset="0.21875"/><stop stop-opacity="1" stop-color="rgb(17.454529%, 12.667847%, 1.913452%)" offset="0.222656"/><stop stop-opacity="1" stop-color="rgb(17.76123%, 12.890625%, 1.947021%)" offset="0.226562"/><stop stop-opacity="1" stop-color="rgb(18.067932%, 13.111877%, 1.980591%)" offset="0.230469"/><stop stop-opacity="1" stop-color="rgb(18.374634%, 13.334656%, 2.01416%)" offset="0.234375"/><stop stop-opacity="1" stop-color="rgb(18.67981%, 13.557434%, 2.047729%)" offset="0.238281"/><stop stop-opacity="1" stop-color="rgb(18.986511%, 13.780212%, 2.081299%)" offset="0.242187"/><stop stop-opacity="1" stop-color="rgb(19.293213%, 14.001465%, 2.114868%)" offset="0.246094"/><stop stop-opacity="1" stop-color="rgb(19.599915%, 14.224243%, 2.149963%)" offset="0.25"/><stop stop-opacity="1" stop-color="rgb(19.90509%, 14.445496%, 2.183533%)" offset="0.253906"/><stop stop-opacity="1" stop-color="rgb(20.211792%, 14.668274%, 2.217102%)" offset="0.257813"/><stop stop-opacity="1" stop-color="rgb(20.516968%, 14.891052%, 2.250671%)" offset="0.261719"/><stop stop-opacity="1" stop-color="rgb(20.823669%, 15.113831%, 2.284241%)" offset="0.265625"/><stop stop-opacity="1" stop-color="rgb(21.130371%, 15.335083%, 2.31781%)" offset="0.269531"/><stop stop-opacity="1" stop-color="rgb(21.437073%, 15.557861%, 2.351379%)" offset="0.273438"/><stop stop-opacity="1" stop-color="rgb(21.742249%, 15.779114%, 2.384949%)" offset="0.277344"/><stop stop-opacity="1" stop-color="rgb(22.04895%, 16.001892%, 2.418518%)" offset="0.28125"/><stop stop-opacity="1" stop-color="rgb(22.355652%, 16.22467%, 2.452087%)" offset="0.285156"/><stop stop-opacity="1" stop-color="rgb(22.662354%, 16.447449%, 2.485657%)" offset="0.289063"/><stop stop-opacity="1" stop-color="rgb(22.967529%, 16.668701%, 2.519226%)" offset="0.292969"/><stop stop-opacity="1" stop-color="rgb(23.274231%, 16.891479%, 2.552795%)" offset="0.296875"/><stop stop-opacity="1" stop-color="rgb(23.579407%, 17.112732%, 2.586365%)" offset="0.300781"/><stop stop-opacity="1" stop-color="rgb(23.886108%, 17.33551%, 2.619934%)" offset="0.304688"/><stop stop-opacity="1" stop-color="rgb(24.19281%, 17.558289%, 2.653503%)" offset="0.308594"/><stop stop-opacity="1" stop-color="rgb(24.499512%, 17.781067%, 2.687073%)" offset="0.3125"/><stop stop-opacity="1" stop-color="rgb(24.804688%, 18.002319%, 2.720642%)" offset="0.316406"/><stop stop-opacity="1" stop-color="rgb(25.111389%, 18.225098%, 2.754211%)" offset="0.320313"/><stop stop-opacity="1" stop-color="rgb(25.418091%, 18.44635%, 2.787781%)" offset="0.324219"/><stop stop-opacity="1" stop-color="rgb(25.724792%, 18.669128%, 2.82135%)" offset="0.328125"/><stop stop-opacity="1" stop-color="rgb(26.029968%, 18.891907%, 2.854919%)" offset="0.332031"/><stop stop-opacity="1" stop-color="rgb(26.33667%, 19.114685%, 2.888489%)" offset="0.335938"/><stop stop-opacity="1" stop-color="rgb(26.641846%, 19.335938%, 2.922058%)" offset="0.339844"/><stop stop-opacity="1" stop-color="rgb(26.948547%, 19.558716%, 2.955627%)" offset="0.34375"/><stop stop-opacity="1" stop-color="rgb(27.255249%, 19.779968%, 2.989197%)" offset="0.347656"/><stop stop-opacity="1" stop-color="rgb(27.561951%, 20.002747%, 3.022766%)" offset="0.351562"/><stop stop-opacity="1" stop-color="rgb(27.867126%, 20.225525%, 3.056335%)" offset="0.355469"/><stop stop-opacity="1" stop-color="rgb(28.173828%, 20.448303%, 3.089905%)" offset="0.359375"/><stop stop-opacity="1" stop-color="rgb(28.48053%, 20.669556%, 3.123474%)" offset="0.363281"/><stop stop-opacity="1" stop-color="rgb(28.787231%, 20.892334%, 3.157043%)" offset="0.367188"/><stop stop-opacity="1" stop-color="rgb(29.092407%, 21.113586%, 3.190613%)" offset="0.371094"/><stop stop-opacity="1" stop-color="rgb(29.399109%, 21.336365%, 3.224182%)" offset="0.375"/><stop stop-opacity="1" stop-color="rgb(29.704285%, 21.559143%, 3.257751%)" offset="0.378906"/><stop stop-opacity="1" stop-color="rgb(30.010986%, 21.781921%, 3.291321%)" offset="0.382812"/><stop stop-opacity="1" stop-color="rgb(30.317688%, 22.003174%, 3.32489%)" offset="0.386719"/><stop stop-opacity="1" stop-color="rgb(30.62439%, 22.225952%, 3.358459%)" offset="0.390625"/><stop stop-opacity="1" stop-color="rgb(30.929565%, 22.447205%, 3.392029%)" offset="0.394531"/><stop stop-opacity="1" stop-color="rgb(31.236267%, 22.669983%, 3.425598%)" offset="0.398437"/><stop stop-opacity="1" stop-color="rgb(31.542969%, 22.892761%, 3.459167%)" offset="0.402344"/><stop stop-opacity="1" stop-color="rgb(31.84967%, 23.11554%, 3.492737%)" offset="0.40625"/><stop stop-opacity="1" stop-color="rgb(32.154846%, 23.336792%, 3.526306%)" offset="0.410156"/><stop stop-opacity="1" stop-color="rgb(32.461548%, 23.55957%, 3.559875%)" offset="0.414062"/><stop stop-opacity="1" stop-color="rgb(32.76825%, 23.780823%, 3.593445%)" offset="0.417969"/><stop stop-opacity="1" stop-color="rgb(33.074951%, 24.003601%, 3.627014%)" offset="0.421875"/><stop stop-opacity="1" stop-color="rgb(33.380127%, 24.226379%, 3.660583%)" offset="0.425781"/><stop stop-opacity="1" stop-color="rgb(33.686829%, 24.449158%, 3.694153%)" offset="0.429687"/><stop stop-opacity="1" stop-color="rgb(33.992004%, 24.67041%, 3.727722%)" offset="0.433594"/><stop stop-opacity="1" stop-color="rgb(34.298706%, 24.893188%, 3.761292%)" offset="0.4375"/><stop stop-opacity="1" stop-color="rgb(34.605408%, 25.114441%, 3.794861%)" offset="0.441406"/><stop stop-opacity="1" stop-color="rgb(34.912109%, 25.337219%, 3.82843%)" offset="0.445312"/><stop stop-opacity="1" stop-color="rgb(35.217285%, 25.559998%, 3.862%)" offset="0.449219"/><stop stop-opacity="1" stop-color="rgb(35.523987%, 25.782776%, 3.895569%)" offset="0.453125"/><stop stop-opacity="1" stop-color="rgb(35.830688%, 26.004028%, 3.929138%)" offset="0.457031"/><stop stop-opacity="1" stop-color="rgb(36.13739%, 26.226807%, 3.962708%)" offset="0.460937"/><stop stop-opacity="1" stop-color="rgb(36.442566%, 26.448059%, 3.996277%)" offset="0.464844"/><stop stop-opacity="1" stop-color="rgb(36.749268%, 26.670837%, 4.029846%)" offset="0.46875"/><stop stop-opacity="1" stop-color="rgb(37.054443%, 26.893616%, 4.063416%)" offset="0.472656"/><stop stop-opacity="1" stop-color="rgb(37.361145%, 27.116394%, 4.096985%)" offset="0.476562"/><stop stop-opacity="1" stop-color="rgb(37.667847%, 27.337646%, 4.130554%)" offset="0.480469"/><stop stop-opacity="1" stop-color="rgb(37.974548%, 27.560425%, 4.164124%)" offset="0.484375"/><stop stop-opacity="1" stop-color="rgb(38.279724%, 27.781677%, 4.197693%)" offset="0.488281"/><stop stop-opacity="1" stop-color="rgb(38.586426%, 28.004456%, 4.232788%)" offset="0.492187"/><stop stop-opacity="1" stop-color="rgb(38.893127%, 28.225708%, 4.266357%)" offset="0.496094"/><stop stop-opacity="1" stop-color="rgb(39.199829%, 28.448486%, 4.299927%)" offset="0.5"/><stop stop-opacity="1" stop-color="rgb(39.505005%, 28.671265%, 4.333496%)" offset="0.503906"/><stop stop-opacity="1" stop-color="rgb(39.811707%, 28.894043%, 4.367065%)" offset="0.507812"/><stop stop-opacity="1" stop-color="rgb(40.116882%, 29.115295%, 4.400635%)" offset="0.511719"/><stop stop-opacity="1" stop-color="rgb(40.423584%, 29.338074%, 4.434204%)" offset="0.515625"/><stop stop-opacity="1" stop-color="rgb(40.730286%, 29.559326%, 4.467773%)" offset="0.519531"/><stop stop-opacity="1" stop-color="rgb(41.036987%, 29.782104%, 4.501343%)" offset="0.523438"/><stop stop-opacity="1" stop-color="rgb(41.342163%, 30.004883%, 4.534912%)" offset="0.527344"/><stop stop-opacity="1" stop-color="rgb(41.648865%, 30.227661%, 4.568481%)" offset="0.53125"/><stop stop-opacity="1" stop-color="rgb(41.955566%, 30.448914%, 4.602051%)" offset="0.535156"/><stop stop-opacity="1" stop-color="rgb(42.262268%, 30.671692%, 4.63562%)" offset="0.539062"/><stop stop-opacity="1" stop-color="rgb(42.567444%, 30.892944%, 4.669189%)" offset="0.542969"/><stop stop-opacity="1" stop-color="rgb(42.874146%, 31.115723%, 4.702759%)" offset="0.546875"/><stop stop-opacity="1" stop-color="rgb(43.179321%, 31.338501%, 4.736328%)" offset="0.550781"/><stop stop-opacity="1" stop-color="rgb(43.486023%, 31.561279%, 4.769897%)" offset="0.554688"/><stop stop-opacity="1" stop-color="rgb(43.792725%, 31.782532%, 4.803467%)" offset="0.558594"/><stop stop-opacity="1" stop-color="rgb(44.099426%, 32.00531%, 4.837036%)" offset="0.5625"/><stop stop-opacity="1" stop-color="rgb(44.404602%, 32.226562%, 4.870605%)" offset="0.566406"/><stop stop-opacity="1" stop-color="rgb(44.711304%, 32.449341%, 4.904175%)" offset="0.570313"/><stop stop-opacity="1" stop-color="rgb(45.018005%, 32.672119%, 4.937744%)" offset="0.574219"/><stop stop-opacity="1" stop-color="rgb(45.324707%, 32.894897%, 4.971313%)" offset="0.578125"/><stop stop-opacity="1" stop-color="rgb(45.629883%, 33.11615%, 5.004883%)" offset="0.582031"/><stop stop-opacity="1" stop-color="rgb(45.936584%, 33.338928%, 5.038452%)" offset="0.585938"/><stop stop-opacity="1" stop-color="rgb(46.243286%, 33.560181%, 5.072021%)" offset="0.589844"/><stop stop-opacity="1" stop-color="rgb(46.549988%, 33.782959%, 5.105591%)" offset="0.59375"/><stop stop-opacity="1" stop-color="rgb(46.855164%, 34.005737%, 5.13916%)" offset="0.597656"/><stop stop-opacity="1" stop-color="rgb(47.161865%, 34.228516%, 5.172729%)" offset="0.601563"/><stop stop-opacity="1" stop-color="rgb(47.467041%, 34.449768%, 5.206299%)" offset="0.605469"/><stop stop-opacity="1" stop-color="rgb(47.773743%, 34.672546%, 5.239868%)" offset="0.609375"/><stop stop-opacity="1" stop-color="rgb(48.080444%, 34.893799%, 5.273438%)" offset="0.613281"/><stop stop-opacity="1" stop-color="rgb(48.387146%, 35.116577%, 5.307007%)" offset="0.617188"/><stop stop-opacity="1" stop-color="rgb(48.692322%, 35.339355%, 5.340576%)" offset="0.621094"/><stop stop-opacity="1" stop-color="rgb(48.999023%, 35.562134%, 5.374146%)" offset="0.625"/><stop stop-opacity="1" stop-color="rgb(49.305725%, 35.783386%, 5.407715%)" offset="0.628906"/><stop stop-opacity="1" stop-color="rgb(49.612427%, 36.006165%, 5.441284%)" offset="0.632813"/><stop stop-opacity="1" stop-color="rgb(49.917603%, 36.227417%, 5.474854%)" offset="0.636719"/><stop stop-opacity="1" stop-color="rgb(50.224304%, 36.450195%, 5.508423%)" offset="0.640625"/><stop stop-opacity="1" stop-color="rgb(50.52948%, 36.672974%, 5.541992%)" offset="0.644531"/><stop stop-opacity="1" stop-color="rgb(50.836182%, 36.895752%, 5.575562%)" offset="0.648438"/><stop stop-opacity="1" stop-color="rgb(51.142883%, 37.117004%, 5.609131%)" offset="0.652344"/><stop stop-opacity="1" stop-color="rgb(51.449585%, 37.339783%, 5.6427%)" offset="0.65625"/><stop stop-opacity="1" stop-color="rgb(51.754761%, 37.561035%, 5.67627%)" offset="0.660156"/><stop stop-opacity="1" stop-color="rgb(52.061462%, 37.783813%, 5.709839%)" offset="0.664063"/><stop stop-opacity="1" stop-color="rgb(52.368164%, 38.006592%, 5.743408%)" offset="0.667969"/><stop stop-opacity="1" stop-color="rgb(52.674866%, 38.22937%, 5.776978%)" offset="0.671875"/><stop stop-opacity="1" stop-color="rgb(52.980042%, 38.450623%, 5.810547%)" offset="0.675781"/><stop stop-opacity="1" stop-color="rgb(53.286743%, 38.673401%, 5.844116%)" offset="0.679688"/><stop stop-opacity="1" stop-color="rgb(53.591919%, 38.894653%, 5.877686%)" offset="0.683594"/><stop stop-opacity="1" stop-color="rgb(53.898621%, 39.117432%, 5.911255%)" offset="0.6875"/><stop stop-opacity="1" stop-color="rgb(54.205322%, 39.34021%, 5.944824%)" offset="0.691406"/><stop stop-opacity="1" stop-color="rgb(54.512024%, 39.562988%, 5.978394%)" offset="0.695312"/><stop stop-opacity="1" stop-color="rgb(54.8172%, 39.784241%, 6.011963%)" offset="0.699219"/><stop stop-opacity="1" stop-color="rgb(55.123901%, 40.007019%, 6.045532%)" offset="0.703125"/><stop stop-opacity="1" stop-color="rgb(55.430603%, 40.228271%, 6.079102%)" offset="0.707031"/><stop stop-opacity="1" stop-color="rgb(55.737305%, 40.45105%, 6.112671%)" offset="0.710938"/><stop stop-opacity="1" stop-color="rgb(56.04248%, 40.673828%, 6.14624%)" offset="0.714844"/><stop stop-opacity="1" stop-color="rgb(56.349182%, 40.896606%, 6.17981%)" offset="0.71875"/><stop stop-opacity="1" stop-color="rgb(56.654358%, 41.117859%, 6.213379%)" offset="0.722656"/><stop stop-opacity="1" stop-color="rgb(56.96106%, 41.340637%, 6.246948%)" offset="0.726562"/><stop stop-opacity="1" stop-color="rgb(57.267761%, 41.56189%, 6.280518%)" offset="0.730469"/><stop stop-opacity="1" stop-color="rgb(57.574463%, 41.784668%, 6.315613%)" offset="0.734375"/><stop stop-opacity="1" stop-color="rgb(57.879639%, 42.007446%, 6.349182%)" offset="0.738281"/><stop stop-opacity="1" stop-color="rgb(58.18634%, 42.230225%, 6.382751%)" offset="0.742188"/><stop stop-opacity="1" stop-color="rgb(58.493042%, 42.451477%, 6.416321%)" offset="0.746094"/><stop stop-opacity="1" stop-color="rgb(58.799744%, 42.674255%, 6.44989%)" offset="0.75"/><stop stop-opacity="1" stop-color="rgb(59.104919%, 42.895508%, 6.483459%)" offset="0.753906"/><stop stop-opacity="1" stop-color="rgb(59.411621%, 43.118286%, 6.517029%)" offset="0.757812"/><stop stop-opacity="1" stop-color="rgb(59.716797%, 43.341064%, 6.550598%)" offset="0.761719"/><stop stop-opacity="1" stop-color="rgb(60.023499%, 43.563843%, 6.584167%)" offset="0.765625"/><stop stop-opacity="1" stop-color="rgb(60.3302%, 43.785095%, 6.617737%)" offset="0.769531"/><stop stop-opacity="1" stop-color="rgb(60.636902%, 44.007874%, 6.651306%)" offset="0.773438"/><stop stop-opacity="1" stop-color="rgb(60.942078%, 44.229126%, 6.684875%)" offset="0.777344"/><stop stop-opacity="1" stop-color="rgb(61.248779%, 44.451904%, 6.718445%)" offset="0.78125"/><stop stop-opacity="1" stop-color="rgb(61.555481%, 44.674683%, 6.752014%)" offset="0.785156"/><stop stop-opacity="1" stop-color="rgb(61.862183%, 44.897461%, 6.785583%)" offset="0.789062"/><stop stop-opacity="1" stop-color="rgb(62.167358%, 45.118713%, 6.819153%)" offset="0.792969"/><stop stop-opacity="1" stop-color="rgb(62.47406%, 45.341492%, 6.852722%)" offset="0.796875"/><stop stop-opacity="1" stop-color="rgb(62.780762%, 45.562744%, 6.886292%)" offset="0.800781"/><stop stop-opacity="1" stop-color="rgb(63.087463%, 45.785522%, 6.919861%)" offset="0.804688"/><stop stop-opacity="1" stop-color="rgb(63.392639%, 46.008301%, 6.95343%)" offset="0.808594"/><stop stop-opacity="1" stop-color="rgb(63.699341%, 46.231079%, 6.987%)" offset="0.8125"/><stop stop-opacity="1" stop-color="rgb(64.004517%, 46.452332%, 7.020569%)" offset="0.816406"/><stop stop-opacity="1" stop-color="rgb(64.311218%, 46.67511%, 7.054138%)" offset="0.820312"/><stop stop-opacity="1" stop-color="rgb(64.61792%, 46.896362%, 7.087708%)" offset="0.824219"/><stop stop-opacity="1" stop-color="rgb(64.924622%, 47.119141%, 7.121277%)" offset="0.828125"/><stop stop-opacity="1" stop-color="rgb(65.229797%, 47.341919%, 7.154846%)" offset="0.832031"/><stop stop-opacity="1" stop-color="rgb(65.536499%, 47.564697%, 7.188416%)" offset="0.835937"/><stop stop-opacity="1" stop-color="rgb(65.843201%, 47.78595%, 7.221985%)" offset="0.839844"/><stop stop-opacity="1" stop-color="rgb(66.149902%, 48.008728%, 7.255554%)" offset="0.84375"/><stop stop-opacity="1" stop-color="rgb(66.455078%, 48.22998%, 7.289124%)" offset="0.847656"/><stop stop-opacity="1" stop-color="rgb(66.76178%, 48.452759%, 7.322693%)" offset="0.851562"/><stop stop-opacity="1" stop-color="rgb(67.066956%, 48.675537%, 7.356262%)" offset="0.855469"/><stop stop-opacity="1" stop-color="rgb(67.373657%, 48.898315%, 7.389832%)" offset="0.859375"/><stop stop-opacity="1" stop-color="rgb(67.680359%, 49.119568%, 7.423401%)" offset="0.863281"/><stop stop-opacity="1" stop-color="rgb(67.987061%, 49.342346%, 7.45697%)" offset="0.867187"/><stop stop-opacity="1" stop-color="rgb(68.292236%, 49.563599%, 7.49054%)" offset="0.871094"/><stop stop-opacity="1" stop-color="rgb(68.598938%, 49.786377%, 7.524109%)" offset="0.875"/><stop stop-opacity="1" stop-color="rgb(68.90564%, 50.009155%, 7.557678%)" offset="0.878906"/><stop stop-opacity="1" stop-color="rgb(69.212341%, 50.231934%, 7.591248%)" offset="0.882812"/><stop stop-opacity="1" stop-color="rgb(69.517517%, 50.453186%, 7.624817%)" offset="0.886719"/><stop stop-opacity="1" stop-color="rgb(69.824219%, 50.675964%, 7.658386%)" offset="0.890625"/><stop stop-opacity="1" stop-color="rgb(70.129395%, 50.897217%, 7.691956%)" offset="0.894531"/><stop stop-opacity="1" stop-color="rgb(70.436096%, 51.119995%, 7.725525%)" offset="0.898437"/><stop stop-opacity="1" stop-color="rgb(70.742798%, 51.342773%, 7.759094%)" offset="0.902344"/><stop stop-opacity="1" stop-color="rgb(71.0495%, 51.565552%, 7.792664%)" offset="0.90625"/><stop stop-opacity="1" stop-color="rgb(71.354675%, 51.786804%, 7.826233%)" offset="0.910156"/><stop stop-opacity="1" stop-color="rgb(71.661377%, 52.009583%, 7.859802%)" offset="0.914062"/><stop stop-opacity="1" stop-color="rgb(71.968079%, 52.230835%, 7.893372%)" offset="0.917969"/><stop stop-opacity="1" stop-color="rgb(72.27478%, 52.453613%, 7.926941%)" offset="0.921875"/><stop stop-opacity="1" stop-color="rgb(72.579956%, 52.676392%, 7.96051%)" offset="0.925781"/><stop stop-opacity="1" stop-color="rgb(72.886658%, 52.89917%, 7.99408%)" offset="0.929687"/><stop stop-opacity="1" stop-color="rgb(73.191833%, 53.120422%, 8.027649%)" offset="0.933594"/><stop stop-opacity="1" stop-color="rgb(73.498535%, 53.343201%, 8.061218%)" offset="0.9375"/><stop stop-opacity="1" stop-color="rgb(73.805237%, 53.564453%, 8.094788%)" offset="0.941406"/><stop stop-opacity="1" stop-color="rgb(74.111938%, 53.787231%, 8.128357%)" offset="0.945312"/><stop stop-opacity="1" stop-color="rgb(74.417114%, 54.01001%, 8.161926%)" offset="0.949219"/><stop stop-opacity="1" stop-color="rgb(74.723816%, 54.232788%, 8.195496%)" offset="0.953125"/><stop stop-opacity="1" stop-color="rgb(75.030518%, 54.454041%, 8.229065%)" offset="0.957031"/><stop stop-opacity="1" stop-color="rgb(75.337219%, 54.676819%, 8.262634%)" offset="0.960938"/><stop stop-opacity="1" stop-color="rgb(75.642395%, 54.898071%, 8.296204%)" offset="0.964844"/><stop stop-opacity="1" stop-color="rgb(75.949097%, 55.12085%, 8.329773%)" offset="0.96875"/><stop stop-opacity="1" stop-color="rgb(76.254272%, 55.342102%, 8.363342%)" offset="0.972656"/><stop stop-opacity="1" stop-color="rgb(76.560974%, 55.56488%, 8.396912%)" offset="0.976562"/><stop stop-opacity="1" stop-color="rgb(76.867676%, 55.787659%, 8.430481%)" offset="0.980469"/><stop stop-opacity="1" stop-color="rgb(77.174377%, 56.010437%, 8.465576%)" offset="0.984375"/><stop stop-opacity="1" stop-color="rgb(77.479553%, 56.231689%, 8.499146%)" offset="0.988281"/><stop stop-opacity="1" stop-color="rgb(77.786255%, 56.454468%, 8.532715%)" offset="0.992188"/><stop stop-opacity="1" stop-color="rgb(78.092957%, 56.67572%, 8.566284%)" offset="0.996094"/><stop stop-opacity="1" stop-color="rgb(78.399658%, 56.898499%, 8.599854%)" offset="1"/></linearGradient><clipPath id="bd2ced7b95"><path d="M 269 230.398438 L 499.050781 230.398438 L 499.050781 537.898438 L 269 537.898438 Z M 269 230.398438 " clip-rule="nonzero"/></clipPath></defs><g clip-path="url(#24e02532ed)"><g clip-path="url(#cccede4ed7)"><path fill="url(#3ccd78ff7f)" d="M 14.828125 0 L 14.828125 767.1875 L 753.171875 767.1875 L 753.171875 0 Z M 14.828125 0 " fill-rule="nonzero"/></g></g><g clip-path="url(#bd2ced7b95)"><path fill="#ffffff" d="M 483.101562 266.140625 L 441.8125 266.140625 L 441.8125 247.1875 C 441.8125 246.648438 441.785156 246.113281 441.730469 245.578125 C 441.679688 245.042969 441.597656 244.511719 441.492188 243.984375 C 441.386719 243.457031 441.257812 242.9375 441.101562 242.421875 C 440.945312 241.90625 440.761719 241.402344 440.558594 240.90625 C 440.351562 240.410156 440.121094 239.925781 439.867188 239.449219 C 439.613281 238.976562 439.339844 238.515625 439.039062 238.070312 C 438.742188 237.621094 438.421875 237.191406 438.078125 236.777344 C 437.738281 236.359375 437.378906 235.960938 436.996094 235.582031 C 436.617188 235.203125 436.21875 234.84375 435.804688 234.5 C 435.390625 234.160156 434.957031 233.839844 434.511719 233.542969 C 434.0625 233.242188 433.605469 232.964844 433.128906 232.710938 C 432.65625 232.460938 432.171875 232.230469 431.675781 232.023438 C 431.179688 231.816406 430.671875 231.636719 430.15625 231.480469 C 429.644531 231.324219 429.125 231.191406 428.597656 231.085938 C 428.070312 230.980469 427.539062 230.902344 427.003906 230.847656 C 426.46875 230.796875 425.933594 230.769531 425.394531 230.769531 L 343.144531 230.769531 C 342.609375 230.769531 342.070312 230.796875 341.535156 230.847656 C 341.003906 230.902344 340.472656 230.980469 339.945312 231.085938 C 339.417969 231.191406 338.894531 231.324219 338.382812 231.480469 C 337.867188 231.636719 337.363281 231.816406 336.867188 232.023438 C 336.371094 232.230469 335.882812 232.460938 335.410156 232.710938 C 334.9375 232.964844 334.476562 233.242188 334.027344 233.542969 C 333.582031 233.839844 333.152344 234.160156 332.734375 234.5 C 332.320312 234.84375 331.921875 235.203125 331.542969 235.582031 C 331.160156 235.960938 330.800781 236.359375 330.460938 236.777344 C 330.121094 237.191406 329.800781 237.621094 329.5 238.070312 C 329.203125 238.515625 328.925781 238.976562 328.671875 239.449219 C 328.417969 239.925781 328.1875 240.410156 327.984375 240.90625 C 327.777344 241.402344 327.59375 241.90625 327.4375 242.421875 C 327.28125 242.9375 327.152344 243.457031 327.046875 243.984375 C 326.941406 244.511719 326.863281 245.042969 326.808594 245.578125 C 326.753906 246.113281 326.730469 246.648438 326.726562 247.1875 L 326.726562 266.140625 L 285.4375 266.140625 C 284.898438 266.144531 284.363281 266.167969 283.828125 266.222656 C 283.292969 266.277344 282.761719 266.355469 282.234375 266.460938 C 281.707031 266.566406 281.1875 266.695312 280.671875 266.851562 C 280.160156 267.007812 279.652344 267.191406 279.15625 267.398438 C 278.660156 267.601562 278.175781 267.832031 277.699219 268.085938 C 277.226562 268.339844 276.765625 268.617188 276.320312 268.914062 C 275.871094 269.214844 275.441406 269.535156 275.027344 269.875 C 274.609375 270.214844 274.210938 270.574219 273.832031 270.957031 C 273.453125 271.335938 273.09375 271.734375 272.75 272.148438 C 272.410156 272.566406 272.089844 272.996094 271.792969 273.441406 C 271.492188 273.890625 271.214844 274.351562 270.960938 274.824219 C 270.710938 275.296875 270.480469 275.785156 270.273438 276.28125 C 270.066406 276.777344 269.886719 277.28125 269.730469 277.796875 C 269.574219 278.308594 269.441406 278.832031 269.335938 279.359375 C 269.230469 279.886719 269.152344 280.417969 269.097656 280.949219 C 269.046875 281.484375 269.019531 282.023438 269.019531 282.558594 L 269.019531 294.597656 C 269.035156 295.214844 269.085938 295.832031 269.167969 296.441406 C 269.253906 297.054688 269.367188 297.660156 269.515625 298.257812 C 269.664062 298.855469 269.847656 299.445312 270.058594 300.027344 C 270.269531 300.605469 270.511719 301.171875 270.785156 301.726562 C 271.058594 302.277344 271.359375 302.816406 271.691406 303.335938 C 272.023438 303.859375 272.382812 304.359375 272.765625 304.84375 C 273.152344 305.324219 273.5625 305.785156 273.996094 306.222656 C 274.433594 306.660156 274.890625 307.074219 275.367188 307.460938 C 275.847656 307.851562 276.347656 308.214844 276.867188 308.546875 C 277.382812 308.882812 277.917969 309.1875 278.46875 309.464844 C 279.023438 309.742188 279.585938 309.992188 280.164062 310.207031 C 280.742188 310.421875 281.332031 310.609375 281.929688 310.761719 C 282.527344 310.914062 283.132812 311.035156 283.742188 311.121094 C 284.351562 311.210938 284.96875 311.265625 285.585938 311.285156 C 286.199219 311.308594 286.816406 311.296875 287.433594 311.25 C 288.046875 311.207031 288.660156 311.128906 289.265625 311.015625 L 298.953125 511.1875 C 298.996094 512.054688 299.078125 512.917969 299.199219 513.777344 C 299.324219 514.636719 299.488281 515.492188 299.691406 516.335938 C 299.898438 517.179688 300.140625 518.011719 300.425781 518.832031 C 300.710938 519.652344 301.03125 520.460938 301.394531 521.25 C 301.753906 522.039062 302.152344 522.8125 302.585938 523.566406 C 303.019531 524.316406 303.492188 525.046875 303.996094 525.753906 C 304.5 526.460938 305.035156 527.144531 305.605469 527.800781 C 306.175781 528.457031 306.773438 529.085938 307.402344 529.683594 C 308.03125 530.285156 308.6875 530.851562 309.371094 531.386719 C 310.054688 531.925781 310.761719 532.429688 311.492188 532.898438 C 312.226562 533.367188 312.976562 533.800781 313.75 534.199219 C 314.523438 534.59375 315.3125 534.957031 316.117188 535.277344 C 316.925781 535.601562 317.746094 535.882812 318.582031 536.125 C 319.414062 536.371094 320.257812 536.574219 321.109375 536.738281 C 321.964844 536.902344 322.824219 537.023438 323.6875 537.105469 C 324.554688 537.1875 325.421875 537.226562 326.289062 537.226562 L 442.246094 537.226562 C 443.117188 537.226562 443.984375 537.1875 444.847656 537.105469 C 445.714844 537.023438 446.574219 536.902344 447.425781 536.738281 C 448.277344 536.574219 449.121094 536.371094 449.957031 536.125 C 450.789062 535.882812 451.609375 535.597656 452.417969 535.277344 C 453.222656 534.953125 454.011719 534.59375 454.785156 534.195312 C 455.558594 533.796875 456.308594 533.367188 457.042969 532.894531 C 457.773438 532.425781 458.480469 531.921875 459.164062 531.386719 C 459.847656 530.851562 460.5 530.28125 461.128906 529.683594 C 461.761719 529.082031 462.359375 528.457031 462.929688 527.800781 C 463.496094 527.144531 464.035156 526.460938 464.539062 525.753906 C 465.042969 525.046875 465.511719 524.316406 465.945312 523.5625 C 466.378906 522.8125 466.777344 522.039062 467.140625 521.25 C 467.5 520.460938 467.820312 519.652344 468.105469 518.832031 C 468.390625 518.011719 468.636719 517.179688 468.839844 516.335938 C 469.042969 515.492188 469.207031 514.636719 469.332031 513.777344 C 469.457031 512.917969 469.539062 512.054688 469.578125 511.1875 L 479.265625 311.015625 C 479.871094 311.125 480.484375 311.203125 481.097656 311.25 C 481.714844 311.292969 482.332031 311.304688 482.949219 311.285156 C 483.566406 311.261719 484.179688 311.207031 484.789062 311.121094 C 485.402344 311.03125 486.003906 310.910156 486.601562 310.757812 C 487.199219 310.605469 487.789062 310.421875 488.367188 310.207031 C 488.945312 309.988281 489.511719 309.742188 490.0625 309.464844 C 490.613281 309.1875 491.148438 308.882812 491.667969 308.546875 C 492.183594 308.210938 492.683594 307.851562 493.164062 307.460938 C 493.644531 307.074219 494.101562 306.660156 494.535156 306.222656 C 494.96875 305.78125 495.378906 305.324219 495.765625 304.839844 C 496.148438 304.359375 496.507812 303.855469 496.839844 303.335938 C 497.171875 302.816406 497.472656 302.277344 497.746094 301.722656 C 498.019531 301.171875 498.261719 300.605469 498.472656 300.023438 C 498.6875 299.445312 498.867188 298.855469 499.015625 298.257812 C 499.164062 297.65625 499.28125 297.050781 499.363281 296.441406 C 499.445312 295.828125 499.496094 295.214844 499.511719 294.597656 L 499.511719 282.558594 C 499.511719 282.019531 499.484375 281.484375 499.433594 280.949219 C 499.378906 280.414062 499.300781 279.882812 499.195312 279.355469 C 499.089844 278.832031 498.957031 278.308594 498.800781 277.796875 C 498.644531 277.28125 498.464844 276.777344 498.257812 276.28125 C 498.050781 275.785156 497.824219 275.296875 497.570312 274.824219 C 497.316406 274.351562 497.039062 273.890625 496.742188 273.445312 C 496.441406 272.996094 496.121094 272.566406 495.78125 272.152344 C 495.441406 271.734375 495.082031 271.335938 494.699219 270.957031 C 494.320312 270.578125 493.921875 270.21875 493.507812 269.875 C 493.09375 269.535156 492.660156 269.214844 492.214844 268.917969 C 491.769531 268.617188 491.308594 268.339844 490.835938 268.085938 C 490.359375 267.835938 489.875 267.605469 489.378906 267.398438 C 488.882812 267.191406 488.378906 267.011719 487.863281 266.855469 C 487.347656 266.699219 486.828125 266.566406 486.300781 266.460938 C 485.773438 266.355469 485.246094 266.277344 484.710938 266.222656 C 484.175781 266.171875 483.640625 266.144531 483.101562 266.140625 Z M 337.671875 247.1875 C 337.671875 246.828125 337.707031 246.472656 337.777344 246.117188 C 337.847656 245.765625 337.953125 245.425781 338.089844 245.09375 C 338.230469 244.761719 338.398438 244.445312 338.597656 244.148438 C 338.796875 243.847656 339.023438 243.570312 339.277344 243.316406 C 339.53125 243.0625 339.808594 242.835938 340.105469 242.636719 C 340.40625 242.4375 340.71875 242.269531 341.050781 242.132812 C 341.382812 241.992188 341.726562 241.890625 342.078125 241.820312 C 342.429688 241.75 342.785156 241.714844 343.144531 241.714844 L 425.390625 241.714844 C 425.75 241.714844 426.105469 241.75 426.460938 241.820312 C 426.8125 241.890625 427.152344 241.992188 427.484375 242.132812 C 427.816406 242.269531 428.132812 242.4375 428.429688 242.636719 C 428.730469 242.835938 429.007812 243.0625 429.261719 243.316406 C 429.515625 243.570312 429.742188 243.847656 429.941406 244.148438 C 430.140625 244.445312 430.308594 244.761719 430.445312 245.09375 C 430.585938 245.425781 430.6875 245.765625 430.757812 246.117188 C 430.828125 246.472656 430.863281 246.828125 430.863281 247.1875 L 430.863281 266.140625 L 337.671875 266.140625 Z M 458.644531 510.660156 C 458.59375 511.703125 458.445312 512.734375 458.199219 513.75 C 457.957031 514.765625 457.613281 515.746094 457.179688 516.699219 C 456.746094 517.648438 456.226562 518.546875 455.621094 519.398438 C 455.015625 520.25 454.332031 521.035156 453.578125 521.757812 C 452.820312 522.476562 452.003906 523.121094 451.125 523.683594 C 450.242188 524.25 449.320312 524.726562 448.347656 525.113281 C 447.378906 525.5 446.378906 525.792969 445.355469 525.988281 C 444.328125 526.183594 443.292969 526.28125 442.246094 526.28125 L 326.289062 526.28125 C 325.246094 526.28125 324.210938 526.183594 323.183594 525.988281 C 322.15625 525.792969 321.160156 525.5 320.1875 525.113281 C 319.21875 524.722656 318.292969 524.25 317.414062 523.683594 C 316.535156 523.121094 315.714844 522.476562 314.960938 521.757812 C 314.203125 521.035156 313.523438 520.25 312.917969 519.398438 C 312.308594 518.546875 311.789062 517.644531 311.355469 516.695312 C 310.921875 515.746094 310.582031 514.761719 310.335938 513.746094 C 310.089844 512.730469 309.941406 511.703125 309.894531 510.65625 L 300.230469 311.015625 L 468.304688 311.015625 Z M 488.574219 294.597656 C 488.574219 294.957031 488.539062 295.3125 488.46875 295.664062 C 488.398438 296.015625 488.292969 296.359375 488.15625 296.691406 C 488.019531 297.023438 487.847656 297.335938 487.648438 297.636719 C 487.449219 297.933594 487.222656 298.210938 486.96875 298.464844 C 486.714844 298.71875 486.4375 298.945312 486.140625 299.144531 C 485.84375 299.34375 485.527344 299.515625 485.195312 299.652344 C 484.863281 299.789062 484.519531 299.894531 484.167969 299.964844 C 483.816406 300.035156 483.460938 300.070312 483.101562 300.070312 L 285.4375 300.070312 C 285.078125 300.070312 284.722656 300.035156 284.367188 299.964844 C 284.015625 299.894531 283.675781 299.789062 283.34375 299.652344 C 283.011719 299.515625 282.695312 299.34375 282.398438 299.144531 C 282.097656 298.945312 281.824219 298.71875 281.570312 298.464844 C 281.3125 298.210938 281.085938 297.933594 280.886719 297.636719 C 280.6875 297.335938 280.519531 297.023438 280.382812 296.691406 C 280.246094 296.359375 280.140625 296.015625 280.070312 295.664062 C 280 295.3125 279.964844 294.957031 279.964844 294.597656 L 279.964844 282.558594 C 279.964844 282.199219 280 281.84375 280.070312 281.492188 C 280.140625 281.136719 280.246094 280.796875 280.382812 280.464844 C 280.519531 280.132812 280.6875 279.816406 280.886719 279.519531 C 281.085938 279.21875 281.3125 278.945312 281.566406 278.691406 C 281.824219 278.4375 282.097656 278.210938 282.398438 278.007812 C 282.695312 277.808594 283.011719 277.640625 283.34375 277.503906 C 283.675781 277.367188 284.015625 277.261719 284.367188 277.191406 C 284.722656 277.121094 285.078125 277.085938 285.4375 277.085938 L 483.101562 277.085938 C 483.460938 277.085938 483.816406 277.121094 484.167969 277.191406 C 484.519531 277.261719 484.863281 277.367188 485.195312 277.503906 C 485.527344 277.640625 485.84375 277.808594 486.140625 278.007812 C 486.4375 278.210938 486.714844 278.4375 486.96875 278.691406 C 487.222656 278.945312 487.449219 279.21875 487.648438 279.519531 C 487.851562 279.816406 488.019531 280.132812 488.15625 280.464844 C 488.292969 280.796875 488.398438 281.136719 488.46875 281.492188 C 488.539062 281.84375 488.574219 282.199219 488.574219 282.558594 Z M 488.574219 294.597656 " fill-opacity="1" fill-rule="nonzero"/></g><path fill="#ffffff" d="M 384.269531 480.675781 C 384.628906 480.675781 384.984375 480.640625 385.335938 480.570312 C 385.6875 480.5 386.03125 480.394531 386.363281 480.257812 C 386.695312 480.121094 387.011719 479.953125 387.308594 479.75 C 387.609375 479.550781 387.882812 479.324219 388.136719 479.070312 C 388.394531 478.816406 388.621094 478.539062 388.820312 478.242188 C 389.019531 477.941406 389.1875 477.628906 389.324219 477.296875 C 389.460938 476.964844 389.566406 476.621094 389.636719 476.269531 C 389.707031 475.917969 389.742188 475.5625 389.742188 475.203125 L 389.742188 362.09375 C 389.742188 361.734375 389.707031 361.378906 389.636719 361.027344 C 389.566406 360.675781 389.460938 360.332031 389.324219 360 C 389.1875 359.667969 389.019531 359.351562 388.820312 359.054688 C 388.621094 358.753906 388.394531 358.480469 388.136719 358.226562 C 387.882812 357.972656 387.609375 357.742188 387.308594 357.542969 C 387.011719 357.34375 386.695312 357.175781 386.363281 357.039062 C 386.03125 356.902344 385.6875 356.796875 385.335938 356.726562 C 384.984375 356.65625 384.628906 356.621094 384.269531 356.621094 C 383.910156 356.621094 383.554688 356.65625 383.203125 356.726562 C 382.847656 356.796875 382.507812 356.902344 382.175781 357.039062 C 381.84375 357.175781 381.527344 357.34375 381.230469 357.542969 C 380.929688 357.742188 380.652344 357.972656 380.398438 358.226562 C 380.144531 358.480469 379.917969 358.753906 379.71875 359.054688 C 379.519531 359.351562 379.351562 359.667969 379.214844 360 C 379.074219 360.332031 378.972656 360.675781 378.902344 361.027344 C 378.832031 361.378906 378.796875 361.734375 378.796875 362.09375 L 378.796875 475.203125 C 378.796875 475.5625 378.832031 475.917969 378.902344 476.269531 C 378.972656 476.621094 379.074219 476.964844 379.214844 477.296875 C 379.351562 477.628906 379.519531 477.941406 379.71875 478.242188 C 379.917969 478.539062 380.144531 478.816406 380.398438 479.070312 C 380.652344 479.324219 380.929688 479.550781 381.230469 479.75 C 381.527344 479.953125 381.84375 480.121094 382.175781 480.257812 C 382.507812 480.394531 382.847656 480.5 383.203125 480.570312 C 383.554688 480.640625 383.910156 480.675781 384.269531 480.675781 Z M 384.269531 480.675781 " fill-opacity="1" fill-rule="nonzero"/><path fill="#ffffff" d="M 428.046875 480.675781 C 428.40625 480.675781 428.765625 480.640625 429.117188 480.570312 C 429.46875 480.5 429.8125 480.394531 430.144531 480.257812 C 430.476562 480.121094 430.789062 479.953125 431.089844 479.75 C 431.386719 479.550781 431.664062 479.324219 431.917969 479.070312 C 432.171875 478.816406 432.398438 478.539062 432.597656 478.242188 C 432.796875 477.941406 432.96875 477.628906 433.105469 477.296875 C 433.242188 476.964844 433.347656 476.621094 433.414062 476.269531 C 433.484375 475.917969 433.519531 475.5625 433.519531 475.203125 L 433.519531 362.09375 C 433.519531 361.734375 433.484375 361.378906 433.414062 361.027344 C 433.347656 360.675781 433.242188 360.332031 433.105469 360 C 432.96875 359.667969 432.796875 359.351562 432.597656 359.054688 C 432.398438 358.753906 432.171875 358.480469 431.917969 358.226562 C 431.664062 357.972656 431.386719 357.742188 431.089844 357.542969 C 430.789062 357.34375 430.476562 357.175781 430.144531 357.039062 C 429.8125 356.902344 429.46875 356.796875 429.117188 356.726562 C 428.765625 356.65625 428.40625 356.621094 428.046875 356.621094 C 427.6875 356.621094 427.332031 356.65625 426.980469 356.726562 C 426.628906 356.796875 426.285156 356.902344 425.953125 357.039062 C 425.621094 357.175781 425.308594 357.34375 425.007812 357.542969 C 424.710938 357.742188 424.433594 357.972656 424.179688 358.226562 C 423.925781 358.480469 423.699219 358.753906 423.5 359.054688 C 423.296875 359.351562 423.128906 359.667969 422.992188 360 C 422.855469 360.332031 422.75 360.675781 422.679688 361.027344 C 422.609375 361.378906 422.574219 361.734375 422.574219 362.09375 L 422.574219 475.203125 C 422.574219 475.5625 422.609375 475.917969 422.679688 476.269531 C 422.75 476.621094 422.855469 476.964844 422.992188 477.296875 C 423.128906 477.628906 423.296875 477.941406 423.5 478.242188 C 423.699219 478.539062 423.925781 478.816406 424.179688 479.070312 C 424.433594 479.324219 424.710938 479.550781 425.007812 479.75 C 425.308594 479.953125 425.621094 480.121094 425.953125 480.257812 C 426.285156 480.394531 426.628906 480.5 426.980469 480.570312 C 427.332031 480.640625 427.6875 480.675781 428.046875 480.675781 Z M 428.046875 480.675781 " fill-opacity="1" fill-rule="nonzero"/><path fill="#ffffff" d="M 340.488281 480.675781 C 340.847656 480.675781 341.203125 480.640625 341.558594 480.570312 C 341.910156 480.5 342.25 480.394531 342.582031 480.257812 C 342.914062 480.121094 343.230469 479.953125 343.53125 479.75 C 343.828125 479.550781 344.105469 479.324219 344.359375 479.070312 C 344.613281 478.816406 344.839844 478.539062 345.039062 478.242188 C 345.238281 477.941406 345.40625 477.628906 345.546875 477.296875 C 345.683594 476.964844 345.785156 476.621094 345.855469 476.269531 C 345.925781 475.917969 345.960938 475.5625 345.960938 475.203125 L 345.960938 362.09375 C 345.960938 361.734375 345.925781 361.378906 345.855469 361.027344 C 345.785156 360.675781 345.683594 360.332031 345.546875 360 C 345.40625 359.667969 345.238281 359.351562 345.039062 359.054688 C 344.839844 358.753906 344.613281 358.480469 344.359375 358.226562 C 344.105469 357.972656 343.828125 357.742188 343.53125 357.542969 C 343.230469 357.34375 342.914062 357.175781 342.582031 357.039062 C 342.25 356.902344 341.910156 356.796875 341.558594 356.726562 C 341.203125 356.65625 340.847656 356.621094 340.488281 356.621094 C 340.128906 356.621094 339.773438 356.65625 339.421875 356.726562 C 339.070312 356.796875 338.726562 356.902344 338.394531 357.039062 C 338.0625 357.175781 337.746094 357.34375 337.449219 357.542969 C 337.148438 357.742188 336.875 357.972656 336.621094 358.226562 C 336.367188 358.480469 336.140625 358.753906 335.9375 359.054688 C 335.738281 359.351562 335.570312 359.667969 335.433594 360 C 335.296875 360.332031 335.191406 360.675781 335.121094 361.027344 C 335.050781 361.378906 335.015625 361.734375 335.015625 362.09375 L 335.015625 475.203125 C 335.015625 475.5625 335.050781 475.917969 335.121094 476.269531 C 335.191406 476.621094 335.296875 476.964844 335.433594 477.296875 C 335.570312 477.628906 335.738281 477.941406 335.9375 478.242188 C 336.140625 478.539062 336.367188 478.816406 336.621094 479.070312 C 336.875 479.324219 337.148438 479.550781 337.449219 479.75 C 337.746094 479.953125 338.0625 480.121094 338.394531 480.257812 C 338.726562 480.394531 339.070312 480.5 339.421875 480.570312 C 339.773438 480.640625 340.128906 480.675781 340.488281 480.675781 Z M 340.488281 480.675781 " fill-opacity="1" fill-rule="nonzero"/></svg>