<svg xmlns="http://www.w3.org/2000/svg" xmlns:xlink="http://www.w3.org/1999/xlink" width="1024" zoomAndPan="magnify" viewBox="0 0 768 767.999994" height="1024" preserveAspectRatio="xMidYMid meet" version="1.0"><defs><clipPath id="17abbb8874"><path d="M 14.828125 0 L 753.171875 0 L 753.171875 767.1875 L 14.828125 767.1875 Z M 14.828125 0 " clip-rule="nonzero"/></clipPath><clipPath id="605ed04555"><path d="M 617.417969 768 L 150.582031 768 C 75.777344 768 14.828125 707.046875 14.828125 632.242188 L 14.828125 135.757812 C 14.828125 60.953125 75.777344 0 150.582031 0 L 617.417969 0 C 692.222656 0 753.171875 60.953125 753.171875 135.757812 L 753.171875 632.242188 C 753.171875 707.046875 692.222656 768 617.417969 768 Z M 617.417969 768 " clip-rule="nonzero"/></clipPath><linearGradient x1="-0.000000110185" gradientTransform="matrix(2.884164, 0, 0, 2.884164, 14.826985, -0.00108)" y1="133.141006" x2="255.999981" gradientUnits="userSpaceOnUse" y2="133.141006" id="7880ea8c48"><stop stop-opacity="1" stop-color="rgb(0%, 0%, 0%)" offset="0"/><stop stop-opacity="1" stop-color="rgb(0.305176%, 0.221252%, 0.0335693%)" offset="0.00390625"/><stop stop-opacity="1" stop-color="rgb(0.611877%, 0.444031%, 0.0671387%)" offset="0.0078125"/><stop stop-opacity="1" stop-color="rgb(0.917053%, 0.665283%, 0.100708%)" offset="0.0117187"/><stop stop-opacity="1" stop-color="rgb(1.223755%, 0.888062%, 0.134277%)" offset="0.015625"/><stop stop-opacity="1" stop-color="rgb(1.530457%, 1.109314%, 0.167847%)" offset="0.0195312"/><stop stop-opacity="1" stop-color="rgb(1.837158%, 1.332092%, 0.201416%)" offset="0.0234375"/><stop stop-opacity="1" stop-color="rgb(2.142334%, 1.554871%, 0.234985%)" offset="0.0273437"/><stop stop-opacity="1" stop-color="rgb(2.449036%, 1.777649%, 0.268555%)" offset="0.03125"/><stop stop-opacity="1" stop-color="rgb(2.755737%, 1.998901%, 0.302124%)" offset="0.0351562"/><stop stop-opacity="1" stop-color="rgb(3.062439%, 2.22168%, 0.335693%)" offset="0.0390625"/><stop stop-opacity="1" stop-color="rgb(3.367615%, 2.442932%, 0.369263%)" offset="0.0429687"/><stop stop-opacity="1" stop-color="rgb(3.674316%, 2.66571%, 0.402832%)" offset="0.046875"/><stop stop-opacity="1" stop-color="rgb(3.979492%, 2.888489%, 0.436401%)" offset="0.0507812"/><stop stop-opacity="1" stop-color="rgb(4.286194%, 3.111267%, 0.469971%)" offset="0.0546875"/><stop stop-opacity="1" stop-color="rgb(4.592896%, 3.33252%, 0.50354%)" offset="0.0585938"/><stop stop-opacity="1" stop-color="rgb(4.899597%, 3.555298%, 0.537109%)" offset="0.0625"/><stop stop-opacity="1" stop-color="rgb(5.204773%, 3.77655%, 0.570679%)" offset="0.0664062"/><stop stop-opacity="1" stop-color="rgb(5.511475%, 3.999329%, 0.604248%)" offset="0.0703125"/><stop stop-opacity="1" stop-color="rgb(5.818176%, 4.222107%, 0.637817%)" offset="0.0742187"/><stop stop-opacity="1" stop-color="rgb(6.124878%, 4.444885%, 0.671387%)" offset="0.078125"/><stop stop-opacity="1" stop-color="rgb(6.430054%, 4.666138%, 0.704956%)" offset="0.0820312"/><stop stop-opacity="1" stop-color="rgb(6.736755%, 4.888916%, 0.738525%)" offset="0.0859375"/><stop stop-opacity="1" stop-color="rgb(7.041931%, 5.110168%, 0.772095%)" offset="0.0898437"/><stop stop-opacity="1" stop-color="rgb(7.348633%, 5.332947%, 0.805664%)" offset="0.09375"/><stop stop-opacity="1" stop-color="rgb(7.655334%, 5.555725%, 0.839233%)" offset="0.0976562"/><stop stop-opacity="1" stop-color="rgb(7.962036%, 5.778503%, 0.872803%)" offset="0.101562"/><stop stop-opacity="1" stop-color="rgb(8.267212%, 5.999756%, 0.906372%)" offset="0.105469"/><stop stop-opacity="1" stop-color="rgb(8.573914%, 6.222534%, 0.939941%)" offset="0.109375"/><stop stop-opacity="1" stop-color="rgb(8.880615%, 6.443787%, 0.973511%)" offset="0.113281"/><stop stop-opacity="1" stop-color="rgb(9.187317%, 6.666565%, 1.00708%)" offset="0.117188"/><stop stop-opacity="1" stop-color="rgb(9.492493%, 6.889343%, 1.040649%)" offset="0.121094"/><stop stop-opacity="1" stop-color="rgb(9.799194%, 7.112122%, 1.074219%)" offset="0.125"/><stop stop-opacity="1" stop-color="rgb(10.10437%, 7.333374%, 1.107788%)" offset="0.128906"/><stop stop-opacity="1" stop-color="rgb(10.411072%, 7.556152%, 1.141357%)" offset="0.132812"/><stop stop-opacity="1" stop-color="rgb(10.717773%, 7.777405%, 1.174927%)" offset="0.136719"/><stop stop-opacity="1" stop-color="rgb(11.024475%, 8.000183%, 1.208496%)" offset="0.140625"/><stop stop-opacity="1" stop-color="rgb(11.329651%, 8.222961%, 1.242065%)" offset="0.144531"/><stop stop-opacity="1" stop-color="rgb(11.636353%, 8.44574%, 1.275635%)" offset="0.148437"/><stop stop-opacity="1" stop-color="rgb(11.943054%, 8.666992%, 1.309204%)" offset="0.152344"/><stop stop-opacity="1" stop-color="rgb(12.249756%, 8.889771%, 1.342773%)" offset="0.15625"/><stop stop-opacity="1" stop-color="rgb(12.554932%, 9.111023%, 1.376343%)" offset="0.160156"/><stop stop-opacity="1" stop-color="rgb(12.861633%, 9.333801%, 1.409912%)" offset="0.164062"/><stop stop-opacity="1" stop-color="rgb(13.166809%, 9.55658%, 1.443481%)" offset="0.167969"/><stop stop-opacity="1" stop-color="rgb(13.473511%, 9.779358%, 1.477051%)" offset="0.171875"/><stop stop-opacity="1" stop-color="rgb(13.780212%, 10.00061%, 1.51062%)" offset="0.175781"/><stop stop-opacity="1" stop-color="rgb(14.086914%, 10.223389%, 1.544189%)" offset="0.179687"/><stop stop-opacity="1" stop-color="rgb(14.39209%, 10.444641%, 1.577759%)" offset="0.183594"/><stop stop-opacity="1" stop-color="rgb(14.698792%, 10.667419%, 1.611328%)" offset="0.1875"/><stop stop-opacity="1" stop-color="rgb(15.005493%, 10.890198%, 1.644897%)" offset="0.191406"/><stop stop-opacity="1" stop-color="rgb(15.312195%, 11.112976%, 1.678467%)" offset="0.195312"/><stop stop-opacity="1" stop-color="rgb(15.617371%, 11.334229%, 1.712036%)" offset="0.199219"/><stop stop-opacity="1" stop-color="rgb(15.924072%, 11.557007%, 1.745605%)" offset="0.203125"/><stop stop-opacity="1" stop-color="rgb(16.230774%, 11.778259%, 1.779175%)" offset="0.207031"/><stop stop-opacity="1" stop-color="rgb(16.537476%, 12.001038%, 1.812744%)" offset="0.210937"/><stop stop-opacity="1" stop-color="rgb(16.842651%, 12.223816%, 1.846313%)" offset="0.214844"/><stop stop-opacity="1" stop-color="rgb(17.149353%, 12.446594%, 1.879883%)" offset="0.21875"/><stop stop-opacity="1" stop-color="rgb(17.454529%, 12.667847%, 1.913452%)" offset="0.222656"/><stop stop-opacity="1" stop-color="rgb(17.76123%, 12.890625%, 1.947021%)" offset="0.226562"/><stop stop-opacity="1" stop-color="rgb(18.067932%, 13.111877%, 1.980591%)" offset="0.230469"/><stop stop-opacity="1" stop-color="rgb(18.374634%, 13.334656%, 2.01416%)" offset="0.234375"/><stop stop-opacity="1" stop-color="rgb(18.67981%, 13.557434%, 2.047729%)" offset="0.238281"/><stop stop-opacity="1" stop-color="rgb(18.986511%, 13.780212%, 2.081299%)" offset="0.242187"/><stop stop-opacity="1" stop-color="rgb(19.293213%, 14.001465%, 2.114868%)" offset="0.246094"/><stop stop-opacity="1" stop-color="rgb(19.599915%, 14.224243%, 2.149963%)" offset="0.25"/><stop stop-opacity="1" stop-color="rgb(19.90509%, 14.445496%, 2.183533%)" offset="0.253906"/><stop stop-opacity="1" stop-color="rgb(20.211792%, 14.668274%, 2.217102%)" offset="0.257813"/><stop stop-opacity="1" stop-color="rgb(20.516968%, 14.891052%, 2.250671%)" offset="0.261719"/><stop stop-opacity="1" stop-color="rgb(20.823669%, 15.113831%, 2.284241%)" offset="0.265625"/><stop stop-opacity="1" stop-color="rgb(21.130371%, 15.335083%, 2.31781%)" offset="0.269531"/><stop stop-opacity="1" stop-color="rgb(21.437073%, 15.557861%, 2.351379%)" offset="0.273438"/><stop stop-opacity="1" stop-color="rgb(21.742249%, 15.779114%, 2.384949%)" offset="0.277344"/><stop stop-opacity="1" stop-color="rgb(22.04895%, 16.001892%, 2.418518%)" offset="0.28125"/><stop stop-opacity="1" stop-color="rgb(22.355652%, 16.22467%, 2.452087%)" offset="0.285156"/><stop stop-opacity="1" stop-color="rgb(22.662354%, 16.447449%, 2.485657%)" offset="0.289063"/><stop stop-opacity="1" stop-color="rgb(22.967529%, 16.668701%, 2.519226%)" offset="0.292969"/><stop stop-opacity="1" stop-color="rgb(23.274231%, 16.891479%, 2.552795%)" offset="0.296875"/><stop stop-opacity="1" stop-color="rgb(23.579407%, 17.112732%, 2.586365%)" offset="0.300781"/><stop stop-opacity="1" stop-color="rgb(23.886108%, 17.33551%, 2.619934%)" offset="0.304688"/><stop stop-opacity="1" stop-color="rgb(24.19281%, 17.558289%, 2.653503%)" offset="0.308594"/><stop stop-opacity="1" stop-color="rgb(24.499512%, 17.781067%, 2.687073%)" offset="0.3125"/><stop stop-opacity="1" stop-color="rgb(24.804688%, 18.002319%, 2.720642%)" offset="0.316406"/><stop stop-opacity="1" stop-color="rgb(25.111389%, 18.225098%, 2.754211%)" offset="0.320313"/><stop stop-opacity="1" stop-color="rgb(25.418091%, 18.44635%, 2.787781%)" offset="0.324219"/><stop stop-opacity="1" stop-color="rgb(25.724792%, 18.669128%, 2.82135%)" offset="0.328125"/><stop stop-opacity="1" stop-color="rgb(26.029968%, 18.891907%, 2.854919%)" offset="0.332031"/><stop stop-opacity="1" stop-color="rgb(26.33667%, 19.114685%, 2.888489%)" offset="0.335938"/><stop stop-opacity="1" stop-color="rgb(26.641846%, 19.335938%, 2.922058%)" offset="0.339844"/><stop stop-opacity="1" stop-color="rgb(26.948547%, 19.558716%, 2.955627%)" offset="0.34375"/><stop stop-opacity="1" stop-color="rgb(27.255249%, 19.779968%, 2.989197%)" offset="0.347656"/><stop stop-opacity="1" stop-color="rgb(27.561951%, 20.002747%, 3.022766%)" offset="0.351562"/><stop stop-opacity="1" stop-color="rgb(27.867126%, 20.225525%, 3.056335%)" offset="0.355469"/><stop stop-opacity="1" stop-color="rgb(28.173828%, 20.448303%, 3.089905%)" offset="0.359375"/><stop stop-opacity="1" stop-color="rgb(28.48053%, 20.669556%, 3.123474%)" offset="0.363281"/><stop stop-opacity="1" stop-color="rgb(28.787231%, 20.892334%, 3.157043%)" offset="0.367188"/><stop stop-opacity="1" stop-color="rgb(29.092407%, 21.113586%, 3.190613%)" offset="0.371094"/><stop stop-opacity="1" stop-color="rgb(29.399109%, 21.336365%, 3.224182%)" offset="0.375"/><stop stop-opacity="1" stop-color="rgb(29.704285%, 21.559143%, 3.257751%)" offset="0.378906"/><stop stop-opacity="1" stop-color="rgb(30.010986%, 21.781921%, 3.291321%)" offset="0.382812"/><stop stop-opacity="1" stop-color="rgb(30.317688%, 22.003174%, 3.32489%)" offset="0.386719"/><stop stop-opacity="1" stop-color="rgb(30.62439%, 22.225952%, 3.358459%)" offset="0.390625"/><stop stop-opacity="1" stop-color="rgb(30.929565%, 22.447205%, 3.392029%)" offset="0.394531"/><stop stop-opacity="1" stop-color="rgb(31.236267%, 22.669983%, 3.425598%)" offset="0.398437"/><stop stop-opacity="1" stop-color="rgb(31.542969%, 22.892761%, 3.459167%)" offset="0.402344"/><stop stop-opacity="1" stop-color="rgb(31.84967%, 23.11554%, 3.492737%)" offset="0.40625"/><stop stop-opacity="1" stop-color="rgb(32.154846%, 23.336792%, 3.526306%)" offset="0.410156"/><stop stop-opacity="1" stop-color="rgb(32.461548%, 23.55957%, 3.559875%)" offset="0.414062"/><stop stop-opacity="1" stop-color="rgb(32.76825%, 23.780823%, 3.593445%)" offset="0.417969"/><stop stop-opacity="1" stop-color="rgb(33.074951%, 24.003601%, 3.627014%)" offset="0.421875"/><stop stop-opacity="1" stop-color="rgb(33.380127%, 24.226379%, 3.660583%)" offset="0.425781"/><stop stop-opacity="1" stop-color="rgb(33.686829%, 24.449158%, 3.694153%)" offset="0.429687"/><stop stop-opacity="1" stop-color="rgb(33.992004%, 24.67041%, 3.727722%)" offset="0.433594"/><stop stop-opacity="1" stop-color="rgb(34.298706%, 24.893188%, 3.761292%)" offset="0.4375"/><stop stop-opacity="1" stop-color="rgb(34.605408%, 25.114441%, 3.794861%)" offset="0.441406"/><stop stop-opacity="1" stop-color="rgb(34.912109%, 25.337219%, 3.82843%)" offset="0.445312"/><stop stop-opacity="1" stop-color="rgb(35.217285%, 25.559998%, 3.862%)" offset="0.449219"/><stop stop-opacity="1" stop-color="rgb(35.523987%, 25.782776%, 3.895569%)" offset="0.453125"/><stop stop-opacity="1" stop-color="rgb(35.830688%, 26.004028%, 3.929138%)" offset="0.457031"/><stop stop-opacity="1" stop-color="rgb(36.13739%, 26.226807%, 3.962708%)" offset="0.460937"/><stop stop-opacity="1" stop-color="rgb(36.442566%, 26.448059%, 3.996277%)" offset="0.464844"/><stop stop-opacity="1" stop-color="rgb(36.749268%, 26.670837%, 4.029846%)" offset="0.46875"/><stop stop-opacity="1" stop-color="rgb(37.054443%, 26.893616%, 4.063416%)" offset="0.472656"/><stop stop-opacity="1" stop-color="rgb(37.361145%, 27.116394%, 4.096985%)" offset="0.476562"/><stop stop-opacity="1" stop-color="rgb(37.667847%, 27.337646%, 4.130554%)" offset="0.480469"/><stop stop-opacity="1" stop-color="rgb(37.974548%, 27.560425%, 4.164124%)" offset="0.484375"/><stop stop-opacity="1" stop-color="rgb(38.279724%, 27.781677%, 4.197693%)" offset="0.488281"/><stop stop-opacity="1" stop-color="rgb(38.586426%, 28.004456%, 4.232788%)" offset="0.492187"/><stop stop-opacity="1" stop-color="rgb(38.893127%, 28.225708%, 4.266357%)" offset="0.496094"/><stop stop-opacity="1" stop-color="rgb(39.199829%, 28.448486%, 4.299927%)" offset="0.5"/><stop stop-opacity="1" stop-color="rgb(39.505005%, 28.671265%, 4.333496%)" offset="0.503906"/><stop stop-opacity="1" stop-color="rgb(39.811707%, 28.894043%, 4.367065%)" offset="0.507812"/><stop stop-opacity="1" stop-color="rgb(40.116882%, 29.115295%, 4.400635%)" offset="0.511719"/><stop stop-opacity="1" stop-color="rgb(40.423584%, 29.338074%, 4.434204%)" offset="0.515625"/><stop stop-opacity="1" stop-color="rgb(40.730286%, 29.559326%, 4.467773%)" offset="0.519531"/><stop stop-opacity="1" stop-color="rgb(41.036987%, 29.782104%, 4.501343%)" offset="0.523438"/><stop stop-opacity="1" stop-color="rgb(41.342163%, 30.004883%, 4.534912%)" offset="0.527344"/><stop stop-opacity="1" stop-color="rgb(41.648865%, 30.227661%, 4.568481%)" offset="0.53125"/><stop stop-opacity="1" stop-color="rgb(41.955566%, 30.448914%, 4.602051%)" offset="0.535156"/><stop stop-opacity="1" stop-color="rgb(42.262268%, 30.671692%, 4.63562%)" offset="0.539062"/><stop stop-opacity="1" stop-color="rgb(42.567444%, 30.892944%, 4.669189%)" offset="0.542969"/><stop stop-opacity="1" stop-color="rgb(42.874146%, 31.115723%, 4.702759%)" offset="0.546875"/><stop stop-opacity="1" stop-color="rgb(43.179321%, 31.338501%, 4.736328%)" offset="0.550781"/><stop stop-opacity="1" stop-color="rgb(43.486023%, 31.561279%, 4.769897%)" offset="0.554688"/><stop stop-opacity="1" stop-color="rgb(43.792725%, 31.782532%, 4.803467%)" offset="0.558594"/><stop stop-opacity="1" stop-color="rgb(44.099426%, 32.00531%, 4.837036%)" offset="0.5625"/><stop stop-opacity="1" stop-color="rgb(44.404602%, 32.226562%, 4.870605%)" offset="0.566406"/><stop stop-opacity="1" stop-color="rgb(44.711304%, 32.449341%, 4.904175%)" offset="0.570313"/><stop stop-opacity="1" stop-color="rgb(45.018005%, 32.672119%, 4.937744%)" offset="0.574219"/><stop stop-opacity="1" stop-color="rgb(45.324707%, 32.894897%, 4.971313%)" offset="0.578125"/><stop stop-opacity="1" stop-color="rgb(45.629883%, 33.11615%, 5.004883%)" offset="0.582031"/><stop stop-opacity="1" stop-color="rgb(45.936584%, 33.338928%, 5.038452%)" offset="0.585938"/><stop stop-opacity="1" stop-color="rgb(46.243286%, 33.560181%, 5.072021%)" offset="0.589844"/><stop stop-opacity="1" stop-color="rgb(46.549988%, 33.782959%, 5.105591%)" offset="0.59375"/><stop stop-opacity="1" stop-color="rgb(46.855164%, 34.005737%, 5.13916%)" offset="0.597656"/><stop stop-opacity="1" stop-color="rgb(47.161865%, 34.228516%, 5.172729%)" offset="0.601563"/><stop stop-opacity="1" stop-color="rgb(47.467041%, 34.449768%, 5.206299%)" offset="0.605469"/><stop stop-opacity="1" stop-color="rgb(47.773743%, 34.672546%, 5.239868%)" offset="0.609375"/><stop stop-opacity="1" stop-color="rgb(48.080444%, 34.893799%, 5.273438%)" offset="0.613281"/><stop stop-opacity="1" stop-color="rgb(48.387146%, 35.116577%, 5.307007%)" offset="0.617188"/><stop stop-opacity="1" stop-color="rgb(48.692322%, 35.339355%, 5.340576%)" offset="0.621094"/><stop stop-opacity="1" stop-color="rgb(48.999023%, 35.562134%, 5.374146%)" offset="0.625"/><stop stop-opacity="1" stop-color="rgb(49.305725%, 35.783386%, 5.407715%)" offset="0.628906"/><stop stop-opacity="1" stop-color="rgb(49.612427%, 36.006165%, 5.441284%)" offset="0.632813"/><stop stop-opacity="1" stop-color="rgb(49.917603%, 36.227417%, 5.474854%)" offset="0.636719"/><stop stop-opacity="1" stop-color="rgb(50.224304%, 36.450195%, 5.508423%)" offset="0.640625"/><stop stop-opacity="1" stop-color="rgb(50.52948%, 36.672974%, 5.541992%)" offset="0.644531"/><stop stop-opacity="1" stop-color="rgb(50.836182%, 36.895752%, 5.575562%)" offset="0.648438"/><stop stop-opacity="1" stop-color="rgb(51.142883%, 37.117004%, 5.609131%)" offset="0.652344"/><stop stop-opacity="1" stop-color="rgb(51.449585%, 37.339783%, 5.6427%)" offset="0.65625"/><stop stop-opacity="1" stop-color="rgb(51.754761%, 37.561035%, 5.67627%)" offset="0.660156"/><stop stop-opacity="1" stop-color="rgb(52.061462%, 37.783813%, 5.709839%)" offset="0.664063"/><stop stop-opacity="1" stop-color="rgb(52.368164%, 38.006592%, 5.743408%)" offset="0.667969"/><stop stop-opacity="1" stop-color="rgb(52.674866%, 38.22937%, 5.776978%)" offset="0.671875"/><stop stop-opacity="1" stop-color="rgb(52.980042%, 38.450623%, 5.810547%)" offset="0.675781"/><stop stop-opacity="1" stop-color="rgb(53.286743%, 38.673401%, 5.844116%)" offset="0.679688"/><stop stop-opacity="1" stop-color="rgb(53.591919%, 38.894653%, 5.877686%)" offset="0.683594"/><stop stop-opacity="1" stop-color="rgb(53.898621%, 39.117432%, 5.911255%)" offset="0.6875"/><stop stop-opacity="1" stop-color="rgb(54.205322%, 39.34021%, 5.944824%)" offset="0.691406"/><stop stop-opacity="1" stop-color="rgb(54.512024%, 39.562988%, 5.978394%)" offset="0.695312"/><stop stop-opacity="1" stop-color="rgb(54.8172%, 39.784241%, 6.011963%)" offset="0.699219"/><stop stop-opacity="1" stop-color="rgb(55.123901%, 40.007019%, 6.045532%)" offset="0.703125"/><stop stop-opacity="1" stop-color="rgb(55.430603%, 40.228271%, 6.079102%)" offset="0.707031"/><stop stop-opacity="1" stop-color="rgb(55.737305%, 40.45105%, 6.112671%)" offset="0.710938"/><stop stop-opacity="1" stop-color="rgb(56.04248%, 40.673828%, 6.14624%)" offset="0.714844"/><stop stop-opacity="1" stop-color="rgb(56.349182%, 40.896606%, 6.17981%)" offset="0.71875"/><stop stop-opacity="1" stop-color="rgb(56.654358%, 41.117859%, 6.213379%)" offset="0.722656"/><stop stop-opacity="1" stop-color="rgb(56.96106%, 41.340637%, 6.246948%)" offset="0.726562"/><stop stop-opacity="1" stop-color="rgb(57.267761%, 41.56189%, 6.280518%)" offset="0.730469"/><stop stop-opacity="1" stop-color="rgb(57.574463%, 41.784668%, 6.315613%)" offset="0.734375"/><stop stop-opacity="1" stop-color="rgb(57.879639%, 42.007446%, 6.349182%)" offset="0.738281"/><stop stop-opacity="1" stop-color="rgb(58.18634%, 42.230225%, 6.382751%)" offset="0.742188"/><stop stop-opacity="1" stop-color="rgb(58.493042%, 42.451477%, 6.416321%)" offset="0.746094"/><stop stop-opacity="1" stop-color="rgb(58.799744%, 42.674255%, 6.44989%)" offset="0.75"/><stop stop-opacity="1" stop-color="rgb(59.104919%, 42.895508%, 6.483459%)" offset="0.753906"/><stop stop-opacity="1" stop-color="rgb(59.411621%, 43.118286%, 6.517029%)" offset="0.757812"/><stop stop-opacity="1" stop-color="rgb(59.716797%, 43.341064%, 6.550598%)" offset="0.761719"/><stop stop-opacity="1" stop-color="rgb(60.023499%, 43.563843%, 6.584167%)" offset="0.765625"/><stop stop-opacity="1" stop-color="rgb(60.3302%, 43.785095%, 6.617737%)" offset="0.769531"/><stop stop-opacity="1" stop-color="rgb(60.636902%, 44.007874%, 6.651306%)" offset="0.773438"/><stop stop-opacity="1" stop-color="rgb(60.942078%, 44.229126%, 6.684875%)" offset="0.777344"/><stop stop-opacity="1" stop-color="rgb(61.248779%, 44.451904%, 6.718445%)" offset="0.78125"/><stop stop-opacity="1" stop-color="rgb(61.555481%, 44.674683%, 6.752014%)" offset="0.785156"/><stop stop-opacity="1" stop-color="rgb(61.862183%, 44.897461%, 6.785583%)" offset="0.789062"/><stop stop-opacity="1" stop-color="rgb(62.167358%, 45.118713%, 6.819153%)" offset="0.792969"/><stop stop-opacity="1" stop-color="rgb(62.47406%, 45.341492%, 6.852722%)" offset="0.796875"/><stop stop-opacity="1" stop-color="rgb(62.780762%, 45.562744%, 6.886292%)" offset="0.800781"/><stop stop-opacity="1" stop-color="rgb(63.087463%, 45.785522%, 6.919861%)" offset="0.804688"/><stop stop-opacity="1" stop-color="rgb(63.392639%, 46.008301%, 6.95343%)" offset="0.808594"/><stop stop-opacity="1" stop-color="rgb(63.699341%, 46.231079%, 6.987%)" offset="0.8125"/><stop stop-opacity="1" stop-color="rgb(64.004517%, 46.452332%, 7.020569%)" offset="0.816406"/><stop stop-opacity="1" stop-color="rgb(64.311218%, 46.67511%, 7.054138%)" offset="0.820312"/><stop stop-opacity="1" stop-color="rgb(64.61792%, 46.896362%, 7.087708%)" offset="0.824219"/><stop stop-opacity="1" stop-color="rgb(64.924622%, 47.119141%, 7.121277%)" offset="0.828125"/><stop stop-opacity="1" stop-color="rgb(65.229797%, 47.341919%, 7.154846%)" offset="0.832031"/><stop stop-opacity="1" stop-color="rgb(65.536499%, 47.564697%, 7.188416%)" offset="0.835937"/><stop stop-opacity="1" stop-color="rgb(65.843201%, 47.78595%, 7.221985%)" offset="0.839844"/><stop stop-opacity="1" stop-color="rgb(66.149902%, 48.008728%, 7.255554%)" offset="0.84375"/><stop stop-opacity="1" stop-color="rgb(66.455078%, 48.22998%, 7.289124%)" offset="0.847656"/><stop stop-opacity="1" stop-color="rgb(66.76178%, 48.452759%, 7.322693%)" offset="0.851562"/><stop stop-opacity="1" stop-color="rgb(67.066956%, 48.675537%, 7.356262%)" offset="0.855469"/><stop stop-opacity="1" stop-color="rgb(67.373657%, 48.898315%, 7.389832%)" offset="0.859375"/><stop stop-opacity="1" stop-color="rgb(67.680359%, 49.119568%, 7.423401%)" offset="0.863281"/><stop stop-opacity="1" stop-color="rgb(67.987061%, 49.342346%, 7.45697%)" offset="0.867187"/><stop stop-opacity="1" stop-color="rgb(68.292236%, 49.563599%, 7.49054%)" offset="0.871094"/><stop stop-opacity="1" stop-color="rgb(68.598938%, 49.786377%, 7.524109%)" offset="0.875"/><stop stop-opacity="1" stop-color="rgb(68.90564%, 50.009155%, 7.557678%)" offset="0.878906"/><stop stop-opacity="1" stop-color="rgb(69.212341%, 50.231934%, 7.591248%)" offset="0.882812"/><stop stop-opacity="1" stop-color="rgb(69.517517%, 50.453186%, 7.624817%)" offset="0.886719"/><stop stop-opacity="1" stop-color="rgb(69.824219%, 50.675964%, 7.658386%)" offset="0.890625"/><stop stop-opacity="1" stop-color="rgb(70.129395%, 50.897217%, 7.691956%)" offset="0.894531"/><stop stop-opacity="1" stop-color="rgb(70.436096%, 51.119995%, 7.725525%)" offset="0.898437"/><stop stop-opacity="1" stop-color="rgb(70.742798%, 51.342773%, 7.759094%)" offset="0.902344"/><stop stop-opacity="1" stop-color="rgb(71.0495%, 51.565552%, 7.792664%)" offset="0.90625"/><stop stop-opacity="1" stop-color="rgb(71.354675%, 51.786804%, 7.826233%)" offset="0.910156"/><stop stop-opacity="1" stop-color="rgb(71.661377%, 52.009583%, 7.859802%)" offset="0.914062"/><stop stop-opacity="1" stop-color="rgb(71.968079%, 52.230835%, 7.893372%)" offset="0.917969"/><stop stop-opacity="1" stop-color="rgb(72.27478%, 52.453613%, 7.926941%)" offset="0.921875"/><stop stop-opacity="1" stop-color="rgb(72.579956%, 52.676392%, 7.96051%)" offset="0.925781"/><stop stop-opacity="1" stop-color="rgb(72.886658%, 52.89917%, 7.99408%)" offset="0.929687"/><stop stop-opacity="1" stop-color="rgb(73.191833%, 53.120422%, 8.027649%)" offset="0.933594"/><stop stop-opacity="1" stop-color="rgb(73.498535%, 53.343201%, 8.061218%)" offset="0.9375"/><stop stop-opacity="1" stop-color="rgb(73.805237%, 53.564453%, 8.094788%)" offset="0.941406"/><stop stop-opacity="1" stop-color="rgb(74.111938%, 53.787231%, 8.128357%)" offset="0.945312"/><stop stop-opacity="1" stop-color="rgb(74.417114%, 54.01001%, 8.161926%)" offset="0.949219"/><stop stop-opacity="1" stop-color="rgb(74.723816%, 54.232788%, 8.195496%)" offset="0.953125"/><stop stop-opacity="1" stop-color="rgb(75.030518%, 54.454041%, 8.229065%)" offset="0.957031"/><stop stop-opacity="1" stop-color="rgb(75.337219%, 54.676819%, 8.262634%)" offset="0.960938"/><stop stop-opacity="1" stop-color="rgb(75.642395%, 54.898071%, 8.296204%)" offset="0.964844"/><stop stop-opacity="1" stop-color="rgb(75.949097%, 55.12085%, 8.329773%)" offset="0.96875"/><stop stop-opacity="1" stop-color="rgb(76.254272%, 55.342102%, 8.363342%)" offset="0.972656"/><stop stop-opacity="1" stop-color="rgb(76.560974%, 55.56488%, 8.396912%)" offset="0.976562"/><stop stop-opacity="1" stop-color="rgb(76.867676%, 55.787659%, 8.430481%)" offset="0.980469"/><stop stop-opacity="1" stop-color="rgb(77.174377%, 56.010437%, 8.465576%)" offset="0.984375"/><stop stop-opacity="1" stop-color="rgb(77.479553%, 56.231689%, 8.499146%)" offset="0.988281"/><stop stop-opacity="1" stop-color="rgb(77.786255%, 56.454468%, 8.532715%)" offset="0.992188"/><stop stop-opacity="1" stop-color="rgb(78.092957%, 56.67572%, 8.566284%)" offset="0.996094"/><stop stop-opacity="1" stop-color="rgb(78.399658%, 56.898499%, 8.599854%)" offset="1"/></linearGradient><clipPath id="158dad8ae7"><path d="M 254 230.398438 L 526 230.398438 L 526 530 L 254 530 Z M 254 230.398438 " clip-rule="nonzero"/></clipPath></defs><g clip-path="url(#17abbb8874)"><g clip-path="url(#605ed04555)"><path fill="url(#7880ea8c48)" d="M 14.828125 0 L 14.828125 767.1875 L 753.171875 767.1875 L 753.171875 0 Z M 14.828125 0 " fill-rule="nonzero"/></g></g><g clip-path="url(#158dad8ae7)"><path fill="#ffffff" d="M 525.808594 393.875 C 525.816406 395.914062 525.773438 397.953125 525.6875 399.992188 C 525.601562 402.03125 525.464844 404.066406 525.289062 406.097656 C 525.109375 408.128906 524.882812 410.15625 524.613281 412.179688 C 524.34375 414.199219 524.027344 416.214844 523.667969 418.222656 C 523.304688 420.230469 522.898438 422.230469 522.449219 424.21875 C 521.996094 426.207031 521.5 428.1875 520.960938 430.152344 C 520.421875 432.121094 519.835938 434.074219 519.207031 436.015625 C 518.578125 437.957031 517.90625 439.882812 517.191406 441.792969 C 516.476562 443.703125 515.71875 445.59375 514.917969 447.472656 C 514.117188 449.347656 513.273438 451.207031 512.386719 453.042969 C 511.503906 454.882812 510.578125 456.699219 509.609375 458.496094 C 508.644531 460.292969 507.636719 462.066406 506.589844 463.816406 C 505.542969 465.566406 504.457031 467.292969 503.335938 468.996094 C 502.210938 470.699219 501.046875 472.375 499.847656 474.023438 C 498.648438 475.671875 497.410156 477.296875 496.136719 478.890625 C 494.863281 480.484375 493.554688 482.046875 492.210938 483.582031 C 490.867188 485.117188 489.492188 486.621094 488.078125 488.09375 C 486.667969 489.566406 485.222656 491.007812 483.746094 492.414062 C 482.269531 493.820312 480.761719 495.195312 479.222656 496.535156 C 477.683594 497.875 476.117188 499.179688 474.519531 500.445312 C 472.921875 501.714844 471.296875 502.949219 469.644531 504.144531 C 467.992188 505.339844 466.3125 506.496094 464.605469 507.617188 C 462.902344 508.738281 461.171875 509.816406 459.417969 510.859375 C 457.664062 511.902344 455.886719 512.902344 454.089844 513.863281 C 452.289062 514.824219 450.46875 515.746094 448.628906 516.625 C 446.789062 517.503906 444.929688 518.34375 443.050781 519.140625 C 441.171875 519.933594 439.277344 520.6875 437.363281 521.398438 C 435.453125 522.109375 433.523438 522.773438 431.582031 523.398438 C 429.640625 524.023438 427.683594 524.601562 425.714844 525.136719 C 423.746094 525.671875 421.765625 526.160156 419.777344 526.605469 C 417.785156 527.054688 415.785156 527.453125 413.777344 527.808594 C 411.769531 528.164062 409.753906 528.476562 407.730469 528.738281 C 405.707031 529.003906 403.679688 529.222656 401.648438 529.394531 C 399.613281 529.570312 397.578125 529.695312 395.539062 529.777344 C 393.503906 529.859375 391.464844 529.894531 389.421875 529.882812 C 387.382812 529.875 385.34375 529.816406 383.308594 529.714844 C 381.269531 529.613281 379.234375 529.464844 377.203125 529.269531 C 375.175781 529.074219 373.148438 528.835938 371.128906 528.550781 C 369.109375 528.265625 367.097656 527.933594 365.089844 527.558594 C 363.085938 527.179688 361.089844 526.757812 359.105469 526.292969 C 357.121094 525.824219 355.144531 525.316406 353.183594 524.757812 C 351.21875 524.203125 349.269531 523.605469 347.332031 522.960938 C 345.398438 522.316406 343.476562 521.632812 341.574219 520.902344 C 339.667969 520.171875 337.78125 519.398438 335.910156 518.582031 C 334.039062 517.769531 332.1875 516.910156 330.359375 516.011719 C 328.527344 515.113281 326.714844 514.175781 324.925781 513.195312 C 323.136719 512.214844 321.371094 511.195312 319.628906 510.132812 C 317.886719 509.074219 316.167969 507.976562 314.472656 506.839844 C 312.78125 505.699219 311.113281 504.527344 309.472656 503.3125 C 307.832031 502.101562 306.222656 500.851562 304.636719 499.566406 C 303.050781 498.28125 301.5 496.960938 299.972656 495.605469 C 298.449219 494.25 296.957031 492.859375 295.492188 491.4375 C 294.03125 490.015625 292.601562 488.558594 291.207031 487.074219 C 289.808594 485.585938 288.449219 484.066406 287.121094 482.519531 C 285.792969 480.96875 284.5 479.390625 283.242188 477.785156 C 281.988281 476.179688 280.765625 474.542969 279.585938 472.882812 C 278.402344 471.21875 277.257812 469.53125 276.148438 467.820312 C 275.042969 466.105469 273.976562 464.367188 272.945312 462.605469 C 271.917969 460.84375 270.929688 459.058594 269.980469 457.253906 C 269.035156 455.445312 268.128906 453.621094 267.261719 451.773438 C 266.394531 449.925781 265.574219 448.058594 264.792969 446.175781 C 264.011719 444.289062 263.269531 442.390625 262.574219 440.472656 C 261.878906 438.554688 261.226562 436.621094 260.621094 434.675781 C 260.011719 432.726562 259.445312 430.769531 258.925781 428.796875 C 258.40625 426.824219 257.929688 424.839844 257.5 422.84375 C 257.070312 420.851562 256.683594 418.847656 256.34375 416.835938 C 256.003906 414.824219 255.710938 412.808594 255.460938 410.78125 C 255.210938 408.757812 255.007812 406.730469 254.847656 404.695312 C 254.691406 402.660156 254.578125 400.625 254.515625 398.585938 C 254.449219 396.546875 254.429688 394.507812 254.453125 392.46875 C 254.480469 390.429688 254.550781 388.390625 254.671875 386.351562 C 254.789062 384.316406 254.953125 382.285156 255.160156 380.253906 C 255.371094 378.226562 255.625 376.203125 255.929688 374.183594 C 256.230469 372.167969 256.574219 370.15625 256.964844 368.15625 C 257.359375 366.152344 257.796875 364.160156 258.277344 362.179688 C 258.757812 360.195312 259.285156 358.226562 259.855469 356.265625 C 260.425781 354.308594 261.039062 352.363281 261.695312 350.433594 C 262.355469 348.5 263.054688 346.585938 263.800781 344.6875 C 264.546875 342.789062 265.332031 340.90625 266.160156 339.042969 C 266.992188 337.179688 267.863281 335.335938 268.773438 333.507812 C 269.6875 331.683594 270.640625 329.882812 271.632812 328.101562 C 272.628906 326.320312 273.660156 324.5625 274.734375 322.824219 C 275.808594 321.089844 276.917969 319.382812 278.070312 317.695312 C 279.21875 316.011719 280.40625 314.355469 281.632812 312.722656 C 282.855469 311.089844 284.117188 309.488281 285.414062 307.914062 C 286.714844 306.339844 288.046875 304.796875 289.414062 303.28125 C 290.78125 301.765625 292.179688 300.285156 293.613281 298.832031 C 295.046875 297.382812 296.511719 295.964844 298.011719 294.578125 C 299.507812 293.195312 301.039062 291.84375 302.597656 290.527344 C 304.15625 289.210938 305.742188 287.929688 307.359375 286.6875 C 308.976562 285.441406 310.621094 284.234375 312.289062 283.066406 C 313.960938 281.894531 315.65625 280.761719 317.378906 279.667969 C 319.101562 278.574219 320.847656 277.519531 322.617188 276.507812 C 324.386719 275.492188 326.179688 274.515625 327.992188 273.582031 C 329.804688 272.648438 331.640625 271.753906 333.492188 270.902344 C 335.347656 270.050781 337.21875 269.242188 339.109375 268.476562 C 339.921875 268.203125 340.757812 268.007812 341.609375 267.890625 C 342.460938 267.777344 343.3125 267.742188 344.171875 267.785156 C 345.03125 267.832031 345.875 267.960938 346.710938 268.164062 C 347.546875 268.371094 348.351562 268.652344 349.132812 269.011719 C 349.914062 269.371094 350.65625 269.800781 351.355469 270.300781 C 352.054688 270.796875 352.699219 271.359375 353.292969 271.980469 C 353.886719 272.601562 354.417969 273.273438 354.886719 273.996094 C 355.351562 274.71875 355.746094 275.476562 356.070312 276.273438 C 356.390625 277.070312 356.636719 277.886719 356.804688 278.730469 C 356.972656 279.574219 357.058594 280.425781 357.066406 281.285156 C 357.074219 282.144531 357 282.996094 356.84375 283.839844 C 356.691406 284.6875 356.457031 285.511719 356.148438 286.3125 C 355.835938 287.113281 355.453125 287.878906 355 288.605469 C 354.542969 289.335938 354.023438 290.015625 353.441406 290.644531 C 352.855469 291.277344 352.21875 291.847656 351.527344 292.355469 C 350.835938 292.867188 350.101562 293.308594 349.324219 293.679688 C 347.402344 294.460938 345.503906 295.296875 343.632812 296.1875 C 341.757812 297.078125 339.910156 298.023438 338.089844 299.019531 C 336.269531 300.019531 334.480469 301.066406 332.71875 302.167969 C 330.960938 303.265625 329.234375 304.414062 327.539062 305.613281 C 325.84375 306.8125 324.1875 308.0625 322.566406 309.355469 C 320.941406 310.648438 319.359375 311.988281 317.8125 313.375 C 316.269531 314.757812 314.765625 316.1875 313.300781 317.660156 C 311.835938 319.132812 310.417969 320.644531 309.039062 322.195312 C 307.664062 323.75 306.332031 325.339844 305.046875 326.972656 C 303.761719 328.601562 302.527344 330.265625 301.335938 331.964844 C 300.148438 333.667969 299.007812 335.398438 297.917969 337.167969 C 296.828125 338.933594 295.789062 340.726562 294.800781 342.554688 C 293.816406 344.378906 292.882812 346.230469 292 348.109375 C 291.121094 349.988281 290.292969 351.894531 289.523438 353.820312 C 288.75 355.746094 288.035156 357.695312 287.378906 359.660156 C 286.71875 361.628906 286.113281 363.613281 285.570312 365.617188 C 285.023438 367.617188 284.535156 369.636719 284.105469 371.664062 C 283.675781 373.695312 283.304688 375.738281 282.992188 377.789062 C 282.679688 379.839844 282.425781 381.898438 282.234375 383.964844 C 282.039062 386.03125 281.902344 388.101562 281.828125 390.175781 C 281.753906 392.25 281.738281 394.324219 281.78125 396.398438 C 281.824219 398.472656 281.925781 400.546875 282.089844 402.613281 C 282.253906 404.683594 282.472656 406.746094 282.753906 408.800781 C 283.035156 410.859375 283.375 412.90625 283.773438 414.941406 C 284.171875 416.976562 284.628906 419 285.144531 421.011719 C 285.660156 423.023438 286.230469 425.015625 286.859375 426.996094 C 287.488281 428.972656 288.175781 430.929688 288.914062 432.867188 C 289.65625 434.808594 290.453125 436.722656 291.304688 438.613281 C 292.15625 440.507812 293.0625 442.375 294.019531 444.214844 C 294.980469 446.054688 295.992188 447.867188 297.054688 449.648438 C 298.117188 451.433594 299.230469 453.183594 300.390625 454.902344 C 301.554688 456.621094 302.765625 458.304688 304.027344 459.953125 C 305.285156 461.601562 306.59375 463.214844 307.945312 464.789062 C 309.296875 466.363281 310.695312 467.894531 312.136719 469.390625 C 313.574219 470.882812 315.058594 472.335938 316.582031 473.742188 C 318.105469 475.152344 319.667969 476.515625 321.269531 477.835938 C 322.871094 479.15625 324.511719 480.425781 326.1875 481.652344 C 327.863281 482.875 329.570312 484.050781 331.3125 485.179688 C 333.054688 486.304688 334.828125 487.382812 336.632812 488.40625 C 338.4375 489.433594 340.273438 490.40625 342.132812 491.324219 C 343.992188 492.246094 345.878906 493.109375 347.789062 493.921875 C 349.699219 494.734375 351.628906 495.488281 353.582031 496.191406 C 355.535156 496.890625 357.507812 497.535156 359.5 498.121094 C 361.488281 498.710938 363.496094 499.238281 365.515625 499.710938 C 367.535156 500.183594 369.570312 500.597656 371.613281 500.953125 C 373.660156 501.308594 375.710938 501.605469 377.773438 501.84375 C 379.835938 502.082031 381.902344 502.261719 383.972656 502.378906 C 386.046875 502.5 388.117188 502.558594 390.195312 502.558594 C 392.269531 502.558594 394.34375 502.5 396.414062 502.378906 C 398.488281 502.261719 400.554688 502.082031 402.617188 501.84375 C 404.675781 501.605469 406.730469 501.308594 408.773438 500.953125 C 410.820312 500.597656 412.851562 500.183594 414.875 499.710938 C 416.894531 499.238281 418.898438 498.710938 420.890625 498.121094 C 422.878906 497.535156 424.851562 496.890625 426.804688 496.191406 C 428.757812 495.488281 430.691406 494.734375 432.601562 493.921875 C 434.511719 493.109375 436.394531 492.246094 438.257812 491.324219 C 440.117188 490.40625 441.949219 489.433594 443.753906 488.40625 C 445.558594 487.382812 447.332031 486.304688 449.074219 485.179688 C 450.816406 484.050781 452.527344 482.875 454.203125 481.652344 C 455.875 480.425781 457.515625 479.15625 459.117188 477.835938 C 460.71875 476.515625 462.28125 475.152344 463.808594 473.742188 C 465.332031 472.335938 466.8125 470.882812 468.253906 469.390625 C 469.695312 467.894531 471.089844 466.363281 472.441406 464.789062 C 473.796875 463.214844 475.101562 461.601562 476.363281 459.953125 C 477.621094 458.304688 478.832031 456.621094 479.996094 454.902344 C 481.160156 453.183594 482.273438 451.433594 483.335938 449.648438 C 484.398438 447.867188 485.410156 446.054688 486.367188 444.214844 C 487.328125 442.375 488.230469 440.507812 489.082031 438.613281 C 489.933594 436.722656 490.730469 434.808594 491.472656 432.867188 C 492.214844 430.929688 492.898438 428.972656 493.527344 426.996094 C 494.15625 425.015625 494.730469 423.023438 495.246094 421.011719 C 495.757812 419 496.214844 416.976562 496.613281 414.941406 C 497.011719 412.90625 497.351562 410.859375 497.632812 408.800781 C 497.914062 406.746094 498.136719 404.683594 498.300781 402.613281 C 498.460938 400.546875 498.566406 398.472656 498.609375 396.398438 C 498.652344 394.324219 498.636719 392.25 498.558594 390.175781 C 498.484375 388.101562 498.351562 386.03125 498.15625 383.964844 C 497.960938 381.898438 497.707031 379.839844 497.394531 377.789062 C 497.082031 375.738281 496.710938 373.695312 496.28125 371.664062 C 495.851562 369.636719 495.363281 367.617188 494.820312 365.617188 C 494.273438 363.613281 493.671875 361.628906 493.011719 359.660156 C 492.351562 357.695312 491.636719 355.746094 490.867188 353.820312 C 490.09375 351.894531 489.269531 349.988281 488.386719 348.109375 C 487.507812 346.230469 486.574219 344.378906 485.585938 342.554688 C 484.601562 340.726562 483.5625 338.933594 482.472656 337.167969 C 481.382812 335.398438 480.242188 333.667969 479.050781 331.964844 C 477.863281 330.265625 476.625 328.601562 475.339844 326.972656 C 474.054688 325.339844 472.722656 323.75 471.347656 322.195312 C 469.972656 320.644531 468.550781 319.132812 467.085938 317.660156 C 465.625 316.1875 464.121094 314.757812 462.574219 313.375 C 461.03125 311.988281 459.445312 310.648438 457.824219 309.355469 C 456.203125 308.0625 454.542969 306.8125 452.847656 305.613281 C 451.15625 304.414062 449.429688 303.265625 447.667969 302.167969 C 445.910156 301.066406 444.117188 300.019531 442.300781 299.019531 C 440.480469 298.023438 438.632812 297.078125 436.757812 296.1875 C 434.882812 295.296875 432.984375 294.460938 431.0625 293.679688 C 430.625 293.53125 430.191406 293.359375 429.769531 293.167969 C 429.347656 292.976562 428.9375 292.765625 428.535156 292.53125 C 428.136719 292.296875 427.75 292.046875 427.375 291.773438 C 427 291.5 426.640625 291.207031 426.292969 290.898438 C 425.949219 290.589844 425.621094 290.261719 425.308594 289.917969 C 425 289.574219 424.703125 289.214844 424.429688 288.84375 C 424.15625 288.46875 423.898438 288.082031 423.664062 287.683594 C 423.429688 287.285156 423.214844 286.875 423.019531 286.453125 C 422.828125 286.03125 422.65625 285.601562 422.503906 285.164062 C 422.355469 284.726562 422.230469 284.28125 422.125 283.828125 C 422.019531 283.375 421.9375 282.921875 421.882812 282.460938 C 421.824219 282 421.789062 281.539062 421.777344 281.074219 C 421.769531 280.613281 421.78125 280.148438 421.816406 279.6875 C 421.855469 279.222656 421.914062 278.765625 422 278.308594 C 422.082031 277.851562 422.1875 277.402344 422.316406 276.957031 C 422.449219 276.511719 422.597656 276.074219 422.773438 275.644531 C 422.949219 275.214844 423.144531 274.796875 423.359375 274.386719 C 423.578125 273.976562 423.816406 273.578125 424.070312 273.195312 C 424.328125 272.808594 424.605469 272.4375 424.902344 272.078125 C 425.199219 271.722656 425.511719 271.382812 425.839844 271.054688 C 426.171875 270.730469 426.515625 270.421875 426.878906 270.132812 C 427.242188 269.84375 427.617188 269.574219 428.003906 269.320312 C 428.394531 269.070312 428.796875 268.839844 429.210938 268.628906 C 429.621094 268.417969 430.042969 268.226562 430.476562 268.0625 C 430.910156 267.894531 431.347656 267.75 431.796875 267.625 C 432.242188 267.503906 432.695312 267.402344 433.152344 267.328125 C 433.609375 267.25 434.070312 267.199219 434.53125 267.167969 C 434.996094 267.140625 435.457031 267.132812 435.921875 267.152344 C 436.386719 267.167969 436.847656 267.210938 437.304688 267.273438 C 437.765625 267.339844 438.21875 267.429688 438.667969 267.539062 C 439.117188 267.652344 439.5625 267.785156 440 267.941406 C 440.433594 268.097656 440.863281 268.277344 441.28125 268.476562 C 444.382812 269.726562 447.4375 271.085938 450.441406 272.5625 C 453.445312 274.039062 456.386719 275.625 459.273438 277.320312 C 462.15625 279.015625 464.976562 280.816406 467.726562 282.722656 C 470.476562 284.625 473.152344 286.628906 475.753906 288.734375 C 478.355469 290.839844 480.875 293.039062 483.316406 295.328125 C 485.753906 297.621094 488.101562 300 490.363281 302.46875 C 492.625 304.933594 494.789062 307.480469 496.863281 310.109375 C 498.933594 312.738281 500.90625 315.4375 502.773438 318.210938 C 504.644531 320.988281 506.410156 323.828125 508.070312 326.734375 C 509.726562 329.640625 511.277344 332.601562 512.714844 335.625 C 514.152344 338.644531 515.476562 341.714844 516.6875 344.835938 C 517.898438 347.957031 518.988281 351.117188 519.964844 354.316406 C 520.9375 357.519531 521.792969 360.75 522.527344 364.015625 C 523.261719 367.28125 523.871094 370.566406 524.359375 373.878906 C 524.851562 377.1875 525.214844 380.511719 525.457031 383.847656 C 525.699219 387.1875 525.816406 390.527344 525.808594 393.875 Z M 390.125 385.019531 C 391.019531 385.019531 391.90625 384.933594 392.785156 384.757812 C 393.660156 384.582031 394.511719 384.324219 395.339844 383.980469 C 396.164062 383.640625 396.949219 383.21875 397.695312 382.722656 C 398.4375 382.226562 399.125 381.660156 399.757812 381.03125 C 400.390625 380.398438 400.957031 379.707031 401.453125 378.964844 C 401.949219 378.222656 402.371094 377.4375 402.710938 376.609375 C 403.054688 375.785156 403.3125 374.929688 403.488281 374.054688 C 403.660156 373.175781 403.75 372.292969 403.75 371.398438 L 403.75 244.023438 C 403.75 243.128906 403.660156 242.242188 403.488281 241.363281 C 403.3125 240.488281 403.054688 239.636719 402.710938 238.808594 C 402.371094 237.984375 401.949219 237.199219 401.453125 236.453125 C 400.957031 235.710938 400.390625 235.023438 399.757812 234.390625 C 399.125 233.757812 398.4375 233.191406 397.695312 232.695312 C 396.949219 232.199219 396.164062 231.78125 395.339844 231.4375 C 394.511719 231.09375 393.660156 230.835938 392.785156 230.660156 C 391.90625 230.488281 391.019531 230.398438 390.125 230.398438 C 389.230469 230.398438 388.347656 230.488281 387.46875 230.660156 C 386.589844 230.835938 385.738281 231.09375 384.914062 231.4375 C 384.085938 231.78125 383.300781 232.199219 382.558594 232.695312 C 381.8125 233.191406 381.125 233.757812 380.492188 234.390625 C 379.859375 235.023438 379.296875 235.710938 378.800781 236.453125 C 378.300781 237.199219 377.882812 237.984375 377.539062 238.808594 C 377.199219 239.636719 376.941406 240.488281 376.765625 241.363281 C 376.589844 242.242188 376.503906 243.128906 376.503906 244.023438 L 376.503906 371.398438 C 376.503906 372.292969 376.589844 373.175781 376.765625 374.054688 C 376.941406 374.929688 377.199219 375.785156 377.539062 376.609375 C 377.882812 377.4375 378.300781 378.222656 378.800781 378.964844 C 379.296875 379.707031 379.859375 380.398438 380.492188 381.03125 C 381.125 381.660156 381.8125 382.226562 382.558594 382.722656 C 383.300781 383.21875 384.085938 383.640625 384.914062 383.980469 C 385.738281 384.324219 386.589844 384.582031 387.46875 384.757812 C 388.347656 384.933594 389.230469 385.019531 390.125 385.019531 Z M 390.125 385.019531 " fill-opacity="1" fill-rule="nonzero"/></g></svg>