<svg xmlns="http://www.w3.org/2000/svg" xmlns:xlink="http://www.w3.org/1999/xlink" width="1024" zoomAndPan="magnify" viewBox="0 0 768 767.999994" height="1024" preserveAspectRatio="xMidYMid meet" version="1.0"><defs><clipPath id="75cb075d80"><path d="M 14.828125 0 L 753.171875 0 L 753.171875 767.1875 L 14.828125 767.1875 Z M 14.828125 0 " clip-rule="nonzero"/></clipPath><clipPath id="54c0886189"><path d="M 617.417969 768 L 150.582031 768 C 75.777344 768 14.828125 707.046875 14.828125 632.242188 L 14.828125 135.757812 C 14.828125 60.953125 75.777344 0 150.582031 0 L 617.417969 0 C 692.222656 0 753.171875 60.953125 753.171875 135.757812 L 753.171875 632.242188 C 753.171875 707.046875 692.222656 768 617.417969 768 Z M 617.417969 768 " clip-rule="nonzero"/></clipPath><linearGradient x1="-0.000000110185" gradientTransform="matrix(2.884164, 0, 0, 2.884164, 14.826985, -0.00108)" y1="133.141006" x2="255.999981" gradientUnits="userSpaceOnUse" y2="133.141006" id="f938585064"><stop stop-opacity="1" stop-color="rgb(0%, 0%, 0%)" offset="0"/><stop stop-opacity="1" stop-color="rgb(0.305176%, 0.221252%, 0.0335693%)" offset="0.00390625"/><stop stop-opacity="1" stop-color="rgb(0.611877%, 0.444031%, 0.0671387%)" offset="0.0078125"/><stop stop-opacity="1" stop-color="rgb(0.917053%, 0.665283%, 0.100708%)" offset="0.0117187"/><stop stop-opacity="1" stop-color="rgb(1.223755%, 0.888062%, 0.134277%)" offset="0.015625"/><stop stop-opacity="1" stop-color="rgb(1.530457%, 1.109314%, 0.167847%)" offset="0.0195312"/><stop stop-opacity="1" stop-color="rgb(1.837158%, 1.332092%, 0.201416%)" offset="0.0234375"/><stop stop-opacity="1" stop-color="rgb(2.142334%, 1.554871%, 0.234985%)" offset="0.0273437"/><stop stop-opacity="1" stop-color="rgb(2.449036%, 1.777649%, 0.268555%)" offset="0.03125"/><stop stop-opacity="1" stop-color="rgb(2.755737%, 1.998901%, 0.302124%)" offset="0.0351562"/><stop stop-opacity="1" stop-color="rgb(3.062439%, 2.22168%, 0.335693%)" offset="0.0390625"/><stop stop-opacity="1" stop-color="rgb(3.367615%, 2.442932%, 0.369263%)" offset="0.0429687"/><stop stop-opacity="1" stop-color="rgb(3.674316%, 2.66571%, 0.402832%)" offset="0.046875"/><stop stop-opacity="1" stop-color="rgb(3.979492%, 2.888489%, 0.436401%)" offset="0.0507812"/><stop stop-opacity="1" stop-color="rgb(4.286194%, 3.111267%, 0.469971%)" offset="0.0546875"/><stop stop-opacity="1" stop-color="rgb(4.592896%, 3.33252%, 0.50354%)" offset="0.0585938"/><stop stop-opacity="1" stop-color="rgb(4.899597%, 3.555298%, 0.537109%)" offset="0.0625"/><stop stop-opacity="1" stop-color="rgb(5.204773%, 3.77655%, 0.570679%)" offset="0.0664062"/><stop stop-opacity="1" stop-color="rgb(5.511475%, 3.999329%, 0.604248%)" offset="0.0703125"/><stop stop-opacity="1" stop-color="rgb(5.818176%, 4.222107%, 0.637817%)" offset="0.0742187"/><stop stop-opacity="1" stop-color="rgb(6.124878%, 4.444885%, 0.671387%)" offset="0.078125"/><stop stop-opacity="1" stop-color="rgb(6.430054%, 4.666138%, 0.704956%)" offset="0.0820312"/><stop stop-opacity="1" stop-color="rgb(6.736755%, 4.888916%, 0.738525%)" offset="0.0859375"/><stop stop-opacity="1" stop-color="rgb(7.041931%, 5.110168%, 0.772095%)" offset="0.0898437"/><stop stop-opacity="1" stop-color="rgb(7.348633%, 5.332947%, 0.805664%)" offset="0.09375"/><stop stop-opacity="1" stop-color="rgb(7.655334%, 5.555725%, 0.839233%)" offset="0.0976562"/><stop stop-opacity="1" stop-color="rgb(7.962036%, 5.778503%, 0.872803%)" offset="0.101562"/><stop stop-opacity="1" stop-color="rgb(8.267212%, 5.999756%, 0.906372%)" offset="0.105469"/><stop stop-opacity="1" stop-color="rgb(8.573914%, 6.222534%, 0.939941%)" offset="0.109375"/><stop stop-opacity="1" stop-color="rgb(8.880615%, 6.443787%, 0.973511%)" offset="0.113281"/><stop stop-opacity="1" stop-color="rgb(9.187317%, 6.666565%, 1.00708%)" offset="0.117188"/><stop stop-opacity="1" stop-color="rgb(9.492493%, 6.889343%, 1.040649%)" offset="0.121094"/><stop stop-opacity="1" stop-color="rgb(9.799194%, 7.112122%, 1.074219%)" offset="0.125"/><stop stop-opacity="1" stop-color="rgb(10.10437%, 7.333374%, 1.107788%)" offset="0.128906"/><stop stop-opacity="1" stop-color="rgb(10.411072%, 7.556152%, 1.141357%)" offset="0.132812"/><stop stop-opacity="1" stop-color="rgb(10.717773%, 7.777405%, 1.174927%)" offset="0.136719"/><stop stop-opacity="1" stop-color="rgb(11.024475%, 8.000183%, 1.208496%)" offset="0.140625"/><stop stop-opacity="1" stop-color="rgb(11.329651%, 8.222961%, 1.242065%)" offset="0.144531"/><stop stop-opacity="1" stop-color="rgb(11.636353%, 8.44574%, 1.275635%)" offset="0.148437"/><stop stop-opacity="1" stop-color="rgb(11.943054%, 8.666992%, 1.309204%)" offset="0.152344"/><stop stop-opacity="1" stop-color="rgb(12.249756%, 8.889771%, 1.342773%)" offset="0.15625"/><stop stop-opacity="1" stop-color="rgb(12.554932%, 9.111023%, 1.376343%)" offset="0.160156"/><stop stop-opacity="1" stop-color="rgb(12.861633%, 9.333801%, 1.409912%)" offset="0.164062"/><stop stop-opacity="1" stop-color="rgb(13.166809%, 9.55658%, 1.443481%)" offset="0.167969"/><stop stop-opacity="1" stop-color="rgb(13.473511%, 9.779358%, 1.477051%)" offset="0.171875"/><stop stop-opacity="1" stop-color="rgb(13.780212%, 10.00061%, 1.51062%)" offset="0.175781"/><stop stop-opacity="1" stop-color="rgb(14.086914%, 10.223389%, 1.544189%)" offset="0.179687"/><stop stop-opacity="1" stop-color="rgb(14.39209%, 10.444641%, 1.577759%)" offset="0.183594"/><stop stop-opacity="1" stop-color="rgb(14.698792%, 10.667419%, 1.611328%)" offset="0.1875"/><stop stop-opacity="1" stop-color="rgb(15.005493%, 10.890198%, 1.644897%)" offset="0.191406"/><stop stop-opacity="1" stop-color="rgb(15.312195%, 11.112976%, 1.678467%)" offset="0.195312"/><stop stop-opacity="1" stop-color="rgb(15.617371%, 11.334229%, 1.712036%)" offset="0.199219"/><stop stop-opacity="1" stop-color="rgb(15.924072%, 11.557007%, 1.745605%)" offset="0.203125"/><stop stop-opacity="1" stop-color="rgb(16.230774%, 11.778259%, 1.779175%)" offset="0.207031"/><stop stop-opacity="1" stop-color="rgb(16.537476%, 12.001038%, 1.812744%)" offset="0.210937"/><stop stop-opacity="1" stop-color="rgb(16.842651%, 12.223816%, 1.846313%)" offset="0.214844"/><stop stop-opacity="1" stop-color="rgb(17.149353%, 12.446594%, 1.879883%)" offset="0.21875"/><stop stop-opacity="1" stop-color="rgb(17.454529%, 12.667847%, 1.913452%)" offset="0.222656"/><stop stop-opacity="1" stop-color="rgb(17.76123%, 12.890625%, 1.947021%)" offset="0.226562"/><stop stop-opacity="1" stop-color="rgb(18.067932%, 13.111877%, 1.980591%)" offset="0.230469"/><stop stop-opacity="1" stop-color="rgb(18.374634%, 13.334656%, 2.01416%)" offset="0.234375"/><stop stop-opacity="1" stop-color="rgb(18.67981%, 13.557434%, 2.047729%)" offset="0.238281"/><stop stop-opacity="1" stop-color="rgb(18.986511%, 13.780212%, 2.081299%)" offset="0.242187"/><stop stop-opacity="1" stop-color="rgb(19.293213%, 14.001465%, 2.114868%)" offset="0.246094"/><stop stop-opacity="1" stop-color="rgb(19.599915%, 14.224243%, 2.149963%)" offset="0.25"/><stop stop-opacity="1" stop-color="rgb(19.90509%, 14.445496%, 2.183533%)" offset="0.253906"/><stop stop-opacity="1" stop-color="rgb(20.211792%, 14.668274%, 2.217102%)" offset="0.257813"/><stop stop-opacity="1" stop-color="rgb(20.516968%, 14.891052%, 2.250671%)" offset="0.261719"/><stop stop-opacity="1" stop-color="rgb(20.823669%, 15.113831%, 2.284241%)" offset="0.265625"/><stop stop-opacity="1" stop-color="rgb(21.130371%, 15.335083%, 2.31781%)" offset="0.269531"/><stop stop-opacity="1" stop-color="rgb(21.437073%, 15.557861%, 2.351379%)" offset="0.273438"/><stop stop-opacity="1" stop-color="rgb(21.742249%, 15.779114%, 2.384949%)" offset="0.277344"/><stop stop-opacity="1" stop-color="rgb(22.04895%, 16.001892%, 2.418518%)" offset="0.28125"/><stop stop-opacity="1" stop-color="rgb(22.355652%, 16.22467%, 2.452087%)" offset="0.285156"/><stop stop-opacity="1" stop-color="rgb(22.662354%, 16.447449%, 2.485657%)" offset="0.289063"/><stop stop-opacity="1" stop-color="rgb(22.967529%, 16.668701%, 2.519226%)" offset="0.292969"/><stop stop-opacity="1" stop-color="rgb(23.274231%, 16.891479%, 2.552795%)" offset="0.296875"/><stop stop-opacity="1" stop-color="rgb(23.579407%, 17.112732%, 2.586365%)" offset="0.300781"/><stop stop-opacity="1" stop-color="rgb(23.886108%, 17.33551%, 2.619934%)" offset="0.304688"/><stop stop-opacity="1" stop-color="rgb(24.19281%, 17.558289%, 2.653503%)" offset="0.308594"/><stop stop-opacity="1" stop-color="rgb(24.499512%, 17.781067%, 2.687073%)" offset="0.3125"/><stop stop-opacity="1" stop-color="rgb(24.804688%, 18.002319%, 2.720642%)" offset="0.316406"/><stop stop-opacity="1" stop-color="rgb(25.111389%, 18.225098%, 2.754211%)" offset="0.320313"/><stop stop-opacity="1" stop-color="rgb(25.418091%, 18.44635%, 2.787781%)" offset="0.324219"/><stop stop-opacity="1" stop-color="rgb(25.724792%, 18.669128%, 2.82135%)" offset="0.328125"/><stop stop-opacity="1" stop-color="rgb(26.029968%, 18.891907%, 2.854919%)" offset="0.332031"/><stop stop-opacity="1" stop-color="rgb(26.33667%, 19.114685%, 2.888489%)" offset="0.335938"/><stop stop-opacity="1" stop-color="rgb(26.641846%, 19.335938%, 2.922058%)" offset="0.339844"/><stop stop-opacity="1" stop-color="rgb(26.948547%, 19.558716%, 2.955627%)" offset="0.34375"/><stop stop-opacity="1" stop-color="rgb(27.255249%, 19.779968%, 2.989197%)" offset="0.347656"/><stop stop-opacity="1" stop-color="rgb(27.561951%, 20.002747%, 3.022766%)" offset="0.351562"/><stop stop-opacity="1" stop-color="rgb(27.867126%, 20.225525%, 3.056335%)" offset="0.355469"/><stop stop-opacity="1" stop-color="rgb(28.173828%, 20.448303%, 3.089905%)" offset="0.359375"/><stop stop-opacity="1" stop-color="rgb(28.48053%, 20.669556%, 3.123474%)" offset="0.363281"/><stop stop-opacity="1" stop-color="rgb(28.787231%, 20.892334%, 3.157043%)" offset="0.367188"/><stop stop-opacity="1" stop-color="rgb(29.092407%, 21.113586%, 3.190613%)" offset="0.371094"/><stop stop-opacity="1" stop-color="rgb(29.399109%, 21.336365%, 3.224182%)" offset="0.375"/><stop stop-opacity="1" stop-color="rgb(29.704285%, 21.559143%, 3.257751%)" offset="0.378906"/><stop stop-opacity="1" stop-color="rgb(30.010986%, 21.781921%, 3.291321%)" offset="0.382812"/><stop stop-opacity="1" stop-color="rgb(30.317688%, 22.003174%, 3.32489%)" offset="0.386719"/><stop stop-opacity="1" stop-color="rgb(30.62439%, 22.225952%, 3.358459%)" offset="0.390625"/><stop stop-opacity="1" stop-color="rgb(30.929565%, 22.447205%, 3.392029%)" offset="0.394531"/><stop stop-opacity="1" stop-color="rgb(31.236267%, 22.669983%, 3.425598%)" offset="0.398437"/><stop stop-opacity="1" stop-color="rgb(31.542969%, 22.892761%, 3.459167%)" offset="0.402344"/><stop stop-opacity="1" stop-color="rgb(31.84967%, 23.11554%, 3.492737%)" offset="0.40625"/><stop stop-opacity="1" stop-color="rgb(32.154846%, 23.336792%, 3.526306%)" offset="0.410156"/><stop stop-opacity="1" stop-color="rgb(32.461548%, 23.55957%, 3.559875%)" offset="0.414062"/><stop stop-opacity="1" stop-color="rgb(32.76825%, 23.780823%, 3.593445%)" offset="0.417969"/><stop stop-opacity="1" stop-color="rgb(33.074951%, 24.003601%, 3.627014%)" offset="0.421875"/><stop stop-opacity="1" stop-color="rgb(33.380127%, 24.226379%, 3.660583%)" offset="0.425781"/><stop stop-opacity="1" stop-color="rgb(33.686829%, 24.449158%, 3.694153%)" offset="0.429687"/><stop stop-opacity="1" stop-color="rgb(33.992004%, 24.67041%, 3.727722%)" offset="0.433594"/><stop stop-opacity="1" stop-color="rgb(34.298706%, 24.893188%, 3.761292%)" offset="0.4375"/><stop stop-opacity="1" stop-color="rgb(34.605408%, 25.114441%, 3.794861%)" offset="0.441406"/><stop stop-opacity="1" stop-color="rgb(34.912109%, 25.337219%, 3.82843%)" offset="0.445312"/><stop stop-opacity="1" stop-color="rgb(35.217285%, 25.559998%, 3.862%)" offset="0.449219"/><stop stop-opacity="1" stop-color="rgb(35.523987%, 25.782776%, 3.895569%)" offset="0.453125"/><stop stop-opacity="1" stop-color="rgb(35.830688%, 26.004028%, 3.929138%)" offset="0.457031"/><stop stop-opacity="1" stop-color="rgb(36.13739%, 26.226807%, 3.962708%)" offset="0.460937"/><stop stop-opacity="1" stop-color="rgb(36.442566%, 26.448059%, 3.996277%)" offset="0.464844"/><stop stop-opacity="1" stop-color="rgb(36.749268%, 26.670837%, 4.029846%)" offset="0.46875"/><stop stop-opacity="1" stop-color="rgb(37.054443%, 26.893616%, 4.063416%)" offset="0.472656"/><stop stop-opacity="1" stop-color="rgb(37.361145%, 27.116394%, 4.096985%)" offset="0.476562"/><stop stop-opacity="1" stop-color="rgb(37.667847%, 27.337646%, 4.130554%)" offset="0.480469"/><stop stop-opacity="1" stop-color="rgb(37.974548%, 27.560425%, 4.164124%)" offset="0.484375"/><stop stop-opacity="1" stop-color="rgb(38.279724%, 27.781677%, 4.197693%)" offset="0.488281"/><stop stop-opacity="1" stop-color="rgb(38.586426%, 28.004456%, 4.232788%)" offset="0.492187"/><stop stop-opacity="1" stop-color="rgb(38.893127%, 28.225708%, 4.266357%)" offset="0.496094"/><stop stop-opacity="1" stop-color="rgb(39.199829%, 28.448486%, 4.299927%)" offset="0.5"/><stop stop-opacity="1" stop-color="rgb(39.505005%, 28.671265%, 4.333496%)" offset="0.503906"/><stop stop-opacity="1" stop-color="rgb(39.811707%, 28.894043%, 4.367065%)" offset="0.507812"/><stop stop-opacity="1" stop-color="rgb(40.116882%, 29.115295%, 4.400635%)" offset="0.511719"/><stop stop-opacity="1" stop-color="rgb(40.423584%, 29.338074%, 4.434204%)" offset="0.515625"/><stop stop-opacity="1" stop-color="rgb(40.730286%, 29.559326%, 4.467773%)" offset="0.519531"/><stop stop-opacity="1" stop-color="rgb(41.036987%, 29.782104%, 4.501343%)" offset="0.523438"/><stop stop-opacity="1" stop-color="rgb(41.342163%, 30.004883%, 4.534912%)" offset="0.527344"/><stop stop-opacity="1" stop-color="rgb(41.648865%, 30.227661%, 4.568481%)" offset="0.53125"/><stop stop-opacity="1" stop-color="rgb(41.955566%, 30.448914%, 4.602051%)" offset="0.535156"/><stop stop-opacity="1" stop-color="rgb(42.262268%, 30.671692%, 4.63562%)" offset="0.539062"/><stop stop-opacity="1" stop-color="rgb(42.567444%, 30.892944%, 4.669189%)" offset="0.542969"/><stop stop-opacity="1" stop-color="rgb(42.874146%, 31.115723%, 4.702759%)" offset="0.546875"/><stop stop-opacity="1" stop-color="rgb(43.179321%, 31.338501%, 4.736328%)" offset="0.550781"/><stop stop-opacity="1" stop-color="rgb(43.486023%, 31.561279%, 4.769897%)" offset="0.554688"/><stop stop-opacity="1" stop-color="rgb(43.792725%, 31.782532%, 4.803467%)" offset="0.558594"/><stop stop-opacity="1" stop-color="rgb(44.099426%, 32.00531%, 4.837036%)" offset="0.5625"/><stop stop-opacity="1" stop-color="rgb(44.404602%, 32.226562%, 4.870605%)" offset="0.566406"/><stop stop-opacity="1" stop-color="rgb(44.711304%, 32.449341%, 4.904175%)" offset="0.570313"/><stop stop-opacity="1" stop-color="rgb(45.018005%, 32.672119%, 4.937744%)" offset="0.574219"/><stop stop-opacity="1" stop-color="rgb(45.324707%, 32.894897%, 4.971313%)" offset="0.578125"/><stop stop-opacity="1" stop-color="rgb(45.629883%, 33.11615%, 5.004883%)" offset="0.582031"/><stop stop-opacity="1" stop-color="rgb(45.936584%, 33.338928%, 5.038452%)" offset="0.585938"/><stop stop-opacity="1" stop-color="rgb(46.243286%, 33.560181%, 5.072021%)" offset="0.589844"/><stop stop-opacity="1" stop-color="rgb(46.549988%, 33.782959%, 5.105591%)" offset="0.59375"/><stop stop-opacity="1" stop-color="rgb(46.855164%, 34.005737%, 5.13916%)" offset="0.597656"/><stop stop-opacity="1" stop-color="rgb(47.161865%, 34.228516%, 5.172729%)" offset="0.601563"/><stop stop-opacity="1" stop-color="rgb(47.467041%, 34.449768%, 5.206299%)" offset="0.605469"/><stop stop-opacity="1" stop-color="rgb(47.773743%, 34.672546%, 5.239868%)" offset="0.609375"/><stop stop-opacity="1" stop-color="rgb(48.080444%, 34.893799%, 5.273438%)" offset="0.613281"/><stop stop-opacity="1" stop-color="rgb(48.387146%, 35.116577%, 5.307007%)" offset="0.617188"/><stop stop-opacity="1" stop-color="rgb(48.692322%, 35.339355%, 5.340576%)" offset="0.621094"/><stop stop-opacity="1" stop-color="rgb(48.999023%, 35.562134%, 5.374146%)" offset="0.625"/><stop stop-opacity="1" stop-color="rgb(49.305725%, 35.783386%, 5.407715%)" offset="0.628906"/><stop stop-opacity="1" stop-color="rgb(49.612427%, 36.006165%, 5.441284%)" offset="0.632813"/><stop stop-opacity="1" stop-color="rgb(49.917603%, 36.227417%, 5.474854%)" offset="0.636719"/><stop stop-opacity="1" stop-color="rgb(50.224304%, 36.450195%, 5.508423%)" offset="0.640625"/><stop stop-opacity="1" stop-color="rgb(50.52948%, 36.672974%, 5.541992%)" offset="0.644531"/><stop stop-opacity="1" stop-color="rgb(50.836182%, 36.895752%, 5.575562%)" offset="0.648438"/><stop stop-opacity="1" stop-color="rgb(51.142883%, 37.117004%, 5.609131%)" offset="0.652344"/><stop stop-opacity="1" stop-color="rgb(51.449585%, 37.339783%, 5.6427%)" offset="0.65625"/><stop stop-opacity="1" stop-color="rgb(51.754761%, 37.561035%, 5.67627%)" offset="0.660156"/><stop stop-opacity="1" stop-color="rgb(52.061462%, 37.783813%, 5.709839%)" offset="0.664063"/><stop stop-opacity="1" stop-color="rgb(52.368164%, 38.006592%, 5.743408%)" offset="0.667969"/><stop stop-opacity="1" stop-color="rgb(52.674866%, 38.22937%, 5.776978%)" offset="0.671875"/><stop stop-opacity="1" stop-color="rgb(52.980042%, 38.450623%, 5.810547%)" offset="0.675781"/><stop stop-opacity="1" stop-color="rgb(53.286743%, 38.673401%, 5.844116%)" offset="0.679688"/><stop stop-opacity="1" stop-color="rgb(53.591919%, 38.894653%, 5.877686%)" offset="0.683594"/><stop stop-opacity="1" stop-color="rgb(53.898621%, 39.117432%, 5.911255%)" offset="0.6875"/><stop stop-opacity="1" stop-color="rgb(54.205322%, 39.34021%, 5.944824%)" offset="0.691406"/><stop stop-opacity="1" stop-color="rgb(54.512024%, 39.562988%, 5.978394%)" offset="0.695312"/><stop stop-opacity="1" stop-color="rgb(54.8172%, 39.784241%, 6.011963%)" offset="0.699219"/><stop stop-opacity="1" stop-color="rgb(55.123901%, 40.007019%, 6.045532%)" offset="0.703125"/><stop stop-opacity="1" stop-color="rgb(55.430603%, 40.228271%, 6.079102%)" offset="0.707031"/><stop stop-opacity="1" stop-color="rgb(55.737305%, 40.45105%, 6.112671%)" offset="0.710938"/><stop stop-opacity="1" stop-color="rgb(56.04248%, 40.673828%, 6.14624%)" offset="0.714844"/><stop stop-opacity="1" stop-color="rgb(56.349182%, 40.896606%, 6.17981%)" offset="0.71875"/><stop stop-opacity="1" stop-color="rgb(56.654358%, 41.117859%, 6.213379%)" offset="0.722656"/><stop stop-opacity="1" stop-color="rgb(56.96106%, 41.340637%, 6.246948%)" offset="0.726562"/><stop stop-opacity="1" stop-color="rgb(57.267761%, 41.56189%, 6.280518%)" offset="0.730469"/><stop stop-opacity="1" stop-color="rgb(57.574463%, 41.784668%, 6.315613%)" offset="0.734375"/><stop stop-opacity="1" stop-color="rgb(57.879639%, 42.007446%, 6.349182%)" offset="0.738281"/><stop stop-opacity="1" stop-color="rgb(58.18634%, 42.230225%, 6.382751%)" offset="0.742188"/><stop stop-opacity="1" stop-color="rgb(58.493042%, 42.451477%, 6.416321%)" offset="0.746094"/><stop stop-opacity="1" stop-color="rgb(58.799744%, 42.674255%, 6.44989%)" offset="0.75"/><stop stop-opacity="1" stop-color="rgb(59.104919%, 42.895508%, 6.483459%)" offset="0.753906"/><stop stop-opacity="1" stop-color="rgb(59.411621%, 43.118286%, 6.517029%)" offset="0.757812"/><stop stop-opacity="1" stop-color="rgb(59.716797%, 43.341064%, 6.550598%)" offset="0.761719"/><stop stop-opacity="1" stop-color="rgb(60.023499%, 43.563843%, 6.584167%)" offset="0.765625"/><stop stop-opacity="1" stop-color="rgb(60.3302%, 43.785095%, 6.617737%)" offset="0.769531"/><stop stop-opacity="1" stop-color="rgb(60.636902%, 44.007874%, 6.651306%)" offset="0.773438"/><stop stop-opacity="1" stop-color="rgb(60.942078%, 44.229126%, 6.684875%)" offset="0.777344"/><stop stop-opacity="1" stop-color="rgb(61.248779%, 44.451904%, 6.718445%)" offset="0.78125"/><stop stop-opacity="1" stop-color="rgb(61.555481%, 44.674683%, 6.752014%)" offset="0.785156"/><stop stop-opacity="1" stop-color="rgb(61.862183%, 44.897461%, 6.785583%)" offset="0.789062"/><stop stop-opacity="1" stop-color="rgb(62.167358%, 45.118713%, 6.819153%)" offset="0.792969"/><stop stop-opacity="1" stop-color="rgb(62.47406%, 45.341492%, 6.852722%)" offset="0.796875"/><stop stop-opacity="1" stop-color="rgb(62.780762%, 45.562744%, 6.886292%)" offset="0.800781"/><stop stop-opacity="1" stop-color="rgb(63.087463%, 45.785522%, 6.919861%)" offset="0.804688"/><stop stop-opacity="1" stop-color="rgb(63.392639%, 46.008301%, 6.95343%)" offset="0.808594"/><stop stop-opacity="1" stop-color="rgb(63.699341%, 46.231079%, 6.987%)" offset="0.8125"/><stop stop-opacity="1" stop-color="rgb(64.004517%, 46.452332%, 7.020569%)" offset="0.816406"/><stop stop-opacity="1" stop-color="rgb(64.311218%, 46.67511%, 7.054138%)" offset="0.820312"/><stop stop-opacity="1" stop-color="rgb(64.61792%, 46.896362%, 7.087708%)" offset="0.824219"/><stop stop-opacity="1" stop-color="rgb(64.924622%, 47.119141%, 7.121277%)" offset="0.828125"/><stop stop-opacity="1" stop-color="rgb(65.229797%, 47.341919%, 7.154846%)" offset="0.832031"/><stop stop-opacity="1" stop-color="rgb(65.536499%, 47.564697%, 7.188416%)" offset="0.835937"/><stop stop-opacity="1" stop-color="rgb(65.843201%, 47.78595%, 7.221985%)" offset="0.839844"/><stop stop-opacity="1" stop-color="rgb(66.149902%, 48.008728%, 7.255554%)" offset="0.84375"/><stop stop-opacity="1" stop-color="rgb(66.455078%, 48.22998%, 7.289124%)" offset="0.847656"/><stop stop-opacity="1" stop-color="rgb(66.76178%, 48.452759%, 7.322693%)" offset="0.851562"/><stop stop-opacity="1" stop-color="rgb(67.066956%, 48.675537%, 7.356262%)" offset="0.855469"/><stop stop-opacity="1" stop-color="rgb(67.373657%, 48.898315%, 7.389832%)" offset="0.859375"/><stop stop-opacity="1" stop-color="rgb(67.680359%, 49.119568%, 7.423401%)" offset="0.863281"/><stop stop-opacity="1" stop-color="rgb(67.987061%, 49.342346%, 7.45697%)" offset="0.867187"/><stop stop-opacity="1" stop-color="rgb(68.292236%, 49.563599%, 7.49054%)" offset="0.871094"/><stop stop-opacity="1" stop-color="rgb(68.598938%, 49.786377%, 7.524109%)" offset="0.875"/><stop stop-opacity="1" stop-color="rgb(68.90564%, 50.009155%, 7.557678%)" offset="0.878906"/><stop stop-opacity="1" stop-color="rgb(69.212341%, 50.231934%, 7.591248%)" offset="0.882812"/><stop stop-opacity="1" stop-color="rgb(69.517517%, 50.453186%, 7.624817%)" offset="0.886719"/><stop stop-opacity="1" stop-color="rgb(69.824219%, 50.675964%, 7.658386%)" offset="0.890625"/><stop stop-opacity="1" stop-color="rgb(70.129395%, 50.897217%, 7.691956%)" offset="0.894531"/><stop stop-opacity="1" stop-color="rgb(70.436096%, 51.119995%, 7.725525%)" offset="0.898437"/><stop stop-opacity="1" stop-color="rgb(70.742798%, 51.342773%, 7.759094%)" offset="0.902344"/><stop stop-opacity="1" stop-color="rgb(71.0495%, 51.565552%, 7.792664%)" offset="0.90625"/><stop stop-opacity="1" stop-color="rgb(71.354675%, 51.786804%, 7.826233%)" offset="0.910156"/><stop stop-opacity="1" stop-color="rgb(71.661377%, 52.009583%, 7.859802%)" offset="0.914062"/><stop stop-opacity="1" stop-color="rgb(71.968079%, 52.230835%, 7.893372%)" offset="0.917969"/><stop stop-opacity="1" stop-color="rgb(72.27478%, 52.453613%, 7.926941%)" offset="0.921875"/><stop stop-opacity="1" stop-color="rgb(72.579956%, 52.676392%, 7.96051%)" offset="0.925781"/><stop stop-opacity="1" stop-color="rgb(72.886658%, 52.89917%, 7.99408%)" offset="0.929687"/><stop stop-opacity="1" stop-color="rgb(73.191833%, 53.120422%, 8.027649%)" offset="0.933594"/><stop stop-opacity="1" stop-color="rgb(73.498535%, 53.343201%, 8.061218%)" offset="0.9375"/><stop stop-opacity="1" stop-color="rgb(73.805237%, 53.564453%, 8.094788%)" offset="0.941406"/><stop stop-opacity="1" stop-color="rgb(74.111938%, 53.787231%, 8.128357%)" offset="0.945312"/><stop stop-opacity="1" stop-color="rgb(74.417114%, 54.01001%, 8.161926%)" offset="0.949219"/><stop stop-opacity="1" stop-color="rgb(74.723816%, 54.232788%, 8.195496%)" offset="0.953125"/><stop stop-opacity="1" stop-color="rgb(75.030518%, 54.454041%, 8.229065%)" offset="0.957031"/><stop stop-opacity="1" stop-color="rgb(75.337219%, 54.676819%, 8.262634%)" offset="0.960938"/><stop stop-opacity="1" stop-color="rgb(75.642395%, 54.898071%, 8.296204%)" offset="0.964844"/><stop stop-opacity="1" stop-color="rgb(75.949097%, 55.12085%, 8.329773%)" offset="0.96875"/><stop stop-opacity="1" stop-color="rgb(76.254272%, 55.342102%, 8.363342%)" offset="0.972656"/><stop stop-opacity="1" stop-color="rgb(76.560974%, 55.56488%, 8.396912%)" offset="0.976562"/><stop stop-opacity="1" stop-color="rgb(76.867676%, 55.787659%, 8.430481%)" offset="0.980469"/><stop stop-opacity="1" stop-color="rgb(77.174377%, 56.010437%, 8.465576%)" offset="0.984375"/><stop stop-opacity="1" stop-color="rgb(77.479553%, 56.231689%, 8.499146%)" offset="0.988281"/><stop stop-opacity="1" stop-color="rgb(77.786255%, 56.454468%, 8.532715%)" offset="0.992188"/><stop stop-opacity="1" stop-color="rgb(78.092957%, 56.67572%, 8.566284%)" offset="0.996094"/><stop stop-opacity="1" stop-color="rgb(78.399658%, 56.898499%, 8.599854%)" offset="1"/></linearGradient><clipPath id="6c71593729"><path d="M 367.777344 450.375 L 422.632812 450.375 L 422.632812 537.128906 L 367.777344 537.128906 Z M 367.777344 450.375 " clip-rule="nonzero"/></clipPath><clipPath id="6ad78d1302"><path d="M 439.089844 277.183594 L 500.46875 277.183594 L 500.46875 364.171875 L 439.089844 364.171875 Z M 439.089844 277.183594 " clip-rule="nonzero"/></clipPath><clipPath id="15dd1ebc41"><path d="M 304 230.398438 L 384 230.398438 L 384 268 L 304 268 Z M 304 230.398438 " clip-rule="nonzero"/></clipPath></defs><g clip-path="url(#75cb075d80)"><g clip-path="url(#54c0886189)"><path fill="url(#f938585064)" d="M 14.828125 0 L 14.828125 767.1875 L 753.171875 767.1875 L 753.171875 0 Z M 14.828125 0 " fill-rule="nonzero"/></g></g><path fill="#ffffff" d="M 349.316406 533 C 347.542969 533 345.789062 532.246094 344.558594 530.78125 C 342.363281 528.15625 342.707031 524.246094 345.335938 522.046875 C 375.054688 497.167969 392.882812 463.574219 394.246094 429.882812 C 394.761719 417.203125 391.742188 406.859375 389.191406 401.914062 C 388.148438 405.878906 386.957031 414.097656 387.53125 430.375 C 388.488281 457.550781 371.277344 486.890625 334.917969 520.074219 C 332.386719 522.382812 328.460938 522.203125 326.15625 519.671875 C 323.847656 517.140625 324.023438 513.222656 326.554688 510.910156 C 360.066406 480.332031 375.960938 454.132812 375.136719 430.8125 C 373.988281 398.222656 379.15625 390.902344 383.785156 388.167969 C 386.796875 386.386719 390.324219 386.449219 393.476562 388.328125 C 402.5625 393.761719 407.304688 413.980469 406.640625 430.386719 C 405.128906 467.5625 385.6875 504.4375 353.292969 531.558594 C 352.132812 532.527344 350.722656 533 349.316406 533 " fill-opacity="1" fill-rule="nonzero"/><path fill="#ffffff" d="M 315.238281 505.023438 C 313.746094 505.023438 312.246094 504.484375 311.058594 503.394531 C 308.527344 501.085938 308.355469 497.164062 310.664062 494.636719 L 315.527344 489.332031 C 338.804688 463.972656 350.488281 451.246094 353.46875 426.835938 C 353.882812 423.433594 356.980469 421.011719 360.375 421.429688 C 363.773438 421.84375 366.195312 424.9375 365.777344 428.335938 C 362.316406 456.695312 348.144531 472.136719 324.660156 497.722656 L 319.816406 503.003906 C 318.59375 504.34375 316.917969 505.023438 315.238281 505.023438 " fill-opacity="1" fill-rule="nonzero"/><path fill="#ffffff" d="M 419.609375 441.234375 C 419.472656 441.234375 419.335938 441.226562 419.199219 441.222656 C 415.78125 441 413.191406 438.050781 413.414062 434.632812 C 413.546875 432.5625 413.605469 430.53125 413.585938 428.597656 C 413.3125 403.445312 406.773438 392.566406 401.523438 383.828125 C 396.316406 375.15625 389.5 370.734375 383.671875 372.21875 C 377.269531 373.851562 369.460938 383.785156 368.527344 406.410156 C 368.386719 409.832031 365.46875 412.496094 362.074219 412.351562 C 358.652344 412.210938 355.996094 409.320312 356.136719 405.898438 C 357.167969 380.929688 366.316406 363.847656 380.609375 360.199219 C 391.949219 357.3125 404.015625 363.886719 412.109375 377.367188 C 417.859375 386.9375 425.671875 399.945312 425.984375 428.464844 C 426.011719 430.714844 425.941406 433.054688 425.785156 435.433594 C 425.574219 438.714844 422.847656 441.234375 419.609375 441.234375 " fill-opacity="1" fill-rule="nonzero"/><g clip-path="url(#6c71593729)"><path fill="#ffffff" d="M 374.078125 537.128906 C 372.441406 537.128906 370.804688 536.484375 369.585938 535.199219 C 367.226562 532.71875 367.324219 528.789062 369.808594 526.433594 C 388.679688 508.5 403.355469 482.582031 410.082031 455.328125 C 410.898438 452.003906 414.265625 449.972656 417.589844 450.792969 C 420.910156 451.617188 422.941406 454.972656 422.121094 458.300781 C 414.847656 487.792969 398.894531 515.902344 378.351562 535.421875 C 377.152344 536.5625 375.613281 537.128906 374.078125 537.128906 " fill-opacity="1" fill-rule="nonzero"/></g><path fill="#ffffff" d="M 301.21875 483.085938 C 299.554688 483.085938 297.894531 482.421875 296.671875 481.101562 C 294.34375 478.589844 294.488281 474.667969 297 472.339844 C 329.945312 441.773438 333.445312 417.804688 337.5 390.050781 C 338.496094 383.230469 339.523438 376.179688 341.011719 368.746094 C 343.875 354.425781 351.601562 343.253906 362.757812 337.28125 C 373.390625 331.59375 386.414062 331.175781 398.480469 336.152344 C 401.644531 337.453125 403.15625 341.078125 401.851562 344.246094 C 400.550781 347.410156 396.925781 348.917969 393.757812 347.617188 C 385 344.007812 376.070312 344.222656 368.609375 348.214844 C 360.777344 352.40625 355.296875 360.5625 353.171875 371.179688 C 351.75 378.292969 350.742188 385.179688 349.769531 391.839844 C 345.5625 420.664062 341.585938 447.890625 305.433594 481.433594 C 304.238281 482.535156 302.726562 483.085938 301.21875 483.085938 " fill-opacity="1" fill-rule="nonzero"/><path fill="#ffffff" d="M 402.019531 531.414062 C 400.410156 531.414062 398.796875 530.785156 397.582031 529.539062 C 395.191406 527.085938 395.242188 523.164062 397.695312 520.773438 C 419.375 499.644531 431.3125 471 433.167969 435.636719 C 434.941406 401.75 426.421875 384.847656 415.957031 367.757812 C 412.894531 362.757812 412.09375 361.625 408.890625 358.625 C 406.386719 356.285156 406.257812 352.359375 408.597656 349.859375 C 410.941406 347.359375 414.859375 347.234375 417.363281 349.570312 C 421.6875 353.617188 423.148438 355.75 426.535156 361.285156 C 437.671875 379.46875 447.507812 398.894531 445.550781 436.285156 C 443.53125 474.863281 430.339844 506.277344 406.347656 529.652344 C 405.140625 530.828125 403.582031 531.414062 402.019531 531.414062 " fill-opacity="1" fill-rule="nonzero"/><path fill="#ffffff" d="M 288.1875 452.691406 C 286.191406 452.691406 284.234375 451.730469 283.035156 449.953125 C 281.125 447.109375 281.878906 443.253906 284.71875 441.34375 C 304.519531 428.023438 310.777344 406.738281 316.394531 382.328125 C 317.160156 378.988281 320.484375 376.910156 323.824219 377.675781 C 327.164062 378.445312 329.246094 381.773438 328.480469 385.109375 C 322.492188 411.136719 315.171875 435.808594 291.640625 451.632812 C 290.582031 452.351562 289.378906 452.691406 288.1875 452.691406 " fill-opacity="1" fill-rule="nonzero"/><path fill="#ffffff" d="M 453.480469 390.441406 C 450.6875 390.441406 448.148438 388.539062 447.464844 385.699219 C 443.089844 367.671875 437.050781 355.734375 425.929688 343.121094 C 410.425781 325.53125 389.105469 316.449219 370.308594 319.425781 C 356.585938 321.597656 345.972656 329.828125 340.4375 342.601562 C 337.964844 348.304688 335.816406 354.777344 333.675781 362.984375 C 332.8125 366.296875 329.421875 368.28125 326.113281 367.417969 C 322.796875 366.550781 320.8125 363.167969 321.675781 359.851562 C 323.980469 351.015625 326.328125 343.96875 329.058594 337.667969 C 336.238281 321.109375 350.566406 309.992188 368.375 307.175781 C 391.671875 303.492188 416.671875 313.863281 435.234375 334.921875 C 447.652344 349.003906 454.683594 362.871094 459.511719 382.777344 C 460.320312 386.105469 458.277344 389.460938 454.949219 390.265625 C 454.457031 390.382812 453.964844 390.441406 453.480469 390.441406 " fill-opacity="1" fill-rule="nonzero"/><path fill="#ffffff" d="M 449.003906 497.128906 C 448.273438 497.128906 447.523438 496.996094 446.792969 496.71875 C 443.59375 495.496094 441.988281 491.914062 443.214844 488.710938 C 455.71875 455.972656 456.25 439.402344 452.710938 414.652344 C 452.316406 411.917969 451.925781 409.28125 451.523438 406.742188 C 450.992188 403.359375 453.296875 400.183594 456.679688 399.652344 C 460.0625 399.117188 463.238281 401.425781 463.773438 404.808594 C 464.179688 407.402344 464.582031 410.09375 464.984375 412.894531 C 468.761719 439.304688 468.199219 458.046875 454.796875 493.136719 C 453.851562 495.609375 451.5 497.128906 449.003906 497.128906 " fill-opacity="1" fill-rule="nonzero"/><path fill="#ffffff" d="M 285.476562 414.046875 C 283.957031 414.046875 282.4375 413.492188 281.242188 412.375 C 278.742188 410.039062 278.609375 406.113281 280.949219 403.613281 C 291.585938 392.238281 293.519531 380.5 295.96875 365.640625 C 297.828125 354.34375 299.9375 341.539062 306.179688 326.457031 C 313.285156 309.285156 326.808594 295.707031 344.257812 288.214844 C 347.402344 286.863281 351.046875 288.320312 352.398438 291.464844 C 353.75 294.613281 352.296875 298.257812 349.148438 299.609375 C 334.691406 305.816406 323.5 317.035156 317.640625 331.199219 C 311.945312 344.960938 309.957031 357.019531 308.203125 367.65625 C 305.636719 383.242188 303.207031 397.964844 290.007812 412.082031 C 288.785156 413.386719 287.132812 414.046875 285.476562 414.046875 " fill-opacity="1" fill-rule="nonzero"/><path fill="#ffffff" d="M 456.265625 335.464844 C 454.300781 335.464844 452.375 334.535156 451.167969 332.800781 C 441.15625 318.398438 427.625 307.921875 409.804688 300.773438 C 392.640625 293.894531 379.753906 291.902344 366.722656 294.117188 C 363.34375 294.6875 360.144531 292.417969 359.570312 289.042969 C 359 285.664062 361.269531 282.460938 364.648438 281.890625 C 379.894531 279.304688 395.242188 281.578125 414.417969 289.265625 C 434.558594 297.339844 449.914062 309.265625 461.351562 325.722656 C 463.304688 328.535156 462.609375 332.402344 459.800781 334.355469 C 458.71875 335.105469 457.484375 335.464844 456.265625 335.464844 " fill-opacity="1" fill-rule="nonzero"/><path fill="#ffffff" d="M 479.496094 461.566406 C 479.195312 461.566406 478.890625 461.546875 478.585938 461.503906 C 475.199219 461.003906 472.855469 457.855469 473.351562 454.46875 C 479.851562 410.121094 474.777344 393.425781 467.101562 368.15625 L 466.105469 364.867188 C 464.472656 359.460938 462.589844 354.324219 460.507812 349.605469 C 459.128906 346.472656 460.546875 342.8125 463.679688 341.429688 C 466.808594 340.046875 470.472656 341.464844 471.855469 344.601562 C 474.140625 349.78125 476.199219 355.394531 477.976562 361.28125 L 478.96875 364.550781 C 486.835938 390.453125 492.523438 409.171875 485.621094 456.269531 C 485.167969 459.347656 482.519531 461.566406 479.496094 461.566406 " fill-opacity="1" fill-rule="nonzero"/><path fill="#ffffff" d="M 274.453125 380.167969 C 273.90625 380.167969 273.351562 380.09375 272.796875 379.941406 C 269.496094 379.03125 267.5625 375.613281 268.476562 372.3125 C 269.558594 368.390625 270.59375 363.585938 271.691406 358.492188 C 275.863281 339.121094 281.578125 312.589844 298.539062 295.238281 C 300.933594 292.789062 304.859375 292.742188 307.308594 295.136719 C 309.757812 297.53125 309.800781 301.457031 307.40625 303.90625 C 292.945312 318.695312 287.882812 342.210938 283.816406 361.101562 C 282.679688 366.375 281.605469 371.351562 280.425781 375.621094 C 279.667969 378.367188 277.171875 380.167969 274.453125 380.167969 " fill-opacity="1" fill-rule="nonzero"/><path fill="#ffffff" d="M 317.839844 290.960938 C 316.070312 290.960938 314.316406 290.207031 313.089844 288.75 C 310.886719 286.125 311.226562 282.21875 313.847656 280.011719 C 333.871094 263.183594 360.617188 254.074219 385.398438 255.65625 C 400.152344 256.59375 416.210938 260.867188 430.617188 267.691406 C 433.710938 269.160156 435.03125 272.855469 433.566406 275.953125 C 432.097656 279.042969 428.398438 280.363281 425.304688 278.898438 C 412.289062 272.730469 397.835938 268.875 384.609375 268.03125 C 362.933594 266.648438 339.464844 274.679688 321.828125 289.507812 C 320.667969 290.484375 319.25 290.960938 317.839844 290.960938 " fill-opacity="1" fill-rule="nonzero"/><g clip-path="url(#6ad78d1302)"><path fill="#ffffff" d="M 494.257812 364.101562 C 491.449219 364.101562 488.90625 362.179688 488.230469 359.332031 C 480.441406 326.484375 465.808594 304.058594 442.191406 288.746094 C 439.316406 286.882812 438.496094 283.042969 440.363281 280.167969 C 442.226562 277.296875 446.066406 276.476562 448.9375 278.34375 C 475.402344 295.496094 491.71875 320.320312 500.296875 356.46875 C 501.085938 359.800781 499.027344 363.140625 495.695312 363.933594 C 495.214844 364.046875 494.734375 364.101562 494.257812 364.101562 " fill-opacity="1" fill-rule="nonzero"/></g><g clip-path="url(#15dd1ebc41)"><path fill="#ffffff" d="M 310.761719 267.140625 C 308.867188 267.140625 307 266.277344 305.78125 264.644531 C 303.738281 261.894531 304.308594 258.007812 307.054688 255.96875 C 328.457031 240.042969 352.769531 231.390625 377.371094 230.949219 C 380.839844 230.851562 383.621094 233.609375 383.683594 237.035156 C 383.742188 240.460938 381.019531 243.285156 377.59375 243.347656 C 355.601562 243.742188 333.769531 251.546875 314.457031 265.917969 C 313.347656 266.742188 312.050781 267.140625 310.761719 267.140625 " fill-opacity="1" fill-rule="nonzero"/></g><path fill="#ffffff" d="M 472.132812 280.285156 C 470.480469 280.285156 468.835938 279.632812 467.617188 278.335938 C 449.929688 259.546875 423.210938 246.597656 396.128906 243.6875 C 392.726562 243.324219 390.261719 240.265625 390.625 236.863281 C 390.988281 233.457031 394.046875 230.992188 397.453125 231.359375 C 427.386719 234.574219 456.992188 248.953125 476.648438 269.839844 C 478.992188 272.328125 478.871094 276.253906 476.378906 278.601562 C 475.183594 279.726562 473.65625 280.285156 472.132812 280.285156 " fill-opacity="1" fill-rule="nonzero"/></svg>