<svg xmlns="http://www.w3.org/2000/svg" xmlns:xlink="http://www.w3.org/1999/xlink" width="1024" zoomAndPan="magnify" viewBox="0 0 768 767.999994" height="1024" preserveAspectRatio="xMidYMid meet" version="1.0"><defs><clipPath id="5e43018d83"><path d="M 14.828125 0 L 753.171875 0 L 753.171875 767.1875 L 14.828125 767.1875 Z M 14.828125 0 " clip-rule="nonzero"/></clipPath><clipPath id="1730111068"><path d="M 617.417969 768 L 150.582031 768 C 75.777344 768 14.828125 707.046875 14.828125 632.242188 L 14.828125 135.757812 C 14.828125 60.953125 75.777344 0 150.582031 0 L 617.417969 0 C 692.222656 0 753.171875 60.953125 753.171875 135.757812 L 753.171875 632.242188 C 753.171875 707.046875 692.222656 768 617.417969 768 Z M 617.417969 768 " clip-rule="nonzero"/></clipPath><linearGradient x1="-0.000000110185" gradientTransform="matrix(2.884164, 0, 0, 2.884164, 14.826985, -0.00108)" y1="133.141006" x2="255.999981" gradientUnits="userSpaceOnUse" y2="133.141006" id="845aca0ea4"><stop stop-opacity="1" stop-color="rgb(0%, 0%, 0%)" offset="0"/><stop stop-opacity="1" stop-color="rgb(0.305176%, 0.221252%, 0.0335693%)" offset="0.00390625"/><stop stop-opacity="1" stop-color="rgb(0.611877%, 0.444031%, 0.0671387%)" offset="0.0078125"/><stop stop-opacity="1" stop-color="rgb(0.917053%, 0.665283%, 0.100708%)" offset="0.0117187"/><stop stop-opacity="1" stop-color="rgb(1.223755%, 0.888062%, 0.134277%)" offset="0.015625"/><stop stop-opacity="1" stop-color="rgb(1.530457%, 1.109314%, 0.167847%)" offset="0.0195312"/><stop stop-opacity="1" stop-color="rgb(1.837158%, 1.332092%, 0.201416%)" offset="0.0234375"/><stop stop-opacity="1" stop-color="rgb(2.142334%, 1.554871%, 0.234985%)" offset="0.0273437"/><stop stop-opacity="1" stop-color="rgb(2.449036%, 1.777649%, 0.268555%)" offset="0.03125"/><stop stop-opacity="1" stop-color="rgb(2.755737%, 1.998901%, 0.302124%)" offset="0.0351562"/><stop stop-opacity="1" stop-color="rgb(3.062439%, 2.22168%, 0.335693%)" offset="0.0390625"/><stop stop-opacity="1" stop-color="rgb(3.367615%, 2.442932%, 0.369263%)" offset="0.0429687"/><stop stop-opacity="1" stop-color="rgb(3.674316%, 2.66571%, 0.402832%)" offset="0.046875"/><stop stop-opacity="1" stop-color="rgb(3.979492%, 2.888489%, 0.436401%)" offset="0.0507812"/><stop stop-opacity="1" stop-color="rgb(4.286194%, 3.111267%, 0.469971%)" offset="0.0546875"/><stop stop-opacity="1" stop-color="rgb(4.592896%, 3.33252%, 0.50354%)" offset="0.0585938"/><stop stop-opacity="1" stop-color="rgb(4.899597%, 3.555298%, 0.537109%)" offset="0.0625"/><stop stop-opacity="1" stop-color="rgb(5.204773%, 3.77655%, 0.570679%)" offset="0.0664062"/><stop stop-opacity="1" stop-color="rgb(5.511475%, 3.999329%, 0.604248%)" offset="0.0703125"/><stop stop-opacity="1" stop-color="rgb(5.818176%, 4.222107%, 0.637817%)" offset="0.0742187"/><stop stop-opacity="1" stop-color="rgb(6.124878%, 4.444885%, 0.671387%)" offset="0.078125"/><stop stop-opacity="1" stop-color="rgb(6.430054%, 4.666138%, 0.704956%)" offset="0.0820312"/><stop stop-opacity="1" stop-color="rgb(6.736755%, 4.888916%, 0.738525%)" offset="0.0859375"/><stop stop-opacity="1" stop-color="rgb(7.041931%, 5.110168%, 0.772095%)" offset="0.0898437"/><stop stop-opacity="1" stop-color="rgb(7.348633%, 5.332947%, 0.805664%)" offset="0.09375"/><stop stop-opacity="1" stop-color="rgb(7.655334%, 5.555725%, 0.839233%)" offset="0.0976562"/><stop stop-opacity="1" stop-color="rgb(7.962036%, 5.778503%, 0.872803%)" offset="0.101562"/><stop stop-opacity="1" stop-color="rgb(8.267212%, 5.999756%, 0.906372%)" offset="0.105469"/><stop stop-opacity="1" stop-color="rgb(8.573914%, 6.222534%, 0.939941%)" offset="0.109375"/><stop stop-opacity="1" stop-color="rgb(8.880615%, 6.443787%, 0.973511%)" offset="0.113281"/><stop stop-opacity="1" stop-color="rgb(9.187317%, 6.666565%, 1.00708%)" offset="0.117188"/><stop stop-opacity="1" stop-color="rgb(9.492493%, 6.889343%, 1.040649%)" offset="0.121094"/><stop stop-opacity="1" stop-color="rgb(9.799194%, 7.112122%, 1.074219%)" offset="0.125"/><stop stop-opacity="1" stop-color="rgb(10.10437%, 7.333374%, 1.107788%)" offset="0.128906"/><stop stop-opacity="1" stop-color="rgb(10.411072%, 7.556152%, 1.141357%)" offset="0.132812"/><stop stop-opacity="1" stop-color="rgb(10.717773%, 7.777405%, 1.174927%)" offset="0.136719"/><stop stop-opacity="1" stop-color="rgb(11.024475%, 8.000183%, 1.208496%)" offset="0.140625"/><stop stop-opacity="1" stop-color="rgb(11.329651%, 8.222961%, 1.242065%)" offset="0.144531"/><stop stop-opacity="1" stop-color="rgb(11.636353%, 8.44574%, 1.275635%)" offset="0.148437"/><stop stop-opacity="1" stop-color="rgb(11.943054%, 8.666992%, 1.309204%)" offset="0.152344"/><stop stop-opacity="1" stop-color="rgb(12.249756%, 8.889771%, 1.342773%)" offset="0.15625"/><stop stop-opacity="1" stop-color="rgb(12.554932%, 9.111023%, 1.376343%)" offset="0.160156"/><stop stop-opacity="1" stop-color="rgb(12.861633%, 9.333801%, 1.409912%)" offset="0.164062"/><stop stop-opacity="1" stop-color="rgb(13.166809%, 9.55658%, 1.443481%)" offset="0.167969"/><stop stop-opacity="1" stop-color="rgb(13.473511%, 9.779358%, 1.477051%)" offset="0.171875"/><stop stop-opacity="1" stop-color="rgb(13.780212%, 10.00061%, 1.51062%)" offset="0.175781"/><stop stop-opacity="1" stop-color="rgb(14.086914%, 10.223389%, 1.544189%)" offset="0.179687"/><stop stop-opacity="1" stop-color="rgb(14.39209%, 10.444641%, 1.577759%)" offset="0.183594"/><stop stop-opacity="1" stop-color="rgb(14.698792%, 10.667419%, 1.611328%)" offset="0.1875"/><stop stop-opacity="1" stop-color="rgb(15.005493%, 10.890198%, 1.644897%)" offset="0.191406"/><stop stop-opacity="1" stop-color="rgb(15.312195%, 11.112976%, 1.678467%)" offset="0.195312"/><stop stop-opacity="1" stop-color="rgb(15.617371%, 11.334229%, 1.712036%)" offset="0.199219"/><stop stop-opacity="1" stop-color="rgb(15.924072%, 11.557007%, 1.745605%)" offset="0.203125"/><stop stop-opacity="1" stop-color="rgb(16.230774%, 11.778259%, 1.779175%)" offset="0.207031"/><stop stop-opacity="1" stop-color="rgb(16.537476%, 12.001038%, 1.812744%)" offset="0.210937"/><stop stop-opacity="1" stop-color="rgb(16.842651%, 12.223816%, 1.846313%)" offset="0.214844"/><stop stop-opacity="1" stop-color="rgb(17.149353%, 12.446594%, 1.879883%)" offset="0.21875"/><stop stop-opacity="1" stop-color="rgb(17.454529%, 12.667847%, 1.913452%)" offset="0.222656"/><stop stop-opacity="1" stop-color="rgb(17.76123%, 12.890625%, 1.947021%)" offset="0.226562"/><stop stop-opacity="1" stop-color="rgb(18.067932%, 13.111877%, 1.980591%)" offset="0.230469"/><stop stop-opacity="1" stop-color="rgb(18.374634%, 13.334656%, 2.01416%)" offset="0.234375"/><stop stop-opacity="1" stop-color="rgb(18.67981%, 13.557434%, 2.047729%)" offset="0.238281"/><stop stop-opacity="1" stop-color="rgb(18.986511%, 13.780212%, 2.081299%)" offset="0.242187"/><stop stop-opacity="1" stop-color="rgb(19.293213%, 14.001465%, 2.114868%)" offset="0.246094"/><stop stop-opacity="1" stop-color="rgb(19.599915%, 14.224243%, 2.149963%)" offset="0.25"/><stop stop-opacity="1" stop-color="rgb(19.90509%, 14.445496%, 2.183533%)" offset="0.253906"/><stop stop-opacity="1" stop-color="rgb(20.211792%, 14.668274%, 2.217102%)" offset="0.257813"/><stop stop-opacity="1" stop-color="rgb(20.516968%, 14.891052%, 2.250671%)" offset="0.261719"/><stop stop-opacity="1" stop-color="rgb(20.823669%, 15.113831%, 2.284241%)" offset="0.265625"/><stop stop-opacity="1" stop-color="rgb(21.130371%, 15.335083%, 2.31781%)" offset="0.269531"/><stop stop-opacity="1" stop-color="rgb(21.437073%, 15.557861%, 2.351379%)" offset="0.273438"/><stop stop-opacity="1" stop-color="rgb(21.742249%, 15.779114%, 2.384949%)" offset="0.277344"/><stop stop-opacity="1" stop-color="rgb(22.04895%, 16.001892%, 2.418518%)" offset="0.28125"/><stop stop-opacity="1" stop-color="rgb(22.355652%, 16.22467%, 2.452087%)" offset="0.285156"/><stop stop-opacity="1" stop-color="rgb(22.662354%, 16.447449%, 2.485657%)" offset="0.289063"/><stop stop-opacity="1" stop-color="rgb(22.967529%, 16.668701%, 2.519226%)" offset="0.292969"/><stop stop-opacity="1" stop-color="rgb(23.274231%, 16.891479%, 2.552795%)" offset="0.296875"/><stop stop-opacity="1" stop-color="rgb(23.579407%, 17.112732%, 2.586365%)" offset="0.300781"/><stop stop-opacity="1" stop-color="rgb(23.886108%, 17.33551%, 2.619934%)" offset="0.304688"/><stop stop-opacity="1" stop-color="rgb(24.19281%, 17.558289%, 2.653503%)" offset="0.308594"/><stop stop-opacity="1" stop-color="rgb(24.499512%, 17.781067%, 2.687073%)" offset="0.3125"/><stop stop-opacity="1" stop-color="rgb(24.804688%, 18.002319%, 2.720642%)" offset="0.316406"/><stop stop-opacity="1" stop-color="rgb(25.111389%, 18.225098%, 2.754211%)" offset="0.320313"/><stop stop-opacity="1" stop-color="rgb(25.418091%, 18.44635%, 2.787781%)" offset="0.324219"/><stop stop-opacity="1" stop-color="rgb(25.724792%, 18.669128%, 2.82135%)" offset="0.328125"/><stop stop-opacity="1" stop-color="rgb(26.029968%, 18.891907%, 2.854919%)" offset="0.332031"/><stop stop-opacity="1" stop-color="rgb(26.33667%, 19.114685%, 2.888489%)" offset="0.335938"/><stop stop-opacity="1" stop-color="rgb(26.641846%, 19.335938%, 2.922058%)" offset="0.339844"/><stop stop-opacity="1" stop-color="rgb(26.948547%, 19.558716%, 2.955627%)" offset="0.34375"/><stop stop-opacity="1" stop-color="rgb(27.255249%, 19.779968%, 2.989197%)" offset="0.347656"/><stop stop-opacity="1" stop-color="rgb(27.561951%, 20.002747%, 3.022766%)" offset="0.351562"/><stop stop-opacity="1" stop-color="rgb(27.867126%, 20.225525%, 3.056335%)" offset="0.355469"/><stop stop-opacity="1" stop-color="rgb(28.173828%, 20.448303%, 3.089905%)" offset="0.359375"/><stop stop-opacity="1" stop-color="rgb(28.48053%, 20.669556%, 3.123474%)" offset="0.363281"/><stop stop-opacity="1" stop-color="rgb(28.787231%, 20.892334%, 3.157043%)" offset="0.367188"/><stop stop-opacity="1" stop-color="rgb(29.092407%, 21.113586%, 3.190613%)" offset="0.371094"/><stop stop-opacity="1" stop-color="rgb(29.399109%, 21.336365%, 3.224182%)" offset="0.375"/><stop stop-opacity="1" stop-color="rgb(29.704285%, 21.559143%, 3.257751%)" offset="0.378906"/><stop stop-opacity="1" stop-color="rgb(30.010986%, 21.781921%, 3.291321%)" offset="0.382812"/><stop stop-opacity="1" stop-color="rgb(30.317688%, 22.003174%, 3.32489%)" offset="0.386719"/><stop stop-opacity="1" stop-color="rgb(30.62439%, 22.225952%, 3.358459%)" offset="0.390625"/><stop stop-opacity="1" stop-color="rgb(30.929565%, 22.447205%, 3.392029%)" offset="0.394531"/><stop stop-opacity="1" stop-color="rgb(31.236267%, 22.669983%, 3.425598%)" offset="0.398437"/><stop stop-opacity="1" stop-color="rgb(31.542969%, 22.892761%, 3.459167%)" offset="0.402344"/><stop stop-opacity="1" stop-color="rgb(31.84967%, 23.11554%, 3.492737%)" offset="0.40625"/><stop stop-opacity="1" stop-color="rgb(32.154846%, 23.336792%, 3.526306%)" offset="0.410156"/><stop stop-opacity="1" stop-color="rgb(32.461548%, 23.55957%, 3.559875%)" offset="0.414062"/><stop stop-opacity="1" stop-color="rgb(32.76825%, 23.780823%, 3.593445%)" offset="0.417969"/><stop stop-opacity="1" stop-color="rgb(33.074951%, 24.003601%, 3.627014%)" offset="0.421875"/><stop stop-opacity="1" stop-color="rgb(33.380127%, 24.226379%, 3.660583%)" offset="0.425781"/><stop stop-opacity="1" stop-color="rgb(33.686829%, 24.449158%, 3.694153%)" offset="0.429687"/><stop stop-opacity="1" stop-color="rgb(33.992004%, 24.67041%, 3.727722%)" offset="0.433594"/><stop stop-opacity="1" stop-color="rgb(34.298706%, 24.893188%, 3.761292%)" offset="0.4375"/><stop stop-opacity="1" stop-color="rgb(34.605408%, 25.114441%, 3.794861%)" offset="0.441406"/><stop stop-opacity="1" stop-color="rgb(34.912109%, 25.337219%, 3.82843%)" offset="0.445312"/><stop stop-opacity="1" stop-color="rgb(35.217285%, 25.559998%, 3.862%)" offset="0.449219"/><stop stop-opacity="1" stop-color="rgb(35.523987%, 25.782776%, 3.895569%)" offset="0.453125"/><stop stop-opacity="1" stop-color="rgb(35.830688%, 26.004028%, 3.929138%)" offset="0.457031"/><stop stop-opacity="1" stop-color="rgb(36.13739%, 26.226807%, 3.962708%)" offset="0.460937"/><stop stop-opacity="1" stop-color="rgb(36.442566%, 26.448059%, 3.996277%)" offset="0.464844"/><stop stop-opacity="1" stop-color="rgb(36.749268%, 26.670837%, 4.029846%)" offset="0.46875"/><stop stop-opacity="1" stop-color="rgb(37.054443%, 26.893616%, 4.063416%)" offset="0.472656"/><stop stop-opacity="1" stop-color="rgb(37.361145%, 27.116394%, 4.096985%)" offset="0.476562"/><stop stop-opacity="1" stop-color="rgb(37.667847%, 27.337646%, 4.130554%)" offset="0.480469"/><stop stop-opacity="1" stop-color="rgb(37.974548%, 27.560425%, 4.164124%)" offset="0.484375"/><stop stop-opacity="1" stop-color="rgb(38.279724%, 27.781677%, 4.197693%)" offset="0.488281"/><stop stop-opacity="1" stop-color="rgb(38.586426%, 28.004456%, 4.232788%)" offset="0.492187"/><stop stop-opacity="1" stop-color="rgb(38.893127%, 28.225708%, 4.266357%)" offset="0.496094"/><stop stop-opacity="1" stop-color="rgb(39.199829%, 28.448486%, 4.299927%)" offset="0.5"/><stop stop-opacity="1" stop-color="rgb(39.505005%, 28.671265%, 4.333496%)" offset="0.503906"/><stop stop-opacity="1" stop-color="rgb(39.811707%, 28.894043%, 4.367065%)" offset="0.507812"/><stop stop-opacity="1" stop-color="rgb(40.116882%, 29.115295%, 4.400635%)" offset="0.511719"/><stop stop-opacity="1" stop-color="rgb(40.423584%, 29.338074%, 4.434204%)" offset="0.515625"/><stop stop-opacity="1" stop-color="rgb(40.730286%, 29.559326%, 4.467773%)" offset="0.519531"/><stop stop-opacity="1" stop-color="rgb(41.036987%, 29.782104%, 4.501343%)" offset="0.523438"/><stop stop-opacity="1" stop-color="rgb(41.342163%, 30.004883%, 4.534912%)" offset="0.527344"/><stop stop-opacity="1" stop-color="rgb(41.648865%, 30.227661%, 4.568481%)" offset="0.53125"/><stop stop-opacity="1" stop-color="rgb(41.955566%, 30.448914%, 4.602051%)" offset="0.535156"/><stop stop-opacity="1" stop-color="rgb(42.262268%, 30.671692%, 4.63562%)" offset="0.539062"/><stop stop-opacity="1" stop-color="rgb(42.567444%, 30.892944%, 4.669189%)" offset="0.542969"/><stop stop-opacity="1" stop-color="rgb(42.874146%, 31.115723%, 4.702759%)" offset="0.546875"/><stop stop-opacity="1" stop-color="rgb(43.179321%, 31.338501%, 4.736328%)" offset="0.550781"/><stop stop-opacity="1" stop-color="rgb(43.486023%, 31.561279%, 4.769897%)" offset="0.554688"/><stop stop-opacity="1" stop-color="rgb(43.792725%, 31.782532%, 4.803467%)" offset="0.558594"/><stop stop-opacity="1" stop-color="rgb(44.099426%, 32.00531%, 4.837036%)" offset="0.5625"/><stop stop-opacity="1" stop-color="rgb(44.404602%, 32.226562%, 4.870605%)" offset="0.566406"/><stop stop-opacity="1" stop-color="rgb(44.711304%, 32.449341%, 4.904175%)" offset="0.570313"/><stop stop-opacity="1" stop-color="rgb(45.018005%, 32.672119%, 4.937744%)" offset="0.574219"/><stop stop-opacity="1" stop-color="rgb(45.324707%, 32.894897%, 4.971313%)" offset="0.578125"/><stop stop-opacity="1" stop-color="rgb(45.629883%, 33.11615%, 5.004883%)" offset="0.582031"/><stop stop-opacity="1" stop-color="rgb(45.936584%, 33.338928%, 5.038452%)" offset="0.585938"/><stop stop-opacity="1" stop-color="rgb(46.243286%, 33.560181%, 5.072021%)" offset="0.589844"/><stop stop-opacity="1" stop-color="rgb(46.549988%, 33.782959%, 5.105591%)" offset="0.59375"/><stop stop-opacity="1" stop-color="rgb(46.855164%, 34.005737%, 5.13916%)" offset="0.597656"/><stop stop-opacity="1" stop-color="rgb(47.161865%, 34.228516%, 5.172729%)" offset="0.601563"/><stop stop-opacity="1" stop-color="rgb(47.467041%, 34.449768%, 5.206299%)" offset="0.605469"/><stop stop-opacity="1" stop-color="rgb(47.773743%, 34.672546%, 5.239868%)" offset="0.609375"/><stop stop-opacity="1" stop-color="rgb(48.080444%, 34.893799%, 5.273438%)" offset="0.613281"/><stop stop-opacity="1" stop-color="rgb(48.387146%, 35.116577%, 5.307007%)" offset="0.617188"/><stop stop-opacity="1" stop-color="rgb(48.692322%, 35.339355%, 5.340576%)" offset="0.621094"/><stop stop-opacity="1" stop-color="rgb(48.999023%, 35.562134%, 5.374146%)" offset="0.625"/><stop stop-opacity="1" stop-color="rgb(49.305725%, 35.783386%, 5.407715%)" offset="0.628906"/><stop stop-opacity="1" stop-color="rgb(49.612427%, 36.006165%, 5.441284%)" offset="0.632813"/><stop stop-opacity="1" stop-color="rgb(49.917603%, 36.227417%, 5.474854%)" offset="0.636719"/><stop stop-opacity="1" stop-color="rgb(50.224304%, 36.450195%, 5.508423%)" offset="0.640625"/><stop stop-opacity="1" stop-color="rgb(50.52948%, 36.672974%, 5.541992%)" offset="0.644531"/><stop stop-opacity="1" stop-color="rgb(50.836182%, 36.895752%, 5.575562%)" offset="0.648438"/><stop stop-opacity="1" stop-color="rgb(51.142883%, 37.117004%, 5.609131%)" offset="0.652344"/><stop stop-opacity="1" stop-color="rgb(51.449585%, 37.339783%, 5.6427%)" offset="0.65625"/><stop stop-opacity="1" stop-color="rgb(51.754761%, 37.561035%, 5.67627%)" offset="0.660156"/><stop stop-opacity="1" stop-color="rgb(52.061462%, 37.783813%, 5.709839%)" offset="0.664063"/><stop stop-opacity="1" stop-color="rgb(52.368164%, 38.006592%, 5.743408%)" offset="0.667969"/><stop stop-opacity="1" stop-color="rgb(52.674866%, 38.22937%, 5.776978%)" offset="0.671875"/><stop stop-opacity="1" stop-color="rgb(52.980042%, 38.450623%, 5.810547%)" offset="0.675781"/><stop stop-opacity="1" stop-color="rgb(53.286743%, 38.673401%, 5.844116%)" offset="0.679688"/><stop stop-opacity="1" stop-color="rgb(53.591919%, 38.894653%, 5.877686%)" offset="0.683594"/><stop stop-opacity="1" stop-color="rgb(53.898621%, 39.117432%, 5.911255%)" offset="0.6875"/><stop stop-opacity="1" stop-color="rgb(54.205322%, 39.34021%, 5.944824%)" offset="0.691406"/><stop stop-opacity="1" stop-color="rgb(54.512024%, 39.562988%, 5.978394%)" offset="0.695312"/><stop stop-opacity="1" stop-color="rgb(54.8172%, 39.784241%, 6.011963%)" offset="0.699219"/><stop stop-opacity="1" stop-color="rgb(55.123901%, 40.007019%, 6.045532%)" offset="0.703125"/><stop stop-opacity="1" stop-color="rgb(55.430603%, 40.228271%, 6.079102%)" offset="0.707031"/><stop stop-opacity="1" stop-color="rgb(55.737305%, 40.45105%, 6.112671%)" offset="0.710938"/><stop stop-opacity="1" stop-color="rgb(56.04248%, 40.673828%, 6.14624%)" offset="0.714844"/><stop stop-opacity="1" stop-color="rgb(56.349182%, 40.896606%, 6.17981%)" offset="0.71875"/><stop stop-opacity="1" stop-color="rgb(56.654358%, 41.117859%, 6.213379%)" offset="0.722656"/><stop stop-opacity="1" stop-color="rgb(56.96106%, 41.340637%, 6.246948%)" offset="0.726562"/><stop stop-opacity="1" stop-color="rgb(57.267761%, 41.56189%, 6.280518%)" offset="0.730469"/><stop stop-opacity="1" stop-color="rgb(57.574463%, 41.784668%, 6.315613%)" offset="0.734375"/><stop stop-opacity="1" stop-color="rgb(57.879639%, 42.007446%, 6.349182%)" offset="0.738281"/><stop stop-opacity="1" stop-color="rgb(58.18634%, 42.230225%, 6.382751%)" offset="0.742188"/><stop stop-opacity="1" stop-color="rgb(58.493042%, 42.451477%, 6.416321%)" offset="0.746094"/><stop stop-opacity="1" stop-color="rgb(58.799744%, 42.674255%, 6.44989%)" offset="0.75"/><stop stop-opacity="1" stop-color="rgb(59.104919%, 42.895508%, 6.483459%)" offset="0.753906"/><stop stop-opacity="1" stop-color="rgb(59.411621%, 43.118286%, 6.517029%)" offset="0.757812"/><stop stop-opacity="1" stop-color="rgb(59.716797%, 43.341064%, 6.550598%)" offset="0.761719"/><stop stop-opacity="1" stop-color="rgb(60.023499%, 43.563843%, 6.584167%)" offset="0.765625"/><stop stop-opacity="1" stop-color="rgb(60.3302%, 43.785095%, 6.617737%)" offset="0.769531"/><stop stop-opacity="1" stop-color="rgb(60.636902%, 44.007874%, 6.651306%)" offset="0.773438"/><stop stop-opacity="1" stop-color="rgb(60.942078%, 44.229126%, 6.684875%)" offset="0.777344"/><stop stop-opacity="1" stop-color="rgb(61.248779%, 44.451904%, 6.718445%)" offset="0.78125"/><stop stop-opacity="1" stop-color="rgb(61.555481%, 44.674683%, 6.752014%)" offset="0.785156"/><stop stop-opacity="1" stop-color="rgb(61.862183%, 44.897461%, 6.785583%)" offset="0.789062"/><stop stop-opacity="1" stop-color="rgb(62.167358%, 45.118713%, 6.819153%)" offset="0.792969"/><stop stop-opacity="1" stop-color="rgb(62.47406%, 45.341492%, 6.852722%)" offset="0.796875"/><stop stop-opacity="1" stop-color="rgb(62.780762%, 45.562744%, 6.886292%)" offset="0.800781"/><stop stop-opacity="1" stop-color="rgb(63.087463%, 45.785522%, 6.919861%)" offset="0.804688"/><stop stop-opacity="1" stop-color="rgb(63.392639%, 46.008301%, 6.95343%)" offset="0.808594"/><stop stop-opacity="1" stop-color="rgb(63.699341%, 46.231079%, 6.987%)" offset="0.8125"/><stop stop-opacity="1" stop-color="rgb(64.004517%, 46.452332%, 7.020569%)" offset="0.816406"/><stop stop-opacity="1" stop-color="rgb(64.311218%, 46.67511%, 7.054138%)" offset="0.820312"/><stop stop-opacity="1" stop-color="rgb(64.61792%, 46.896362%, 7.087708%)" offset="0.824219"/><stop stop-opacity="1" stop-color="rgb(64.924622%, 47.119141%, 7.121277%)" offset="0.828125"/><stop stop-opacity="1" stop-color="rgb(65.229797%, 47.341919%, 7.154846%)" offset="0.832031"/><stop stop-opacity="1" stop-color="rgb(65.536499%, 47.564697%, 7.188416%)" offset="0.835937"/><stop stop-opacity="1" stop-color="rgb(65.843201%, 47.78595%, 7.221985%)" offset="0.839844"/><stop stop-opacity="1" stop-color="rgb(66.149902%, 48.008728%, 7.255554%)" offset="0.84375"/><stop stop-opacity="1" stop-color="rgb(66.455078%, 48.22998%, 7.289124%)" offset="0.847656"/><stop stop-opacity="1" stop-color="rgb(66.76178%, 48.452759%, 7.322693%)" offset="0.851562"/><stop stop-opacity="1" stop-color="rgb(67.066956%, 48.675537%, 7.356262%)" offset="0.855469"/><stop stop-opacity="1" stop-color="rgb(67.373657%, 48.898315%, 7.389832%)" offset="0.859375"/><stop stop-opacity="1" stop-color="rgb(67.680359%, 49.119568%, 7.423401%)" offset="0.863281"/><stop stop-opacity="1" stop-color="rgb(67.987061%, 49.342346%, 7.45697%)" offset="0.867187"/><stop stop-opacity="1" stop-color="rgb(68.292236%, 49.563599%, 7.49054%)" offset="0.871094"/><stop stop-opacity="1" stop-color="rgb(68.598938%, 49.786377%, 7.524109%)" offset="0.875"/><stop stop-opacity="1" stop-color="rgb(68.90564%, 50.009155%, 7.557678%)" offset="0.878906"/><stop stop-opacity="1" stop-color="rgb(69.212341%, 50.231934%, 7.591248%)" offset="0.882812"/><stop stop-opacity="1" stop-color="rgb(69.517517%, 50.453186%, 7.624817%)" offset="0.886719"/><stop stop-opacity="1" stop-color="rgb(69.824219%, 50.675964%, 7.658386%)" offset="0.890625"/><stop stop-opacity="1" stop-color="rgb(70.129395%, 50.897217%, 7.691956%)" offset="0.894531"/><stop stop-opacity="1" stop-color="rgb(70.436096%, 51.119995%, 7.725525%)" offset="0.898437"/><stop stop-opacity="1" stop-color="rgb(70.742798%, 51.342773%, 7.759094%)" offset="0.902344"/><stop stop-opacity="1" stop-color="rgb(71.0495%, 51.565552%, 7.792664%)" offset="0.90625"/><stop stop-opacity="1" stop-color="rgb(71.354675%, 51.786804%, 7.826233%)" offset="0.910156"/><stop stop-opacity="1" stop-color="rgb(71.661377%, 52.009583%, 7.859802%)" offset="0.914062"/><stop stop-opacity="1" stop-color="rgb(71.968079%, 52.230835%, 7.893372%)" offset="0.917969"/><stop stop-opacity="1" stop-color="rgb(72.27478%, 52.453613%, 7.926941%)" offset="0.921875"/><stop stop-opacity="1" stop-color="rgb(72.579956%, 52.676392%, 7.96051%)" offset="0.925781"/><stop stop-opacity="1" stop-color="rgb(72.886658%, 52.89917%, 7.99408%)" offset="0.929687"/><stop stop-opacity="1" stop-color="rgb(73.191833%, 53.120422%, 8.027649%)" offset="0.933594"/><stop stop-opacity="1" stop-color="rgb(73.498535%, 53.343201%, 8.061218%)" offset="0.9375"/><stop stop-opacity="1" stop-color="rgb(73.805237%, 53.564453%, 8.094788%)" offset="0.941406"/><stop stop-opacity="1" stop-color="rgb(74.111938%, 53.787231%, 8.128357%)" offset="0.945312"/><stop stop-opacity="1" stop-color="rgb(74.417114%, 54.01001%, 8.161926%)" offset="0.949219"/><stop stop-opacity="1" stop-color="rgb(74.723816%, 54.232788%, 8.195496%)" offset="0.953125"/><stop stop-opacity="1" stop-color="rgb(75.030518%, 54.454041%, 8.229065%)" offset="0.957031"/><stop stop-opacity="1" stop-color="rgb(75.337219%, 54.676819%, 8.262634%)" offset="0.960938"/><stop stop-opacity="1" stop-color="rgb(75.642395%, 54.898071%, 8.296204%)" offset="0.964844"/><stop stop-opacity="1" stop-color="rgb(75.949097%, 55.12085%, 8.329773%)" offset="0.96875"/><stop stop-opacity="1" stop-color="rgb(76.254272%, 55.342102%, 8.363342%)" offset="0.972656"/><stop stop-opacity="1" stop-color="rgb(76.560974%, 55.56488%, 8.396912%)" offset="0.976562"/><stop stop-opacity="1" stop-color="rgb(76.867676%, 55.787659%, 8.430481%)" offset="0.980469"/><stop stop-opacity="1" stop-color="rgb(77.174377%, 56.010437%, 8.465576%)" offset="0.984375"/><stop stop-opacity="1" stop-color="rgb(77.479553%, 56.231689%, 8.499146%)" offset="0.988281"/><stop stop-opacity="1" stop-color="rgb(77.786255%, 56.454468%, 8.532715%)" offset="0.992188"/><stop stop-opacity="1" stop-color="rgb(78.092957%, 56.67572%, 8.566284%)" offset="0.996094"/><stop stop-opacity="1" stop-color="rgb(78.399658%, 56.898499%, 8.599854%)" offset="1"/></linearGradient><clipPath id="1c544d3686"><path d="M 240 231 L 529 231 L 529 537.898438 L 240 537.898438 Z M 240 231 " clip-rule="nonzero"/></clipPath></defs><g clip-path="url(#5e43018d83)"><g clip-path="url(#1730111068)"><path fill="url(#845aca0ea4)" d="M 14.828125 0 L 14.828125 767.1875 L 753.171875 767.1875 L 753.171875 0 Z M 14.828125 0 " fill-rule="nonzero"/></g></g><g clip-path="url(#1c544d3686)"><path fill="#ffffff" d="M 421.246094 294.152344 C 415.726562 294.152344 412.027344 290.070312 411.089844 285.476562 C 410.015625 280.234375 412.527344 274.191406 419.390625 272.792969 L 422.820312 272.082031 C 400.300781 264.609375 375.789062 263.839844 352.679688 270.03125 C 343.09375 272.597656 333.832031 276.328125 325.15625 281.121094 C 323.546875 282.007812 321.519531 281.425781 320.628906 279.8125 C 319.742188 278.199219 320.324219 276.171875 321.933594 275.285156 C 331.085938 270.234375 340.851562 266.300781 350.960938 263.59375 C 379.15625 256.039062 409.347656 258.316406 435.96875 270.007812 C 437.296875 270.589844 438.09375 271.964844 437.941406 273.40625 C 437.789062 274.847656 436.71875 276.027344 435.296875 276.320312 L 420.726562 279.320312 C 416.984375 280.082031 417.476562 283.472656 417.613281 284.144531 C 417.753906 284.816406 418.621094 288.132812 422.363281 287.367188 L 458.757812 279.886719 C 460.085938 279.617188 461.152344 278.757812 461.695312 277.527344 C 462.25 276.28125 462.167969 274.902344 461.480469 273.742188 C 461.4375 273.675781 461.402344 273.605469 461.363281 273.535156 L 444.902344 240.804688 C 443.183594 237.40625 440.042969 238.777344 439.433594 239.085938 C 438.820312 239.394531 435.851562 241.113281 437.570312 244.515625 L 444.515625 258.308594 C 445.144531 259.566406 444.917969 261.089844 443.945312 262.109375 C 442.96875 263.125 441.460938 263.421875 440.175781 262.847656 C 411.617188 250.058594 379.171875 247.496094 348.820312 255.628906 C 337.3125 258.714844 326.238281 263.285156 315.917969 269.210938 C 314.320312 270.128906 312.28125 269.578125 311.363281 267.980469 C 310.445312 266.382812 311.003906 264.347656 312.589844 263.433594 C 323.421875 257.21875 335.027344 252.425781 347.097656 249.191406 C 376.007812 241.445312 406.722656 242.953125 434.550781 253.34375 L 431.625 247.515625 C 428.464844 241.265625 431.652344 235.550781 436.425781 233.140625 C 441.203125 230.726562 447.691406 231.554688 450.851562 237.804688 L 467.269531 270.445312 C 468.992188 273.421875 469.191406 277.066406 467.789062 280.222656 C 466.367188 283.453125 463.554688 285.710938 460.089844 286.414062 L 423.703125 293.898438 C 422.847656 294.070312 422.027344 294.152344 421.246094 294.152344 Z M 512.46875 448.765625 C 512.015625 448.765625 511.550781 448.671875 511.105469 448.472656 C 509.425781 447.71875 508.675781 445.746094 509.433594 444.066406 C 522.277344 415.46875 524.867188 382.972656 516.714844 352.5625 C 511.550781 333.273438 502.0625 315.039062 489.28125 299.828125 C 488.761719 299.207031 488.351562 298.714844 486.957031 299.867188 C 484.480469 301.921875 483.554688 305.835938 484.109375 306.515625 C 495.695312 320.703125 503.992188 336.914062 508.753906 354.699219 C 516.042969 381.894531 514.167969 411.144531 503.472656 437.054688 C 502.769531 438.757812 500.820312 439.566406 499.117188 438.863281 C 497.417969 438.164062 496.605469 436.214844 497.304688 434.511719 C 507.449219 409.945312 509.226562 382.214844 502.320312 356.421875 C 497.800781 339.558594 489.933594 324.183594 478.945312 310.730469 C 475.414062 306.402344 478.0625 298.578125 482.707031 294.734375 C 486.644531 291.46875 491.230469 291.785156 494.382812 295.542969 C 507.789062 311.492188 517.734375 330.613281 523.15625 350.839844 C 531.699219 382.722656 528.980469 416.804688 515.507812 446.796875 C 514.953125 448.035156 513.738281 448.765625 512.46875 448.765625 Z M 271.195312 471.703125 C 268.71875 471.703125 266.402344 470.386719 264.714844 467.859375 C 256.007812 454.796875 249.53125 440.460938 245.449219 425.25 C 236.410156 391.507812 239.929688 355.726562 255.355469 324.492188 C 256.175781 322.84375 258.175781 322.167969 259.820312 322.980469 C 261.472656 323.796875 262.152344 325.792969 261.332031 327.445312 C 246.625 357.222656 243.269531 391.347656 251.890625 423.523438 C 255.78125 438.035156 261.957031 451.707031 270.261719 464.164062 C 271.015625 465.304688 271.316406 465.132812 271.96875 464.753906 C 274.59375 463.230469 276.335938 458.628906 275.785156 457.53125 C 268.65625 446.382812 263.289062 434.21875 259.855469 421.390625 C 251.953125 391.914062 254.773438 360.542969 267.789062 333.046875 C 268.574219 331.382812 270.566406 330.675781 272.222656 331.460938 C 273.890625 332.246094 274.597656 334.234375 273.8125 335.898438 C 261.472656 361.964844 258.800781 391.714844 266.289062 419.664062 C 269.550781 431.832031 274.632812 443.367188 281.402344 453.953125 C 284.414062 458.660156 280.761719 466.976562 275.777344 470.230469 C 274.265625 471.21875 272.703125 471.703125 271.195312 471.703125 Z M 313.085938 537.101562 C 311.9375 537.101562 310.808594 536.917969 309.730469 536.558594 C 306.921875 535.605469 304.691406 533.457031 303.457031 530.5 L 289.453125 496.75 C 287.949219 493.660156 288.015625 490.011719 289.632812 486.960938 C 291.300781 483.84375 294.257812 481.796875 297.769531 481.34375 L 334.613281 476.523438 C 341.558594 475.628906 345.890625 480.53125 346.578125 485.839844 C 347.265625 491.148438 344.320312 496.992188 337.375 497.890625 L 332.242188 498.5625 C 358.179688 510.734375 388.125 513.503906 415.925781 506.054688 C 426.695312 503.167969 437.015625 498.832031 446.597656 493.167969 C 448.179688 492.234375 450.226562 492.757812 451.164062 494.339844 C 452.09375 495.925781 451.574219 497.96875 449.992188 498.90625 C 439.882812 504.878906 429.003906 509.449219 417.648438 512.492188 C 401.183594 516.90625 384.273438 518.011719 367.375 515.769531 C 350.480469 513.53125 334.429688 508.058594 319.691406 499.507812 C 318.457031 498.792969 317.8125 497.371094 318.097656 495.972656 C 318.375 494.574219 319.511719 493.507812 320.929688 493.324219 L 336.511719 491.28125 C 340.304688 490.789062 340.054688 487.375 339.96875 486.695312 C 339.878906 486.011719 339.246094 482.648438 335.472656 483.132812 L 298.625 487.953125 C 297.285156 488.125 296.152344 488.90625 295.519531 490.09375 C 294.882812 491.292969 294.863281 492.675781 295.464844 493.878906 C 295.5 493.949219 295.535156 494.023438 295.5625 494.097656 L 309.609375 527.9375 C 310.21875 529.394531 311.210938 530.226562 312.550781 530.402344 C 314.132812 530.601562 315.902344 529.859375 316.867188 528.597656 C 317.6875 527.519531 317.796875 526.234375 317.1875 524.769531 L 311.570312 511.242188 C 311.03125 509.929688 311.375 508.410156 312.445312 507.464844 C 313.515625 506.523438 315.0625 506.367188 316.304688 507.074219 C 347.890625 525.117188 384.640625 529.875 419.785156 520.460938 C 433.253906 516.851562 446.046875 511.242188 457.800781 503.792969 C 459.355469 502.808594 461.410156 503.273438 462.394531 504.824219 C 463.382812 506.378906 462.921875 508.4375 461.367188 509.421875 C 449.046875 517.234375 435.636719 523.113281 421.507812 526.894531 C 387.6875 535.953125 352.449219 532.503906 321.28125 517.246094 L 323.339844 522.210938 C 324.574219 525.167969 324.53125 528.261719 323.226562 530.929688 C 322.082031 533.269531 320.046875 535.136719 317.503906 536.199219 C 316.070312 536.792969 314.5625 537.101562 313.085938 537.101562 Z M 313.085938 537.101562 " fill-opacity="1" fill-rule="evenodd"/></g><path fill="#ffffff" d="M 296.058594 458.523438 L 363.703125 458.523438 L 363.703125 445.871094 C 363.703125 438.894531 358.027344 433.21875 351.050781 433.21875 L 342.394531 433.21875 C 338.820312 435.980469 334.421875 437.488281 329.882812 437.488281 C 325.339844 437.488281 320.941406 435.980469 317.367188 433.21875 L 308.710938 433.21875 C 301.734375 433.21875 296.054688 438.894531 296.054688 445.871094 Z M 367.035156 465.1875 L 292.726562 465.1875 C 290.886719 465.1875 289.390625 463.695312 289.390625 461.855469 L 289.390625 445.871094 C 289.390625 435.222656 298.054688 426.554688 308.710938 426.554688 L 318.5625 426.554688 C 319.375 426.554688 320.152344 426.851562 320.761719 427.386719 C 323.28125 429.601562 326.523438 430.824219 329.882812 430.824219 C 333.238281 430.824219 336.480469 429.605469 339 427.386719 C 339.609375 426.851562 340.386719 426.554688 341.199219 426.554688 L 351.050781 426.554688 C 361.707031 426.554688 370.367188 435.222656 370.367188 445.871094 L 370.371094 461.855469 C 370.371094 463.695312 368.875 465.1875 367.035156 465.1875 Z M 367.035156 465.1875 " fill-opacity="1" fill-rule="evenodd"/><path fill="#ffffff" d="M 329.886719 388.238281 C 322.261719 388.238281 316.070312 394.433594 316.070312 402.050781 C 316.070312 409.664062 322.261719 415.859375 329.882812 415.859375 C 337.5 415.859375 343.691406 409.664062 343.691406 402.050781 C 343.691406 394.433594 337.5 388.238281 329.886719 388.238281 Z M 329.886719 422.523438 C 318.589844 422.523438 309.40625 413.339844 309.40625 402.050781 C 309.40625 390.757812 318.589844 381.574219 329.882812 381.574219 C 341.171875 381.574219 350.355469 390.757812 350.355469 402.050781 C 350.355469 413.339844 341.171875 422.523438 329.886719 422.523438 Z M 329.886719 422.523438 " fill-opacity="1" fill-rule="evenodd"/><path fill="#ffffff" d="M 404.90625 380.773438 L 472.550781 380.773438 L 472.550781 368.121094 C 472.550781 361.144531 466.875 355.472656 459.898438 355.472656 L 451.242188 355.46875 C 447.667969 358.234375 443.269531 359.738281 438.730469 359.738281 C 434.1875 359.738281 429.789062 358.234375 426.214844 355.472656 L 417.558594 355.46875 C 410.582031 355.46875 404.902344 361.148438 404.902344 368.125 Z M 475.882812 387.4375 L 401.574219 387.4375 C 399.734375 387.4375 398.238281 385.949219 398.238281 384.105469 L 398.238281 368.121094 C 398.238281 357.472656 406.902344 348.808594 417.558594 348.808594 L 427.410156 348.804688 C 428.222656 348.804688 429.007812 349.101562 429.609375 349.636719 C 432.128906 351.855469 435.371094 353.074219 438.730469 353.074219 C 442.085938 353.074219 445.324219 351.855469 447.847656 349.636719 C 448.457031 349.101562 449.234375 348.808594 450.046875 348.808594 L 459.898438 348.804688 C 470.554688 348.804688 479.214844 357.472656 479.214844 368.125 L 479.21875 384.105469 C 479.21875 385.945312 477.722656 387.441406 475.882812 387.4375 Z M 475.882812 387.4375 " fill-opacity="1" fill-rule="evenodd"/><path fill="#ffffff" d="M 438.734375 310.492188 C 431.117188 310.492188 424.917969 316.6875 424.917969 324.300781 C 424.917969 331.914062 431.117188 338.113281 438.730469 338.113281 C 446.347656 338.109375 452.539062 331.917969 452.539062 324.300781 C 452.542969 316.6875 446.347656 310.492188 438.734375 310.492188 Z M 438.734375 344.773438 C 427.441406 344.773438 418.253906 335.589844 418.253906 324.300781 C 418.253906 313.011719 427.4375 303.828125 438.730469 303.828125 C 450.019531 303.824219 459.203125 313.011719 459.203125 324.300781 C 459.203125 335.589844 450.019531 344.777344 438.734375 344.773438 Z M 438.734375 344.773438 " fill-opacity="1" fill-rule="evenodd"/><path fill="#ffffff" d="M 286.386719 322.171875 C 280.519531 322.171875 275.035156 319.46875 272.085938 315.117188 C 271.058594 313.589844 271.453125 311.519531 272.976562 310.488281 C 274.496094 309.457031 276.570312 309.851562 277.605469 311.375 C 279.332031 313.921875 282.699219 315.507812 286.386719 315.507812 C 291.835938 315.507812 296.273438 312.097656 296.273438 307.902344 C 296.273438 304.457031 292.550781 300.511719 287.558594 300.382812 C 278.5625 300.144531 271.515625 293.882812 271.515625 286.121094 C 271.519531 278.25 278.9375 271.851562 288.066406 271.851562 C 293.933594 271.851562 299.417969 274.554688 302.367188 278.90625 C 303.394531 280.429688 303 282.503906 301.476562 283.535156 C 299.957031 284.566406 297.882812 284.171875 296.847656 282.648438 C 295.121094 280.097656 291.753906 278.515625 288.066406 278.515625 C 282.617188 278.515625 278.179688 281.925781 278.179688 286.121094 C 278.183594 290.171875 282.464844 293.582031 287.734375 293.71875 C 295.972656 293.929688 302.933594 300.425781 302.933594 307.902344 C 302.933594 315.769531 295.515625 322.171875 286.386719 322.171875 Z M 286.386719 322.171875 " fill-opacity="1" fill-rule="evenodd"/><path fill="#ffffff" d="M 287.226562 329.355469 C 285.386719 329.355469 283.894531 327.863281 283.894531 326.023438 L 283.894531 268 C 283.894531 266.160156 285.386719 264.667969 287.226562 264.667969 C 289.066406 264.667969 290.558594 266.160156 290.558594 268 L 290.558594 326.023438 C 290.558594 327.863281 289.066406 329.355469 287.226562 329.355469 Z M 287.226562 329.355469 " fill-opacity="1" fill-rule="evenodd"/><path fill="#ffffff" d="M 287.226562 259.445312 C 266.511719 259.445312 249.65625 276.296875 249.65625 297.011719 C 249.65625 317.726562 266.511719 334.578125 287.226562 334.578125 C 307.941406 334.578125 324.796875 317.726562 324.796875 297.011719 C 324.796875 276.296875 307.941406 259.445312 287.226562 259.445312 Z M 287.226562 341.242188 C 262.839844 341.242188 243 321.398438 243 297.011719 C 243 272.621094 262.839844 252.78125 287.226562 252.78125 C 311.613281 252.78125 331.453125 272.621094 331.453125 297.011719 C 331.453125 321.398438 311.613281 341.242188 287.226562 341.242188 Z M 287.226562 341.242188 " fill-opacity="1" fill-rule="evenodd"/><path fill="#ffffff" d="M 480.542969 497.164062 C 474.675781 497.164062 469.191406 494.457031 466.242188 490.105469 C 465.214844 488.582031 465.609375 486.511719 467.128906 485.476562 C 468.648438 484.445312 470.726562 484.84375 471.761719 486.367188 C 473.488281 488.914062 476.855469 490.5 480.542969 490.5 C 485.992188 490.496094 490.425781 487.085938 490.425781 482.894531 C 490.425781 479.449219 486.707031 475.5 481.714844 475.371094 C 472.71875 475.136719 465.671875 468.871094 465.671875 461.109375 C 465.671875 453.242188 473.09375 446.839844 482.222656 446.839844 C 488.089844 446.839844 493.570312 449.546875 496.523438 453.898438 C 497.554688 455.421875 497.152344 457.492188 495.632812 458.527344 C 494.113281 459.558594 492.039062 459.164062 491.003906 457.636719 C 489.277344 455.089844 485.90625 453.503906 482.222656 453.503906 C 476.773438 453.503906 472.335938 456.917969 472.335938 461.109375 C 472.335938 465.164062 476.621094 468.570312 481.886719 468.710938 C 490.128906 468.921875 497.089844 475.417969 497.089844 482.894531 C 497.089844 490.761719 489.667969 497.164062 480.542969 497.164062 Z M 480.542969 497.164062 " fill-opacity="1" fill-rule="evenodd"/><path fill="#ffffff" d="M 481.382812 504.347656 C 479.542969 504.347656 478.050781 502.855469 478.050781 501.015625 L 478.050781 442.992188 C 478.050781 441.148438 479.542969 439.660156 481.382812 439.660156 C 483.222656 439.660156 484.714844 441.152344 484.714844 442.992188 L 484.714844 501.015625 C 484.714844 502.855469 483.222656 504.347656 481.382812 504.347656 Z M 481.382812 504.347656 " fill-opacity="1" fill-rule="evenodd"/><path fill="#ffffff" d="M 481.382812 434.4375 C 460.667969 434.4375 443.820312 451.289062 443.820312 472.003906 C 443.820312 492.714844 460.667969 509.566406 481.382812 509.566406 C 502.097656 509.566406 518.949219 492.714844 518.949219 472.003906 C 518.953125 451.289062 502.097656 434.4375 481.382812 434.4375 Z M 481.382812 516.230469 C 456.996094 516.230469 437.15625 496.390625 437.15625 472.003906 C 437.15625 447.613281 456.996094 427.773438 481.382812 427.773438 C 505.769531 427.773438 525.613281 447.613281 525.613281 472.003906 C 525.613281 496.390625 505.769531 516.230469 481.382812 516.230469 Z M 481.382812 516.230469 " fill-opacity="1" fill-rule="evenodd"/></svg>