<?xml version="1.0" standalone="no"?>
<!DOCTYPE svg PUBLIC "-//W3C//DTD SVG 20010904//EN"
 "http://www.w3.org/TR/2001/REC-SVG-20010904/DTD/svg10.dtd">
<svg version="1.0" xmlns="http://www.w3.org/2000/svg"
 width="512.000000pt" height="512.000000pt" viewBox="0 0 512.000000 512.000000"
 preserveAspectRatio="xMidYMid meet">

<g transform="translate(0.000000,512.000000) scale(0.100000,-0.100000)"
fill="#000000" stroke="none">
<path d="M3455 4464 c-597 -199 -947 -321 -959 -334 -31 -30 -27 -87 8 -116
15 -13 37 -24 50 -24 13 0 434 137 937 305 503 169 918 307 924 308 5 1 53
-128 107 -288 67 -198 105 -296 119 -307 46 -39 120 -13 135 47 8 30 -185 612
-218 658 -24 34 -90 67 -133 66 -16 0 -453 -142 -970 -315z"/>
<path d="M105 3826 c-37 -17 -80 -62 -94 -99 -8 -19 -11 -387 -11 -1168 0
-945 2 -1145 14 -1172 16 -39 61 -82 99 -96 20 -8 763 -11 2448 -11 2010 0
2425 2 2452 14 43 17 95 78 102 118 3 18 4 546 3 1174 l-3 1140 -25 37 c-14
21 -43 46 -66 57 -40 20 -65 20 -1823 20 l-1782 0 -24 -25 c-31 -30 -33 -83
-6 -116 19 -24 20 -24 295 -29 l276 -5 -80 -59 c-255 -188 -439 -490 -495
-810 -20 -116 -20 -356 0 -472 55 -315 236 -615 482 -800 43 -32 82 -62 88
-66 5 -4 -395 -8 -888 -8 l-897 0 0 1110 0 1110 441 0 441 0 29 29 c17 18 29
40 29 56 0 16 -12 38 -29 56 l-29 29 -459 0 c-360 -1 -464 -4 -488 -14z m2684
-186 c162 -40 313 -125 444 -249 229 -218 347 -501 347 -831 0 -330 -118 -613
-347 -831 -132 -125 -282 -209 -449 -251 -126 -31 -322 -31 -448 0 -167 42
-317 126 -449 251 -230 219 -347 500 -347 831 0 331 117 612 347 831 158 150
337 238 558 273 65 10 262 -3 344 -24z m2161 -1080 l0 -1110 -897 0 c-493 0
-893 4 -888 8 6 5 42 32 82 61 82 59 202 183 269 277 102 142 188 350 219 530
20 113 20 355 0 468 -31 180 -117 388 -219 530 -67 94 -187 218 -269 277 -40
29 -76 56 -81 61 -6 4 394 8 887 8 l897 0 0 -1110z"/>
<path d="M2518 3315 c-14 -8 -31 -29 -37 -47 -10 -29 -18 -35 -69 -50 -158
-47 -274 -198 -274 -358 0 -159 113 -311 267 -359 l60 -19 3 -210 2 -211 -29
10 c-51 18 -108 82 -125 140 -9 29 -16 60 -16 69 0 20 -37 55 -67 64 -30 10
-78 -17 -92 -51 -15 -37 0 -119 36 -193 48 -99 159 -187 260 -206 26 -5 34
-13 44 -41 7 -23 22 -39 45 -50 31 -15 37 -15 68 0 23 10 38 27 45 49 10 29
18 35 69 50 158 47 274 198 274 358 0 159 -113 311 -267 359 l-60 19 -3 210
-2 211 29 -10 c51 -18 108 -82 125 -140 9 -29 16 -60 16 -69 0 -20 37 -55 67
-64 30 -10 78 17 92 51 15 37 0 119 -36 193 -48 99 -159 187 -260 206 -25 5
-34 13 -43 40 -7 21 -23 40 -40 49 -35 18 -48 18 -82 0z m-52 -653 c-3 -2 -26
8 -51 22 -51 30 -93 86 -105 141 -18 79 43 186 124 220 l31 13 3 -195 c1 -108
0 -198 -2 -201z m245 -231 c117 -74 135 -217 38 -311 -22 -21 -53 -43 -69 -49
l-30 -10 0 200 c0 109 4 199 8 199 4 0 29 -13 53 -29z"/>
<path d="M4315 3488 c-52 -28 -62 -92 -20 -133 23 -24 28 -25 170 -25 l145 0
0 -145 c0 -142 1 -147 25 -170 15 -15 36 -25 54 -25 83 0 91 24 91 260 l0 192
-29 29 -29 29 -194 0 c-120 0 -201 -5 -213 -12z"/>
<path d="M4635 2105 c-24 -23 -25 -28 -25 -170 l0 -145 -145 0 c-142 0 -147
-1 -170 -25 -15 -15 -25 -36 -25 -54 0 -83 24 -91 260 -91 l192 0 29 29 29 29
0 192 c0 236 -8 260 -91 260 -18 0 -39 -10 -54 -25z"/>
<path d="M369 3471 l-29 -29 0 -192 c0 -236 8 -260 91 -260 18 0 39 10 54 25
24 23 25 28 25 170 l0 145 145 0 c142 0 147 1 170 25 15 15 25 36 25 54 0 83
-24 91 -260 91 l-192 0 -29 -29z"/>
<path d="M382 2123 c-34 -14 -42 -59 -42 -253 l0 -192 29 -29 29 -29 192 0
c236 0 260 8 260 91 0 18 -10 39 -25 54 -23 24 -28 25 -170 25 l-145 0 0 145
c0 142 -1 147 -25 170 -23 24 -69 32 -103 18z"/>
<path d="M370 1110 c-40 -40 -37 -56 69 -370 55 -166 110 -315 122 -332 24
-33 89 -67 130 -68 20 0 1796 587 1902 629 32 12 56 61 49 97 -5 30 -47 64
-76 64 -12 0 -433 -137 -936 -305 -503 -168 -919 -307 -925 -308 -5 -1 -53
129 -107 288 -67 198 -105 296 -119 308 -29 23 -84 22 -109 -3z"/>
</g>
</svg>
