<svg xmlns="http://www.w3.org/2000/svg" xmlns:xlink="http://www.w3.org/1999/xlink" width="1024" zoomAndPan="magnify" viewBox="0 0 768 767.999994" height="1024" preserveAspectRatio="xMidYMid meet" version="1.0"><defs><clipPath id="2b8afe3ea0"><path d="M 14.828125 0 L 753.171875 0 L 753.171875 768 L 14.828125 768 Z M 14.828125 0 " clip-rule="nonzero"/></clipPath><clipPath id="8e0adef882"><path d="M 617.417969 768 L 150.582031 768 C 75.777344 768 14.828125 707.046875 14.828125 632.242188 L 14.828125 135.757812 C 14.828125 60.953125 75.777344 0 150.582031 0 L 617.417969 0 C 692.222656 0 753.171875 60.953125 753.171875 135.757812 L 753.171875 632.242188 C 753.171875 707.046875 692.222656 768 617.417969 768 Z M 617.417969 768 " clip-rule="nonzero"/></clipPath></defs><g clip-path="url(#2b8afe3ea0)"><g clip-path="url(#8e0adef882)"><path fill="#f9bb13" d="M 14.828125 0 L 753.171875 0 L 753.171875 767.1875 L 14.828125 767.1875 Z M 14.828125 0 " fill-opacity="1" fill-rule="nonzero"/></g></g><path fill="#ffffff" d="M 524.292969 371.730469 L 516.160156 383.789062 L 340.070312 265.191406 L 348.203125 253.132812 C 351.933594 247.585938 359.492188 246.105469 365.019531 249.835938 L 520.996094 354.894531 C 526.542969 358.625 528.023438 366.183594 524.292969 371.730469 Z M 467.570312 455.945312 L 476.511719 392.136719 L 499.917969 407.90625 Z M 450.992188 511.285156 C 450.0625 517.898438 443.925781 522.535156 437.3125 521.609375 L 251.078125 495.515625 C 244.46875 494.589844 239.808594 488.429688 240.757812 481.820312 L 252.183594 400.210938 L 462.4375 429.695312 Z M 258.246094 357.027344 C 259.171875 350.394531 265.308594 345.777344 271.921875 346.703125 L 458.15625 372.816406 C 464.789062 373.722656 469.425781 379.859375 468.476562 386.492188 L 466.464844 400.878906 L 256.210938 371.414062 Z M 323.847656 289.308594 L 428.570312 359.847656 L 289.46875 340.328125 Z M 525.871094 347.671875 L 369.914062 242.613281 C 360.382812 236.199219 347.394531 238.703125 340.960938 248.257812 L 279.835938 338.984375 L 273.144531 338.058594 C 261.757812 336.460938 251.199219 344.433594 249.601562 355.820312 L 232.132812 480.597656 C 230.515625 491.984375 238.488281 502.542969 249.855469 504.140625 L 436.089844 530.253906 C 447.476562 531.851562 458.039062 523.859375 459.636719 512.488281 L 464.808594 475.660156 L 531.515625 376.585938 C 537.949219 367.070312 535.40625 354.085938 525.871094 347.671875 " fill-opacity="1" fill-rule="nonzero"/><path fill="#ffffff" d="M 352.722656 437.039062 L 442.523438 449.648438 L 443.511719 442.523438 L 353.730469 429.933594 L 352.722656 437.039062 " fill-opacity="1" fill-rule="nonzero"/><path fill="#ffffff" d="M 350.589844 452.433594 L 440.375 465.003906 L 441.359375 457.878906 L 351.578125 445.289062 L 350.589844 452.433594 " fill-opacity="1" fill-rule="nonzero"/></svg>