<svg xmlns="http://www.w3.org/2000/svg" xmlns:xlink="http://www.w3.org/1999/xlink" width="1024" zoomAndPan="magnify" viewBox="0 0 768 767.999994" height="1024" preserveAspectRatio="xMidYMid meet" version="1.0"><defs><clipPath id="c122726c4d"><path d="M 14.828125 0 L 753.171875 0 L 753.171875 768 L 14.828125 768 Z M 14.828125 0 " clip-rule="nonzero"/></clipPath><clipPath id="0328139210"><path d="M 617.417969 768 L 150.582031 768 C 75.777344 768 14.828125 707.046875 14.828125 632.242188 L 14.828125 135.757812 C 14.828125 60.953125 75.777344 0 150.582031 0 L 617.417969 0 C 692.222656 0 753.171875 60.953125 753.171875 135.757812 L 753.171875 632.242188 C 753.171875 707.046875 692.222656 768 617.417969 768 Z M 617.417969 768 " clip-rule="nonzero"/></clipPath><clipPath id="4f1dc17bdc"><path d="M 367.777344 450.375 L 422.632812 450.375 L 422.632812 537.128906 L 367.777344 537.128906 Z M 367.777344 450.375 " clip-rule="nonzero"/></clipPath><clipPath id="57e4b3a780"><path d="M 439.089844 277.183594 L 500.46875 277.183594 L 500.46875 364.171875 L 439.089844 364.171875 Z M 439.089844 277.183594 " clip-rule="nonzero"/></clipPath><clipPath id="093063d78d"><path d="M 304 230.398438 L 384 230.398438 L 384 268 L 304 268 Z M 304 230.398438 " clip-rule="nonzero"/></clipPath></defs><g clip-path="url(#c122726c4d)"><g clip-path="url(#0328139210)"><path fill="#f9bb13" d="M 14.828125 0 L 753.171875 0 L 753.171875 767.1875 L 14.828125 767.1875 Z M 14.828125 0 " fill-opacity="1" fill-rule="nonzero"/></g></g><path fill="#ffffff" d="M 349.316406 533 C 347.542969 533 345.789062 532.246094 344.558594 530.78125 C 342.363281 528.15625 342.707031 524.246094 345.335938 522.046875 C 375.054688 497.167969 392.882812 463.574219 394.246094 429.882812 C 394.761719 417.203125 391.742188 406.859375 389.191406 401.914062 C 388.148438 405.878906 386.957031 414.097656 387.53125 430.375 C 388.488281 457.550781 371.277344 486.890625 334.917969 520.074219 C 332.386719 522.382812 328.460938 522.203125 326.15625 519.671875 C 323.847656 517.140625 324.023438 513.222656 326.554688 510.910156 C 360.066406 480.332031 375.960938 454.132812 375.136719 430.8125 C 373.988281 398.222656 379.15625 390.902344 383.785156 388.167969 C 386.796875 386.386719 390.324219 386.449219 393.476562 388.328125 C 402.5625 393.761719 407.304688 413.980469 406.640625 430.386719 C 405.128906 467.5625 385.6875 504.4375 353.292969 531.558594 C 352.132812 532.527344 350.722656 533 349.316406 533 " fill-opacity="1" fill-rule="nonzero"/><path fill="#ffffff" d="M 315.238281 505.023438 C 313.746094 505.023438 312.246094 504.484375 311.058594 503.394531 C 308.527344 501.085938 308.355469 497.164062 310.664062 494.636719 L 315.527344 489.332031 C 338.804688 463.972656 350.488281 451.246094 353.46875 426.835938 C 353.882812 423.433594 356.980469 421.011719 360.375 421.429688 C 363.773438 421.84375 366.195312 424.9375 365.777344 428.335938 C 362.316406 456.695312 348.144531 472.136719 324.660156 497.722656 L 319.816406 503.003906 C 318.59375 504.34375 316.917969 505.023438 315.238281 505.023438 " fill-opacity="1" fill-rule="nonzero"/><path fill="#ffffff" d="M 419.609375 441.234375 C 419.472656 441.234375 419.335938 441.226562 419.199219 441.222656 C 415.78125 441 413.191406 438.050781 413.414062 434.632812 C 413.546875 432.5625 413.605469 430.53125 413.585938 428.597656 C 413.3125 403.445312 406.773438 392.566406 401.523438 383.828125 C 396.316406 375.15625 389.5 370.734375 383.671875 372.21875 C 377.269531 373.851562 369.460938 383.785156 368.527344 406.410156 C 368.386719 409.832031 365.46875 412.496094 362.074219 412.351562 C 358.652344 412.210938 355.996094 409.320312 356.136719 405.898438 C 357.167969 380.929688 366.316406 363.847656 380.609375 360.199219 C 391.949219 357.3125 404.015625 363.886719 412.109375 377.367188 C 417.859375 386.9375 425.671875 399.945312 425.984375 428.464844 C 426.011719 430.714844 425.941406 433.054688 425.785156 435.433594 C 425.574219 438.714844 422.847656 441.234375 419.609375 441.234375 " fill-opacity="1" fill-rule="nonzero"/><g clip-path="url(#4f1dc17bdc)"><path fill="#ffffff" d="M 374.078125 537.128906 C 372.441406 537.128906 370.804688 536.484375 369.585938 535.199219 C 367.226562 532.71875 367.324219 528.789062 369.808594 526.433594 C 388.679688 508.5 403.355469 482.582031 410.082031 455.328125 C 410.898438 452.003906 414.265625 449.972656 417.589844 450.792969 C 420.910156 451.617188 422.941406 454.972656 422.121094 458.300781 C 414.847656 487.792969 398.894531 515.902344 378.351562 535.421875 C 377.152344 536.5625 375.613281 537.128906 374.078125 537.128906 " fill-opacity="1" fill-rule="nonzero"/></g><path fill="#ffffff" d="M 301.21875 483.085938 C 299.554688 483.085938 297.894531 482.421875 296.671875 481.101562 C 294.34375 478.589844 294.488281 474.667969 297 472.339844 C 329.945312 441.773438 333.445312 417.804688 337.5 390.050781 C 338.496094 383.230469 339.523438 376.179688 341.011719 368.746094 C 343.875 354.425781 351.601562 343.253906 362.757812 337.28125 C 373.390625 331.59375 386.414062 331.175781 398.480469 336.152344 C 401.644531 337.453125 403.15625 341.078125 401.851562 344.246094 C 400.550781 347.410156 396.925781 348.917969 393.757812 347.617188 C 385 344.007812 376.070312 344.222656 368.609375 348.214844 C 360.777344 352.40625 355.296875 360.5625 353.171875 371.179688 C 351.75 378.292969 350.742188 385.179688 349.769531 391.839844 C 345.5625 420.664062 341.585938 447.890625 305.433594 481.433594 C 304.238281 482.535156 302.726562 483.085938 301.21875 483.085938 " fill-opacity="1" fill-rule="nonzero"/><path fill="#ffffff" d="M 402.019531 531.414062 C 400.410156 531.414062 398.796875 530.785156 397.582031 529.539062 C 395.191406 527.085938 395.242188 523.164062 397.695312 520.773438 C 419.375 499.644531 431.3125 471 433.167969 435.636719 C 434.941406 401.75 426.421875 384.847656 415.957031 367.757812 C 412.894531 362.757812 412.09375 361.625 408.890625 358.625 C 406.386719 356.285156 406.257812 352.359375 408.597656 349.859375 C 410.941406 347.359375 414.859375 347.234375 417.363281 349.570312 C 421.6875 353.617188 423.148438 355.75 426.535156 361.285156 C 437.671875 379.46875 447.507812 398.894531 445.550781 436.285156 C 443.53125 474.863281 430.339844 506.277344 406.347656 529.652344 C 405.140625 530.828125 403.582031 531.414062 402.019531 531.414062 " fill-opacity="1" fill-rule="nonzero"/><path fill="#ffffff" d="M 288.1875 452.691406 C 286.191406 452.691406 284.234375 451.730469 283.035156 449.953125 C 281.125 447.109375 281.878906 443.253906 284.71875 441.34375 C 304.519531 428.023438 310.777344 406.738281 316.394531 382.328125 C 317.160156 378.988281 320.484375 376.910156 323.824219 377.675781 C 327.164062 378.445312 329.246094 381.773438 328.480469 385.109375 C 322.492188 411.136719 315.171875 435.808594 291.640625 451.632812 C 290.582031 452.351562 289.378906 452.691406 288.1875 452.691406 " fill-opacity="1" fill-rule="nonzero"/><path fill="#ffffff" d="M 453.480469 390.441406 C 450.6875 390.441406 448.148438 388.539062 447.464844 385.699219 C 443.089844 367.671875 437.050781 355.734375 425.929688 343.121094 C 410.425781 325.53125 389.105469 316.449219 370.308594 319.425781 C 356.585938 321.597656 345.972656 329.828125 340.4375 342.601562 C 337.964844 348.304688 335.816406 354.777344 333.675781 362.984375 C 332.8125 366.296875 329.421875 368.28125 326.113281 367.417969 C 322.796875 366.550781 320.8125 363.167969 321.675781 359.851562 C 323.980469 351.015625 326.328125 343.96875 329.058594 337.667969 C 336.238281 321.109375 350.566406 309.992188 368.375 307.175781 C 391.671875 303.492188 416.671875 313.863281 435.234375 334.921875 C 447.652344 349.003906 454.683594 362.871094 459.511719 382.777344 C 460.320312 386.105469 458.277344 389.460938 454.949219 390.265625 C 454.457031 390.382812 453.964844 390.441406 453.480469 390.441406 " fill-opacity="1" fill-rule="nonzero"/><path fill="#ffffff" d="M 449.003906 497.128906 C 448.273438 497.128906 447.523438 496.996094 446.792969 496.71875 C 443.59375 495.496094 441.988281 491.914062 443.214844 488.710938 C 455.71875 455.972656 456.25 439.402344 452.710938 414.652344 C 452.316406 411.917969 451.925781 409.28125 451.523438 406.742188 C 450.992188 403.359375 453.296875 400.183594 456.679688 399.652344 C 460.0625 399.117188 463.238281 401.425781 463.773438 404.808594 C 464.179688 407.402344 464.582031 410.09375 464.984375 412.894531 C 468.761719 439.304688 468.199219 458.046875 454.796875 493.136719 C 453.851562 495.609375 451.5 497.128906 449.003906 497.128906 " fill-opacity="1" fill-rule="nonzero"/><path fill="#ffffff" d="M 285.476562 414.046875 C 283.957031 414.046875 282.4375 413.492188 281.242188 412.375 C 278.742188 410.039062 278.609375 406.113281 280.949219 403.613281 C 291.585938 392.238281 293.519531 380.5 295.96875 365.640625 C 297.828125 354.34375 299.9375 341.539062 306.179688 326.457031 C 313.285156 309.285156 326.808594 295.707031 344.257812 288.214844 C 347.402344 286.863281 351.046875 288.320312 352.398438 291.464844 C 353.75 294.613281 352.296875 298.257812 349.148438 299.609375 C 334.691406 305.816406 323.5 317.035156 317.640625 331.199219 C 311.945312 344.960938 309.957031 357.019531 308.203125 367.65625 C 305.636719 383.242188 303.207031 397.964844 290.007812 412.082031 C 288.785156 413.386719 287.132812 414.046875 285.476562 414.046875 " fill-opacity="1" fill-rule="nonzero"/><path fill="#ffffff" d="M 456.265625 335.464844 C 454.300781 335.464844 452.375 334.535156 451.167969 332.800781 C 441.15625 318.398438 427.625 307.921875 409.804688 300.773438 C 392.640625 293.894531 379.753906 291.902344 366.722656 294.117188 C 363.34375 294.6875 360.144531 292.417969 359.570312 289.042969 C 359 285.664062 361.269531 282.460938 364.648438 281.890625 C 379.894531 279.304688 395.242188 281.578125 414.417969 289.265625 C 434.558594 297.339844 449.914062 309.265625 461.351562 325.722656 C 463.304688 328.535156 462.609375 332.402344 459.800781 334.355469 C 458.71875 335.105469 457.484375 335.464844 456.265625 335.464844 " fill-opacity="1" fill-rule="nonzero"/><path fill="#ffffff" d="M 479.496094 461.566406 C 479.195312 461.566406 478.890625 461.546875 478.585938 461.503906 C 475.199219 461.003906 472.855469 457.855469 473.351562 454.46875 C 479.851562 410.121094 474.777344 393.425781 467.101562 368.15625 L 466.105469 364.867188 C 464.472656 359.460938 462.589844 354.324219 460.507812 349.605469 C 459.128906 346.472656 460.546875 342.8125 463.679688 341.429688 C 466.808594 340.046875 470.472656 341.464844 471.855469 344.601562 C 474.140625 349.78125 476.199219 355.394531 477.976562 361.28125 L 478.96875 364.550781 C 486.835938 390.453125 492.523438 409.171875 485.621094 456.269531 C 485.167969 459.347656 482.519531 461.566406 479.496094 461.566406 " fill-opacity="1" fill-rule="nonzero"/><path fill="#ffffff" d="M 274.453125 380.167969 C 273.90625 380.167969 273.351562 380.09375 272.796875 379.941406 C 269.496094 379.03125 267.5625 375.613281 268.476562 372.3125 C 269.558594 368.390625 270.59375 363.585938 271.691406 358.492188 C 275.863281 339.121094 281.578125 312.589844 298.539062 295.238281 C 300.933594 292.789062 304.859375 292.742188 307.308594 295.136719 C 309.757812 297.53125 309.800781 301.457031 307.40625 303.90625 C 292.945312 318.695312 287.882812 342.210938 283.816406 361.101562 C 282.679688 366.375 281.605469 371.351562 280.425781 375.621094 C 279.667969 378.367188 277.171875 380.167969 274.453125 380.167969 " fill-opacity="1" fill-rule="nonzero"/><path fill="#ffffff" d="M 317.839844 290.960938 C 316.070312 290.960938 314.316406 290.207031 313.089844 288.75 C 310.886719 286.125 311.226562 282.21875 313.847656 280.011719 C 333.871094 263.183594 360.617188 254.074219 385.398438 255.65625 C 400.152344 256.59375 416.210938 260.867188 430.617188 267.691406 C 433.710938 269.160156 435.03125 272.855469 433.566406 275.953125 C 432.097656 279.042969 428.398438 280.363281 425.304688 278.898438 C 412.289062 272.730469 397.835938 268.875 384.609375 268.03125 C 362.933594 266.648438 339.464844 274.679688 321.828125 289.507812 C 320.667969 290.484375 319.25 290.960938 317.839844 290.960938 " fill-opacity="1" fill-rule="nonzero"/><g clip-path="url(#57e4b3a780)"><path fill="#ffffff" d="M 494.257812 364.101562 C 491.449219 364.101562 488.90625 362.179688 488.230469 359.332031 C 480.441406 326.484375 465.808594 304.058594 442.191406 288.746094 C 439.316406 286.882812 438.496094 283.042969 440.363281 280.167969 C 442.226562 277.296875 446.066406 276.476562 448.9375 278.34375 C 475.402344 295.496094 491.71875 320.320312 500.296875 356.46875 C 501.085938 359.800781 499.027344 363.140625 495.695312 363.933594 C 495.214844 364.046875 494.734375 364.101562 494.257812 364.101562 " fill-opacity="1" fill-rule="nonzero"/></g><g clip-path="url(#093063d78d)"><path fill="#ffffff" d="M 310.761719 267.140625 C 308.867188 267.140625 307 266.277344 305.78125 264.644531 C 303.738281 261.894531 304.308594 258.007812 307.054688 255.96875 C 328.457031 240.042969 352.769531 231.390625 377.371094 230.949219 C 380.839844 230.851562 383.621094 233.609375 383.683594 237.035156 C 383.742188 240.460938 381.019531 243.285156 377.59375 243.347656 C 355.601562 243.742188 333.769531 251.546875 314.457031 265.917969 C 313.347656 266.742188 312.050781 267.140625 310.761719 267.140625 " fill-opacity="1" fill-rule="nonzero"/></g><path fill="#ffffff" d="M 472.132812 280.285156 C 470.480469 280.285156 468.835938 279.632812 467.617188 278.335938 C 449.929688 259.546875 423.210938 246.597656 396.128906 243.6875 C 392.726562 243.324219 390.261719 240.265625 390.625 236.863281 C 390.988281 233.457031 394.046875 230.992188 397.453125 231.359375 C 427.386719 234.574219 456.992188 248.953125 476.648438 269.839844 C 478.992188 272.328125 478.871094 276.253906 476.378906 278.601562 C 475.183594 279.726562 473.65625 280.285156 472.132812 280.285156 " fill-opacity="1" fill-rule="nonzero"/></svg>