<svg xmlns="http://www.w3.org/2000/svg" xmlns:xlink="http://www.w3.org/1999/xlink" width="1024" zoomAndPan="magnify" viewBox="0 0 768 767.999994" height="1024" preserveAspectRatio="xMidYMid meet" version="1.0"><defs><clipPath id="eab391464a"><path d="M 14.828125 0 L 753.171875 0 L 753.171875 768 L 14.828125 768 Z M 14.828125 0 " clip-rule="nonzero"/></clipPath><clipPath id="8fabc3820c"><path d="M 617.417969 768 L 150.582031 768 C 75.777344 768 14.828125 707.046875 14.828125 632.242188 L 14.828125 135.757812 C 14.828125 60.953125 75.777344 0 150.582031 0 L 617.417969 0 C 692.222656 0 753.171875 60.953125 753.171875 135.757812 L 753.171875 632.242188 C 753.171875 707.046875 692.222656 768 617.417969 768 Z M 617.417969 768 " clip-rule="nonzero"/></clipPath><clipPath id="1cad1ed98a"><path d="M 230.785156 230.398438 L 537.535156 230.398438 L 537.535156 537.898438 L 230.785156 537.898438 Z M 230.785156 230.398438 " clip-rule="nonzero"/></clipPath></defs><g clip-path="url(#eab391464a)"><g clip-path="url(#8fabc3820c)"><path fill="#f9bb13" d="M 14.828125 0 L 753.171875 0 L 753.171875 767.1875 L 14.828125 767.1875 Z M 14.828125 0 " fill-opacity="1" fill-rule="nonzero"/></g></g><g clip-path="url(#1cad1ed98a)"><path fill="#ffffff" d="M 535.921875 485.027344 L 490.671875 440.113281 C 489.425781 438.878906 487.5625 438.515625 485.945312 439.1875 C 484.324219 439.863281 483.269531 441.441406 483.269531 443.195312 L 483.269531 466.960938 L 443.957031 466.960938 C 469.578125 448.355469 486.277344 418.171875 486.277344 384.152344 C 486.277344 327.753906 440.394531 281.871094 383.996094 281.871094 C 367.585938 281.871094 352.066406 285.761719 338.308594 292.660156 L 280.375 292.660156 C 277.980469 292.660156 276.035156 294.605469 276.035156 297.003906 L 276.035156 314.683594 L 241.289062 280.195312 L 276.035156 245.710938 L 276.035156 263.390625 C 276.035156 265.789062 277.980469 267.734375 280.375 267.734375 L 383.996094 267.734375 C 386.394531 267.734375 388.335938 265.789062 388.335938 263.390625 C 388.335938 260.992188 386.394531 259.050781 383.996094 259.050781 L 284.71875 259.050781 L 284.71875 235.285156 C 284.71875 233.53125 283.664062 231.949219 282.046875 231.277344 C 280.425781 230.601562 278.5625 230.964844 277.316406 232.203125 L 232.066406 277.117188 C 231.246094 277.929688 230.785156 279.039062 230.785156 280.195312 C 230.785156 281.355469 231.246094 282.464844 232.066406 283.277344 L 277.316406 328.191406 C 278.148438 329.015625 279.253906 329.453125 280.378906 329.453125 C 280.941406 329.453125 281.507812 329.34375 282.046875 329.117188 C 283.664062 328.445312 284.71875 326.863281 284.71875 325.109375 L 284.71875 301.34375 L 324.035156 301.34375 C 298.410156 319.949219 281.714844 350.136719 281.714844 384.152344 C 281.714844 440.550781 327.597656 486.433594 383.996094 486.433594 C 400.40625 486.433594 415.921875 482.542969 429.679688 475.644531 L 487.613281 475.644531 C 490.011719 475.644531 491.957031 473.699219 491.957031 471.304688 L 491.957031 453.625 L 526.699219 488.109375 L 491.957031 522.59375 L 491.957031 504.914062 C 491.957031 502.515625 490.011719 500.574219 487.613281 500.574219 L 383.996094 500.574219 C 381.597656 500.574219 379.652344 502.515625 379.652344 504.914062 C 379.652344 507.3125 381.597656 509.257812 383.996094 509.257812 L 483.269531 509.257812 L 483.269531 533.023438 C 483.269531 534.773438 484.324219 536.355469 485.945312 537.03125 C 486.484375 537.253906 487.050781 537.363281 487.613281 537.363281 C 488.734375 537.363281 489.84375 536.925781 490.671875 536.101562 L 535.921875 491.191406 C 536.742188 490.375 537.207031 489.265625 537.207031 488.109375 C 537.207031 486.953125 536.742188 485.84375 535.921875 485.027344 Z M 290.398438 384.152344 C 290.398438 332.542969 332.386719 290.554688 383.996094 290.554688 C 435.605469 290.554688 477.59375 332.542969 477.59375 384.152344 C 477.59375 435.761719 435.605469 477.75 383.996094 477.75 C 332.386719 477.75 290.398438 435.761719 290.398438 384.152344 Z M 383.996094 305.988281 C 340.894531 305.988281 305.828125 341.050781 305.828125 384.152344 C 305.828125 427.253906 340.894531 462.320312 383.996094 462.320312 C 427.09375 462.320312 462.160156 427.253906 462.160156 384.152344 C 462.160156 341.050781 427.09375 305.988281 383.996094 305.988281 Z M 383.996094 453.636719 C 345.683594 453.636719 314.511719 422.464844 314.511719 384.152344 C 314.511719 345.839844 345.683594 314.671875 383.996094 314.671875 C 422.308594 314.671875 453.476562 345.839844 453.476562 384.152344 C 453.476562 422.464844 422.308594 453.636719 383.996094 453.636719 Z M 408.183594 402.203125 C 408.183594 412.992188 399.652344 421.996094 388.421875 423.898438 L 388.570312 430.09375 C 388.628906 432.492188 386.730469 434.484375 384.335938 434.542969 C 384.300781 434.542969 384.261719 434.542969 384.226562 434.542969 C 381.878906 434.542969 379.945312 432.667969 379.890625 430.304688 L 379.734375 423.972656 C 372.894531 422.960938 368.6875 419.507812 364.410156 415.464844 C 362.664062 413.820312 362.585938 411.074219 364.230469 409.328125 C 365.875 407.585938 368.621094 407.503906 370.367188 409.148438 C 375.175781 413.6875 378.132812 415.585938 383.996094 415.585938 C 392.542969 415.585938 399.5 409.582031 399.5 402.203125 C 399.5 394.824219 392.542969 388.820312 383.996094 388.820312 C 370.65625 388.820312 359.804688 378.921875 359.804688 366.753906 C 359.804688 355.964844 368.34375 346.957031 379.582031 345.058594 L 379.417969 338.210938 C 379.359375 335.8125 381.257812 333.824219 383.65625 333.765625 C 386.050781 333.691406 388.042969 335.605469 388.101562 338.003906 L 388.273438 345.1875 C 394.292969 346.429688 402.007812 349.929688 405.230469 354.835938 C 406.546875 356.839844 405.992188 359.53125 403.988281 360.851562 C 401.984375 362.167969 399.292969 361.609375 397.972656 359.605469 C 395.996094 356.597656 388.078125 353.375 383.996094 353.375 C 375.445312 353.375 368.488281 359.375 368.488281 366.753906 C 368.488281 374.132812 375.445312 380.136719 383.996094 380.136719 C 397.332031 380.136719 408.183594 390.035156 408.183594 402.203125 Z M 408.183594 402.203125 " fill-opacity="1" fill-rule="nonzero"/></g></svg>