<svg xmlns="http://www.w3.org/2000/svg" xmlns:xlink="http://www.w3.org/1999/xlink" width="1024" zoomAndPan="magnify" viewBox="0 0 768 767.999994" height="1024" preserveAspectRatio="xMidYMid meet" version="1.0"><defs><clipPath id="60b4f99386"><path d="M 14.828125 0 L 753.171875 0 L 753.171875 768 L 14.828125 768 Z M 14.828125 0 " clip-rule="nonzero"/></clipPath><clipPath id="f7af6f6010"><path d="M 617.417969 768 L 150.582031 768 C 75.777344 768 14.828125 707.046875 14.828125 632.242188 L 14.828125 135.757812 C 14.828125 60.953125 75.777344 0 150.582031 0 L 617.417969 0 C 692.222656 0 753.171875 60.953125 753.171875 135.757812 L 753.171875 632.242188 C 753.171875 707.046875 692.222656 768 617.417969 768 Z M 617.417969 768 " clip-rule="nonzero"/></clipPath><clipPath id="b240f3115a"><path d="M 257.664062 231 L 510.414062 231 L 510.414062 537.898438 L 257.664062 537.898438 Z M 257.664062 231 " clip-rule="nonzero"/></clipPath></defs><g clip-path="url(#60b4f99386)"><g clip-path="url(#f7af6f6010)"><path fill="#f9bb13" d="M 14.828125 0 L 753.171875 0 L 753.171875 767.1875 L 14.828125 767.1875 Z M 14.828125 0 " fill-opacity="1" fill-rule="nonzero"/></g></g><g clip-path="url(#b240f3115a)"><path fill="#ffffff" d="M 288.652344 537.574219 L 469.808594 537.574219 C 486.835938 537.574219 500.796875 523.613281 500.796875 506.585938 L 500.796875 482.75 C 506.585938 478.664062 510.332031 471.851562 510.332031 464.359375 L 510.332031 440.523438 C 510.332031 433.03125 506.585938 426.222656 500.796875 422.136719 L 500.796875 364.246094 C 500.796875 361.183594 500.457031 358.117188 499.433594 355.054688 C 497.390625 343.816406 488.539062 335.304688 477.300781 333.941406 C 474.917969 333.257812 472.535156 332.917969 469.808594 332.917969 L 465.382812 332.917969 L 489.902344 314.191406 C 492.285156 312.488281 492.625 309.082031 490.921875 307.039062 L 435.078125 233.144531 C 433.375 230.761719 429.96875 230.421875 427.925781 232.125 L 294.441406 333.257812 L 288.652344 333.257812 C 286.269531 333.257812 283.542969 333.601562 281.160156 334.28125 C 269.921875 335.644531 260.730469 344.15625 259.027344 355.394531 C 258.003906 358.117188 257.664062 361.183594 257.664062 364.246094 L 257.664062 506.585938 C 257.664062 523.613281 271.625 537.574219 288.652344 537.574219 Z M 488.199219 506.585938 C 488.199219 516.800781 480.027344 524.972656 469.808594 524.972656 L 288.652344 524.972656 C 278.4375 524.972656 270.261719 516.800781 270.261719 506.585938 L 270.261719 380.933594 C 274.347656 383.316406 278.777344 385.019531 283.882812 385.019531 L 474.238281 385.019531 C 479.34375 385.019531 484.113281 383.65625 487.859375 380.933594 L 487.859375 418.050781 C 487.859375 418.050781 487.515625 418.050781 487.515625 418.050781 L 427.585938 418.050781 C 408.515625 418.050781 393.191406 433.375 393.191406 452.441406 C 393.191406 471.511719 408.515625 486.835938 427.585938 486.835938 L 487.859375 486.835938 C 487.859375 486.835938 488.199219 486.835938 488.199219 486.835938 Z M 499.433594 440.523438 L 499.433594 464.359375 C 499.433594 470.492188 494.328125 475.597656 488.199219 475.597656 L 427.585938 475.597656 C 414.644531 475.597656 404.429688 465.042969 404.429688 452.441406 C 404.429688 439.503906 414.984375 429.289062 427.585938 429.289062 L 487.859375 429.289062 C 494.328125 429.289062 499.433594 434.394531 499.433594 440.523438 Z M 429.96875 243.703125 L 479.683594 309.421875 L 448.015625 333.257812 C 448.015625 333.257812 447.675781 333.601562 447.675781 333.601562 L 420.433594 354.371094 L 394.554688 354.371094 C 399.320312 353.691406 403.75 351.988281 407.835938 348.921875 C 414.304688 344.15625 418.050781 338.027344 419.414062 330.195312 C 420.773438 322.363281 419.070312 315.210938 414.304688 308.742188 C 409.539062 302.273438 403.40625 298.527344 395.574219 297.164062 C 387.742188 295.800781 380.59375 297.503906 374.121094 302.273438 C 367.652344 307.039062 363.90625 313.167969 362.546875 321 C 361.183594 328.832031 362.886719 335.984375 367.652344 342.453125 C 372.421875 348.925781 378.550781 352.667969 386.382812 354.03125 C 386.722656 354.03125 387.0625 354.03125 387.402344 354.03125 L 333.941406 354.03125 L 324.746094 342.113281 L 337.6875 332.238281 L 332.578125 325.429688 L 312.488281 340.410156 L 322.703125 354.03125 L 309.082031 354.03125 C 309.082031 353.691406 309.082031 353.691406 309.082031 353.351562 C 309.082031 351.988281 308.742188 350.96875 308.0625 349.945312 L 301.25 340.75 Z M 387.742188 345.519531 C 382.296875 344.496094 377.867188 342.113281 374.464844 337.347656 C 371.058594 332.917969 370.035156 327.8125 370.71875 322.363281 C 371.738281 316.914062 374.121094 312.488281 378.890625 309.082031 C 382.636719 306.359375 386.382812 305.335938 390.46875 305.335938 C 391.488281 305.335938 392.851562 305.335938 393.875 305.675781 C 399.320312 306.699219 403.75 309.082031 407.152344 313.851562 C 410.558594 318.277344 411.582031 323.382812 410.898438 328.832031 C 409.878906 334.28125 407.492188 338.707031 402.726562 342.113281 C 398.300781 345.179688 393.191406 346.539062 387.742188 345.519531 Z M 284.226562 345.179688 L 291.714844 345.179688 L 298.527344 354.371094 L 288.3125 354.371094 C 285.585938 354.371094 283.203125 356.753906 283.203125 359.480469 C 283.203125 362.203125 285.585938 364.585938 288.3125 364.585938 L 469.808594 364.585938 C 472.535156 364.585938 474.917969 362.203125 474.917969 359.480469 C 474.917969 356.753906 472.535156 354.371094 469.808594 354.371094 L 437.121094 354.371094 L 449.039062 345.179688 L 473.894531 345.179688 C 481.726562 345.179688 488.199219 351.648438 488.199219 359.480469 C 488.199219 367.3125 481.726562 373.78125 473.894531 373.78125 L 284.226562 373.78125 C 276.394531 373.78125 269.921875 367.3125 269.921875 359.480469 C 269.921875 351.648438 276.394531 345.179688 284.226562 345.179688 Z M 284.226562 345.179688 " fill-opacity="1" fill-rule="nonzero"/></g><path fill="#ffffff" d="M 429.289062 435.757812 C 420.09375 435.757812 412.601562 443.25 412.601562 452.441406 C 412.601562 461.636719 420.09375 469.128906 429.289062 469.128906 C 438.480469 469.128906 445.972656 461.636719 445.972656 452.441406 C 445.972656 443.25 438.480469 435.757812 429.289062 435.757812 Z M 429.289062 460.617188 C 424.859375 460.617188 421.113281 456.871094 421.113281 452.441406 C 421.113281 448.015625 424.859375 444.269531 429.289062 444.269531 C 433.714844 444.269531 437.460938 448.015625 437.460938 452.441406 C 437.460938 456.871094 434.054688 460.617188 429.289062 460.617188 Z M 429.289062 460.617188 " fill-opacity="1" fill-rule="nonzero"/><path fill="#ffffff" d="M 424.859375 266.175781 L 434.734375 279.117188 L 441.546875 273.667969 L 426.5625 254.257812 L 406.8125 269.242188 L 411.921875 276.050781 Z M 424.859375 266.175781 " fill-opacity="1" fill-rule="nonzero"/><path fill="#ffffff" d="M 448.699219 324.746094 L 468.449219 309.421875 L 453.804688 290.011719 L 446.996094 295.121094 L 456.53125 308.0625 L 443.589844 317.9375 Z M 448.699219 324.746094 " fill-opacity="1" fill-rule="nonzero"/></svg>