<svg xmlns="http://www.w3.org/2000/svg" xmlns:xlink="http://www.w3.org/1999/xlink" width="1024" zoomAndPan="magnify" viewBox="0 0 768 767.999994" height="1024" preserveAspectRatio="xMidYMid meet" version="1.0"><defs><clipPath id="18914aa3d1"><path d="M 14.828125 0 L 753.171875 0 L 753.171875 768 L 14.828125 768 Z M 14.828125 0 " clip-rule="nonzero"/></clipPath><clipPath id="38ac540e3d"><path d="M 617.417969 768 L 150.582031 768 C 75.777344 768 14.828125 707.046875 14.828125 632.242188 L 14.828125 135.757812 C 14.828125 60.953125 75.777344 0 150.582031 0 L 617.417969 0 C 692.222656 0 753.171875 60.953125 753.171875 135.757812 L 753.171875 632.242188 C 753.171875 707.046875 692.222656 768 617.417969 768 Z M 617.417969 768 " clip-rule="nonzero"/></clipPath><clipPath id="37116e6eab"><path d="M 230.398438 407 L 346 407 L 346 523.050781 L 230.398438 523.050781 Z M 230.398438 407 " clip-rule="nonzero"/></clipPath><clipPath id="938f1cb4e1"><path d="M 297 244.800781 L 461 244.800781 L 461 284 L 297 284 Z M 297 244.800781 " clip-rule="nonzero"/></clipPath><clipPath id="5826eb4f65"><path d="M 455 345 L 537.898438 345 L 537.898438 413 L 455 413 Z M 455 345 " clip-rule="nonzero"/></clipPath></defs><g clip-path="url(#18914aa3d1)"><g clip-path="url(#38ac540e3d)"><path fill="#f9bb13" d="M 14.828125 0 L 753.171875 0 L 753.171875 767.1875 L 14.828125 767.1875 Z M 14.828125 0 " fill-opacity="1" fill-rule="nonzero"/></g></g><g clip-path="url(#37116e6eab)"><path fill="#ffffff" d="M 288 407.996094 C 286.113281 407.996094 284.234375 408.085938 282.355469 408.273438 C 280.476562 408.457031 278.613281 408.734375 276.765625 409.101562 C 274.914062 409.46875 273.085938 409.925781 271.28125 410.476562 C 269.476562 411.023438 267.703125 411.65625 265.960938 412.378906 C 264.214844 413.101562 262.511719 413.90625 260.847656 414.796875 C 259.1875 415.683594 257.570312 416.652344 256 417.703125 C 254.433594 418.75 252.917969 419.871094 251.460938 421.070312 C 250.003906 422.265625 248.605469 423.53125 247.273438 424.863281 C 245.9375 426.199219 244.671875 427.59375 243.476562 429.050781 C 242.28125 430.511719 241.15625 432.023438 240.109375 433.59375 C 239.0625 435.160156 238.09375 436.777344 237.203125 438.441406 C 236.316406 440.105469 235.507812 441.808594 234.789062 443.550781 C 234.066406 445.292969 233.429688 447.066406 232.882812 448.871094 C 232.335938 450.679688 231.878906 452.503906 231.507812 454.355469 C 231.140625 456.207031 230.863281 458.070312 230.679688 459.945312 C 230.496094 461.824219 230.402344 463.707031 230.402344 465.59375 C 230.402344 467.480469 230.496094 469.359375 230.679688 471.238281 C 230.863281 473.117188 231.140625 474.980469 231.507812 476.828125 C 231.878906 478.679688 232.335938 480.507812 232.882812 482.3125 C 233.429688 484.117188 234.066406 485.890625 234.789062 487.632812 C 235.507812 489.378906 236.316406 491.082031 237.203125 492.742188 C 238.09375 494.40625 239.0625 496.023438 240.109375 497.59375 C 241.15625 499.160156 242.28125 500.675781 243.476562 502.132812 C 244.671875 503.589844 245.9375 504.988281 247.273438 506.320312 C 248.605469 507.65625 250.003906 508.917969 251.460938 510.117188 C 252.917969 511.3125 254.433594 512.4375 256 513.484375 C 257.570312 514.53125 259.1875 515.5 260.847656 516.390625 C 262.511719 517.277344 264.214844 518.085938 265.960938 518.804688 C 267.703125 519.527344 269.476562 520.164062 271.28125 520.710938 C 273.085938 521.257812 274.914062 521.714844 276.765625 522.082031 C 278.613281 522.453125 280.476562 522.726562 282.355469 522.914062 C 284.234375 523.097656 286.113281 523.191406 288 523.191406 C 289.886719 523.191406 291.769531 523.097656 293.648438 522.914062 C 295.523438 522.726562 297.386719 522.453125 299.238281 522.082031 C 301.085938 521.714844 302.914062 521.257812 304.722656 520.710938 C 306.527344 520.164062 308.300781 519.527344 310.042969 518.804688 C 311.785156 518.085938 313.488281 517.277344 315.152344 516.390625 C 316.816406 515.5 318.433594 514.53125 320 513.484375 C 321.570312 512.4375 323.082031 511.3125 324.539062 510.117188 C 326 508.917969 327.394531 507.65625 328.730469 506.320312 C 330.0625 504.988281 331.328125 503.589844 332.523438 502.132812 C 333.722656 500.675781 334.84375 499.160156 335.890625 497.59375 C 336.941406 496.023438 337.910156 494.40625 338.796875 492.742188 C 339.6875 491.082031 340.492188 489.378906 341.214844 487.632812 C 341.9375 485.890625 342.570312 484.117188 343.117188 482.3125 C 343.667969 480.507812 344.125 478.679688 344.492188 476.828125 C 344.859375 474.980469 345.136719 473.117188 345.320312 471.238281 C 345.507812 469.359375 345.597656 467.480469 345.597656 465.59375 C 345.597656 463.707031 345.503906 461.824219 345.316406 459.949219 C 345.132812 458.070312 344.855469 456.207031 344.484375 454.359375 C 344.117188 452.507812 343.65625 450.683594 343.109375 448.878906 C 342.558594 447.074219 341.925781 445.300781 341.203125 443.558594 C 340.480469 441.816406 339.675781 440.113281 338.785156 438.449219 C 337.894531 436.785156 336.925781 435.171875 335.878906 433.605469 C 334.828125 432.035156 333.707031 430.523438 332.511719 429.066406 C 331.3125 427.605469 330.050781 426.210938 328.714844 424.878906 C 327.382812 423.542969 325.984375 422.277344 324.527344 421.082031 C 323.070312 419.886719 321.558594 418.765625 319.988281 417.714844 C 318.421875 416.667969 316.804688 415.699219 315.144531 414.808594 C 313.480469 413.917969 311.777344 413.113281 310.035156 412.390625 C 308.292969 411.667969 306.519531 411.035156 304.714844 410.484375 C 302.910156 409.9375 301.085938 409.476562 299.234375 409.109375 C 297.386719 408.738281 295.523438 408.460938 293.644531 408.277344 C 291.769531 408.089844 289.886719 407.996094 288 407.996094 Z M 315.601562 459.160156 C 315.15625 459.625 314.636719 459.980469 314.042969 460.230469 C 313.453125 460.480469 312.835938 460.605469 312.191406 460.601562 C 310.882812 460.59375 309.761719 460.128906 308.832031 459.207031 L 292.800781 443.417969 L 292.800781 499.191406 C 292.800781 499.507812 292.769531 499.820312 292.707031 500.128906 C 292.648438 500.4375 292.554688 500.738281 292.433594 501.027344 C 292.316406 501.320312 292.167969 501.597656 291.992188 501.859375 C 291.816406 502.121094 291.617188 502.363281 291.394531 502.585938 C 291.171875 502.808594 290.929688 503.007812 290.667969 503.183594 C 290.40625 503.355469 290.128906 503.503906 289.835938 503.625 C 289.546875 503.746094 289.246094 503.835938 288.9375 503.898438 C 288.628906 503.960938 288.316406 503.992188 288 503.992188 C 287.6875 503.992188 287.375 503.960938 287.066406 503.898438 C 286.753906 503.835938 286.457031 503.746094 286.164062 503.625 C 285.871094 503.503906 285.597656 503.355469 285.335938 503.183594 C 285.070312 503.007812 284.828125 502.808594 284.605469 502.585938 C 284.382812 502.363281 284.183594 502.121094 284.011719 501.859375 C 283.835938 501.597656 283.6875 501.320312 283.566406 501.027344 C 283.445312 500.738281 283.355469 500.4375 283.292969 500.128906 C 283.230469 499.820312 283.199219 499.507812 283.199219 499.191406 L 283.199219 443.417969 L 267.167969 459.207031 C 266.945312 459.429688 266.703125 459.625 266.441406 459.796875 C 266.175781 459.972656 265.902344 460.117188 265.609375 460.234375 C 265.320312 460.351562 265.019531 460.441406 264.710938 460.5 C 264.402344 460.558594 264.089844 460.589844 263.777344 460.585938 C 263.460938 460.585938 263.152344 460.550781 262.84375 460.488281 C 262.535156 460.425781 262.238281 460.332031 261.945312 460.210938 C 261.65625 460.085938 261.382812 459.9375 261.121094 459.761719 C 260.863281 459.585938 260.621094 459.382812 260.402344 459.160156 C 260.179688 458.9375 259.984375 458.695312 259.8125 458.429688 C 259.640625 458.167969 259.492188 457.890625 259.375 457.601562 C 259.257812 457.308594 259.167969 457.011719 259.109375 456.699219 C 259.050781 456.390625 259.023438 456.082031 259.023438 455.765625 C 259.027344 455.453125 259.058594 455.140625 259.121094 454.832031 C 259.1875 454.527344 259.277344 454.226562 259.402344 453.9375 C 259.523438 453.648438 259.671875 453.375 259.847656 453.113281 C 260.027344 452.855469 260.226562 452.613281 260.449219 452.394531 L 284.640625 428.585938 C 284.859375 428.363281 285.101562 428.164062 285.359375 427.988281 C 285.617188 427.816406 285.890625 427.667969 286.179688 427.546875 C 286.46875 427.425781 286.765625 427.335938 287.074219 427.273438 C 287.378906 427.210938 287.6875 427.183594 288 427.183594 C 288.3125 427.183594 288.621094 427.210938 288.929688 427.273438 C 289.234375 427.335938 289.535156 427.425781 289.820312 427.546875 C 290.109375 427.667969 290.382812 427.816406 290.644531 427.988281 C 290.902344 428.164062 291.140625 428.363281 291.359375 428.585938 L 315.550781 452.394531 C 315.777344 452.613281 315.976562 452.855469 316.152344 453.113281 C 316.328125 453.375 316.480469 453.648438 316.601562 453.9375 C 316.726562 454.226562 316.816406 454.527344 316.882812 454.832031 C 316.945312 455.140625 316.976562 455.453125 316.980469 455.765625 C 316.980469 456.082031 316.953125 456.394531 316.894531 456.703125 C 316.835938 457.011719 316.746094 457.308594 316.628906 457.601562 C 316.507812 457.890625 316.363281 458.167969 316.191406 458.433594 C 316.019531 458.695312 315.820312 458.9375 315.601562 459.160156 Z M 315.601562 459.160156 " fill-opacity="1" fill-rule="nonzero"/></g><path fill="#ffffff" d="M 446.394531 379.195312 C 446.398438 377.78125 446.46875 376.371094 446.609375 374.964844 C 446.75 373.554688 446.957031 372.160156 447.238281 370.773438 C 447.515625 369.386719 447.859375 368.015625 448.269531 366.664062 C 448.683594 365.308594 449.160156 363.980469 449.703125 362.675781 C 450.242188 361.367188 450.847656 360.089844 451.515625 358.84375 C 452.183594 357.597656 452.910156 356.386719 453.695312 355.210938 C 454.480469 354.035156 455.324219 352.902344 456.222656 351.808594 C 457.117188 350.714844 458.066406 349.667969 459.066406 348.667969 C 460.066406 347.667969 461.113281 346.71875 462.207031 345.824219 C 463.300781 344.925781 464.433594 344.082031 465.609375 343.296875 C 466.785156 342.511719 467.996094 341.785156 469.242188 341.117188 C 470.488281 340.449219 471.765625 339.84375 473.074219 339.300781 C 474.378906 338.761719 475.707031 338.285156 477.0625 337.871094 C 478.414062 337.460938 479.785156 337.113281 481.171875 336.835938 C 482.558594 336.558594 483.953125 336.351562 485.363281 336.210938 C 486.769531 336.070312 488.179688 336 489.59375 335.996094 L 513.59375 335.996094 L 513.59375 311.996094 C 513.59375 311.367188 513.5625 310.742188 513.5 310.117188 C 513.441406 309.488281 513.347656 308.867188 513.226562 308.25 C 513.101562 307.636719 512.949219 307.027344 512.769531 306.425781 C 512.585938 305.820312 512.375 305.230469 512.132812 304.648438 C 511.894531 304.070312 511.625 303.5 511.328125 302.945312 C 511.03125 302.390625 510.707031 301.851562 510.359375 301.328125 C 510.011719 300.808594 509.636719 300.300781 509.238281 299.816406 C 508.839844 299.332031 508.417969 298.863281 507.972656 298.421875 C 507.527344 297.976562 507.0625 297.554688 506.574219 297.15625 C 506.089844 296.753906 505.585938 296.382812 505.0625 296.03125 C 504.539062 295.683594 504 295.359375 503.445312 295.0625 C 502.890625 294.765625 502.324219 294.5 501.742188 294.257812 C 501.160156 294.019531 500.570312 293.804688 499.96875 293.625 C 499.367188 293.441406 498.757812 293.289062 498.140625 293.167969 C 497.523438 293.042969 496.902344 292.953125 496.277344 292.890625 C 495.648438 292.828125 495.023438 292.796875 494.394531 292.796875 L 316.800781 292.796875 C 315.855469 292.796875 314.917969 292.75 313.976562 292.65625 C 313.039062 292.566406 312.109375 292.425781 311.183594 292.242188 C 310.257812 292.058594 309.34375 291.828125 308.441406 291.554688 C 307.539062 291.277344 306.652344 290.960938 305.78125 290.601562 C 304.910156 290.238281 304.058594 289.835938 303.230469 289.390625 C 302.398438 288.945312 301.589844 288.460938 300.804688 287.9375 C 300.019531 287.414062 299.265625 286.851562 298.535156 286.253906 C 297.808594 285.65625 297.109375 285.023438 296.441406 284.355469 C 295.777344 283.691406 295.144531 282.992188 294.546875 282.261719 C 293.945312 281.535156 293.386719 280.777344 292.863281 279.992188 C 292.335938 279.210938 291.851562 278.402344 291.40625 277.570312 C 290.964844 276.738281 290.558594 275.886719 290.199219 275.015625 C 289.839844 274.144531 289.519531 273.257812 289.246094 272.355469 C 288.972656 271.453125 288.742188 270.539062 288.558594 269.617188 C 288.375 268.691406 288.234375 267.761719 288.140625 266.820312 C 288.046875 265.882812 288 264.941406 288 264 L 288 398.394531 C 289.101562 398.394531 290.199219 398.425781 291.296875 398.480469 C 292.394531 398.535156 293.492188 398.617188 294.585938 398.726562 C 295.679688 398.832031 296.769531 398.96875 297.855469 399.132812 C 298.945312 399.292969 300.027344 399.484375 301.105469 399.699219 C 302.183594 399.914062 303.253906 400.15625 304.320312 400.421875 C 305.386719 400.691406 306.449219 400.984375 307.5 401.304688 C 308.550781 401.625 309.59375 401.96875 310.628906 402.339844 C 311.664062 402.710938 312.6875 403.109375 313.703125 403.53125 C 314.71875 403.949219 315.726562 404.398438 316.71875 404.867188 C 317.710938 405.339844 318.695312 405.832031 319.664062 406.351562 C 320.632812 406.871094 321.589844 407.410156 322.53125 407.976562 C 323.472656 408.542969 324.402344 409.132812 325.316406 409.742188 C 326.230469 410.351562 327.128906 410.988281 328.011719 411.640625 C 328.894531 412.296875 329.761719 412.972656 330.609375 413.671875 C 331.460938 414.367188 332.292969 415.085938 333.105469 415.824219 C 333.921875 416.5625 334.71875 417.320312 335.496094 418.097656 C 336.273438 418.875 337.03125 419.671875 337.769531 420.484375 C 338.507812 421.300781 339.226562 422.132812 339.921875 422.984375 C 340.621094 423.832031 341.296875 424.699219 341.953125 425.582031 C 342.605469 426.464844 343.238281 427.363281 343.851562 428.277344 C 344.460938 429.191406 345.050781 430.121094 345.617188 431.0625 C 346.179688 432.003906 346.722656 432.960938 347.242188 433.929688 C 347.761719 434.898438 348.253906 435.882812 348.726562 436.875 C 349.195312 437.867188 349.640625 438.875 350.0625 439.886719 C 350.484375 440.902344 350.882812 441.929688 351.253906 442.964844 C 351.625 444 351.96875 445.042969 352.289062 446.09375 C 352.609375 447.144531 352.902344 448.207031 353.171875 449.269531 C 353.4375 450.335938 353.679688 451.410156 353.894531 452.488281 C 354.109375 453.566406 354.300781 454.648438 354.460938 455.734375 C 354.625 456.824219 354.757812 457.914062 354.867188 459.007812 C 354.976562 460.101562 355.058594 461.199219 355.113281 462.296875 C 355.167969 463.394531 355.199219 464.492188 355.199219 465.59375 L 494.394531 465.59375 C 495.023438 465.59375 495.648438 465.5625 496.277344 465.5 C 496.902344 465.4375 497.523438 465.347656 498.140625 465.222656 C 498.757812 465.101562 499.367188 464.949219 499.96875 464.765625 C 500.570312 464.585938 501.160156 464.375 501.742188 464.132812 C 502.324219 463.890625 502.890625 463.625 503.445312 463.328125 C 504 463.03125 504.539062 462.707031 505.0625 462.359375 C 505.585938 462.007812 506.089844 461.636719 506.574219 461.234375 C 507.0625 460.835938 507.527344 460.414062 507.972656 459.972656 C 508.417969 459.527344 508.839844 459.0625 509.238281 458.574219 C 509.636719 458.089844 510.011719 457.582031 510.359375 457.0625 C 510.707031 456.539062 511.03125 456 511.328125 455.445312 C 511.625 454.890625 511.894531 454.324219 512.132812 453.742188 C 512.375 453.160156 512.585938 452.570312 512.769531 451.96875 C 512.949219 451.367188 513.101562 450.757812 513.226562 450.140625 C 513.347656 449.523438 513.441406 448.902344 513.5 448.273438 C 513.5625 447.648438 513.59375 447.023438 513.59375 446.394531 L 513.59375 422.394531 L 489.59375 422.394531 C 488.179688 422.390625 486.769531 422.320312 485.363281 422.179688 C 483.953125 422.039062 482.558594 421.832031 481.171875 421.554688 C 479.785156 421.277344 478.414062 420.929688 477.0625 420.519531 C 475.707031 420.109375 474.378906 419.628906 473.074219 419.089844 C 471.765625 418.546875 470.488281 417.941406 469.242188 417.273438 C 467.996094 416.605469 466.785156 415.878906 465.609375 415.09375 C 464.433594 414.308594 463.300781 413.464844 462.207031 412.570312 C 461.113281 411.671875 460.066406 410.722656 459.066406 409.722656 C 458.066406 408.722656 457.117188 407.675781 456.222656 406.582031 C 455.324219 405.488281 454.480469 404.355469 453.695312 403.179688 C 452.910156 402.003906 452.183594 400.792969 451.515625 399.546875 C 450.847656 398.300781 450.242188 397.023438 449.703125 395.714844 C 449.160156 394.410156 448.683594 393.082031 448.269531 391.726562 C 447.859375 390.375 447.515625 389.003906 447.238281 387.617188 C 446.957031 386.230469 446.75 384.835938 446.609375 383.425781 C 446.46875 382.019531 446.398438 380.609375 446.394531 379.195312 Z M 446.394531 379.195312 " fill-opacity="1" fill-rule="nonzero"/><g clip-path="url(#938f1cb4e1)"><path fill="#ffffff" d="M 316.800781 283.199219 L 460.796875 283.199219 L 460.796875 264 C 460.796875 263.371094 460.765625 262.742188 460.703125 262.117188 C 460.640625 261.492188 460.546875 260.871094 460.425781 260.253906 C 460.304688 259.636719 460.152344 259.027344 459.96875 258.425781 C 459.785156 257.824219 459.574219 257.234375 459.332031 256.652344 C 459.09375 256.070312 458.824219 255.503906 458.527344 254.949219 C 458.230469 254.394531 457.910156 253.855469 457.558594 253.332031 C 457.210938 252.808594 456.835938 252.304688 456.4375 251.820312 C 456.039062 251.332031 455.617188 250.867188 455.171875 250.421875 C 454.726562 249.980469 454.261719 249.558594 453.777344 249.15625 C 453.289062 248.757812 452.785156 248.386719 452.261719 248.035156 C 451.738281 247.6875 451.199219 247.363281 450.644531 247.066406 C 450.089844 246.769531 449.523438 246.503906 448.941406 246.261719 C 448.363281 246.019531 447.769531 245.808594 447.167969 245.625 C 446.566406 245.445312 445.957031 245.292969 445.339844 245.167969 C 444.722656 245.046875 444.101562 244.953125 443.476562 244.890625 C 442.851562 244.832031 442.222656 244.800781 441.597656 244.800781 L 316.800781 244.800781 C 316.171875 244.800781 315.542969 244.832031 314.917969 244.890625 C 314.292969 244.953125 313.671875 245.046875 313.054688 245.167969 C 312.4375 245.292969 311.828125 245.445312 311.226562 245.625 C 310.625 245.808594 310.035156 246.019531 309.453125 246.261719 C 308.871094 246.503906 308.304688 246.769531 307.75 247.066406 C 307.195312 247.363281 306.65625 247.6875 306.132812 248.035156 C 305.609375 248.386719 305.105469 248.757812 304.621094 249.15625 C 304.132812 249.558594 303.667969 249.980469 303.222656 250.421875 C 302.777344 250.867188 302.359375 251.332031 301.957031 251.820312 C 301.558594 252.304688 301.1875 252.808594 300.835938 253.332031 C 300.488281 253.855469 300.164062 254.394531 299.867188 254.949219 C 299.570312 255.503906 299.300781 256.070312 299.0625 256.652344 C 298.820312 257.234375 298.609375 257.824219 298.425781 258.425781 C 298.246094 259.027344 298.09375 259.636719 297.96875 260.253906 C 297.847656 260.871094 297.753906 261.492188 297.691406 262.117188 C 297.632812 262.742188 297.601562 263.371094 297.601562 264 C 297.601562 264.628906 297.632812 265.253906 297.691406 265.882812 C 297.753906 266.507812 297.847656 267.128906 297.96875 267.746094 C 298.09375 268.363281 298.246094 268.972656 298.425781 269.574219 C 298.609375 270.175781 298.820312 270.765625 299.0625 271.347656 C 299.300781 271.925781 299.570312 272.496094 299.867188 273.050781 C 300.164062 273.605469 300.488281 274.144531 300.835938 274.664062 C 301.1875 275.1875 301.558594 275.691406 301.957031 276.179688 C 302.359375 276.664062 302.777344 277.128906 303.222656 277.574219 C 303.667969 278.019531 304.132812 278.441406 304.621094 278.839844 C 305.105469 279.238281 305.609375 279.613281 306.132812 279.964844 C 306.65625 280.3125 307.195312 280.636719 307.75 280.933594 C 308.304688 281.226562 308.871094 281.496094 309.453125 281.738281 C 310.035156 281.976562 310.625 282.191406 311.226562 282.371094 C 311.828125 282.554688 312.4375 282.707031 313.054688 282.828125 C 313.671875 282.953125 314.292969 283.042969 314.917969 283.105469 C 315.542969 283.167969 316.171875 283.199219 316.800781 283.199219 Z M 316.800781 283.199219 " fill-opacity="1" fill-rule="nonzero"/></g><path fill="#ffffff" d="M 494.394531 379.195312 C 494.394531 379.511719 494.363281 379.824219 494.300781 380.132812 C 494.238281 380.441406 494.148438 380.742188 494.027344 381.03125 C 493.90625 381.324219 493.761719 381.601562 493.585938 381.863281 C 493.410156 382.125 493.210938 382.367188 492.988281 382.589844 C 492.765625 382.8125 492.523438 383.011719 492.261719 383.1875 C 492 383.363281 491.722656 383.507812 491.429688 383.628906 C 491.140625 383.75 490.839844 383.839844 490.53125 383.902344 C 490.222656 383.964844 489.910156 383.996094 489.59375 383.996094 C 489.277344 383.996094 488.964844 383.964844 488.65625 383.902344 C 488.347656 383.839844 488.046875 383.75 487.757812 383.628906 C 487.464844 383.507812 487.191406 383.363281 486.925781 383.1875 C 486.664062 383.011719 486.421875 382.8125 486.199219 382.589844 C 485.976562 382.367188 485.777344 382.125 485.601562 381.863281 C 485.429688 381.601562 485.28125 381.324219 485.160156 381.03125 C 485.039062 380.742188 484.949219 380.441406 484.886719 380.132812 C 484.824219 379.824219 484.792969 379.511719 484.792969 379.195312 C 484.792969 378.878906 484.824219 378.566406 484.886719 378.257812 C 484.949219 377.949219 485.039062 377.648438 485.160156 377.359375 C 485.28125 377.066406 485.429688 376.789062 485.601562 376.527344 C 485.777344 376.265625 485.976562 376.023438 486.199219 375.800781 C 486.421875 375.578125 486.664062 375.378906 486.925781 375.203125 C 487.191406 375.03125 487.464844 374.882812 487.757812 374.761719 C 488.046875 374.640625 488.347656 374.550781 488.65625 374.488281 C 488.964844 374.425781 489.277344 374.394531 489.59375 374.394531 C 489.910156 374.394531 490.222656 374.425781 490.53125 374.488281 C 490.839844 374.550781 491.140625 374.640625 491.429688 374.761719 C 491.722656 374.882812 492 375.03125 492.261719 375.203125 C 492.523438 375.378906 492.765625 375.578125 492.988281 375.800781 C 493.210938 376.023438 493.410156 376.265625 493.585938 376.527344 C 493.761719 376.789062 493.90625 377.066406 494.027344 377.359375 C 494.148438 377.648438 494.238281 377.949219 494.300781 378.257812 C 494.363281 378.566406 494.394531 378.878906 494.394531 379.195312 Z M 494.394531 379.195312 " fill-opacity="1" fill-rule="nonzero"/><g clip-path="url(#5826eb4f65)"><path fill="#ffffff" d="M 532.792969 345.597656 L 489.59375 345.597656 C 488.492188 345.597656 487.394531 345.652344 486.300781 345.757812 C 485.207031 345.867188 484.117188 346.027344 483.039062 346.242188 C 481.960938 346.457031 480.894531 346.722656 479.839844 347.042969 C 478.789062 347.363281 477.753906 347.734375 476.738281 348.152344 C 475.71875 348.574219 474.726562 349.046875 473.753906 349.5625 C 472.785156 350.082031 471.84375 350.648438 470.925781 351.257812 C 470.011719 351.871094 469.128906 352.523438 468.277344 353.222656 C 467.429688 353.921875 466.613281 354.660156 465.835938 355.4375 C 465.058594 356.214844 464.320312 357.03125 463.621094 357.878906 C 462.921875 358.730469 462.269531 359.613281 461.65625 360.527344 C 461.046875 361.445312 460.480469 362.386719 459.960938 363.355469 C 459.445312 364.328125 458.972656 365.320312 458.554688 366.335938 C 458.132812 367.355469 457.761719 368.390625 457.441406 369.441406 C 457.121094 370.496094 456.855469 371.5625 456.640625 372.640625 C 456.425781 373.71875 456.265625 374.808594 456.15625 375.902344 C 456.050781 376.996094 455.996094 378.09375 455.996094 379.195312 C 455.996094 380.296875 456.050781 381.394531 456.15625 382.488281 C 456.265625 383.582031 456.425781 384.671875 456.640625 385.75 C 456.855469 386.828125 457.121094 387.894531 457.441406 388.949219 C 457.761719 390 458.132812 391.035156 458.554688 392.054688 C 458.972656 393.070312 459.445312 394.0625 459.960938 395.035156 C 460.480469 396.003906 461.046875 396.945312 461.65625 397.863281 C 462.269531 398.777344 462.921875 399.660156 463.621094 400.511719 C 464.320312 401.359375 465.058594 402.175781 465.835938 402.953125 C 466.613281 403.730469 467.429688 404.46875 468.277344 405.167969 C 469.128906 405.867188 470.011719 406.519531 470.925781 407.132812 C 471.84375 407.742188 472.785156 408.308594 473.753906 408.828125 C 474.726562 409.347656 475.71875 409.816406 476.738281 410.238281 C 477.753906 410.65625 478.789062 411.027344 479.839844 411.347656 C 480.894531 411.667969 481.960938 411.933594 483.039062 412.148438 C 484.117188 412.363281 485.207031 412.523438 486.300781 412.632812 C 487.394531 412.742188 488.492188 412.792969 489.59375 412.792969 L 532.792969 412.792969 C 533.109375 412.792969 533.417969 412.761719 533.726562 412.699219 C 534.035156 412.636719 534.335938 412.546875 534.628906 412.425781 C 534.917969 412.304688 535.195312 412.15625 535.457031 411.980469 C 535.71875 411.804688 535.960938 411.605469 536.183594 411.382812 C 536.40625 411.160156 536.605469 410.917969 536.777344 410.65625 C 536.953125 410.394531 537.101562 410.121094 537.222656 409.828125 C 537.34375 409.539062 537.4375 409.238281 537.496094 408.929688 C 537.558594 408.621094 537.589844 408.308594 537.59375 407.996094 L 537.59375 350.394531 C 537.589844 350.082031 537.558594 349.769531 537.496094 349.460938 C 537.4375 349.152344 537.34375 348.851562 537.222656 348.5625 C 537.101562 348.269531 536.953125 347.996094 536.777344 347.734375 C 536.605469 347.472656 536.40625 347.230469 536.183594 347.007812 C 535.960938 346.785156 535.71875 346.585938 535.457031 346.410156 C 535.195312 346.234375 534.917969 346.085938 534.628906 345.964844 C 534.335938 345.84375 534.035156 345.753906 533.726562 345.691406 C 533.417969 345.628906 533.109375 345.597656 532.792969 345.597656 Z M 489.59375 393.59375 C 488.648438 393.59375 487.710938 393.503906 486.785156 393.316406 C 485.859375 393.132812 484.957031 392.859375 484.082031 392.5 C 483.210938 392.136719 482.378906 391.695312 481.59375 391.167969 C 480.808594 390.644531 480.082031 390.046875 479.410156 389.378906 C 478.742188 388.707031 478.148438 387.980469 477.621094 387.195312 C 477.097656 386.410156 476.652344 385.578125 476.289062 384.707031 C 475.929688 383.832031 475.65625 382.933594 475.472656 382.003906 C 475.285156 381.078125 475.195312 380.140625 475.195312 379.195312 C 475.195312 378.25 475.285156 377.3125 475.472656 376.386719 C 475.65625 375.457031 475.929688 374.558594 476.289062 373.683594 C 476.652344 372.8125 477.097656 371.980469 477.621094 371.195312 C 478.148438 370.410156 478.742188 369.683594 479.410156 369.011719 C 480.082031 368.34375 480.808594 367.746094 481.59375 367.222656 C 482.378906 366.699219 483.210938 366.253906 484.082031 365.890625 C 484.957031 365.53125 485.859375 365.257812 486.785156 365.074219 C 487.710938 364.886719 488.648438 364.796875 489.59375 364.796875 C 490.539062 364.796875 491.476562 364.886719 492.402344 365.074219 C 493.332031 365.257812 494.230469 365.53125 495.105469 365.890625 C 495.976562 366.253906 496.808594 366.699219 497.59375 367.222656 C 498.378906 367.746094 499.109375 368.34375 499.777344 369.011719 C 500.445312 369.683594 501.042969 370.410156 501.566406 371.195312 C 502.09375 371.980469 502.535156 372.8125 502.898438 373.683594 C 503.257812 374.558594 503.53125 375.457031 503.71875 376.386719 C 503.902344 377.3125 503.992188 378.25 503.992188 379.195312 C 503.992188 380.140625 503.894531 381.074219 503.710938 382 C 503.523438 382.929688 503.25 383.828125 502.886719 384.699219 C 502.523438 385.570312 502.078125 386.398438 501.554688 387.183594 C 501.027344 387.96875 500.433594 388.695312 499.765625 389.363281 C 499.097656 390.03125 498.371094 390.628906 497.585938 391.15625 C 496.800781 391.679688 495.96875 392.125 495.097656 392.488281 C 494.226562 392.851562 493.328125 393.125 492.398438 393.3125 C 491.472656 393.496094 490.539062 393.59375 489.59375 393.59375 Z M 489.59375 393.59375 " fill-opacity="1" fill-rule="nonzero"/></g></svg>